<svg version="1.1" id="Layer_1"
	xmlns="http://www.w3.org/2000/svg"
	xmlns:xlink="http://www.w3.org/1999/xlink" x="0px" y="0px" viewBox="0 0 390 390" style="enable-background:new 0 0 390 390;" xml:space="preserve">
	<style type="text/css">
	.st0{fill:#17C2EB;}
	.st1{fill:#005C98;}
	</style>
	<circle class="st0" cx="195" cy="195" r="195"/>
	<path class="st1" d="M387.9,340.2c-0.6,1.1-1.7,2-2.8,2.3c-34.7,6.5-70.3,10.2-105.6,11.1l-8.5,0.3c-10,0-20.2-0.3-30.2-1.4
	c-1.4,0-2.6-1.1-2.8-2.3l-6.8-14.5l-4.6,4.3c-1.4,1.1-3.4,1.4-4.8,0.3l-17.9-12c-1.7-0.9-2.3-2.8-1.7-4.6l2.8-8.5l-6.5-6l-17.4,1.1
	c-1.7,0-3.1-0.9-3.7-2.3c-5.7-10.2-18.8-12.8-19.1-12.8c-1.7-0.3-3.1-2-3.1-3.7v-10l-3.7-4.3c-0.9-0.9-1.1-2-0.9-3.1l2.3-15.4
	c-6-2.8-12.2-4.6-18.8-4.8c-1.1,0-2.3-0.6-2.8-1.4c-0.9-0.9-1.1-2-1.1-3.1l1.7-13.4c-4.8,0-9.4-2-12.5-5.7c-2.6-3.1-4-7.1-4-11.1
	l-3.4-2.6c-0.9-0.6-1.4-1.4-1.7-2.6c-0.3-0.9,0-2,0.6-2.8l5.4-7.1l-2.6-3.4c-1.4-1.4-1.1-4,0.3-5.1c0,0,0,0,0.3-0.3l11.4-9.4
	l2.8-24.2c-4.3-4.8-17.9-10.5-26.2-13.1c-0.9-0.3-1.4-0.9-2-1.7l-8-12.2c-1.1-1.4-0.9-3.4,0.3-4.6l6.8-7.7
	c-1.4-7.7-3.4-15.4-5.7-22.8c-4-13.1-9.7-27.6-23.9-30.2c-8-1.7-16.5,1.4-21.1,8.3c-0.9,1.1-2.3,1.7-3.7,1.7c-1.4,0-2.8-1.4-3.1-2.8
	L28.7,33c-0.6-1.4,0-2.8,0.9-4c1.1-0.9,2.6-1.1,4-0.9c84,26.5,238,29.6,239.4,29.9c2,0,3.7,1.7,3.7,3.7c0.3,0.6,1.4,38.4,2.8,77.1
	c1.4,38.4,2.8,77.7,3.1,81.4c0.6,7.4,4.3,8.8,7.7,12.2l2.6,2.8l0.9,0.6l2.6-1.1c0.3-0.6,0.9-1.1,1.7-1.1c2.3-0.6,4.6-0.3,6.5,1.1
	c6.3,4,9.4,17.4,10.2,22.8l23.3,12.8c0.6,0.3,1.1,0.9,1.4,1.4l12.5,21.6c4-0.6,10.5,0,19.9,6c4.8,3.1,6,9.1,6.8,15.1
	c0.3,1.7,0.6,3.4,1.1,5.1c1.7,6,4.6,11.4,7.7,16.8C388.2,337.6,388.5,339.1,387.9,340.2z"/>
</svg>
