<?xml version="1.0" encoding="utf-8"?>
<!-- Generator: Adobe Illustrator 26.0.2, SVG Export Plug-In . SVG Version: 6.00 Build 0)  -->
<svg version="1.1" id="Layer_1" xmlns="http://www.w3.org/2000/svg" xmlns:xlink="http://www.w3.org/1999/xlink" x="0px" y="0px"
	 viewBox="0 0 469.7 116.4" style="enable-background:new 0 0 469.7 116.4;" xml:space="preserve">
<style type="text/css">
	.st0{fill:#FFFFFF;}
</style>
<g>
	<rect x="138" y="13.5" class="st0" width="1" height="102.9"/>
	<path class="st0" d="M340.7,31.3c-6.7,0-19.5,3.5-19.5,16.6v29.6h9.5V52c-0.2-2.6,0.6-5.2,2.3-7.2c1.8-2,4.4-3,7.9-3
		c3.2,0,5.7,0.9,7.4,2.8c1.7,2,2.6,4.6,2.5,7.2v25.7h9.6V47.8C360.5,47.1,360.1,31.3,340.7,31.3z"/>
	<path class="st0" d="M411,33.5c0,4.8-1.9,9.4-6.8,12c6.1,2.2,8.4,9.9,8.4,13.8c0,13.8-8.7,18.2-19.5,18.2h-25.9v-62h25.9
		C403.4,15.5,411,21,411,33.5z M377.4,40.4h15.1c6.2,0,8.2-3.1,8.2-6.6c0-2.8-1.9-7.6-8.2-7.6h-15.1V40.4z M377.4,66.6h15.1
		c4,0,9.8-1.6,9.8-7.4c0-5.6-5.7-8.5-9.8-8.5h-15.1V66.6z"/>
	<path class="st0" d="M185.2,69.9c-6.6,0-13.4-4.2-13.4-13.7c0-8,5.7-13.9,13.5-13.9c3.2,0,6.4,1.2,8.9,3.2l6-6.3
		c-4-3.9-9.4-6.1-15-5.9c-6.5,0-12.1,2-16.2,5.7c-4.4,4-6.7,10-6.7,17.1s2.3,13.1,6.7,17.1c4.1,3.7,9.6,5.7,16.2,5.7
		c6,0.2,11.8-2.1,16.1-6.3l-6.4-6.2C192.3,68.8,188.8,70,185.2,69.9z"/>
	<path class="st0" d="M243.7,33.3c-13.7,0-22.9,9.1-22.9,22.5c0,14.2,9.1,23,23.7,23c7,0,13.9-2.5,18.1-6.5l-6-5.9
		c-2.9,2.5-8,3.9-11.9,3.9c-7.7,0-13.2-4-14-10.1l-0.1-0.8h34.9c0.7-8.5-1.1-15.3-5.2-19.7C256.5,35.4,250.8,33.3,243.7,33.3z
		 M230.7,51.6l0.3-0.9c1.6-5.8,6.5-9.2,13.1-9.2c7,0,11.5,3.4,12.2,9.3l0.1,0.8H230.7z"/>
	<path class="st0" d="M205.9,24.9v52.7H216V15.5c-2.3,0.3-4.6,1.1-6.5,2.5C206.2,20.3,205.9,24.7,205.9,24.9z"/>
	<path class="st0" d="M307.2,38.4c-4.2-3.4-9.4-5.2-14.8-5.2c-12.8,0-23.3,10.2-23.3,22.7s10.4,22.7,23.3,22.7
		c5.4,0,10.6-1.8,14.8-5.2v4.4h8.5V33.3h-8.5V38.4z M292.4,69.8c-7.6-0.2-13.7-6.5-13.5-14.2s6.5-13.7,14.2-13.5
		c7.5,0.2,13.5,6.3,13.5,13.8C306.4,63.7,300.1,69.9,292.4,69.8C292.4,69.8,292.4,69.8,292.4,69.8z"/>
	<path class="st0" d="M469.7,69.8c-5.9,5.9-14,9.2-22.3,9c-21.8,0-31-15.5-31.1-31.3s9.9-32,31.1-32c8.2,0,16,3.4,21.6,9.3l-7.4,7.4
		c-3.8-3.7-8.9-5.8-14.2-5.7c-14.2,0-20.3,10.9-20.2,21.1s5.7,20.5,20.2,20.5c5.5-0.1,10.8-2.3,14.8-6.2L469.7,69.8z"/>
	<path class="st0" d="M266.1,38.6c0.2-2.3,0.2-4.7,0-7c-0.1-1.6-0.4-3.1-0.9-4.6c1.4-0.5,2.9-1,4.2-1.7c1.5-0.7,2.9-1.5,4.3-2.4
		c-0.3,2.8-1.1,5.5-2.4,7.9C269.8,33.6,268.1,36.2,266.1,38.6"/>
	<path class="st0" d="M264.9,34.9c-1.5-1.8-3.1-3.5-4.9-5c-1.2-1.1-2.5-2-3.9-2.7c0.8-1.5,1.3-3.2,1.7-4.9c0.5-2.9,0.7-5.2,0.7-5.2
		c2,2.6,3.5,5.5,4.6,8.5C264,28.7,264.6,31.7,264.9,34.9"/>
	<path class="st0" d="M168.6,101.5c-3-0.1-5.4,2.3-5.5,5.2c0,0.1,0,0.3,0,0.4c-0.1,2.9,2.2,5.3,5,5.4c0.1,0,0.2,0,0.3,0l0,0
		c1.4,0,2.7-0.5,3.8-1.3c1.2-1.1,1.9-2.6,1.9-4.3c0.1-2.9-2.1-5.3-5-5.4C168.9,101.5,168.7,101.5,168.6,101.5z M168.5,111.4
		L168.5,111.4c-2.5-0.2-4.3-2.3-4.1-4.8c0.2-2.2,2-4,4.2-4.1c2.5,0,4.4,2,4.4,4.5C172.9,109.5,170.9,111.4,168.5,111.4L168.5,111.4z
		"/>
	<path class="st0" d="M185.1,109.6v-7.9h-1.2v6.3c0,0.4-0.1,0.8-0.2,1.2c-0.6,1.3-1.9,2.1-3.3,2.1c-2,0-3-1.3-3-4v-5.6H176v5.8
		c0,4.2,2.5,4.9,4,4.9c1.6,0,3.1-0.8,3.9-2.2l0.1,1.9h1.2v-0.1C185.1,111.3,185.1,110.5,185.1,109.6z"/>
	<path class="st0" d="M192.4,101.5c-1.4,0-2.7,0.9-3.1,2.2v-2h-1.2v0.1c0.1,1,0.1,2.1,0.1,3.3v7h1.2v-5.7c0-0.3,0-0.7,0.1-1
		c0.3-1.8,1.4-2.9,2.8-2.9c0.2,0,0.4,0,0.6,0h0.1v-1.2h-0.1C192.7,101.4,192.6,101.4,192.4,101.5z"/>
	<path class="st0" d="M204.2,101.5c-1.6,0-3.1,0.8-3.9,2.1l-0.1-1.9H199v0.1c0.1,0.8,0.1,1.5,0.1,2.5v7.9h1.2v-6.4
		c0-0.3,0.1-0.6,0.2-0.9c0.5-1.4,1.9-2.3,3.4-2.4c2.8,0,3.1,2.6,3.1,3.7v5.9h1.2v-5.9C208.3,101.7,204.9,101.5,204.2,101.5z"/>
	<path class="st0" d="M218.4,109.6v-3.7c0-2.9-1.3-4.4-4-4.4c-1.2,0-2.4,0.3-3.4,1h-0.1l0.4,0.9l0.1-0.1c0.9-0.6,1.9-0.9,2.9-0.8
		l0,0c0.7,0,1.5,0.2,2,0.7c0.5,0.6,0.8,1.4,0.8,2.3v0.1c-2.9,0-4.9,0.5-6,1.6c-0.6,0.6-0.9,1.4-0.9,2.3c0.1,1.7,1.5,3,3.2,2.9
		c0.1,0,0.1,0,0.2,0c1.4,0,2.8-0.6,3.7-1.7l0.2,1.5h1.1V112C218.5,111.2,218.4,110.4,218.4,109.6z M217.2,106.7v2.1
		c0,0.2,0,0.4-0.1,0.6c-0.6,1.3-2,2.1-3.4,2c-1.1,0.1-2.1-0.7-2.1-1.8c0-0.1,0-0.2,0-0.2c0-0.6,0.2-1.1,0.6-1.5
		c0.9-0.9,2.9-1.2,4.5-1.2L217.2,106.7z"/>
	<path class="st0" d="M223,99.4l-1.2,0.4v1.9h-1.9v1h1.9v6.4c-0.1,0.9,0.2,1.8,0.7,2.5c0.5,0.6,1.2,0.9,2,0.8c0.6,0,1.1-0.1,1.6-0.3
		h0.1l-0.2-1h-0.1c-0.4,0.1-0.9,0.2-1.3,0.2c-1,0-1.6-0.7-1.6-2.1v-6.5h3.3v-1H223V99.4z"/>
	<path class="st0" d="M237,109.6v-7.9h-1.2v6.3c0,0.4-0.1,0.8-0.2,1.2c-0.6,1.3-1.9,2.1-3.3,2.1c-2,0-3-1.3-3-4v-5.6H228v5.8
		c0,4.2,2.5,4.9,4,4.9c1.6,0,3.1-0.8,4-2.2v1.9h1.2v-0.1C237.1,111.3,237,110.5,237,109.6z"/>
	<path class="st0" d="M244.3,101.5c-1.4,0-2.6,0.9-3.1,2.2v-2H240v0.1c0.1,1,0.1,2.1,0.1,3.3v7h1.2v-5.7c0-0.3,0-0.7,0.1-1
		c0.3-1.8,1.4-2.9,2.8-2.9c0.2,0,0.4,0,0.6,0h0.1v-1.2h-0.1C244.7,101.4,244.5,101.4,244.3,101.5z"/>
	<path class="st0" d="M250.5,101.5c-3.1,0-5.2,2.4-5.2,5.8c-0.1,2.8,2.1,5.1,4.9,5.2c0.2,0,0.3,0,0.5,0c1.3,0,2.5-0.2,3.7-0.7h0.1
		l-0.3-1H254c-1,0.5-2.1,0.7-3.3,0.6c-2.2,0.1-4.1-1.5-4.3-3.7c0-0.2,0-0.4,0-0.6h8.5V107c0-0.2,0-0.4,0-0.7
		C255.1,104.5,254.1,101.5,250.5,101.5z M246.6,106c0.2-2,1.8-3.5,3.8-3.5c0.9,0,1.8,0.3,2.4,0.9c0.6,0.7,1,1.6,1,2.6H246.6z"/>
	<path class="st0" d="M257.3,110.3c-0.6,0-1,0.4-1,1c0,0,0,0.1,0,0.1c0,0.3,0.1,0.6,0.3,0.8c0.2,0.2,0.4,0.3,0.7,0.3l0,0
		c0.6,0,1-0.4,1-1c0,0,0-0.1,0-0.1C258.4,110.8,258,110.3,257.3,110.3C257.4,110.3,257.4,110.3,257.3,110.3z"/>
	<path class="st0" d="M269.4,101.5c-3-0.1-5.4,2.3-5.5,5.2c0,0.1,0,0.3,0,0.4c-0.1,2.9,2.2,5.3,5,5.4c0.1,0,0.2,0,0.3,0l0,0
		c1.4,0,2.7-0.5,3.8-1.3c1.2-1.1,1.9-2.6,1.9-4.3c0.1-2.9-2.1-5.3-5-5.4C269.7,101.5,269.6,101.5,269.4,101.5z M269.4,111.4
		L269.4,111.4c-2.5-0.2-4.3-2.3-4.1-4.8c0.2-2.2,2-4,4.2-4.1c2.5,0,4.4,2,4.4,4.5C273.8,109.5,271.8,111.4,269.4,111.4L269.4,111.4z
		"/>
	<path class="st0" d="M286,109.6v-7.9h-1.2v6.3c0,0.4-0.1,0.8-0.2,1.2c-0.6,1.3-1.9,2.1-3.3,2.1c-2,0-3-1.3-3-4v-5.6h-1.2v5.8
		c0,4.2,2.5,4.9,4,4.9c1.6,0,3.1-0.8,4-2.2l0.1,1.9h1.2v-0.1C286,111.3,286,110.5,286,109.6z"/>
	<path class="st0" d="M293.3,101.5c-1.4,0-2.6,0.9-3.1,2.2v-2H289v0.1c0.1,1,0.1,2.1,0.1,3.3v7h1.2v-5.7c0-0.3,0-0.7,0.1-1
		c0.3-1.8,1.4-2.9,2.8-2.9c0.2,0,0.4,0,0.6,0h0.1v-1.2h-0.1C293.6,101.4,293.4,101.4,293.3,101.5z"/>
	<path class="st0" d="M305.5,101.5c-1.7-0.1-3.4,0.8-4.3,2.2l-0.1-2h-1.2v0.1c0.1,1,0.1,2.1,0.1,3.3v10.8h1.2v-5.4
		c0.9,1.3,2.4,2,4,1.9c3.1,0,5.3-2.4,5.3-5.7c0.1-2.8-2-5.1-4.8-5.3C305.6,101.5,305.5,101.5,305.5,101.5z M305.2,102.5
		c2.2,0,4,1.8,4,4c0,0.1,0,0.2,0,0.3c0,2.8-1.6,4.6-4.1,4.6c-1.7,0-3.2-1-3.8-2.6c-0.1-0.3-0.1-0.5-0.1-0.8v-1.8
		c0-0.3,0.1-0.6,0.2-0.9C301.9,103.6,303.5,102.5,305.2,102.5L305.2,102.5z"/>
	<path class="st0" d="M317.2,101.5c-3-0.1-5.4,2.3-5.5,5.2c0,0.1,0,0.3,0,0.4c-0.1,2.9,2.2,5.3,5,5.4c0.1,0,0.2,0,0.3,0l0,0
		c1.4,0,2.7-0.5,3.8-1.3c1.2-1.1,1.9-2.6,1.8-4.3c0.1-2.9-2.1-5.3-5-5.4C317.5,101.5,317.3,101.5,317.2,101.5z M317.1,111.4
		L317.1,111.4c-2.5-0.2-4.3-2.3-4.1-4.8c0.2-2.2,2-4,4.2-4.1c2.5,0,4.4,2,4.4,4.5C321.6,109.5,319.6,111.4,317.1,111.4L317.1,111.4z
		"/>
	<path class="st0" d="M336,107.8c-0.4,1.2-0.7,2.1-0.9,2.9c-0.3-1-0.6-1.9-1-3l-2.2-6v-0.1h-1.2l-2.3,6c-0.4,1.1-0.8,2.1-1.1,2.9
		c-0.2-0.9-0.5-1.8-0.9-2.9l-1.9-6.1h-1.3l3.4,10.5h1.1l2.3-5.7c0.4-1,0.9-2.2,1.2-3.4c0.3,1,0.7,2.1,1.2,3.4l2.1,5.7h1.1l3.8-10.3
		l0-0.1h-1.3L336,107.8z"/>
	<path class="st0" d="M345,101.5c-3.1,0-5.2,2.4-5.2,5.8c-0.1,2.8,2.1,5.1,4.9,5.2c0.2,0,0.3,0,0.5,0c1.3,0,2.5-0.2,3.7-0.7h0.1
		l-0.3-1h-0.1c-1,0.5-2.1,0.7-3.3,0.6c-2.2,0.1-4.1-1.5-4.2-3.7c0-0.2,0-0.4,0-0.6h8.5V107c0-0.2,0.1-0.4,0-0.7
		C349.6,104.5,348.6,101.5,345,101.5z M341.1,106c0.2-2,1.8-3.5,3.8-3.5c0.9-0.1,1.8,0.3,2.4,0.9c0.7,0.7,1,1.6,1,2.6H341.1z"/>
	<path class="st0" d="M356.6,101.6L356.6,101.6c-0.2-0.1-0.4-0.1-0.6-0.1c-1.4,0-2.6,0.9-3.1,2.2v-2h-1.2v0.1c0.1,1,0.1,2.1,0.1,3.3
		v7h1.2v-5.7c0-0.3,0-0.7,0.1-1c0.3-1.8,1.4-2.9,2.8-2.9c0.2,0,0.4,0,0.6,0h0.1L356.6,101.6z"/>
	<path class="st0" d="M357.5,110.3c-0.6,0-1,0.4-1,1c0,0,0,0.1,0,0.1c0,0.3,0.1,0.6,0.3,0.8c0.2,0.2,0.4,0.3,0.7,0.3l0,0
		c0.6,0,1-0.4,1-1c0,0,0-0.1,0-0.1C358.6,110.8,358.2,110.3,357.5,110.3C357.6,110.3,357.6,110.3,357.5,110.3z"/>
	<path class="st0" d="M370.2,112.4c-3.2,0-5.8-2.1-5.8-5.5s2.4-5.7,6-5.7c3.5,0,5.8,2.3,5.8,5.4
		C376.2,110.5,373.3,112.4,370.2,112.4L370.2,112.4z M370.3,110.4c1.7,0,3-1.3,3-3.6c0-1.7-0.9-3.5-3-3.5s-3,1.7-3,3.6
		C367.3,109,368.6,110.4,370.3,110.4z"/>
	<path class="st0" d="M388.1,109c0,1.3,0,2.4,0.1,3.2h-2.4l-0.1-1.8h-0.1c-0.8,1.3-2.2,2.1-3.7,2c-1.9,0-4-1.1-4-4.8v-6.1h2.8v5.6
		c0,1.8,0.6,3,2.2,3c1,0,1.9-0.6,2.3-1.6c0.1-0.2,0.2-0.5,0.1-0.8v-6.2h2.8L388.1,109z"/>
	<path class="st0" d="M391.3,105.1c0-1.6,0-2.6-0.1-3.5h2.4l0.1,2.2h0.1c0.4-1.4,1.7-2.4,3.2-2.4c0.2,0,0.4,0,0.7,0.1v2.6
		c-0.3-0.1-0.6-0.1-0.9-0.1c-1.3-0.1-2.4,0.8-2.6,2.1c0,0.2-0.1,0.5-0.1,0.7v5.5h-2.8L391.3,105.1z"/>
	<path class="st0" d="M404.7,112.2v-8.5h-1.5v-2.1h1.5v-0.4c-0.1-1.4,0.4-2.7,1.4-3.8c0.8-0.7,1.9-1,2.9-1c0.6,0,1.2,0.1,1.8,0.3
		l-0.2,2.1c-0.4-0.1-0.8-0.2-1.2-0.2c-1.4,0-1.9,1.1-1.9,2.5v0.5h2.5v2.1h-2.4v8.5L404.7,112.2z"/>
	<path class="st0" d="M422.1,109c0,1.3,0,2.4,0.1,3.2h-2.5l-0.1-1.8h-0.1c-0.8,1.3-2.2,2.1-3.7,2c-1.9,0-4-1.1-4-4.8v-6.1h2.8v5.6
		c0,1.8,0.7,3,2.2,3c1,0,1.9-0.6,2.3-1.6c0.1-0.2,0.2-0.5,0.1-0.8v-6.2h2.8L422.1,109z"/>
	<path class="st0" d="M428.4,98.8v2.7h2.7v2.1h-2.7v4.4c0,1.3,0.3,2.1,1.5,2.1c0.4,0,0.8,0,1.1-0.1l0.1,2.1
		c-0.7,0.2-1.4,0.3-2.1,0.3c-0.9,0-1.8-0.3-2.4-0.9c-0.6-0.9-0.9-1.9-0.9-3v-4.8h-1.6v-2.1h1.6v-2L428.4,98.8z"/>
	<path class="st0" d="M443.6,109c0,1.3,0,2.4,0.1,3.2h-2.5l-0.1-1.8H441c-0.8,1.3-2.2,2.1-3.7,2c-1.9,0-4-1.1-4-4.8v-6.1h2.8v5.6
		c0,1.8,0.7,3,2.2,3c1,0,1.9-0.6,2.3-1.6c0.1-0.2,0.2-0.5,0.2-0.8v-6.2h2.8L443.6,109z"/>
	<path class="st0" d="M446.7,105.1c0-1.6,0-2.6-0.1-3.5h2.4l0.1,2.2h0.1c0.4-1.4,1.7-2.4,3.1-2.4c0.2,0,0.5,0,0.7,0.1v2.6
		c-0.3-0.1-0.6-0.1-0.9-0.1c-1.3-0.1-2.4,0.8-2.6,2.1c0,0.2-0.1,0.5-0.1,0.7v5.5h-2.8V105.1z"/>
	<path class="st0" d="M456.8,107.6c0.1,1.8,1.7,2.7,3.6,2.7c1.1,0,2.2-0.2,3.3-0.5l0.4,1.9c-1.3,0.5-2.7,0.7-4.1,0.7
		c-3.7,0-5.9-2.2-5.9-5.4c-0.1-3,2.2-5.6,5.2-5.7c0.1,0,0.3,0,0.4,0c3.8,0,5,3.1,5,5.2c0,0.4,0,0.7-0.1,1.1L456.8,107.6z M462,105.7
		c0.1-1.3-0.9-2.4-2.2-2.5c-0.1,0-0.2,0-0.3,0c-1.4,0-2.6,1.1-2.8,2.5H462z"/>
	<path class="st0" d="M467.9,112.4c-1,0-1.8-0.8-1.8-1.8s0.8-1.8,1.8-1.8c1,0,1.8,0.8,1.8,1.8c0,0,0,0,0,0c0,0.9-0.7,1.7-1.6,1.8
		C468.1,112.4,468,112.4,467.9,112.4z"/>
	<path class="st0" d="M17.3,80.1c0-1.8-0.1-2.2-1.3-2.3l-0.8-0.1c-0.2-0.1-0.2-0.3-0.1-0.5c0,0,0.1-0.1,0.1-0.1
		c1.4-0.1,3.3-0.2,5.8-0.2c1.5-0.1,3.1,0.1,4.5,0.7c1.2,0.5,2,1.7,2,3c0,1.7-1.1,2.6-2.7,3.3c0,0.2,0.2,0.3,0.5,0.4
		c2,0.3,3.5,2,3.6,4c0,2.8-2.3,4.7-7.1,4.7c-0.8,0-2.1-0.1-3.2-0.1s-2.1,0-3.1,0.1c-0.2-0.2-0.2-0.4,0-0.6l0.5-0.1
		c1.4-0.2,1.5-0.5,1.5-3L17.3,80.1z M19.5,83.3c0,0.7,0,0.7,1.4,0.7c2.7-0.1,4.2-0.8,4.2-3.1s-2-3.2-4-3.2c-0.4,0-0.8,0-1.2,0.1
		c-0.3,0.1-0.4,0.2-0.4,0.6L19.5,83.3z M19.5,88.9c-0.1,0.9,0.1,1.8,0.6,2.6c0.6,0.5,1.3,0.7,2.1,0.7c2.4,0,4.2-1,4.2-3.4
		c0-1.9-1.1-4.1-5.3-4.1c-1.5,0-1.5,0.2-1.5,0.6L19.5,88.9z"/>
	<path class="st0" d="M47.4,82.5c0-2.2,0-2.5-1.4-2.6h-0.6c-0.1-0.1-0.1-0.4,0-0.5c1.2,0,1.9,0.1,2.9,0.1s1.7,0,2.8-0.1
		c0.1,0.1,0.2,0.4,0,0.5h-0.6c-1.3,0.1-1.4,0.4-1.4,2.6v7.3c0,2.2,0,2.5,1.4,2.6l0.6,0.1c0.1,0.1,0.1,0.4,0,0.5
		c-1.2,0-1.9-0.1-2.8-0.1s-1.7,0-2.9,0.1c-0.1-0.1-0.1-0.4,0-0.5c0,0,0,0,0,0l0.6-0.1c1.3-0.2,1.4-0.4,1.4-2.6V82.5z"/>
	<path class="st0" d="M60.1,89.9c0,2.2,0,2.5,1.3,2.6l0.7,0.1c0.1,0.1,0.1,0.4,0,0.5c-1.2,0-2-0.1-2.8-0.1s-1.6,0-3,0.1
		c-0.1-0.1-0.2-0.3,0-0.5c0,0,0,0,0,0l0.8-0.1c1.2-0.1,1.3-0.4,1.3-2.6v-9.2c0-0.6,0-0.7-0.6-0.7h-1.2c-0.9-0.1-1.8,0.1-2.6,0.5
		c-0.4,0.4-0.8,0.9-1,1.4c-0.2,0.1-0.4,0-0.6-0.1c0.3-1,0.6-2,0.8-3.1c0.1-0.1,0.3-0.1,0.4,0c0.1,0.7,0.8,0.6,1.8,0.6H64
		c1.2,0,1.3,0,1.7-0.6c0.1,0,0.3,0,0.4,0.1c-0.2,1-0.3,2.1-0.3,3.1c-0.1,0.2-0.4,0.2-0.6,0c-0.1-0.5-0.2-1.3-0.5-1.5
		c-0.8-0.4-1.6-0.6-2.5-0.5h-1.5c-0.7,0-0.6,0-0.6,0.7V89.9z"/>
	<path class="st0" d="M69.3,82.5c0-2.2,0-2.5-1.4-2.6h-0.6c-0.1-0.1-0.1-0.4,0-0.5c1.2,0,1.9,0.1,2.9,0.1s1.7,0,2.8-0.1
		c0.1,0.1,0.2,0.4,0,0.5h-0.6c-1.3,0.1-1.4,0.4-1.4,2.6v7.3c0,2.2,0,2.5,1.4,2.6l0.6,0.1c0.1,0.1,0.1,0.4,0,0.5
		c-1.1,0-1.9-0.1-2.8-0.1s-1.7,0-2.9,0.1c-0.1-0.1-0.1-0.4,0-0.5l0.6-0.1c1.3-0.2,1.4-0.4,1.4-2.6V82.5z"/>
	<path class="st0" d="M79.5,93.2c-1.3,0-2.6-0.2-3.8-0.8c-0.4-0.9-0.6-1.9-0.7-2.9c0.1-0.1,0.5-0.2,0.6-0.1c0.5,1.9,2.2,3.1,4.2,3.1
		c2,0,3-1.1,3-2.4c0-0.9-0.2-1.9-2-2.9l-2.3-1.3c-1.2-0.7-2.6-1.9-2.6-3.5c0-2,1.8-3.6,5-3.6c0.8,0,1.5,0.1,2.3,0.3
		c0.3,0.1,0.6,0.1,0.8,0.1c0.3,0.8,0.4,1.7,0.4,2.5C84.3,82,84,82,83.8,81.9c-0.3-1.5-1.8-2.5-3.3-2.3c-2.4,0-2.9,1.3-2.9,2.3
		c0,1.2,1.2,2.1,2.1,2.5l2,1c1.5,0.8,3,2,3,4C84.7,91.7,82.7,93.2,79.5,93.2z"/>
	<path class="st0" d="M91.8,86.3c-1.1,0-1.1,0-1.1,0.7v2.9c0,2.2,0.1,2.4,1.3,2.6l0.7,0.1c0.1,0.1,0.1,0.4,0,0.5
		c-1.2,0-2-0.1-2.8-0.1s-1.7,0-2.6,0.1c-0.1-0.1-0.1-0.4,0-0.5l0.4-0.1c1.2-0.2,1.3-0.4,1.3-2.6v-7.4c0-2.2-0.2-2.5-1.3-2.6h-0.6
		c-0.1-0.1-0.1-0.4,0-0.5c1.1,0,1.8,0.1,2.8,0.1s1.6,0,2.6-0.1c0.1,0.1,0.2,0.4,0,0.5H92c-1.3,0.1-1.3,0.4-1.3,2.6v2.3
		c0,0.6,0.1,0.7,1.1,0.7h6.3c1.1,0,1.1,0,1.1-0.7v-2.4c0-2.2,0-2.5-1.4-2.6h-0.4c-0.1-0.1-0.1-0.4,0.1-0.5c1,0,1.8,0.1,2.7,0.1
		s1.6,0,2.6-0.1c0.1,0.1,0.2,0.4,0.1,0.5h-0.5c-1.3,0.1-1.3,0.4-1.3,2.6v7.4c0,2.2,0.1,2.4,1.3,2.6l0.5,0.1c0.1,0.1,0.1,0.4,0,0.5
		c-1.1,0-1.8-0.1-2.7-0.1s-1.7,0-2.7,0.1c-0.2-0.1-0.2-0.4-0.1-0.5l0.4-0.1c1.4-0.2,1.4-0.4,1.4-2.6v-2.9c0-0.6,0-0.7-1.1-0.7
		L91.8,86.3z"/>
	<path class="st0" d="M4.6,97.5c1.9-1.4,4.3-2.2,6.7-2.1c1.5,0,3,0.2,4.4,0.6c0.2,0.1,0.5,0.1,0.7,0.1c0,0.6,0.2,2.1,0.3,3.7
		c-0.2,0.2-0.5,0.2-0.7,0c-0.4-1.7-1.5-3.6-5.1-3.6c-3.8,0-7.1,2.4-7.1,7.6c0,5.2,3.3,8.1,7.4,8.1c2.3,0.1,4.4-1.4,5.2-3.6
		c0.2-0.1,0.5-0.1,0.7,0.1c-0.2,1.2-0.6,2.4-1.2,3.4c-0.3,0.1-0.6,0.1-0.9,0.2c-1.3,0.4-2.6,0.6-3.9,0.6c-2.2,0.1-4.4-0.5-6.2-1.7
		c-2.3-1.5-3.6-4.1-3.5-6.8C1.5,101.5,2.6,99.1,4.6,97.5z"/>
	<path class="st0" d="M18.3,105.6c0-4.1,3.2-7.3,7.7-7.3c5,0,7.5,3.4,7.5,7.1c0,4-3.3,7.2-7.2,7.2c-0.1,0-0.2,0-0.3,0
		C21.2,112.6,18.3,109.3,18.3,105.6z M31.3,106c0-3.4-1.6-7.1-5.7-7.1c-2.2,0-5.2,1.5-5.2,6c0,3,1.6,7,5.8,7
		C28.8,111.9,31.3,110.1,31.3,106L31.3,106z"/>
	<path class="st0" d="M57.9,103.8c0-1.3,0-3.6-0.4-4.3c-0.3-0.3-0.7-0.5-1.1-0.4h-0.6c-0.1-0.1-0.1-0.4,0-0.5c0.8,0,1.6,0.1,2.5,0.1
		s1.5,0,2.3-0.1c0.1,0.1,0.1,0.3,0,0.5c0,0,0,0,0,0h-0.5c-0.4,0-0.8,0.2-1.1,0.5c-0.2,1.4-0.3,2.8-0.2,4.2v2.3
		c0.1,1.8-0.4,3.5-1.5,4.9c-1.1,1-2.6,1.6-4.2,1.5c-1.4,0.1-2.9-0.3-4.1-1.1c-1.2-0.9-1.7-2.4-1.7-4.9v-4.9c0-2.1,0-2.5-1.3-2.6
		h-0.6c-0.1-0.1-0.1-0.4,0.1-0.5c1.1,0,1.8,0.1,2.7,0.1s1.6,0,2.7-0.1c0.1,0.1,0.2,0.4,0,0.5h-0.5c-1.3,0.1-1.3,0.4-1.3,2.6v4.4
		c0,3.3,1.1,5.5,4.4,5.5c3.2,0,4.4-2.4,4.4-5.5L57.9,103.8z"/>
	<path class="st0" d="M83.2,101.3c0-1.5-0.1-1.9-1.2-2l-0.8-0.1c-0.1-0.1-0.2-0.3-0.1-0.4c0,0,0.1-0.1,0.1-0.1
		c1.3-0.1,2.9-0.2,5.1-0.2c1.4-0.1,2.7,0.1,4,0.6c1.1,0.4,1.8,1.4,1.8,2.6c0,1.5-1,2.2-2.4,2.8c0,0.2,0.2,0.3,0.5,0.3
		c1.8,0.2,3.1,1.7,3.2,3.4c0,2.4-2.1,4-6.4,4c-0.7,0-1.9-0.1-2.9-0.1s-1.9,0-2.8,0.1c-0.1-0.1-0.1-0.4,0-0.5l0.4-0.1
		c1.3-0.2,1.3-0.4,1.3-2.6L83.2,101.3z M85.2,104.1c0,0.6,0,0.6,1.2,0.6c2.4-0.1,3.8-0.7,3.8-2.6s-1.8-2.8-3.6-2.8
		c-0.4,0-0.7,0-1.1,0.1c-0.2,0.1-0.3,0.2-0.3,0.5V104.1z M85.2,108.8c-0.1,0.8,0.1,1.6,0.5,2.2c0.5,0.4,1.2,0.7,1.9,0.6
		c2.1,0,3.8-0.8,3.8-2.9c0-1.6-1-3.5-4.8-3.5c-1.3,0-1.4,0.1-1.4,0.5V108.8z"/>
	<path class="st0" d="M43.9,92.5h-0.6H43c-0.8-0.2-1.2-0.9-1.6-1.6l-2-3.4c-0.3-0.6-0.7-1.3-1.5-1.5c2-0.2,3.9-1.4,3.9-3.4
		c0-2.3-2.3-3.3-4.6-3.3c-1.4,0-2.8,0.1-4.2,0.1c-0.8,0-1.6-0.1-2.4-0.1c-0.4,0-0.4,0.1-0.4,0.3s0.2,0.3,0.6,0.3
		c1.7,0,1.6,0.4,1.6,1.8v9c0,1.3,0.1,1.7-1.3,1.8h-0.3h-0.6c-0.1,0.1-0.1,0.4,0,0.5h0.8c0.8,0,1.5-0.1,2.3-0.1s1.5,0.1,2.2,0.1l0,0
		h0.8c0.2-0.1,0.2-0.4,0.1-0.5h-0.6h-0.3c-1.4-0.1-1.3-0.5-1.3-1.8v-3.4c0-0.2,0-0.7,0.1-0.9s0.3-0.1,0.5-0.1c1.9,0,1.8,0.2,2.7,1.7
		l2.4,4.3c0.2,0.3,0.3,0.8,0.8,0.8H43h0.8C44,93,44.1,92.7,43.9,92.5C44,92.5,43.9,92.5,43.9,92.5z M35.6,85.7
		c-0.4,0-1.2,0.2-1.2-0.4v-4c0-1.6,0-1.8,1.9-1.8c2.2,0,3.5,1.1,3.5,3.1c0,0.9-0.4,1.7-1.1,2.2C37.7,85.5,36.7,85.8,35.6,85.7z"/>
	<path class="st0" d="M36,101.8c0-2.2,0-2.5-1.5-2.6H34c-0.1-0.1-0.1-0.4,0-0.5c1.3,0,2,0.1,3,0.1s1.7,0,2.8-0.1
		c0.1,0.1,0.2,0.4,0,0.5h-0.6c-1.3,0.1-1.4,0.4-1.4,2.6v7.2c0,1.3,0.1,1.8,0.5,2.2c0.2,0.2,0.7,0.5,2.5,0.5s2.4-0.1,2.8-0.3
		c0.7-0.5,1.2-1.2,1.5-2c0.1-0.1,0.6,0,0.6,0.1c-0.2,1-0.6,2-1,2.9c-1.2-0.1-3.3-0.1-5.6-0.1h-2c-1,0-1.7,0-3,0.1
		c-0.1-0.1-0.1-0.4,0-0.5l0.7-0.1c1.3-0.1,1.3-0.4,1.3-2.6L36,101.8z"/>
	<path class="st0" d="M96.7,101.8c0-2.2,0-2.5-1.4-2.6h-0.6c-0.1-0.1-0.1-0.4,0-0.5c1.1,0,1.9,0.1,2.8,0.1s1.6,0,2.8-0.1
		c0.1,0.1,0.2,0.4,0,0.5h-0.6c-1.3,0.1-1.4,0.4-1.4,2.6v7.3c0,2.2,0.1,2.5,1.4,2.6l0.6,0.1c0.1,0.1,0.1,0.4,0,0.5
		c-1.1-0.1-1.9-0.1-2.8-0.1s-1.7,0-2.8,0.1c-0.1-0.1-0.1-0.4,0-0.5l0.6-0.1c1.3-0.1,1.4-0.4,1.4-2.6V101.8z"/>
	<path class="st0" d="M79,111.8h-0.3c-0.2,0-0.4-0.1-0.6-0.2c-0.3-0.3-0.3-1.2-0.3-1.5v-9c0-0.4-0.1-1.2,0.2-1.6
		c0.2-0.2,0.5-0.2,0.7-0.2l0,0H79l0.6-0.1c0.1-0.1,0.1-0.4,0-0.5h-3.3c-0.3,0-0.5,0-0.7,0.3l-5,10.3l-4.4-10
		c-0.1-0.3-0.2-0.6-0.6-0.6h-2.5h-0.9c-0.1,0.1-0.2,0.4-0.1,0.5l0.6,0.1h0.3c0.9,0.1,1,0.3,0.9,1.3l-0.7,9.7c-0.1,1-0.1,1.5-1.1,1.6
		l-0.3,0l-0.6,0.1c-0.1,0.1-0.1,0.4,0,0.5h0.8c0.5,0,1-0.1,1.6-0.1c0.6,0,1.1,0.1,1.7,0.1l0,0h0.8c0.1-0.1,0.1-0.4,0-0.5l-0.6-0.1
		h-0.3c-1.5-0.1-1.4-1.1-1.3-2.4l0.7-9h0.2l4.7,11.1c0,0.1,0.1,0.4,0.4,0.4s0.3-0.2,0.4-0.4l5.3-11.4h0.2v9.9c0,0.4,0,1.2-0.4,1.5
		c-0.3,0.1-0.6,0.2-0.9,0.3h-0.3l-0.6,0.1c-0.1,0.1-0.1,0.4,0,0.5h0.8c0.8,0,1.6-0.1,2.3-0.1c0.6,0,1.7,0.1,1.7,0.1h0.9
		c0.1-0.1,0.1-0.4,0-0.5c0,0,0,0,0,0L79,111.8z"/>
	<path class="st0" d="M116.1,111.8L116.1,111.8l-0.4-0.1c-0.9-0.2-1.2-1.3-1.6-2l-4.6-10.9c0-0.1-0.1-0.4-0.3-0.4s-0.3,0.3-0.4,0.5
		l-4.4,10.8c-0.2,0.6-0.5,1.2-0.9,1.7c-0.2,0.2-0.5,0.3-0.8,0.3h-0.4l-0.5,0.1c-0.1,0.1-0.1,0.4,0,0.5h0.8c0.6,0,1.2-0.1,1.8-0.1
		s1,0,1.5,0.1h0.9c0.1-0.1,0.2-0.4,0.1-0.5l-0.6-0.1H106c-0.5-0.1-1.2-0.1-1.2-0.7c0-0.4,0.1-0.8,0.3-1.2l0.7-1.6
		c0.3-0.8,0.2-0.9,1.1-0.9h3.1c1.1,0,0.9,0,1.4,1.1l0.7,1.6c0.2,0.3,0.3,0.7,0.3,1.1c0,0.5-0.6,0.6-1.1,0.6H111h-0.6
		c-0.1,0.1-0.1,0.4,0,0.5h0.9c0.6,0,1.3-0.1,1.9-0.1c0.8,0,1.6,0.1,2.4,0.1l0,0c0.1,0,0.2,0,0.3,0
		C116.1,112.1,116.2,112,116.1,111.8z M110.1,106.7h-2.7c-0.1,0-0.8,0.1-0.8-0.1c0-0.1,0-0.2,0.1-0.3l1.6-4c0-0.1,0.2-0.7,0.4-0.7
		s0.3,0.6,0.4,0.7l1.6,3.7c0,0,0.2,0.4,0.2,0.5S110.2,106.7,110.1,106.7L110.1,106.7z"/>
	<path class="st0" d="M13.4,56.3c0.1-2.4,0.5-4.7,1-7C19.1,28.4,37.6,13.6,59,13.6c9.8,0.1,19.4,3.3,27.2,9.3
		c8.3,6.2,14.3,15.1,16.9,25.2l0,0c0.9,3.7,1.3,7.4,1.4,11.2c0,2.6-0.3,5.2-0.8,7.7l-0.1,0.4l-0.6,0.4l-0.4,0.3l0,0l-0.6,0.3h0.1
		c-6.1,4-12.2,5.3-20.8,6.3c-9,1-15.4-0.5-23.4-2.3l-7.6-1.7c-6.1-1.5-12.3-2.7-18.5-3.5c-5.2-0.5-10.5-0.2-15.7,0.8l0,0l-0.6,0.1
		l-0.3,0.1l-0.9,0.2l-0.2-0.9c-0.5-2.7-0.8-5.4-0.8-8.2C13.3,58.2,13.3,57.3,13.4,56.3L13.4,56.3z M14.3,56.8c0,0.8-0.1,1.6-0.1,2.4
		c0,2.7,0.3,5.4,0.8,8l0,0l1-0.2l0,0c4-0.7,10.5-1.5,16-0.8c8.7,1.1,14.2,2.6,23.4,4.7s16,4,25.9,2.9c8.7-1,14.6-2.3,20.4-6.1l0,0
		l0.5-0.3l0.6-0.4c0.5-2.5,0.7-5,0.8-7.6l0,0c0-3.6-0.4-7.1-1.2-10.6l0,0c-0.5-2-1.2-4-1.9-5.9c-6.8-17-23.3-28.2-41.6-28.3
		c-20.9,0-39,14.6-43.5,35l0,0c0,0,0,0.1,0,0.2l0,0c-0.5,2.1-0.8,4.2-0.9,6.3L14.3,56.8z"/>
	<path class="st0" d="M89,49.5l-2.9-1l9-3.3L89,49.5z M96.2,45.3l4.9,2.7l-4.4-3.3l3-1.1c-0.1-0.2-0.1-0.3-0.2-0.4l-13.9,4.9L99,42
		l-0.2-0.5l-14.9,6l14.4-7.1L98.1,40l-13.6,5.9l13-7c-0.1-0.2-0.1-0.3-0.2-0.4L79,48.2c-0.3-0.5-0.6-1-0.8-1.5l15.1-11.8L77.1,45.3
		c-0.4-0.5-0.8-1-1.2-1.5l15.4-14c-0.1-0.1-0.2-0.2-0.3-0.3l-11.1,9.9l10.3-10.7c-0.1-0.1-0.2-0.3-0.4-0.4L78.1,39.4l10.8-12
		l-0.4-0.3L78.1,37.7l9.5-11.5l-0.4-0.3L73.8,41.8c-0.5-0.5-1.1-0.9-1.7-1.3l9.7-16.7L70.7,39.5c-0.6-0.4-1.2-0.7-1.8-1l9-18.7
		l-0.4-0.2l-6.6,13.3l5.6-13.8l-0.5-0.2l-6.6,14.7l5.5-15.2l-0.5-0.2L68.6,32l4.5-14.2l-0.5-0.2l-6.5,19.8c-0.6-0.2-1.3-0.4-1.9-0.6
		l2.7-19l-4.4,18.7c-0.7-0.1-1.4-0.2-2.1-0.2l1.4-20.8h-0.5L60,30.4l0.1-15h-0.5L59,31.1l-0.6-15.7h-0.5l0.2,15l-1.4-14.9h-0.5
		l1.4,20.8c-0.8,0-1.5,0.1-2.2,0.2l-4.4-18.7l2.7,19c-0.6,0.2-1.2,0.3-1.8,0.5l-6.5-19.8l-0.4,0.1L49.5,32l-5.8-13.9l-0.5,0.2
		l5.5,15.4l-6.7-14.9l-0.5,0.2l5.6,14l-6.7-13.5L40,19.6l9.1,18.8c-0.6,0.3-1.3,0.6-1.9,1L36.2,23.8l9.6,16.6
		c-0.6,0.4-1.1,0.8-1.6,1.3l-13.5-16L30.3,26l9.6,11.6L29.4,26.8L29,27.1l10.9,12.2L28.1,28l-0.4,0.4l10.4,10.9l-11.3-10l-0.3,0.4
		l15.5,14.1c-0.4,0.5-0.9,1-1.3,1.5L24.7,34.9l15.1,11.8c-0.3,0.5-0.6,1-0.8,1.4l-18.6-9.8l-0.2,0.4l13.2,7.1l-13.8-6l-0.2,0.5
		l12.7,6.2l-0.2,0.1l-13-5.2l-0.2,0.5l11.8,5.3l-0.2,0.1l-3.3-1.2l-2.7-1.4l-0.5,0.3L18.3,43l-0.2,0.5l5.1,1.9l-7,3.9l-0.3,0.1
		l8.6-3.9l3,1.6l2.5,0.8h0.1c0,0,2.6-1.2,3.2-1.6l3.8,4c0,0,8.2,6.5,8.5,6.5s7.3-4.1,7.3-4.1l6.3-4.3l5.5,4l4.1,0.8l3.8,2.8
		c0,0,10-6.7,11.6-7.5l4.8,1.9L96.2,45.3z"/>
</g>
</svg>
