<svg version="1.1" id="Layer_1"
	xmlns="http://www.w3.org/2000/svg"
	xmlns:xlink="http://www.w3.org/1999/xlink" x="0px" y="0px" viewBox="0 0 244.5 165.9" style="enable-background:new 0 0 244.5 165.9;" xml:space="preserve">
	<style type="text/css">
	.st0{fill:currentColor;}
	</style>
	<path class="st0" d="M174.5,154.6H27.1c-6,0-11.8-2.2-16.1-6.2c-4.3-4-6.7-9.4-6.7-15.1v-31.6c0-5.7,2.4-11.1,6.7-15.1
	c4.3-4,10.1-6.3,16.1-6.3h147.5c6,0,11.8,2.3,16.1,6.3c4.3,4,6.7,9.4,6.7,15.1v31.6c0,5.7-2.4,11.1-6.7,15.1
	C186.3,152.4,180.6,154.6,174.5,154.6z M27.1,84.4c-4.9,0-9.6,1.8-13,5.1c-3.5,3.2-5.4,7.6-5.4,12.2v31.6c0,4.6,2,9,5.4,12.2
	c3.5,3.2,8.1,5,13,5h147.5c2.4,0,4.8-0.4,7.1-1.3c2.2-0.9,4.3-2.1,6-3.7c1.7-1.6,3.1-3.5,4-5.6c0.9-2.1,1.4-4.3,1.4-6.6v-31.6
	c0-4.6-1.9-9-5.4-12.2s-8.1-5.1-13-5.1H27.1z"/>
	<path class="st0" d="M150.2,140.1H139c-0.6,0-1.1-0.2-1.5-0.6c-0.4-0.4-0.6-0.9-0.7-1.4c0-0.5,0.2-1.1,0.6-1.4
	c0.4-0.4,1-0.6,1.5-0.6h6.3c2.7,0,5.3-0.9,7.4-2.5l8.1-6.3c0.4-0.3,0.9-0.5,1.4-0.5h31.5c0.6,0,1.1,0.2,1.5,0.6s0.6,0.9,0.6,1.4
	c0,0.5-0.2,1.1-0.6,1.4c-0.4,0.4-1,0.6-1.5,0.6h-26.6c-2.7,0-5.2,0.9-7.3,2.5l-8.1,6.3C151.2,139.9,150.7,140.1,150.2,140.1z"/>
	<path class="st0" d="M129.2,140.1H51.4c-0.5,0-1-0.2-1.4-0.5l-8.1-6.3c-2.1-1.6-4.7-2.5-7.4-2.5H7.9c-0.6,0-1.1-0.2-1.5-0.6
	c-0.4-0.4-0.6-0.9-0.6-1.4c0-0.5,0.2-1.1,0.6-1.4c0.4-0.4,1-0.6,1.5-0.6h31.5c0.5,0,1,0.2,1.4,0.5l8.1,6.3c2.1,1.6,4.7,2.5,7.4,2.5
	h72.9c0.6,0,1.1,0.2,1.5,0.6c0.4,0.4,0.6,0.9,0.6,1.4c0,0.5-0.2,1.1-0.6,1.4C130.3,139.9,129.7,140.1,129.2,140.1z"/>
	<path class="st0" d="M177.9,115.1h-21.3c-2.3,0-4.5-0.9-6.1-2.4c-1.6-1.5-2.5-3.6-2.5-5.8v-6.2c0-2.2,0.9-4.2,2.5-5.8
	s3.8-2.4,6.1-2.4h21.3c2.3,0,4.5,0.9,6.1,2.4c1.6,1.5,2.6,3.6,2.6,5.8v6.2c0,2.2-0.9,4.2-2.6,5.8
	C182.4,114.2,180.2,115.1,177.9,115.1z M156.6,96.6c-0.6,0-1.1,0.1-1.7,0.3c-0.5,0.2-1,0.5-1.4,0.9c-0.4,0.4-0.7,0.8-0.9,1.3
	c-0.2,0.5-0.3,1-0.3,1.6v6.2c0,0.5,0.1,1.1,0.3,1.6c0.2,0.5,0.5,0.9,0.9,1.3c0.4,0.4,0.9,0.7,1.4,0.9c0.5,0.2,1.1,0.3,1.7,0.3h21.3
	c1.2,0,2.3-0.4,3.1-1.2s1.3-1.8,1.3-2.9v-6.2c0-1.1-0.5-2.1-1.3-2.9s-1.9-1.2-3.1-1.2H156.6z"/>
	<path class="st0" d="M45,115.1H23.7c-2.3,0-4.5-0.9-6.1-2.4c-1.6-1.5-2.5-3.6-2.5-5.8v-6.2c0-2.2,0.9-4.2,2.5-5.8
	c1.6-1.5,3.8-2.4,6.1-2.4H45c2.3,0,4.5,0.9,6.2,2.4c1.6,1.5,2.6,3.6,2.6,5.8v6.2c0,2.2-0.9,4.2-2.6,5.8
	C49.5,114.2,47.3,115.1,45,115.1z M23.7,96.6c-0.6,0-1.1,0.1-1.7,0.3c-0.5,0.2-1,0.5-1.4,0.9c-0.4,0.4-0.7,0.8-0.9,1.3
	c-0.2,0.5-0.3,1-0.3,1.6v6.2c0,0.5,0.1,1.1,0.3,1.6c0.2,0.5,0.5,0.9,0.9,1.3c0.4,0.4,0.9,0.7,1.4,0.9c0.5,0.2,1.1,0.3,1.7,0.3H45
	c1.2,0,2.3-0.4,3.1-1.2s1.3-1.8,1.3-2.9v-6.2c0-1.1-0.5-2.1-1.3-2.9s-1.9-1.2-3.1-1.2H23.7z"/>
	<path class="st0" d="M132.6,129.3H69c-1.3,0-2.6-0.3-3.7-1c-1.1-0.7-1.9-1.7-2.4-2.9l-3.7-10c-0.3-0.8-0.4-1.7-0.3-2.6
	c0.1-0.9,0.5-1.7,1.1-2.4c0.6-0.8,1.4-1.4,2.4-1.9c0.9-0.4,2-0.7,3-0.7h70.9c1.1,0,2.1,0.2,3,0.7c0.9,0.4,1.8,1.1,2.4,1.9
	c0.5,0.7,0.9,1.6,1,2.4s0,1.8-0.3,2.6l-3.7,10c-0.5,1.2-1.3,2.2-2.4,2.9C135.2,128.9,133.9,129.3,132.6,129.3z M65.3,111.9
	c-0.4,0-0.7,0.1-1,0.2c-0.3,0.1-0.6,0.4-0.8,0.6c-0.1,0.2-0.2,0.4-0.3,0.6c0,0.2,0,0.5,0.1,0.7L67,124c0.2,0.4,0.4,0.7,0.8,0.9
	c0.4,0.2,0.8,0.3,1.2,0.3h63.5c0.4,0,0.9-0.1,1.2-0.3c0.4-0.2,0.7-0.5,0.8-0.9l3.7-9.9c0.1-0.2,0.1-0.5,0.1-0.7
	c0-0.2-0.1-0.4-0.3-0.6c-0.2-0.3-0.5-0.5-0.8-0.6c-0.3-0.1-0.7-0.2-1-0.2H65.3z"/>
	<path class="st0" d="M176.4,83c-0.5,0-1-0.2-1.4-0.5c-0.4-0.3-0.7-0.7-0.8-1.2c0-0.4-7-37.7-32.2-37.7H59.5
	c-25.2,0-32.1,37.3-32.2,37.7c0,0.3-0.2,0.5-0.3,0.7c-0.2,0.2-0.4,0.4-0.6,0.6C26.2,82.9,26,83,25.7,83c-0.3,0.1-0.6,0.1-0.9,0
	s-0.6-0.1-0.8-0.3c-0.2-0.1-0.5-0.3-0.6-0.6c-0.2-0.2-0.3-0.5-0.3-0.7c-0.1-0.3-0.1-0.5,0-0.8c1.4-7,3.8-13.8,7.1-20.3
	c7.1-13.7,17.3-20.9,29.4-20.9h82.5c12.1,0,22.2,7.2,29.4,20.9c3.3,6.4,5.7,13.2,7.1,20.3c0.1,0.5,0,1.1-0.4,1.5
	c-0.3,0.4-0.6,0.6-1.1,0.8C176.9,83,176.6,83,176.4,83z"/>
	<path class="st0" d="M196.7,87.1c-0.6,0-1.1-0.2-1.5-0.6c-0.2-0.2-0.4-0.4-0.5-0.7c-0.1-0.2-0.2-0.5-0.2-0.8c0-0.3,0-0.5,0.2-0.8
	c0.1-0.3,0.3-0.5,0.5-0.7c0.7-0.6,1.2-1.4,1.6-2.3c0.4-0.8,0.6-1.7,0.5-2.7c0-1.8-0.8-3.6-2.2-4.9c-1.4-1.3-3.3-2-5.3-2.1h-8.8
	c-0.6,0-1.1-0.2-1.5-0.6c-0.4-0.4-0.6-0.9-0.6-1.4s0.2-1.1,0.6-1.4c0.4-0.4,1-0.6,1.5-0.6h8.8c2.3,0,4.6,0.7,6.5,1.9
	c1.9,1.2,3.4,2.9,4.3,4.9c0.9,2,1.2,4.2,0.7,6.4c-0.4,2.1-1.5,4.1-3.1,5.7C197.8,86.9,197.2,87.1,196.7,87.1z"/>
	<path class="st0" d="M4.9,87.1c-0.3,0-0.6-0.1-0.8-0.2c-0.3-0.1-0.5-0.3-0.7-0.5C1.8,85,0.7,83,0.2,80.9c-0.4-2.1-0.2-4.4,0.7-6.4
	c0.9-2,2.4-3.7,4.3-4.9s4.2-1.9,6.5-1.9h8.8c0.6,0,1.1,0.2,1.5,0.6c0.4,0.4,0.6,0.9,0.6,1.4s-0.2,1.1-0.6,1.4
	c-0.4,0.4-1,0.6-1.5,0.6h-8.8c-2,0-3.9,0.8-5.3,2.1c-1.4,1.3-2.2,3.1-2.2,4.9c0,0.9,0.2,1.8,0.5,2.7c0.4,0.8,0.9,1.6,1.6,2.3
	c0.3,0.3,0.5,0.7,0.6,1c0.1,0.4,0,0.8-0.1,1.2s-0.4,0.7-0.8,0.9C5.8,87,5.3,87.1,4.9,87.1z"/>
	<path class="st0" d="M188.3,165.9h-18.3c-1.2,0-2.4-0.2-3.5-0.6c-1.1-0.4-2.1-1-2.9-1.8c-0.8-0.8-1.5-1.7-2-2.7
	c-0.5-1-0.7-2.1-0.7-3.2v-4.2c0-0.5,0.2-1.1,0.6-1.4c0.4-0.4,1-0.6,1.5-0.6c0.6,0,1.1,0.2,1.5,0.6c0.4,0.4,0.6,0.9,0.6,1.4v4.2
	c0,0.6,0.1,1.1,0.4,1.7c0.2,0.5,0.6,1,1,1.4c0.4,0.4,0.9,0.7,1.5,0.9c0.6,0.2,1.2,0.3,1.8,0.3h18.3c0.6,0,1.2-0.1,1.8-0.3
	c0.6-0.2,1.1-0.5,1.5-0.9c0.4-0.4,0.8-0.9,1-1.4c0.2-0.5,0.4-1.1,0.4-1.7v-23c0-0.5,0.2-1.1,0.7-1.4c0.4-0.4,1-0.6,1.5-0.6
	c0.6,0,1.1,0.2,1.5,0.6s0.6,0.9,0.6,1.4v23c0,2.2-0.9,4.4-2.6,6S190.7,165.9,188.3,165.9z"/>
	<path class="st0" d="M31.6,165.9H13.3c-1.2,0-2.4-0.2-3.5-0.6c-1.1-0.4-2.1-1-2.9-1.8c-0.8-0.8-1.5-1.7-2-2.7
	c-0.5-1-0.7-2.1-0.7-3.2v-23c0-0.5,0.2-1.1,0.6-1.4c0.4-0.4,1-0.6,1.5-0.6s1.1,0.2,1.5,0.6s0.6,0.9,0.6,1.4v23
	c0,1.2,0.5,2.3,1.4,3.1c0.9,0.8,2.1,1.3,3.3,1.3h18.3c0.6,0,1.2-0.1,1.8-0.3c0.6-0.2,1.1-0.5,1.5-0.9c0.4-0.4,0.8-0.9,1-1.4
	c0.2-0.5,0.4-1.1,0.4-1.7v-4.2c0-0.5,0.2-1.1,0.7-1.4c0.4-0.4,1-0.6,1.5-0.6c0.6,0,1.1,0.2,1.5,0.6s0.6,0.9,0.6,1.4v4.2
	c0,1.1-0.2,2.2-0.7,3.2c-0.5,1-1.1,2-2,2.7c-0.8,0.8-1.8,1.4-2.9,1.8C34,165.6,32.8,165.9,31.6,165.9z"/>
	<path class="st0" d="M123.3,26.3h-9c-0.6,0-1.1-0.2-1.5-0.6c-0.4-0.4-0.6-0.9-0.6-1.4V2c0-0.5,0.2-1.1,0.6-1.4
	c0.4-0.4,1-0.6,1.5-0.6h9c3.7,0,7.3,1.4,9.9,3.9c2.6,2.5,4.1,5.8,4.1,9.3s-1.5,6.8-4.1,9.3C130.6,24.9,127,26.3,123.3,26.3z
	 M116.5,15.4c0,3.8,3,6.8,6.8,6.8c2.6,0,5-1,6.8-2.7c1.8-1.7,2.8-4,2.8-6.4s-1-4.7-2.8-6.4c-1.8-1.7-4.3-2.7-6.8-2.7
	c-3.8,0-6.8,3-6.8,6.8V15.4z"/>
	<path class="st0" d="M112.7,22.3h-6.4c-0.6,0-1.1-0.2-1.5-0.6c-0.4-0.4-0.6-0.9-0.6-1.4v-2.3c0-0.3,0.1-0.5,0.2-0.8
	c0.1-0.3,0.3-0.5,0.5-0.7c0.4-0.4,1-0.6,1.5-0.6h6.4c0.6,0,1.1,0.2,1.5,0.6c0.4,0.4,0.6,0.9,0.6,1.5c0,0.7,0,1.6,0,2.3c0,0,0,0,0,0
	c0,0.5-0.2,1-0.7,1.4C113.8,22,113.3,22.3,112.7,22.3z"/>
	<path class="st0" d="M112.7,10.5h-6.4c-0.6,0-1.1-0.2-1.5-0.6c-0.4-0.4-0.6-0.9-0.6-1.4V6.1c0-0.5,0.2-1.1,0.7-1.4
	c0.4-0.4,1-0.6,1.5-0.6h6.4c0.3,0,0.6,0.1,0.8,0.2c0.3,0.1,0.5,0.3,0.7,0.4c0.2,0.2,0.4,0.4,0.5,0.7c0.1,0.2,0.2,0.5,0.2,0.8
	c0,0.7,0,1.6,0,2.3c0,0,0,0,0,0c0,0.3-0.1,0.5-0.2,0.8c-0.1,0.2-0.3,0.5-0.5,0.7c-0.2,0.2-0.4,0.3-0.7,0.4
	C113.3,10.4,113,10.5,112.7,10.5z"/>
	<path class="st0" d="M204.2,102.6c-0.6,0-1.1-0.2-1.5-0.6c-0.4-0.4-0.6-0.9-0.6-1.4s0.2-1.1,0.6-1.4c0.4-0.4,1-0.6,1.5-0.6
	c11.4,0,20.8-3.8,27.1-11.1c5.7-6.5,8.8-15.6,8.8-25.5c0-11.7-4.2-23.3-11.5-31.9c-5.8-6.8-16.3-14.8-33.1-14.8h-58.5
	c-0.6,0-1.1-0.2-1.5-0.6c-0.4-0.4-0.6-0.9-0.6-1.4c0-0.5,0.2-1.1,0.6-1.4c0.4-0.4,1-0.6,1.5-0.6h58.5c18.6,0,30.1,8.9,36.5,16.3
	c7.9,9.3,12.5,21.9,12.5,34.4c0,10.9-3.5,20.9-9.8,28.1C227.4,98.2,216.9,102.6,204.2,102.6z"/>
</svg>
