<?xml version="1.0" encoding="utf-8"?>
<!-- Generator: Adobe Illustrator 26.0.2, SVG Export Plug-In . SVG Version: 6.00 Build 0)  -->
<svg version="1.1" id="Layer_1" xmlns="http://www.w3.org/2000/svg" xmlns:xlink="http://www.w3.org/1999/xlink" x="0px" y="0px"
	 viewBox="0 0 213.4 89.1" style="enable-background:new 0 0 213.4 89.1;" xml:space="preserve">
<style type="text/css">
	
		.st0{opacity:0.85;clip-path:url(#SVGID_00000145059547897815769610000009491227007370165892_);fill:#F0F0F0;enable-background:new    ;}
	.st1{fill:url(#SVGID_00000045584477862730258200000000183136479378351767_);}
	.st2{fill:url(#SVGID_00000012468372202894002240000000429012436516681905_);}
	.st3{fill:url(#SVGID_00000097469977463389880100000005132822631751165884_);}
	.st4{fill:url(#SVGID_00000160162171036184384670000002047640626644454845_);}
	.st5{opacity:0.5;}
	.st6{fill:#61A744;}
	.st7{fill:url(#SVGID_00000104697189212454542290000016399461202673141646_);}
	.st8{fill:#7FBC42;}
	.st9{fill:#008FB4;}
	.st10{fill:url(#SVGID_00000132791218267031501600000001415907162376790178_);}
	.st11{opacity:0.5;fill:#61A744;enable-background:new    ;}
	.st12{fill:url(#SVGID_00000064337577273967038780000011109344139052097948_);}
	.st13{fill:#231F20;}
</style>
<g>
	<g>
		<g>
			<g>
				<defs>
					<polygon id="SVGID_1_" points="0.4,0 213.1,0 213.4,80.4 0,89.1 					"/>
				</defs>
				<clipPath id="SVGID_00000127740033822004564210000005776195099557741736_">
					<use xlink:href="#SVGID_1_"  style="overflow:visible;"/>
				</clipPath>
				
					<path id="Path_267" style="opacity:0.85;clip-path:url(#SVGID_00000127740033822004564210000005776195099557741736_);fill:#F0F0F0;enable-background:new    ;" d="
					M212.8,83.2L0.5,89.7V37.1c0-15.8,12.8-28.6,28.6-28.6c0.4,0,0.7,0,1.1,0l156.7,6.1c14.5,0.6,25.9,12.4,26,26.9L212.8,83.2z"/>
			</g>
		</g>
	</g>
</g>
<g>
	
		<linearGradient id="SVGID_00000084508428262666450140000017791771589522894741_" gradientUnits="userSpaceOnUse" x1="191.97" y1="1566.6" x2="191.97" y2="1529.6827" gradientTransform="matrix(1 0 0 1 -39.87 -1498)">
		<stop  offset="0" style="stop-color:#005C97"/>
		<stop  offset="1" style="stop-color:#008FB4"/>
	</linearGradient>
	<path style="fill:url(#SVGID_00000084508428262666450140000017791771589522894741_);" d="M164.6,42.4c0,2.9-1.1,5.6-4,7.1
		c3.6,1.3,5,5.9,5,8.2c0,8.2-5.2,10.9-11.6,10.9h-15.4v-37H154C160,31.6,164.6,34.9,164.6,42.4z M144.6,46.5h9c3.7,0,4.9-1.8,4.9-4
		c0-1.7-1.1-4.5-4.9-4.5h-9V46.5z M144.6,62.1h9c2.4,0,5.8-0.9,5.8-4.4c0-3.3-3.4-5.1-5.8-5.1h-9V62.1z"/>
	
		<linearGradient id="SVGID_00000116915750120886139640000018061879233550704551_" gradientUnits="userSpaceOnUse" x1="104.4604" y1="1567.3" x2="104.4604" y2="1540.2" gradientTransform="matrix(1 0 0 1 -39.87 -1498)">
		<stop  offset="0" style="stop-color:#61A744"/>
		<stop  offset="1" style="stop-color:#7FBC42"/>
	</linearGradient>
	<path style="fill:url(#SVGID_00000116915750120886139640000018061879233550704551_);" d="M64.9,42.2c-8,0-13.4,5.4-13.4,13.4
		c0,8.4,5.3,13.7,13.8,13.7c4.1,0,8.1-1.5,10.6-3.9l-3.5-3.5c-1.7,1.5-4.7,2.3-6.9,2.3c-4.5,0-7.7-2.4-8.2-6l-0.1-0.5h20.4
		c0.4-5-0.7-9.1-3-11.8C72.4,43.5,69,42.2,64.9,42.2z M57.3,53.2l0.1-0.6c0.9-3.4,3.8-5.5,7.7-5.5c4.1,0,6.7,2,7.2,5.5l0.1,0.5
		L57.3,53.2z"/>
	
		<linearGradient id="SVGID_00000182503485469956277690000014492780592473701037_" gradientUnits="userSpaceOnUse" x1="85.87" y1="1566.6237" x2="85.87" y2="1541.7485" gradientTransform="matrix(1 0 0 1 -39.87 -1498)">
		<stop  offset="0" style="stop-color:#61A744"/>
		<stop  offset="1" style="stop-color:#7FBC42"/>
	</linearGradient>
	<path style="fill:url(#SVGID_00000182503485469956277690000014492780592473701037_);" d="M43.3,37.3v31.4h5.4v-37
		c-1.3,0.2-2.5,0.7-3.5,1.5C43.4,34.5,43.3,37.1,43.3,37.3z"/>
	
		<linearGradient id="SVGID_00000013899324598379786550000005963476454894417083_" gradientUnits="userSpaceOnUse" x1="133.52" y1="1567.2" x2="133.52" y2="1540.2" gradientTransform="matrix(1 0 0 1 -39.87 -1498)">
		<stop  offset="0" style="stop-color:#61A744"/>
		<stop  offset="1" style="stop-color:#7FBC42"/>
	</linearGradient>
	<path style="fill:url(#SVGID_00000013899324598379786550000005963476454894417083_);" d="M102.5,45.3c-2.5-2-5.6-3.1-8.8-3.1
		c-7.6,0-13.9,6-13.9,13.5S86,69.2,93.7,69.2c3.2,0,6.3-1.1,8.8-3.1v2.6h5V42.2h-5V45.3z M93.7,64c-4.5-0.1-8.1-3.9-8-8.4
		s3.9-8.1,8.4-8s8,3.8,8,8.2C102.1,60.4,98.3,64,93.7,64z"/>
	<g class="st5">
		<path class="st6" d="M93.7,69.2c3.2,0,6.3-1.1,8.8-3.1v2.6h5V45.4l-8.7,3.8c2,1.5,3.2,3.9,3.2,6.5c0,4.7-3.8,8.4-8.4,8.4
			c-4.7,0-8.4-3.8-8.4-8.4c0-0.2,0-0.3,0-0.5L80,57.6C81,64.3,86.9,69.3,93.7,69.2z"/>
		<path class="st6" d="M75.9,65.5L72.4,62c-1.7,1.5-4.7,2.3-6.9,2.3H65l-7.4,3.3c2.4,1.3,5,1.9,7.7,1.8
			C69.5,69.3,73.4,67.9,75.9,65.5z"/>
	</g>
	
		<linearGradient id="SVGID_00000176022111437018146760000007202656545738209415_" gradientUnits="userSpaceOnUse" x1="223.57" y1="1567.356" x2="223.57" y2="1529.6523" gradientTransform="matrix(1 0 0 1 -39.87 -1498)">
		<stop  offset="0" style="stop-color:#005C97"/>
		<stop  offset="1" style="stop-color:#008FB4"/>
	</linearGradient>
	<path style="fill:url(#SVGID_00000176022111437018146760000007202656545738209415_);" d="M199.6,64c-3.5,3.5-8.3,5.5-13.3,5.4
		c-13,0-18.5-9.2-18.5-18.6s5.9-19.1,18.5-19.1c4.9,0,9.5,2,12.8,5.5l-4.4,4.4c-2.2-2.2-5.3-3.5-8.4-3.4c-8.5,0-12.1,6.5-12,12.5
		s3.4,12.2,12,12.2c3.3,0,6.5-1.3,8.8-3.7L199.6,64z"/>
	<path class="st8" d="M78.1,45.4c0.1-1.4,0.1-2.8,0-4.1c-0.1-0.9-0.2-1.9-0.5-2.7c0.9-0.3,1.7-0.6,2.5-1c0.9-0.4,1.7-0.9,2.5-1.4
		c-0.2,1.6-0.7,3.2-1.4,4.7C80.3,42.4,79.3,44,78.1,45.4"/>
	<path class="st9" d="M77.4,43.2c-0.9-1.1-1.8-2.1-2.9-3c-0.7-0.6-1.5-1.2-2.3-1.6c0.5-0.9,0.8-1.9,1-2.9c0.3-1.7,0.4-3.1,0.4-3.1
		c1.2,1.5,2.1,3.2,2.7,5.1C76.9,39.5,77.2,41.3,77.4,43.2"/>
	
		<linearGradient id="SVGID_00000140694017877410366620000002863594560344960942_" gradientUnits="userSpaceOnUse" x1="162.82" y1="1566.7" x2="162.82" y2="1540.2781" gradientTransform="matrix(1 0 0 1 -39.87 -1498)">
		<stop  offset="0" style="stop-color:#61A744"/>
		<stop  offset="1" style="stop-color:#7FBC42"/>
	</linearGradient>
	<path style="fill:url(#SVGID_00000140694017877410366620000002863594560344960942_);" d="M122.8,42.1c-4,0-11.6,2.1-11.6,9.9v16.7
		h5.7V53.5c-0.1-1.6,0.4-3.1,1.4-4.3c1.1-1.2,2.7-1.8,4.7-1.8c1.9,0,3.4,0.6,4.4,1.7c1,1.2,1.6,2.8,1.5,4.3v15.3h5.8V51.9
		C134.7,51.5,134.4,42.1,122.8,42.1z"/>
	<path class="st11" d="M122.8,42.1c-4,0-11.6,2.1-11.6,9.9v16.7h5.7V53.5c-0.1-1.6,0.4-3.1,1.4-4.3c1.1-1.2,2.7-1.8,4.7-1.8
		c1.9,0,3.4,0.6,4.4,1.7c1,1.2,1.6,2.8,1.5,4.3v15.3h5.8V51.9C134.7,51.5,134.4,42.1,122.8,42.1z"/>
	
		<linearGradient id="SVGID_00000021813468280134552540000012362386614801128098_" gradientUnits="userSpaceOnUse" x1="68.82" y1="1567.443" x2="68.82" y2="1540.213" gradientTransform="matrix(1 0 0 1 -39.87 -1498)">
		<stop  offset="0" style="stop-color:#61A744"/>
		<stop  offset="1" style="stop-color:#7FBC42"/>
	</linearGradient>
	<path style="fill:url(#SVGID_00000021813468280134552540000012362386614801128098_);" d="M31.5,64.1c-4.6,0-8.3-3.7-8.3-8.3
		s3.7-8.3,8.3-8.3c1.9,0,3.8,0.6,5.3,1.8l3.6-4c-2.5-2-5.7-3.1-8.9-3.1c-7.7,0-14,6.1-14,13.6s6.3,13.6,14,13.6
		c3.2,0,6.4-1.1,8.9-3.1l-3.6-4C35.2,63.5,33.4,64.1,31.5,64.1z"/>
	<path class="st13" d="M96.5,56"/>
</g>
</svg>
