<?xml version="1.0" encoding="utf-8"?>
<!-- Generator: Adobe Illustrator 26.0.2, SVG Export Plug-In . SVG Version: 6.00 Build 0)  -->
<svg version="1.1" id="Layer_1" xmlns="http://www.w3.org/2000/svg" xmlns:xlink="http://www.w3.org/1999/xlink" x="0px" y="0px"
	 viewBox="0 0 26 26" style="enable-background:new 0 0 26 26;" xml:space="preserve">
<style type="text/css">
	.st0{fill:#1A1A1A;}
</style>
<g>
	<path class="st0" d="M21.8,5.4H18V4.2V4c-0.1-1.9-1.7-3.5-3.7-3.5h-2.5h-0.3C9.6,0.6,8,2.2,8,4.2v1.2H4.2c-2.1,0-3.8,1.7-3.8,3.8
		v12.5c0,2.1,1.7,3.8,3.8,3.8h17.6c2.1,0,3.8-1.7,3.8-3.8V9.2C25.6,7.1,23.9,5.4,21.8,5.4z M10.6,4.2V4.1c0-0.6,0.6-1.1,1.2-1.1h2.5
		h0.2c0.6,0,1.1,0.6,1.1,1.2v1.2h-5V4.2z M22.9,21.8c0,0.6-0.5,1.2-1.2,1.2H4.2C3.6,23,3,22.4,3,21.8V18h20L22.9,21.8z M23,15.4H3
		V9.2C3,8.6,3.6,8,4.2,8h17.6C22.4,8,23,8.6,23,9.2V15.4z"/>
</g>
</svg>
