<?xml version="1.0" encoding="utf-8"?>
<!-- Generator: Adobe Illustrator 26.0.2, SVG Export Plug-In . SVG Version: 6.00 Build 0)  -->
<svg version="1.1" id="Layer_1" xmlns="http://www.w3.org/2000/svg" xmlns:xlink="http://www.w3.org/1999/xlink" x="0px" y="0px"
	 viewBox="0 0 26 26" style="enable-background:new 0 0 26 26;" xml:space="preserve">
<style type="text/css">
	.st0{fill:#1A1A1A;}
</style>
<g>
	<path class="st0" d="M25.5,11.7c-0.1-1.3-2.1-1.9-3.5-2.4c0.5-1.2,1.6-3.2,0.5-4.2c-2.4-2.2-2.4-2.8-5.8-1.2
		c-1.3-3.8-1.8-3.3-5.1-3.3c-1.4,0-1.8,1.5-2.5,3.3C7.8,3.5,6.1,2.3,5,3.3c-2.4,2.3-3.1,2.4-1.1,6c-3.5,1.3-3.3,1.4-3.4,5
		c0,1.6,1.6,1.9,3.4,2.6c-1.7,3.6-1.5,3.4,1.1,5.9c1,1,2.6-0.1,4.2-0.8c0.5,1.4,1.1,3.4,2.6,3.4c3.1-0.1,3.8,0.6,5-3.3
		c3.1,1.7,3.4,1,5.9-1.1c1.2-1,0.4-2.5-0.5-4.3C26,15.4,25.5,15.1,25.5,11.7z M23.2,13.3c-0.9,0.6-2.6,0.7-3.1,1.7
		c-0.1,0.1-0.4,1.1-0.5,1.2c0,1,0.8,2.2,1.1,3.1l-1,1c-0.8-0.2-1.8-0.7-2.6-1c-2.5,0.1-2.6,1.7-3.4,3.6h-1.3c-0.6-1.4-1-3-2.7-3.3
		C9.1,19.4,8.5,19.8,8,20c-0.4,0.2-1.3,0.4-1.6,0.7l-1-1c0.2-0.8,0.7-1.8,1-2.5c0.2-0.8-0.4-2.1-1.1-2.5C4.6,14.5,3.6,14,3,13.8
		v-1.5c0.8-0.6,2.5-0.6,3-1.6c0-0.1,0.5-1.2,0.5-1.1c0.3-1-0.8-2.3-1.2-3.1l1-1c1,0.3,2.3,1.3,3.3,1c0.5-0.2,1.5-0.5,1.7-1.1
		c0.2-0.7,0.6-1.7,0.9-2.3h1.4c0.5,0.8,0.5,2.5,1.5,2.9c0.1,0.1,1.1,0.4,1.2,0.5c1,0,2.2-0.8,3.1-1l1,1c-0.2,0.8-0.6,1.6-0.9,2.4
		c-0.2,0.8,0.4,2.2,1.2,2.5c0.7,0,2,0.1,2.5,0.5V13.3z"/>
	<path class="st0" d="M13,8.1c-6.5-0.1-6.5,10.1,0,10C19.5,18.2,19.5,8,13,8.1z M13,15.6c-3.3,0.1-3.3-5.1,0-5
		C16.2,10.5,16.3,15.7,13,15.6z"/>
</g>
</svg>
