<?xml version="1.0" encoding="utf-8"?>
<!-- Generator: Adobe Illustrator 26.0.2, SVG Export Plug-In . SVG Version: 6.00 Build 0)  -->
<svg version="1.1" id="Layer_1" xmlns="http://www.w3.org/2000/svg" xmlns:xlink="http://www.w3.org/1999/xlink" x="0px" y="0px"
	 viewBox="0 0 26 26" style="enable-background:new 0 0 26 26;" xml:space="preserve">
<style type="text/css">
	.st0{fill:#1A1A1A;}
</style>
<g>
	<path class="st0" d="M24.6,12.2L13.8,1.4c-0.5-0.5-1.2-0.5-1.7,0L1.4,12.2c-0.8,0.7-0.3,2,0.8,2h1.2v7.2C3.4,23.4,5,25,7,25h12
		c2,0,3.6-1.6,3.6-3.6v-7.2h1.2C24.8,14.2,25.4,13,24.6,12.2z M14.2,22.6h-2.4v-4.8h2.4V22.6z M20.2,13v8.4c0,0.7-0.5,1.2-1.2,1.2
		h-2.4v-4.8c0-1.3-1.1-2.4-2.4-2.4h-2.4c-1.3,0-2.4,1.1-2.4,2.4v4.8H7c-0.7,0-1.2-0.5-1.2-1.2V13c0-0.5-0.3-0.9-0.8-1.1l8-8l8,8
		C20.5,12,20.2,12.5,20.2,13z"/>
</g>
</svg>
