<?xml version="1.0" encoding="utf-8"?>
<!-- Generator: Adobe Illustrator 26.0.2, SVG Export Plug-In . SVG Version: 6.00 Build 0)  -->
<svg version="1.1" id="Layer_1" xmlns="http://www.w3.org/2000/svg" xmlns:xlink="http://www.w3.org/1999/xlink" x="0px" y="0px"
	 viewBox="0 0 26 26" style="enable-background:new 0 0 26 26;" xml:space="preserve">
<style type="text/css">
	.st0{fill:#1A1A1A;}
</style>
<g>
	<path class="st0" d="M23,12.3L13.7,3c-0.6-0.7-1.4-1-2.3-1H5.3C3.5,2,2,3.5,2,5.3v6.1c0,0.9,0.4,1.7,1,2.3l9.3,9.3
		c1.3,1.3,3.3,1.3,4.6,0l6.1-6.1C24.3,15.6,24.3,13.6,23,12.3z M21.4,15.4l-6.1,6.1c-0.4,0.4-1.1,0.4-1.5,0l-9.3-9.3
		c-0.2-0.2-0.3-0.5-0.3-0.8V5.3c0-0.6,0.5-1.1,1.1-1.1h6.1c0.3,0,0.6,0.1,0.7,0.4l9.3,9.3C21.8,14.3,21.8,15,21.4,15.4z"/>
	<path class="st0" d="M8.6,6.4c-1.2,0-2.2,1-2.2,2.2c0,1.2,1,2.2,2.2,2.2c1.2,0,2.2-1,2.2-2.2C10.8,7.4,9.8,6.4,8.6,6.4z"/>
</g>
</svg>
