<?xml version="1.0" encoding="utf-8"?>
<!-- Generator: Adobe Illustrator 26.0.2, SVG Export Plug-In . SVG Version: 6.00 Build 0)  -->
<svg version="1.1" id="Layer_1" xmlns="http://www.w3.org/2000/svg" xmlns:xlink="http://www.w3.org/1999/xlink" x="0px" y="0px"
	 viewBox="0 0 26 26" style="enable-background:new 0 0 26 26;" xml:space="preserve">
<style type="text/css">
	.st0{fill:#1A1A1A;}
</style>
<g>
	<path class="st0" d="M24.7,9l-2.8-5.6c-0.9-1.7-2.6-3-4.5-3H8.6c-1.9,0-3.7,1.1-4.5,2.8L1.3,8.9c-0.5,1.1-0.8,2.2-0.8,3.4v10.8
		c0,1.4,1.1,2.5,2.5,2.5s2.5-1.1,2.5-2.5v-2.5h15v2.5c0,1.4,1.1,2.5,2.5,2.5s2.5-1.1,2.5-2.5V12.4C25.5,11.2,25.2,10,24.7,9z
		 M6.7,16.7H4.2H4.1c-0.6,0-1.1-0.6-1.1-1.2s0.5-1.2,1.2-1.2h2.5h0.2c0.6,0,1.1,0.6,1.1,1.2S7.4,16.7,6.7,16.7z M21.7,16.7h-2.5
		h-0.1c-0.6,0-1.1-0.6-1.1-1.2s0.5-1.2,1.2-1.2h2.5h0.1c0.6,0,1.1,0.6,1.1,1.2S22.4,16.7,21.7,16.7z M2.9,10.5L6,4.4l0.1-0.1
		c0.4-0.7,1.2-1.2,2.1-1.2h9.5c0.9,0,1.8,0.5,2.1,1.3l3.1,6.1H2.9z"/>
</g>
</svg>
