<?xml version="1.0" encoding="utf-8"?>
<!-- Generator: Adobe Illustrator 26.0.2, SVG Export Plug-In . SVG Version: 6.00 Build 0)  -->
<svg version="1.1" id="Layer_1" xmlns="http://www.w3.org/2000/svg" xmlns:xlink="http://www.w3.org/1999/xlink" x="0px" y="0px"
	 viewBox="0 0 26 26" style="enable-background:new 0 0 26 26;" xml:space="preserve">
<style type="text/css">
	.st0{fill:#1A1A1A;}
</style>
<g>
	<path class="st0" d="M21.8,0.4L21.8,0.4H4.2c-2.1,0-3.8,1.7-3.8,3.8v17.6c0,2.1,1.7,3.8,3.8,3.8h17.6c2.1,0,3.8-1.7,3.8-3.8V4.3
		C25.6,2.2,23.9,0.4,21.8,0.4z M22.9,21.8c0,0.6-0.5,1.2-1.2,1.2H4.5l5-6.9l6.5,5.4l0.1,0.1c0.5,0.3,1.3,0.2,1.7-0.4l5.2-7.8
		L22.9,21.8z M23,8.9l-6.6,9.8L10,13.3l-0.1-0.1c-0.6-0.4-1.3-0.2-1.7,0.3L3,20.8V4.2C3,3.6,3.6,3,4.2,3h17.6C22.4,3,23,3.6,23,4.2
		V8.9z"/>
	<circle class="st0" cx="8" cy="8" r="2.5"/>
</g>
</svg>
