<?xml version="1.0" encoding="utf-8"?>
<!-- Generator: Adobe Illustrator 26.0.2, SVG Export Plug-In . SVG Version: 6.00 Build 0)  -->
<svg version="1.1" id="Layer_1" xmlns="http://www.w3.org/2000/svg" xmlns:xlink="http://www.w3.org/1999/xlink" x="0px" y="0px"
	 viewBox="0 0 1000 250" style="enable-background:new 0 0 1000 250;" xml:space="preserve">
<style type="text/css">
	.st0{opacity:0.85;fill:#005C97;enable-background:new    ;}
	.st1{opacity:0.85;clip-path:url(#SVGID_00000040554942658275908280000006121676633544160170_);fill:#FFFFFF;}
	.st2{clip-path:url(#SVGID_00000045612925445726192340000013545831634451644337_);fill:#043673;}
	.st3{clip-path:url(#SVGID_00000011710254669154159590000002326484120979146937_);fill:#043673;}
	.st4{clip-path:url(#SVGID_00000039836813181782528360000014761619509944231041_);fill:#043673;}
	.st5{clip-path:url(#SVGID_00000092432533632792020920000008833534343353520263_);fill:#043673;}
	.st6{clip-path:url(#SVGID_00000157292735940069414520000013570726396421094332_);fill:#043673;}
	.st7{clip-path:url(#SVGID_00000116204070641842803570000005444135210359227583_);fill:#043673;}
	.st8{clip-path:url(#SVGID_00000024689719684285442410000014425568749047261374_);fill:#043673;}
	.st9{clip-path:url(#SVGID_00000175300493577590531180000007080346412644880301_);fill:#043673;}
	.st10{clip-path:url(#SVGID_00000069359938477606417160000014198413982894714244_);fill:#FDB913;}
	.st11{clip-path:url(#SVGID_00000103944418329092916000000013978613130919882371_);fill:#FDB913;}
</style>
<path id="Path_272" class="st0" d="M0,250.1V87.5l916.8-37.3c44.3-1.7,81.5,33.1,83.2,77.5v122.5L0,250.1L0,250.1z"/>
<g>
	<g>
		<defs>
			<polygon id="SVGID_1_" points="139.4,-7.2 352.1,-7.2 352.4,73.2 139,81.9 			"/>
		</defs>
		<clipPath id="SVGID_00000001646542652614654290000001511511464544630705_">
			<use xlink:href="#SVGID_1_"  style="overflow:visible;"/>
		</clipPath>
		
			<path id="Path_267" style="opacity:0.85;clip-path:url(#SVGID_00000001646542652614654290000001511511464544630705_);fill:#FFFFFF;" d="
			M351.8,76l-212.3,6.5V29.9c0-15.8,12.8-28.6,28.6-28.6c0.4,0,0.7,0,1.1,0l156.7,6.1c14.5,0.6,25.9,12.4,26,26.9L351.8,76z"/>
	</g>
</g>
<g>
	<g>
		<defs>
			<rect id="SVGID_00000116196201980727167940000014841879753201764487_" x="156.5" y="28.6" width="182.1" height="49.2"/>
		</defs>
		<clipPath id="SVGID_00000121274733636065726730000013096254516479825551_">
			<use xlink:href="#SVGID_00000116196201980727167940000014841879753201764487_"  style="overflow:visible;"/>
		</clipPath>
		<path id="Path_41" style="clip-path:url(#SVGID_00000121274733636065726730000013096254516479825551_);fill:#043673;" d="
			M172.7,47.3c0,2.2-0.8,4-2.4,5.3c-1.6,1.3-3.9,1.9-6.8,1.9c-2.8,0-5.1-0.5-7.1-1.4v-4.2c1.1,0.5,2.3,0.9,3.5,1.3
			c1.3,0.4,2.6,0.6,3.9,0.6c1.5,0,2.6-0.3,3.3-0.9c1.3-1.1,1.4-3,0.3-4.3c-0.2-0.2-0.4-0.4-0.6-0.5c-1.2-0.8-2.6-1.5-3.9-2
			c-1-0.4-2-1-3-1.6c-0.9-0.6-1.7-1.4-2.3-2.4c-0.6-1.1-1-2.3-0.9-3.6c0-2.1,0.8-3.8,2.3-5.1c1.5-1.2,3.6-1.8,6.1-1.8
			c1.3,0,2.5,0.1,3.8,0.4c1.2,0.3,2.4,0.7,3.5,1.2l-1.5,3.6c-1-0.4-2-0.8-3-1.1s-2-0.4-3-0.4c-1.2,0-2.2,0.3-2.8,0.8s-1,1.3-1,2.2
			c0,0.6,0.2,1.2,0.5,1.8c0.4,0.6,1,1,1.6,1.3c0.7,0.4,1.7,0.9,2.9,1.4s2.4,1.1,3.5,1.9c0.9,0.6,1.6,1.4,2.2,2.3
			C172.5,45,172.8,46.2,172.7,47.3"/>
	</g>
	<g>
		<defs>
			<rect id="SVGID_00000148648519940056639280000017911789505403047553_" x="156.5" y="28.6" width="182.1" height="49.2"/>
		</defs>
		<clipPath id="SVGID_00000098180455455598885470000000026335974189024697_">
			<use xlink:href="#SVGID_00000148648519940056639280000017911789505403047553_"  style="overflow:visible;"/>
		</clipPath>
		<path id="Path_42" style="clip-path:url(#SVGID_00000098180455455598885470000000026335974189024697_);fill:#043673;" d="
			M183.3,51c0.5,0,1.1-0.1,1.6-0.2c0.5-0.1,1-0.2,1.5-0.4v3.3c-0.6,0.3-1.2,0.5-1.8,0.6c-0.8,0.1-1.6,0.2-2.4,0.2c-1,0-2-0.2-3-0.5
			c-0.9-0.4-1.6-1-2.1-1.9s-0.8-2.2-0.8-3.8v-10h-2.6v-1.9l2.8-1.6l1.4-4.1h2.8v4.2h5.4v3.4h-5.4v9.9c-0.1,0.7,0.2,1.5,0.7,2
			C182,50.8,182.6,51,183.3,51"/>
	</g>
	<g>
		<defs>
			<rect id="SVGID_00000058573405151986634210000010266123441146235561_" x="156.5" y="28.6" width="182.1" height="49.2"/>
		</defs>
		<clipPath id="SVGID_00000166634762267397037980000017575167748771946940_">
			<use xlink:href="#SVGID_00000058573405151986634210000010266123441146235561_"  style="overflow:visible;"/>
		</clipPath>
		<path id="Path_43" style="clip-path:url(#SVGID_00000166634762267397037980000017575167748771946940_);fill:#043673;" d="
			M199,34.7c0.3,0,0.6,0,1,0.1c0.4,0,0.7,0.1,0.9,0.1l-0.4,4.1c-0.2,0-0.5-0.1-0.9-0.1c-0.3,0-0.6,0-0.9-0.1c-0.9,0-1.8,0.2-2.7,0.6
			c-0.8,0.4-1.5,1-2,1.8c-0.5,0.9-0.8,2-0.8,3.1v9.9H189V35.1h3.4l0.6,3.3h0.2c0.6-1,1.4-1.9,2.3-2.6
			C196.6,35.1,197.8,34.7,199,34.7"/>
	</g>
	<g>
		<defs>
			<rect id="SVGID_00000149354220305534817020000008485282020791866498_" x="156.5" y="28.6" width="182.1" height="49.2"/>
		</defs>
		<clipPath id="SVGID_00000168814684679863368950000017200972470241309605_">
			<use xlink:href="#SVGID_00000149354220305534817020000008485282020791866498_"  style="overflow:visible;"/>
		</clipPath>
		<path id="Path_44" style="clip-path:url(#SVGID_00000168814684679863368950000017200972470241309605_);fill:#043673;" d="
			M219.7,44.6c0,3.2-0.8,5.6-2.5,7.4c-1.7,1.7-3.9,2.6-6.7,2.6c-1.6,0-3.2-0.4-4.7-1.2c-1.4-0.8-2.5-2-3.2-3.4
			c-0.8-1.7-1.2-3.5-1.2-5.4c0-3.2,0.8-5.6,2.5-7.3c1.6-1.7,3.9-2.6,6.7-2.6c1.6,0,3.3,0.4,4.7,1.1c1.4,0.8,2.5,1.9,3.2,3.4
			C219.3,40.9,219.7,42.7,219.7,44.6 M206,44.6c0,2,0.4,3.6,1.1,4.7c0.7,1.1,1.9,1.7,3.5,1.7s2.7-0.6,3.5-1.7s1.1-2.7,1.1-4.7
			s-0.4-3.6-1.1-4.7c-0.7-1.1-1.9-1.6-3.5-1.6s-2.8,0.5-3.5,1.6C206.3,41,206,42.6,206,44.6"/>
	</g>
	<g>
		<defs>
			<rect id="SVGID_00000109733473119006870450000006555360360069618070_" x="156.5" y="28.6" width="182.1" height="49.2"/>
		</defs>
		<clipPath id="SVGID_00000098202526432866611480000006617327194531609534_">
			<use xlink:href="#SVGID_00000109733473119006870450000006555360360069618070_"  style="overflow:visible;"/>
		</clipPath>
		<path id="Path_45" style="clip-path:url(#SVGID_00000098202526432866611480000006617327194531609534_);fill:#043673;" d="
			M232.7,34.7c2.1,0,3.8,0.6,5,1.7c1.2,1.1,1.8,2.9,1.8,5.4v12.5H235V42.6c0-1.4-0.3-2.5-0.8-3.2c-0.6-0.7-1.5-1.1-2.7-1.1
			c-1.8,0-3,0.6-3.7,1.7c-0.7,1.1-1,2.7-1,4.8v9.4h-4.5V35.1h3.4l0.6,2.5h0.2c0.6-1,1.5-1.7,2.5-2.2
			C230.3,34.9,231.5,34.7,232.7,34.7"/>
	</g>
	<g>
		<defs>
			<rect id="SVGID_00000150798815029159991620000004755658233965332365_" x="156.5" y="28.6" width="182.1" height="49.2"/>
		</defs>
		<clipPath id="SVGID_00000027591629267745731670000000107333414056881590_">
			<use xlink:href="#SVGID_00000150798815029159991620000004755658233965332365_"  style="overflow:visible;"/>
		</clipPath>
		<path id="Path_46" style="clip-path:url(#SVGID_00000027591629267745731670000000107333414056881590_);fill:#043673;" d="
			M249.7,34.7c2.5,0,4.4,0.9,5.7,2.8h0.2L256,35h3.7v19.3c0,2.7-0.8,4.8-2.3,6.2s-3.8,2.1-6.9,2.1c-1.3,0-2.5-0.1-3.8-0.3
			c-1.1-0.2-2.2-0.5-3.3-0.9v-3.7c1.1,0.5,2.3,0.8,3.5,1.1c1.3,0.3,2.6,0.4,3.9,0.4c1.4,0,2.5-0.4,3.3-1.2s1.2-2,1.2-3.6v-0.5
			c0-0.4,0-0.8,0-1.2s0-0.8,0.1-1.1h-0.1c-0.6,0.9-1.4,1.7-2.4,2.2s-2.1,0.7-3.2,0.7c-2.3,0-4.2-0.9-5.5-2.6c-1.3-1.7-2-4.2-2-7.3
			s0.7-5.6,2-7.3C245.4,35.6,247.3,34.7,249.7,34.7 M250.8,38.3c-2.8,0-4.2,2.1-4.2,6.4c0,4.2,1.4,6.3,4.2,6.3
			c1.6,0,2.7-0.4,3.4-1.3s1.1-2.3,1.1-4.4v-0.7c0-2.3-0.4-3.9-1.1-4.9C253.6,38.8,252.4,38.3,250.8,38.3"/>
	</g>
	<g>
		<defs>
			<rect id="SVGID_00000010301951507565922480000010903804094008719248_" x="156.5" y="28.6" width="182.1" height="49.2"/>
		</defs>
		<clipPath id="SVGID_00000002361740546007616730000017911977317636867748_">
			<use xlink:href="#SVGID_00000010301951507565922480000010903804094008719248_"  style="overflow:visible;"/>
		</clipPath>
		<path id="Path_47" style="clip-path:url(#SVGID_00000002361740546007616730000017911977317636867748_);fill:#043673;" d="
			M271.2,34.7c2.6,0,4.6,0.8,6.1,2.3s2.2,3.7,2.2,6.4v2.3h-12.7c0,1.7,0.5,3.1,1.5,4c0.9,1,2.2,1.4,3.8,1.4c1.1,0,2.2-0.1,3.3-0.4
			c1-0.3,2.1-0.6,3-1.1v3.6c-0.9,0.4-1.9,0.8-2.9,1c-1.2,0.2-2.4,0.3-3.6,0.3c-1.7,0-3.4-0.3-5-1.1c-1.4-0.7-2.6-1.8-3.4-3.3
			c-0.8-1.4-1.2-3.3-1.2-5.5c0-3.3,0.8-5.8,2.4-7.5C266.4,35.6,268.5,34.7,271.2,34.7 M271.2,38c-1.1,0-2.2,0.4-2.9,1.1
			c-0.7,0.8-1.2,1.9-1.3,3.4h8.2c0-1.2-0.3-2.3-1-3.3C273.6,38.4,272.6,38,271.2,38"/>
	</g>
	<g>
		<defs>
			<rect id="SVGID_00000071557183791138398950000004155443104965266602_" x="156.5" y="28.6" width="182.1" height="49.2"/>
		</defs>
		<clipPath id="SVGID_00000132786432592817853660000017514798881640506524_">
			<use xlink:href="#SVGID_00000071557183791138398950000004155443104965266602_"  style="overflow:visible;"/>
		</clipPath>
		<path id="Path_48" style="clip-path:url(#SVGID_00000132786432592817853660000017514798881640506524_);fill:#043673;" d="
			M292.6,34.7c0.3,0,0.6,0,1,0.1c0.4,0,0.7,0.1,0.9,0.1l-0.4,4.1c-0.2,0-0.5-0.1-0.9-0.1c-0.3,0-0.6,0-0.9-0.1
			c-0.9,0-1.8,0.2-2.7,0.6c-0.8,0.4-1.5,1-2,1.8c-0.5,0.9-0.8,2-0.8,3.1v9.9h-4.5V35.1h3.4l0.6,3.3h0.2c0.6-1,1.4-1.9,2.3-2.6
			C290.2,35.1,291.4,34.7,292.6,34.7"/>
	</g>
	<g>
		<defs>
			<rect id="SVGID_00000154408396255361948260000011996581614160072076_" x="156.5" y="28.6" width="182.1" height="49.2"/>
		</defs>
		<clipPath id="SVGID_00000122718974748605201050000010524399941229502883_">
			<use xlink:href="#SVGID_00000154408396255361948260000011996581614160072076_"  style="overflow:visible;"/>
		</clipPath>
		<path id="Path_49" style="clip-path:url(#SVGID_00000122718974748605201050000010524399941229502883_);fill:#FDB913;" d="
			M296.7,29h8.8c3.6,0,6.2,0.5,7.8,1.6c1.5,1,2.4,2.8,2.4,4.7c0,1-0.2,1.9-0.6,2.8c-0.4,0.7-0.9,1.3-1.5,1.8
			c-0.6,0.4-1.2,0.7-1.9,0.9V41c0.7,0.2,1.4,0.5,2.1,0.9s1.3,1,1.7,1.8c0.5,1,0.7,2.1,0.7,3.2c0.1,2.1-0.9,4.1-2.6,5.4
			c-1.7,1.3-4.1,2-7,2h-9.8V29H296.7z M303.5,38.7h2.1c1.1,0,1.9-0.2,2.4-0.7c0.5-0.4,0.7-1.1,0.7-1.7c0-1.4-1.1-2.1-3.2-2.1h-1.9
			L303.5,38.7z M303.5,43.6V49h2.4c1.2,0,2-0.3,2.5-0.8s0.7-1.2,0.7-1.9s-0.2-1.3-0.7-1.8s-1.3-0.8-2.6-0.8L303.5,43.6z"/>
	</g>
	<g>
		<defs>
			<rect id="SVGID_00000085936575561382359360000002042254260546032780_" x="156.5" y="28.6" width="182.1" height="49.2"/>
		</defs>
		<clipPath id="SVGID_00000183207534036737082920000006683565550335510923_">
			<use xlink:href="#SVGID_00000085936575561382359360000002042254260546032780_"  style="overflow:visible;"/>
		</clipPath>
		<path id="Path_50" style="clip-path:url(#SVGID_00000183207534036737082920000006683565550335510923_);fill:#FDB913;" d="
			M330,34.2c-1.5,0-3,0.7-3.8,2c-0.9,1.3-1.4,3.2-1.4,5.5c0,2.4,0.5,4.2,1.4,5.4s2.3,1.9,4.2,1.9c1.1,0,2.2-0.2,3.2-0.5
			c1.1-0.3,2.1-0.7,3.2-1.1v5.8c-1.1,0.5-2.2,0.9-3.4,1.1c-1.2,0.2-2.5,0.3-3.7,0.3c-2.8,0-5-0.5-6.7-1.6s-3.1-2.7-3.8-4.5
			c-0.9-2.1-1.3-4.4-1.2-6.7c0-2.3,0.4-4.6,1.4-6.8c0.9-1.9,2.3-3.5,4.2-4.6c1.8-1.1,4-1.7,6.7-1.7c1.3,0,2.6,0.2,3.9,0.4
			c1.4,0.3,2.7,0.7,4,1.3l-2.1,5.4c-0.9-0.4-1.8-0.8-2.8-1.1C332.1,34.3,331,34.2,330,34.2"/>
	</g>
</g>
</svg>
