<svg xmlns="http://www.w3.org/2000/svg" width="214" height="214" viewBox="0 0 214 214">
  <g id="Group_1" data-name="Group 1" transform="translate(-833 -113.5)">
    <path id="Path_1" data-name="Path 1" d="M1668,679.719a107,107,0,1,1,107,107A107,107,0,0,1,1668,679.719Z" transform="translate(-835 -459.219)" fill="#f2f2f2"/>
    <path id="Path_2" data-name="Path 2" d="M1668,679.719a107,107,0,1,1,107,107A107,107,0,0,1,1668,679.719Z" transform="translate(-835 -459.219)" fill="#fff"/>
    <path id="Path_3" data-name="Path 3" d="M1811.14,740.732h-.13l-27.52-2.488h-25.78l-27.52,2.488a1.176,1.176,0,0,1-.87-.257c-.54-.359-3.18-2.949-4.95-16.236-.59-4.54-1.18-12.619,1.46-15.825a.429.429,0,0,0,.13-.282V690.3c-.31-35.37,9.33-50.2,12.28-53.915a3.041,3.041,0,0,1,1.05-.815,2.973,2.973,0,0,1,1.29-.288h10.54a.367.367,0,0,0,.19-.046.327.327,0,0,0,.14-.133l.75-1.052a3,3,0,0,1,2.43-1.231h31.94a3,3,0,0,1,2.43,1.231l.75,1.052a.327.327,0,0,0,.14.133.366.366,0,0,0,.19.046h10.54a2.974,2.974,0,0,1,1.29.288,3.04,3.04,0,0,1,1.05.815c2.95,3.719,12.59,18.545,12.28,53.915v17.827a.43.43,0,0,0,.13.282c2.64,3.206,2.05,11.285,1.46,15.825-1.77,13.287-4.41,15.877-4.95,16.236A1.145,1.145,0,0,1,1811.14,740.732Zm-27.5-5.053,26.93,2.437c.67-1,2.42-4.463,3.72-14.21.24-1.847,1.34-11.158-.89-13.851a2.955,2.955,0,0,1-.72-1.923V690.3c.13-14.953-1.52-27.829-4.9-38.32-2.69-8.259-5.67-12.543-6.82-13.979a.389.389,0,0,0-.15-.116.417.417,0,0,0-.19-.038h-10.54a2.965,2.965,0,0,1-1.36-.334,2.925,2.925,0,0,1-1.05-.923l-.77-1.051a.39.39,0,0,0-.15-.12.363.363,0,0,0-.18-.034h-31.94a.385.385,0,0,0-.18.034.39.39,0,0,0-.15.12l-.77,1.051a2.925,2.925,0,0,1-1.05.923,2.965,2.965,0,0,1-1.36.334h-10.54a.416.416,0,0,0-.19.038.39.39,0,0,0-.15.116c-2,2.514-12.03,16.852-11.72,52.3v17.827a2.956,2.956,0,0,1-.72,1.923c-.38.488-2.25,3.36-.87,13.851,1.28,9.747,3.03,13.209,3.7,14.21l26.93-2.437Z" transform="translate(-835 -459.219)" fill="#002a4e"/>
    <path id="Path_4" data-name="Path 4" d="M1804.55,691.36h-.11a426.112,426.112,0,0,0-67.69,0h-.1a4.712,4.712,0,0,1-3.46-1.539,4.617,4.617,0,0,1-.97-1.684,4.857,4.857,0,0,1-.19-1.932l2.26-23.213a4.654,4.654,0,0,1,4.54-4.181,279.913,279.913,0,0,1,63.53,0,4.636,4.636,0,0,1,3.07,1.211,4.583,4.583,0,0,1,1.47,2.945l2.26,23.264a4.614,4.614,0,0,1-.19,1.918,4.687,4.687,0,0,1-.96,1.672,4.787,4.787,0,0,1-1.57,1.133A4.721,4.721,0,0,1,1804.55,691.36Zm-33.94-3.924c11.34,0,22.7.462,33.96,1.36a1.986,1.986,0,0,0,.83-.182,1.931,1.931,0,0,0,.68-.511,2.189,2.189,0,0,0,.45-.75,2.116,2.116,0,0,0,.09-.866l-2.25-23.264a2.116,2.116,0,0,0-.69-1.322,2.07,2.07,0,0,0-1.39-.525h-.16a278.875,278.875,0,0,0-63.07,0h-.15a2.086,2.086,0,0,0-2.08,1.873l-2.26,23.212a2.02,2.02,0,0,0,.1.879,2.064,2.064,0,0,0,.44.763,2,2,0,0,0,1.52.693C1747.89,687.9,1759.25,687.436,1770.61,687.436Z" transform="translate(-835 -459.219)" fill="#002a4e"/>
    <path id="Path_5" data-name="Path 5" d="M1793.57,705.025h-45.94a1.283,1.283,0,1,1,0-2.565h45.94a1.283,1.283,0,1,1,0,2.565Z" transform="translate(-835 -459.219)" fill="#002a4e"/>
    <path id="Path_6" data-name="Path 6" d="M1788.05,714.592h-34.91a1.265,1.265,0,0,1-.9-.376,1.272,1.272,0,0,1,0-1.814,1.268,1.268,0,0,1,.9-.375h34.91a1.283,1.283,0,1,1,0,2.565Z" transform="translate(-835 -459.219)" fill="#002a4e"/>
    <path id="Path_7" data-name="Path 7" d="M1791.31,709.822h-41.42a1.3,1.3,0,0,1-.9-.382,1.276,1.276,0,0,1-.01-1.807,1.292,1.292,0,0,1,.91-.376h41.42a1.274,1.274,0,0,1,1.28,1.283,1.276,1.276,0,0,1-.38.9A1.3,1.3,0,0,1,1791.31,709.822Z" transform="translate(-835 -459.219)" fill="#002a4e"/>
    <path id="Path_8" data-name="Path 8" d="M1787.59,730.012h-33.98a2.489,2.489,0,0,1-1.23-.334,2.528,2.528,0,0,1-.9-.9,2.229,2.229,0,0,1,0-2.334l2.77-4.9a2.458,2.458,0,0,1,2.15-1.231h28.4a2.458,2.458,0,0,1,2.15,1.231l2.77,4.873a2.274,2.274,0,0,1,0,2.36,2.528,2.528,0,0,1-.9.9A2.489,2.489,0,0,1,1787.59,730.012Zm-33.75-2.565h33.52l-2.61-4.565h-28.3Z" transform="translate(-835 -459.219)" fill="#002a4e"/>
    <path id="Path_9" data-name="Path 9" d="M1722.73,689.92h-9.62a1.874,1.874,0,0,1-1.88-1.872v-9.131a1.9,1.9,0,0,1,1.88-1.9h6.02a1.9,1.9,0,0,1,1.88,1.9v4.617h1.72a1.268,1.268,0,0,1,.9.375,1.272,1.272,0,0,1,0,1.814,1.265,1.265,0,0,1-.9.376h-2.42a1.876,1.876,0,0,1-1.87-1.873v-4.642h-4.64v7.771h8.93a1.269,1.269,0,0,1,.9.376,1.272,1.272,0,0,1,0,1.814A1.268,1.268,0,0,1,1722.73,689.92Z" transform="translate(-835 -459.219)" fill="#002a4e"/>
    <path id="Path_10" data-name="Path 10" d="M1828.07,689.92h-9.62a1.283,1.283,0,1,1,0-2.565h8.95v-7.771h-4.67v4.642a1.878,1.878,0,0,1-.55,1.324,1.857,1.857,0,0,1-1.32.549h-2.41a1.283,1.283,0,1,1,0-2.565h1.72v-4.617a1.888,1.888,0,0,1,1.89-1.9h6.01a1.888,1.888,0,0,1,1.89,1.9v9.131a1.888,1.888,0,0,1-1.89,1.872Z" transform="translate(-835 -459.219)" fill="#002a4e"/>
    <path id="Path_11" data-name="Path 11" d="M1738.91,751.4h-6.26a3.427,3.427,0,0,1-3.62-3.129V739.7a1.291,1.291,0,0,1,1.29-1.283,1.268,1.268,0,0,1,.9.376,1.29,1.29,0,0,1,.38.907v8.567c0,.231.44.564,1.05.564h6.26c.62,0,1.05-.333,1.05-.564V739.7a1.29,1.29,0,0,1,.38-.907,1.269,1.269,0,0,1,.9-.376,1.291,1.291,0,0,1,1.29,1.283v8.567A3.408,3.408,0,0,1,1738.91,751.4Z" transform="translate(-835 -459.219)" fill="#002a4e"/>
    <path id="Path_12" data-name="Path 12" d="M1808.52,751.4h-6.26a3.4,3.4,0,0,1-3.59-3.129V739.7a1.291,1.291,0,0,1,1.29-1.283,1.268,1.268,0,0,1,.9.376,1.29,1.29,0,0,1,.38.907v8.567c0,.231.41.564,1.02.564h6.26c.64,0,1.05-.333,1.05-.564V739.7a1.291,1.291,0,0,1,1.29-1.283,1.269,1.269,0,0,1,.9.376,1.29,1.29,0,0,1,.38.907v8.567A3.408,3.408,0,0,1,1808.52,751.4Z" transform="translate(-835 -459.219)" fill="#002a4e"/>
    <path id="Path_13" data-name="Path 13" d="M1793.75,714.161a1.27,1.27,0,0,1-.63-.163,1.2,1.2,0,0,1-.47-.453,1.153,1.153,0,0,1-.19-.621,1.269,1.269,0,0,1,.13-.636c.03-.025,1.41-2.693,4.21-8.823a2.283,2.283,0,0,1,.28-.41c1.46-1.334,8.88-7.875,12.67-5.053.98.718,1.29,2.129,1.52,3.591a15.206,15.206,0,0,1-1.34,7.977,7.387,7.387,0,0,1-6.72,4.591Zm2.05-2.565h7.41a4.832,4.832,0,0,0,4.34-3.027,12.635,12.635,0,0,0,1.18-6.566,4.748,4.748,0,0,0-.52-1.949c-.61-.436-2.28-.205-5.18,1.641a33.687,33.687,0,0,0-4,3.078C1797.57,707.979,1796.49,710.211,1795.8,711.6Z" transform="translate(-835 -459.219)" fill="#002a4e"/>
    <path id="Path_14" data-name="Path 14" d="M1747.45,714.161h-9.46a7.386,7.386,0,0,1-6.72-4.591,15.2,15.2,0,0,1-1.34-7.977c.23-1.462.54-2.873,1.52-3.591,3.79-2.822,11.2,3.719,12.67,5.053a2.29,2.29,0,0,1,.28.41c2.79,6.13,4.18,8.8,4.21,8.823a1.269,1.269,0,0,1,.13.636,1.153,1.153,0,0,1-.19.621,1.2,1.2,0,0,1-.47.453A1.269,1.269,0,0,1,1747.45,714.161Zm-14.47-14.107a5.054,5.054,0,0,0-.51,1.949,12.634,12.634,0,0,0,1.18,6.566,4.831,4.831,0,0,0,4.36,3.027h7.39c-.69-1.385-1.77-3.617-3.23-6.823a33.7,33.7,0,0,0-4-3.078C1735.27,699.849,1733.6,699.618,1732.98,700.054Z" transform="translate(-835 -459.219)" fill="#002a4e"/>
    <path id="Path_15" data-name="Path 15" d="M1739.35,728.062a3.5,3.5,0,0,1-3.23-2.153,3.56,3.56,0,0,1-.2-2.015,3.487,3.487,0,0,1,6.91.68,3.484,3.484,0,0,1-3.48,3.488Zm0-4.386a.942.942,0,0,0-.4.02.975.975,0,0,0-.6.5.986.986,0,0,0,0,.778.909.909,0,0,0,.25.316.881.881,0,0,0,.35.185.91.91,0,0,0,.4.02.874.874,0,0,0,.39-.02,1,1,0,0,0,.36-.185,1.01,1.01,0,0,0,.24-.316.985.985,0,0,0,0-.778.988.988,0,0,0-.24-.316,1.014,1.014,0,0,0-.36-.186A.9.9,0,0,0,1739.35,723.676Z" transform="translate(-835 -459.219)" fill="#002a4e"/>
    <path id="Path_16" data-name="Path 16" d="M1801.85,728.062a3.448,3.448,0,0,1-1.93-.588,3.5,3.5,0,0,1-1.29-1.565,3.56,3.56,0,0,1-.2-2.015,3.487,3.487,0,0,1,6.91.68,3.484,3.484,0,0,1-3.49,3.488Zm0-4.386a.907.907,0,0,0-.74.206.891.891,0,0,0-.25.316.986.986,0,0,0,0,.778.909.909,0,0,0,.25.316.911.911,0,0,0,.74.205.91.91,0,0,0,.4-.02.881.881,0,0,0,.35-.185.908.908,0,0,0,.25-.316.985.985,0,0,0,0-.778.975.975,0,0,0-.6-.5A.942.942,0,0,0,1801.85,723.676Z" transform="translate(-835 -459.219)" fill="#002a4e"/>
    <path id="Path_17" data-name="Path 17" d="M1776.03,625.488h-5.62a1.272,1.272,0,0,1-1.28-1.282V609.329a1.272,1.272,0,0,1,.38-.9,1.3,1.3,0,0,1,.9-.383h5.62a8.72,8.72,0,0,1,0,17.441Zm-4.34-2.564h4.34a6.156,6.156,0,0,0,0-12.312h-4.34Z" transform="translate(-835 -459.219)" fill="#002a4e"/>
    <path id="Path_18" data-name="Path 18" d="M1769.41,622.771h-3.98a1.3,1.3,0,0,1-1.28-1.283V619.9a1.177,1.177,0,0,1,.1-.489,1.15,1.15,0,0,1,.28-.409,1.31,1.31,0,0,1,.9-.384h3.98a1.268,1.268,0,0,1,.9.375,1.29,1.29,0,0,1,.38.907,1.346,1.346,0,0,1-.26.795,1.266,1.266,0,0,1,.26.77,1.406,1.406,0,0,1-.09.5,1.238,1.238,0,0,1-.28.425,1.261,1.261,0,0,1-.42.285A1.228,1.228,0,0,1,1769.41,622.771Z" transform="translate(-835 -459.219)" fill="#002a4e"/>
    <path id="Path_19" data-name="Path 19" d="M1769.41,614.918h-3.98a1.272,1.272,0,0,1-1.28-1.282v-1.59a1.3,1.3,0,0,1,1.28-1.283h3.98a1.265,1.265,0,0,1,.9.376,1.287,1.287,0,0,1,.38.907,1.266,1.266,0,0,1-.26.769,1.507,1.507,0,0,1,.26.795,1.411,1.411,0,0,1-.09.5,1.3,1.3,0,0,1-.7.709A1.228,1.228,0,0,1,1769.41,614.918Z" transform="translate(-835 -459.219)" fill="#002a4e"/>
    <path id="Path_20" data-name="Path 20" d="M1818.52,673.194a1.267,1.267,0,0,1-.9-.375,1.272,1.272,0,0,1,0-1.814,1.264,1.264,0,0,1,.9-.376,15.6,15.6,0,0,0,13.01-6.745c3.21-4.412,4.67-9.773,4.67-15.877,0-14.441-9.39-29.959-29.96-29.959h-21.68a1.264,1.264,0,0,1-.9-.376,1.271,1.271,0,0,1,0-1.813,1.264,1.264,0,0,1,.9-.376h21.68c10.26,0,18.77,3.617,24.67,10.491a34.172,34.172,0,0,1,7.85,22.033,29.7,29.7,0,0,1-5.15,17.364A18.091,18.091,0,0,1,1818.52,673.194Z" transform="translate(-835 -459.219)" fill="#002a4e"/>
    <path id="Path_21" data-name="Path 21" d="M1668,679.719a107,107,0,1,1,107,107A107,107,0,0,1,1668,679.719Z" transform="translate(-835 -459.219)" fill="#012a4e"/>
    <path id="Path_23" data-name="Path 23" d="M1811.14,740.732h-.13l-27.52-2.488h-25.78l-27.52,2.488a1.176,1.176,0,0,1-.87-.257c-.54-.359-3.18-2.949-4.95-16.236-.59-4.54-1.18-12.619,1.46-15.825a.429.429,0,0,0,.13-.282V690.3c-.31-35.37,9.33-50.2,12.28-53.915a3.041,3.041,0,0,1,1.05-.815,2.973,2.973,0,0,1,1.29-.288h10.54a.367.367,0,0,0,.19-.046.327.327,0,0,0,.14-.133l.75-1.052a3,3,0,0,1,2.43-1.231h31.94a3,3,0,0,1,2.43,1.231l.75,1.052a.327.327,0,0,0,.14.133.366.366,0,0,0,.19.046h10.54a2.974,2.974,0,0,1,1.29.288,3.04,3.04,0,0,1,1.05.815c2.95,3.719,12.59,18.545,12.28,53.915v17.827a.43.43,0,0,0,.13.282c2.64,3.206,2.05,11.285,1.46,15.825-1.77,13.287-4.41,15.877-4.95,16.236A1.145,1.145,0,0,1,1811.14,740.732Zm-27.5-5.053,26.93,2.437c.67-1,2.42-4.463,3.72-14.21.24-1.847,1.34-11.158-.89-13.851a2.955,2.955,0,0,1-.72-1.923V690.3c.13-14.953-1.52-27.829-4.9-38.32-2.69-8.259-5.67-12.543-6.82-13.979a.389.389,0,0,0-.15-.116.417.417,0,0,0-.19-.038h-10.54a2.965,2.965,0,0,1-1.36-.334,2.925,2.925,0,0,1-1.05-.923l-.77-1.051a.39.39,0,0,0-.15-.12.363.363,0,0,0-.18-.034h-31.94a.385.385,0,0,0-.18.034.39.39,0,0,0-.15.12l-.77,1.051a2.925,2.925,0,0,1-1.05.923,2.965,2.965,0,0,1-1.36.334h-10.54a.416.416,0,0,0-.19.038.39.39,0,0,0-.15.116c-2,2.514-12.03,16.852-11.72,52.3v17.827a2.956,2.956,0,0,1-.72,1.923c-.38.488-2.25,3.36-.87,13.851,1.28,9.747,3.03,13.209,3.7,14.21l26.93-2.437Z" transform="translate(-835 -459.219)" fill="#fff"/>
    <path id="Path_24" data-name="Path 24" d="M1804.55,691.36h-.11a426.112,426.112,0,0,0-67.69,0h-.1a4.712,4.712,0,0,1-3.46-1.539,4.617,4.617,0,0,1-.97-1.684,4.857,4.857,0,0,1-.19-1.932l2.26-23.213a4.654,4.654,0,0,1,4.54-4.181,279.913,279.913,0,0,1,63.53,0,4.636,4.636,0,0,1,3.07,1.211,4.583,4.583,0,0,1,1.47,2.945l2.26,23.264a4.614,4.614,0,0,1-.19,1.918,4.687,4.687,0,0,1-.96,1.672,4.787,4.787,0,0,1-1.57,1.133A4.721,4.721,0,0,1,1804.55,691.36Zm-33.94-3.924c11.34,0,22.7.462,33.96,1.36a1.986,1.986,0,0,0,.83-.182,1.931,1.931,0,0,0,.68-.511,2.189,2.189,0,0,0,.45-.75,2.116,2.116,0,0,0,.09-.866l-2.25-23.264a2.116,2.116,0,0,0-.69-1.322,2.07,2.07,0,0,0-1.39-.525h-.16a278.875,278.875,0,0,0-63.07,0h-.15a2.086,2.086,0,0,0-2.08,1.873l-2.26,23.212a2.02,2.02,0,0,0,.1.879,2.064,2.064,0,0,0,.44.763,2,2,0,0,0,1.52.693C1747.89,687.9,1759.25,687.436,1770.61,687.436Z" transform="translate(-835 -459.219)" fill="#fff"/>
    <path id="Path_25" data-name="Path 25" d="M1793.57,705.025h-45.94a1.283,1.283,0,1,1,0-2.565h45.94a1.283,1.283,0,1,1,0,2.565Z" transform="translate(-835 -459.219)" fill="#fff"/>
    <path id="Path_26" data-name="Path 26" d="M1788.05,714.592h-34.91a1.265,1.265,0,0,1-.9-.376,1.272,1.272,0,0,1,0-1.814,1.268,1.268,0,0,1,.9-.375h34.91a1.283,1.283,0,1,1,0,2.565Z" transform="translate(-835 -459.219)" fill="#fff"/>
    <path id="Path_27" data-name="Path 27" d="M1791.31,709.822h-41.42a1.3,1.3,0,0,1-.9-.382,1.276,1.276,0,0,1-.01-1.807,1.292,1.292,0,0,1,.91-.376h41.42a1.274,1.274,0,0,1,1.28,1.283,1.276,1.276,0,0,1-.38.9A1.3,1.3,0,0,1,1791.31,709.822Z" transform="translate(-835 -459.219)" fill="#fff"/>
    <path id="Path_28" data-name="Path 28" d="M1787.59,730.012h-33.98a2.489,2.489,0,0,1-1.23-.334,2.528,2.528,0,0,1-.9-.9,2.229,2.229,0,0,1,0-2.334l2.77-4.9a2.458,2.458,0,0,1,2.15-1.231h28.4a2.458,2.458,0,0,1,2.15,1.231l2.77,4.873a2.274,2.274,0,0,1,0,2.36,2.528,2.528,0,0,1-.9.9A2.489,2.489,0,0,1,1787.59,730.012Zm-33.75-2.565h33.52l-2.61-4.565h-28.3Z" transform="translate(-835 -459.219)" fill="#fff"/>
    <path id="Path_29" data-name="Path 29" d="M1722.73,689.92h-9.62a1.874,1.874,0,0,1-1.88-1.872v-9.131a1.9,1.9,0,0,1,1.88-1.9h6.02a1.9,1.9,0,0,1,1.88,1.9v4.617h1.72a1.268,1.268,0,0,1,.9.375,1.272,1.272,0,0,1,0,1.814,1.265,1.265,0,0,1-.9.376h-2.42a1.876,1.876,0,0,1-1.87-1.873v-4.642h-4.64v7.771h8.93a1.269,1.269,0,0,1,.9.376,1.272,1.272,0,0,1,0,1.814A1.268,1.268,0,0,1,1722.73,689.92Z" transform="translate(-835 -459.219)" fill="#fff"/>
    <path id="Path_30" data-name="Path 30" d="M1828.07,689.92h-9.62a1.283,1.283,0,1,1,0-2.565h8.95v-7.771h-4.67v4.642a1.878,1.878,0,0,1-.55,1.324,1.857,1.857,0,0,1-1.32.549h-2.41a1.283,1.283,0,1,1,0-2.565h1.72v-4.617a1.888,1.888,0,0,1,1.89-1.9h6.01a1.888,1.888,0,0,1,1.89,1.9v9.131a1.888,1.888,0,0,1-1.89,1.872Z" transform="translate(-835 -459.219)" fill="#fff"/>
    <path id="Path_31" data-name="Path 31" d="M1738.91,751.4h-6.26a3.427,3.427,0,0,1-3.62-3.129V739.7a1.291,1.291,0,0,1,1.29-1.283,1.268,1.268,0,0,1,.9.376,1.29,1.29,0,0,1,.38.907v8.567c0,.231.44.564,1.05.564h6.26c.62,0,1.05-.333,1.05-.564V739.7a1.29,1.29,0,0,1,.38-.907,1.269,1.269,0,0,1,.9-.376,1.291,1.291,0,0,1,1.29,1.283v8.567A3.408,3.408,0,0,1,1738.91,751.4Z" transform="translate(-835 -459.219)" fill="#fff"/>
    <path id="Path_32" data-name="Path 32" d="M1808.52,751.4h-6.26a3.4,3.4,0,0,1-3.59-3.129V739.7a1.291,1.291,0,0,1,1.29-1.283,1.268,1.268,0,0,1,.9.376,1.29,1.29,0,0,1,.38.907v8.567c0,.231.41.564,1.02.564h6.26c.64,0,1.05-.333,1.05-.564V739.7a1.291,1.291,0,0,1,1.29-1.283,1.269,1.269,0,0,1,.9.376,1.29,1.29,0,0,1,.38.907v8.567A3.408,3.408,0,0,1,1808.52,751.4Z" transform="translate(-835 -459.219)" fill="#fff"/>
    <path id="Path_33" data-name="Path 33" d="M1793.75,714.161a1.27,1.27,0,0,1-.63-.163,1.2,1.2,0,0,1-.47-.453,1.153,1.153,0,0,1-.19-.621,1.269,1.269,0,0,1,.13-.636c.03-.025,1.41-2.693,4.21-8.823a2.283,2.283,0,0,1,.28-.41c1.46-1.334,8.88-7.875,12.67-5.053.98.718,1.29,2.129,1.52,3.591a15.206,15.206,0,0,1-1.34,7.977,7.387,7.387,0,0,1-6.72,4.591Zm2.05-2.565h7.41a4.832,4.832,0,0,0,4.34-3.027,12.635,12.635,0,0,0,1.18-6.566,4.748,4.748,0,0,0-.52-1.949c-.61-.436-2.28-.205-5.18,1.641a33.687,33.687,0,0,0-4,3.078C1797.57,707.979,1796.49,710.211,1795.8,711.6Z" transform="translate(-835 -459.219)" fill="#fff"/>
    <path id="Path_34" data-name="Path 34" d="M1747.45,714.161h-9.46a7.386,7.386,0,0,1-6.72-4.591,15.2,15.2,0,0,1-1.34-7.977c.23-1.462.54-2.873,1.52-3.591,3.79-2.822,11.2,3.719,12.67,5.053a2.29,2.29,0,0,1,.28.41c2.79,6.13,4.18,8.8,4.21,8.823a1.269,1.269,0,0,1,.13.636,1.153,1.153,0,0,1-.19.621,1.2,1.2,0,0,1-.47.453A1.269,1.269,0,0,1,1747.45,714.161Zm-14.47-14.107a5.054,5.054,0,0,0-.51,1.949,12.634,12.634,0,0,0,1.18,6.566,4.831,4.831,0,0,0,4.36,3.027h7.39c-.69-1.385-1.77-3.617-3.23-6.823a33.7,33.7,0,0,0-4-3.078C1735.27,699.849,1733.6,699.618,1732.98,700.054Z" transform="translate(-835 -459.219)" fill="#fff"/>
    <path id="Path_35" data-name="Path 35" d="M1739.35,728.062a3.5,3.5,0,0,1-3.23-2.153,3.56,3.56,0,0,1-.2-2.015,3.487,3.487,0,0,1,6.91.68,3.484,3.484,0,0,1-3.48,3.488Zm0-4.386a.942.942,0,0,0-.4.02.975.975,0,0,0-.6.5.986.986,0,0,0,0,.778.909.909,0,0,0,.25.316.881.881,0,0,0,.35.185.91.91,0,0,0,.4.02.874.874,0,0,0,.39-.02,1,1,0,0,0,.36-.185,1.01,1.01,0,0,0,.24-.316.985.985,0,0,0,0-.778.988.988,0,0,0-.24-.316,1.014,1.014,0,0,0-.36-.186A.9.9,0,0,0,1739.35,723.676Z" transform="translate(-835 -459.219)" fill="#fff"/>
    <path id="Path_36" data-name="Path 36" d="M1801.85,728.062a3.448,3.448,0,0,1-1.93-.588,3.5,3.5,0,0,1-1.29-1.565,3.56,3.56,0,0,1-.2-2.015,3.487,3.487,0,0,1,6.91.68,3.484,3.484,0,0,1-3.49,3.488Zm0-4.386a.907.907,0,0,0-.74.206.891.891,0,0,0-.25.316.986.986,0,0,0,0,.778.909.909,0,0,0,.25.316.911.911,0,0,0,.74.205.91.91,0,0,0,.4-.02.881.881,0,0,0,.35-.185.908.908,0,0,0,.25-.316.985.985,0,0,0,0-.778.975.975,0,0,0-.6-.5A.942.942,0,0,0,1801.85,723.676Z" transform="translate(-835 -459.219)" fill="#fff"/>
    <path id="Path_37" data-name="Path 37" d="M1776.03,625.488h-5.62a1.272,1.272,0,0,1-1.28-1.282V609.329a1.272,1.272,0,0,1,.38-.9,1.3,1.3,0,0,1,.9-.383h5.62a8.72,8.72,0,0,1,0,17.441Zm-4.34-2.564h4.34a6.156,6.156,0,0,0,0-12.312h-4.34Z" transform="translate(-835 -459.219)" fill="#fff"/>
    <path id="Path_38" data-name="Path 38" d="M1769.41,622.771h-3.98a1.3,1.3,0,0,1-1.28-1.283V619.9a1.177,1.177,0,0,1,.1-.489,1.15,1.15,0,0,1,.28-.409,1.31,1.31,0,0,1,.9-.384h3.98a1.268,1.268,0,0,1,.9.375,1.29,1.29,0,0,1,.38.907,1.346,1.346,0,0,1-.26.795,1.266,1.266,0,0,1,.26.77,1.406,1.406,0,0,1-.09.5,1.238,1.238,0,0,1-.28.425,1.261,1.261,0,0,1-.42.285A1.228,1.228,0,0,1,1769.41,622.771Z" transform="translate(-835 -459.219)" fill="#fff"/>
    <path id="Path_39" data-name="Path 39" d="M1769.41,614.918h-3.98a1.272,1.272,0,0,1-1.28-1.282v-1.59a1.3,1.3,0,0,1,1.28-1.283h3.98a1.265,1.265,0,0,1,.9.376,1.287,1.287,0,0,1,.38.907,1.266,1.266,0,0,1-.26.769,1.507,1.507,0,0,1,.26.795,1.411,1.411,0,0,1-.09.5,1.3,1.3,0,0,1-.7.709A1.228,1.228,0,0,1,1769.41,614.918Z" transform="translate(-835 -459.219)" fill="#fff"/>
    <path id="Path_40" data-name="Path 40" d="M1818.52,673.194a1.267,1.267,0,0,1-.9-.375,1.272,1.272,0,0,1,0-1.814,1.264,1.264,0,0,1,.9-.376,15.6,15.6,0,0,0,13.01-6.745c3.21-4.412,4.67-9.773,4.67-15.877,0-14.441-9.39-29.959-29.96-29.959h-21.68a1.264,1.264,0,0,1-.9-.376,1.271,1.271,0,0,1,0-1.813,1.264,1.264,0,0,1,.9-.376h21.68c10.26,0,18.77,3.617,24.67,10.491a34.172,34.172,0,0,1,7.85,22.033,29.7,29.7,0,0,1-5.15,17.364A18.091,18.091,0,0,1,1818.52,673.194Z" transform="translate(-835 -459.219)" fill="#fff"/>
  </g>
</svg>
