<svg xmlns="http://www.w3.org/2000/svg" width="214" height="214.001" viewBox="0 0 214 214.001">
  <g id="Group_1" data-name="Group 1" transform="translate(-480 -507.5)">
    <path id="Path_1" data-name="Path 1" d="M1315,1073.72a107,107,0,1,1,107,107A107,107,0,0,1,1315,1073.72Z" transform="translate(-835 -459.219)" fill="#f2f2f2"/>
    <path id="Path_2" data-name="Path 2" d="M1315,1073.72a107,107,0,1,1,107,107A107,107,0,0,1,1315,1073.72Z" transform="translate(-835 -459.219)" fill="#fff"/>
    <path id="Path_3" data-name="Path 3" d="M1464.75,1129.06h-85.74a5.736,5.736,0,0,1-5.75-5.72v-98a11.113,11.113,0,0,1,11.11-11.11h75.02a11.1,11.1,0,0,1,11.08,11.11v98a5.664,5.664,0,0,1-.43,2.19,5.7,5.7,0,0,1-3.1,3.1A5.625,5.625,0,0,1,1464.75,1129.06Zm-80.38-112.26a8.57,8.57,0,0,0-8.54,8.54v98a3.175,3.175,0,0,0,3.18,3.16h85.74a3.158,3.158,0,0,0,3.16-3.16v-98a8.536,8.536,0,0,0-8.52-8.54Z" transform="translate(-835 -459.219)" fill="#002a4e"/>
    <path id="Path_4" data-name="Path 4" d="M1458.55,1089.15a1.222,1.222,0,0,1-.78-.28,1.29,1.29,0,0,1-.45-.69,1.255,1.255,0,0,1,.14-.98,1.276,1.276,0,0,1,.35-.38,1.21,1.21,0,0,1,.46-.21l3.48-.89,7.11-1.95a1.288,1.288,0,0,1,.98.13,1.307,1.307,0,0,1,.61.79,1.393,1.393,0,0,1,.03.5,1.263,1.263,0,0,1-.17.47,1.212,1.212,0,0,1-.33.38,1.322,1.322,0,0,1-.45.21l-7.11,1.93c-1.18.33-2.38.64-3.56.92Z" transform="translate(-835 -459.219)" fill="#002a4e"/>
    <path id="Path_5" data-name="Path 5" d="M1386.22,1089.28h-.31c-1.52-.36-3.03-.77-4.54-1.18l-6.65-1.82a1.261,1.261,0,0,1-.45-.22,1.526,1.526,0,0,1-.34-.38,1.4,1.4,0,0,1-.15-.49,1.206,1.206,0,0,1,.05-.5,1.246,1.246,0,0,1,.59-.77,1.268,1.268,0,0,1,.97-.13l6.64,1.85c1.49.41,3.01.79,4.49,1.15a1.333,1.333,0,0,1,.8.57,1.25,1.25,0,0,1-.31,1.66A1.336,1.336,0,0,1,1386.22,1089.28Z" transform="translate(-835 -459.219)" fill="#002a4e"/>
    <path id="Path_6" data-name="Path 6" d="M1469.19,1035.03h-94.64a1.28,1.28,0,0,1-1.29-1.28,1.326,1.326,0,0,1,.39-.9,1.3,1.3,0,0,1,.9-.38h94.64a1.28,1.28,0,1,1,0,2.56Z" transform="translate(-835 -459.219)" fill="#002a4e"/>
    <path id="Path_7" data-name="Path 7" d="M1455.16,1030.8h-66.07a1.326,1.326,0,0,1-.9-.39,1.249,1.249,0,0,1-.38-.89V1019a1.264,1.264,0,0,1,1.28-1.28h66.07a1.28,1.28,0,0,1,1.29,1.28v10.52a1.272,1.272,0,0,1-.38.9A1.3,1.3,0,0,1,1455.16,1030.8Zm-64.79-2.57h63.51v-7.95h-63.51Z" transform="translate(-835 -459.219)" fill="#002a4e"/>
    <path id="Path_8" data-name="Path 8" d="M1448,1016.79a1.263,1.263,0,0,1-.9-.37,1.3,1.3,0,0,1-.38-.91v-1.46a3.21,3.21,0,0,0-3.18-3.18h-42.89a3.21,3.21,0,0,0-3.18,3.18v1.46a1.28,1.28,0,1,1-2.56,0v-1.46a5.76,5.76,0,0,1,.44-2.2,5.569,5.569,0,0,1,1.24-1.86,5.77,5.77,0,0,1,4.06-1.69h42.89a5.759,5.759,0,0,1,2.2.44,5.822,5.822,0,0,1,3.11,3.11,5.758,5.758,0,0,1,.44,2.2v1.46a1.28,1.28,0,0,1-1.29,1.28Z" transform="translate(-835 -459.219)" fill="#002a4e"/>
    <path id="Path_9" data-name="Path 9" d="M1365.34,1065.81a5.49,5.49,0,0,1-2.04-.4,5.385,5.385,0,0,1-1.72-1.16,5.3,5.3,0,0,1-1.15-1.72,5.213,5.213,0,0,1-.4-2.03v-13.54a5.31,5.31,0,1,1,10.62,0v13.54a5.222,5.222,0,0,1-.41,2.03,5.146,5.146,0,0,1-1.15,1.72,5.277,5.277,0,0,1-1.72,1.16A5.478,5.478,0,0,1,1365.34,1065.81Zm0-21.6a2.766,2.766,0,0,0-2.75,2.75v13.54a2.751,2.751,0,0,0,4.69,1.94,2.747,2.747,0,0,0,.8-1.94v-13.54a2.773,2.773,0,0,0-.8-1.94,2.8,2.8,0,0,0-.89-.6A2.733,2.733,0,0,0,1365.34,1044.21Z" transform="translate(-835 -459.219)" fill="#002a4e"/>
    <path id="Path_10" data-name="Path 10" d="M1365.34,1044.21a1.264,1.264,0,0,1-1.28-1.28v-1.36a5.652,5.652,0,0,1,.42-2.19,5.686,5.686,0,0,1,5.3-3.55h4.77a1.2,1.2,0,0,1,.9.37,1.19,1.19,0,0,1,.28.42,1.161,1.161,0,0,1,.1.49,1.307,1.307,0,0,1-.38.91,1.308,1.308,0,0,1-.9.37h-4.77a3.233,3.233,0,0,0-2.24.94,3.188,3.188,0,0,0-.92,2.24v1.36a1.286,1.286,0,0,1-.37.91A1.3,1.3,0,0,1,1365.34,1044.21Z" transform="translate(-835 -459.219)" fill="#002a4e"/>
    <path id="Path_11" data-name="Path 11" d="M1478.66,1065.81a5.309,5.309,0,0,1-5.31-5.31v-13.54a5.31,5.31,0,1,1,10.62,0v13.54a5.326,5.326,0,0,1-5.31,5.31Zm0-21.6a2.7,2.7,0,0,0-1.05.21,2.809,2.809,0,0,0-1.49,1.49,2.7,2.7,0,0,0-.21,1.05v13.54a2.751,2.751,0,0,0,4.69,1.94,2.747,2.747,0,0,0,.8-1.94v-13.54a2.749,2.749,0,0,0-2.74-2.75Z" transform="translate(-835 -459.219)" fill="#002a4e"/>
    <path id="Path_12" data-name="Path 12" d="M1478.66,1044.21a1.264,1.264,0,0,1-1.28-1.28v-1.36a3.21,3.21,0,0,0-3.19-3.18h-4.77a1.263,1.263,0,0,1-.9-.37,1.28,1.28,0,0,1,0-1.82,1.263,1.263,0,0,1,.9-.37h4.77a5.736,5.736,0,0,1,5.75,5.74v1.36a1.28,1.28,0,0,1-1.28,1.28Z" transform="translate(-835 -459.219)" fill="#002a4e"/>
    <path id="Path_13" data-name="Path 13" d="M1468.91,1116.13h-25.49a1.269,1.269,0,0,1-.91-.37,1.3,1.3,0,0,1-.38-.91,1.326,1.326,0,0,1,.39-.9,1.3,1.3,0,0,1,.9-.38h25.49a1.316,1.316,0,0,1,.9.38,1.272,1.272,0,0,1,.38.9,1.264,1.264,0,0,1-1.28,1.28Z" transform="translate(-835 -459.219)" fill="#002a4e"/>
    <path id="Path_14" data-name="Path 14" d="M1400.19,1116.13h-25.64a1.28,1.28,0,0,1-1.29-1.28,1.326,1.326,0,0,1,.39-.9,1.3,1.3,0,0,1,.9-.38h25.64a1.28,1.28,0,1,1,0,2.56Z" transform="translate(-835 -459.219)" fill="#002a4e"/>
    <path id="Path_15" data-name="Path 15" d="M1421.87,1119.96a1.28,1.28,0,0,1-1.28-1.28v-28.75a1.269,1.269,0,0,1,.37-.91,1.3,1.3,0,0,1,.91-.38,1.314,1.314,0,0,1,.91.38,1.269,1.269,0,0,1,.37.91v28.75a1.28,1.28,0,0,1-1.28,1.28Z" transform="translate(-835 -459.219)" fill="#002a4e"/>
    <path id="Path_16" data-name="Path 16" d="M1404.86,1119.96a1.28,1.28,0,0,1-1.28-1.28v-28.75a1.269,1.269,0,0,1,.37-.91,1.314,1.314,0,0,1,.91-.38,1.3,1.3,0,0,1,.91.38,1.269,1.269,0,0,1,.37.91v28.75a1.28,1.28,0,0,1-1.28,1.28Z" transform="translate(-835 -459.219)" fill="#002a4e"/>
    <path id="Path_17" data-name="Path 17" d="M1438.8,1119.96a1.254,1.254,0,0,1-.91-.38,1.272,1.272,0,0,1-.38-.9v-28.75a1.278,1.278,0,0,1,.38-.91,1.3,1.3,0,0,1,.91-.38,1.3,1.3,0,0,1,1.28,1.29v28.75a1.272,1.272,0,0,1-.38.9A1.232,1.232,0,0,1,1438.8,1119.96Z" transform="translate(-835 -459.219)" fill="#002a4e"/>
    <path id="Path_18" data-name="Path 18" d="M1452.34,1091.2h-60.46a3.485,3.485,0,0,1-2.44-1,3.525,3.525,0,0,1-1.02-2.43v-.59a3.53,3.53,0,0,1,1.02-2.44,3.485,3.485,0,0,1,2.44-1h60.46a3.448,3.448,0,0,1,3.44,3.44v.59a3.431,3.431,0,0,1-3.44,3.43Zm-60.46-4.9a.914.914,0,0,0-.62.26.846.846,0,0,0-.27.62v.59a.841.841,0,0,0,.27.61.871.871,0,0,0,.62.26h60.46a.917.917,0,0,0,.61-.26.89.89,0,0,0,.26-.61v-.59a.868.868,0,0,0-.25-.62.914.914,0,0,0-.62-.26Z" transform="translate(-835 -459.219)" fill="#002a4e"/>
    <path id="Path_19" data-name="Path 19" d="M1452.34,1125.34h-60.48a3.448,3.448,0,0,1-3.44-3.44v-.56a3.448,3.448,0,0,1,3.44-3.44h60.48a3.412,3.412,0,0,1,2.43,1.01,3.453,3.453,0,0,1,1.01,2.43v.56a3.453,3.453,0,0,1-1.01,2.43A3.412,3.412,0,0,1,1452.34,1125.34Zm-60.48-4.87a.888.888,0,0,0-.87.87v.56a.854.854,0,0,0,.87.87h60.48a.854.854,0,0,0,.87-.87v-.56a.888.888,0,0,0-.87-.87Z" transform="translate(-835 -459.219)" fill="#002a4e"/>
    <path id="Path_20" data-name="Path 20" d="M1386.21,1111.62a2.977,2.977,0,0,1-1.64-.49,2.891,2.891,0,0,1-1.1-1.32,2.952,2.952,0,0,1-.18-1.71,3.007,3.007,0,0,1,.81-1.52,2.938,2.938,0,0,1,3.23-.63,2.871,2.871,0,0,1,1.32,1.09,3.034,3.034,0,0,1,.49,1.65,2.936,2.936,0,0,1-2.93,2.93Zm0-3.31a.37.37,0,0,0-.25.12.319.319,0,0,0-.1.26.354.354,0,0,0,.1.26.4.4,0,0,0,.25.1.4.4,0,0,0,.26-.1.388.388,0,0,0,0-.52A.373.373,0,0,0,1386.21,1108.31Z" transform="translate(-835 -459.219)" fill="#002a4e"/>
    <path id="Path_21" data-name="Path 21" d="M1381.29,1107.08a2.951,2.951,0,0,1-2.92-3.51,3,3,0,0,1,.8-1.52,2.971,2.971,0,0,1,3.22-.65,2.973,2.973,0,0,1,1.82,2.73,2.936,2.936,0,0,1-2.92,2.95Zm0-3.31a.377.377,0,0,0-.36.36.341.341,0,0,0,.11.25.339.339,0,0,0,.5,0,.341.341,0,0,0,.11-.25.377.377,0,0,0-.36-.36Z" transform="translate(-835 -459.219)" fill="#002a4e"/>
    <path id="Path_22" data-name="Path 22" d="M1381.29,1100.31a2.927,2.927,0,0,1-2.7-1.8,2.922,2.922,0,0,1,.63-3.19,2.933,2.933,0,0,1,4.5.44,2.953,2.953,0,0,1,.5,1.63,2.936,2.936,0,0,1-2.93,2.92Zm0-3.28a.361.361,0,0,0-.2.06.345.345,0,0,0-.13.16.382.382,0,0,0-.02.21.375.375,0,0,0,.28.28.38.38,0,0,0,.21-.02.4.4,0,0,0,.16-.13.36.36,0,0,0,.06-.2.343.343,0,0,0-.36-.36Z" transform="translate(-835 -459.219)" fill="#002a4e"/>
    <path id="Path_23" data-name="Path 23" d="M1457.37,1111.62a2.957,2.957,0,0,1-2.08-5.05,3,3,0,0,1,1.52-.8,2.952,2.952,0,0,1,1.71.18,2.982,2.982,0,0,1,1.8,2.74,2.926,2.926,0,0,1-.23,1.13,2.9,2.9,0,0,1-.64.95,3.029,3.029,0,0,1-.95.63A2.952,2.952,0,0,1,1457.37,1111.62Zm0-3.31a.373.373,0,0,0-.26.12.36.36,0,0,0,.26.62.336.336,0,0,0,.17.01.4.4,0,0,0,.16-.08.276.276,0,0,0,.11-.13.382.382,0,0,0,0-.34.36.36,0,0,0-.11-.14.389.389,0,0,0-.16-.07A.334.334,0,0,0,1457.37,1108.31Z" transform="translate(-835 -459.219)" fill="#002a4e"/>
    <path id="Path_24" data-name="Path 24" d="M1462.29,1107.08a2.945,2.945,0,0,1-2.72-1.82,3.024,3.024,0,0,1-.17-1.71,2.982,2.982,0,0,1,.81-1.51,2.981,2.981,0,0,1,3.21-.64,3.08,3.08,0,0,1,1.33,1.09,2.978,2.978,0,0,1-.37,3.73A2.95,2.95,0,0,1,1462.29,1107.08Zm0-3.31a.358.358,0,0,0-.25.11.325.325,0,0,0-.11.25.363.363,0,0,0,.11.26.351.351,0,0,0,.25.12.411.411,0,0,0,.28-.11.386.386,0,0,0,.11-.27.421.421,0,0,0-.12-.26A.427.427,0,0,0,1462.29,1103.77Z" transform="translate(-835 -459.219)" fill="#002a4e"/>
    <path id="Path_25" data-name="Path 25" d="M1462.29,1100.31a2.921,2.921,0,0,1-1.62-.5,3.044,3.044,0,0,1-1.06-1.32,2.961,2.961,0,0,1-.16-1.69,3,3,0,0,1,.81-1.49,2.881,2.881,0,0,1,1.5-.79,2.931,2.931,0,0,1,1.68.17,2.875,2.875,0,0,1,1.31,1.08,2.911,2.911,0,0,1,.49,1.62,3.06,3.06,0,0,1-.22,1.12,2.967,2.967,0,0,1-1.6,1.59A3.1,3.1,0,0,1,1462.29,1100.31Zm0-3.28a.373.373,0,0,0-.25.1.363.363,0,0,0-.11.26.358.358,0,0,0,.11.25.341.341,0,0,0,.25.11.364.364,0,0,0,.26-.11.4.4,0,0,0,.1-.25.343.343,0,0,0-.36-.36Z" transform="translate(-835 -459.219)" fill="#002a4e"/>
    <path id="Path_26" data-name="Path 26" d="M1387.03,1139.14h-4.95a5.671,5.671,0,0,1-2.19-.44,5.592,5.592,0,0,1-1.86-1.25,5.717,5.717,0,0,1-1.24-1.86,5.9,5.9,0,0,1-.43-2.2v-5.61a1.3,1.3,0,0,1,1.29-1.29,1.346,1.346,0,0,1,.9.39,1.362,1.362,0,0,1,.38.9v5.61a3.171,3.171,0,0,0,.92,2.24,3.125,3.125,0,0,0,2.23.94h4.95a3.175,3.175,0,0,0,3.18-3.18v-5.61a1.273,1.273,0,0,1,2.19-.9,1.316,1.316,0,0,1,.38.9v5.61a5.736,5.736,0,0,1-5.75,5.75Z" transform="translate(-835 -459.219)" fill="#002a4e"/>
    <path id="Path_27" data-name="Path 27" d="M1461.03,1139.14h-4.95a5.671,5.671,0,0,1-2.19-.44,5.592,5.592,0,0,1-1.86-1.25,5.7,5.7,0,0,1-1.67-4.06v-5.61a1.3,1.3,0,0,1,.38-.91,1.272,1.272,0,0,1,.9-.38,1.307,1.307,0,0,1,.9.39,1.326,1.326,0,0,1,.39.9v5.61a3.171,3.171,0,0,0,.92,2.24,3.125,3.125,0,0,0,2.23.94h4.95a3.175,3.175,0,0,0,3.16-3.18v-5.61a1.272,1.272,0,0,1,.38-.9,1.326,1.326,0,0,1,.9-.39,1.28,1.28,0,0,1,1.28,1.29v5.61a5.751,5.751,0,0,1-1.66,4.06,5.8,5.8,0,0,1-1.86,1.25A5.72,5.72,0,0,1,1461.03,1139.14Z" transform="translate(-835 -459.219)" fill="#002a4e"/>
    <path id="Path_28" data-name="Path 28" d="M1424.95,1075.33a1.316,1.316,0,0,1-.55-.14,1.3,1.3,0,0,1-.43-.35l-25.52-31.09a1.264,1.264,0,0,1-.27-.94,1.325,1.325,0,0,1,.45-.88,1.3,1.3,0,0,1,.93-.28,1.289,1.289,0,0,1,.86.46l25.53,31.12a1.274,1.274,0,0,1-.18,1.79A1.249,1.249,0,0,1,1424.95,1075.33Z" transform="translate(-835 -459.219)" fill="#002a4e"/>
    <path id="Path_29" data-name="Path 29" d="M1413.07,1069.76a1.292,1.292,0,0,1-1-.48l-14.96-18.24a1.3,1.3,0,0,1-.19-.9,1.248,1.248,0,0,1,.45-.8,1.283,1.283,0,0,1,.88-.29,1.344,1.344,0,0,1,.84.37l14.95,18.24a1.262,1.262,0,0,1,.24.44,1.206,1.206,0,0,1,.05.5,1.113,1.113,0,0,1-.14.47,1.37,1.37,0,0,1-.33.39A1.213,1.213,0,0,1,1413.07,1069.76Z" transform="translate(-835 -459.219)" fill="#002a4e"/>
    <path id="Path_30" data-name="Path 30" d="M1448.01,1070.97a1.341,1.341,0,0,1-.56-.12,1.486,1.486,0,0,1-.45-.34l-17.87-21.78a1.221,1.221,0,0,1-.24-.45,1.2,1.2,0,0,1-.05-.5,1.319,1.319,0,0,1,.47-.87,1.259,1.259,0,0,1,.44-.24,1.22,1.22,0,0,1,.5-.05,1.4,1.4,0,0,1,.49.15,1.336,1.336,0,0,1,.39.32l17.85,21.8a1.261,1.261,0,0,1,.24.44,1.2,1.2,0,0,1,.05.5,1.3,1.3,0,0,1-.15.47,1.337,1.337,0,0,1-.32.39A1.145,1.145,0,0,1,1448.01,1070.97Z" transform="translate(-835 -459.219)" fill="#002a4e"/>
    <path id="Path_31" data-name="Path 31" d="M1437.72,1075.33a1.261,1.261,0,0,1-1-.49l-25.52-31.08a1.316,1.316,0,0,1-.29-.95,1.286,1.286,0,0,1,.47-.88,1.27,1.27,0,0,1,.94-.28,1.294,1.294,0,0,1,.88.46l25.49,31.12a1.223,1.223,0,0,1,.29.93,1.039,1.039,0,0,1-.15.48,1.37,1.37,0,0,1-1.11.69Z" transform="translate(-835 -459.219)" fill="#002a4e"/>
    <path id="Path_32" data-name="Path 32" d="M1315,1073.72a107,107,0,1,1,107,107A107,107,0,0,1,1315,1073.72Z" transform="translate(-835 -459.219)" fill="#012a4e"/>
    <path id="Path_34" data-name="Path 34" d="M1464.75,1129.06h-85.74a5.736,5.736,0,0,1-5.75-5.72v-98a11.113,11.113,0,0,1,11.11-11.11h75.02a11.1,11.1,0,0,1,11.08,11.11v98a5.664,5.664,0,0,1-.43,2.19,5.7,5.7,0,0,1-3.1,3.1A5.625,5.625,0,0,1,1464.75,1129.06Zm-80.38-112.26a8.57,8.57,0,0,0-8.54,8.54v98a3.175,3.175,0,0,0,3.18,3.16h85.74a3.158,3.158,0,0,0,3.16-3.16v-98a8.536,8.536,0,0,0-8.52-8.54Z" transform="translate(-835 -459.219)" fill="#fff"/>
    <path id="Path_35" data-name="Path 35" d="M1458.55,1089.15a1.222,1.222,0,0,1-.78-.28,1.29,1.29,0,0,1-.45-.69,1.255,1.255,0,0,1,.14-.98,1.276,1.276,0,0,1,.35-.38,1.21,1.21,0,0,1,.46-.21l3.48-.89,7.11-1.95a1.288,1.288,0,0,1,.98.13,1.307,1.307,0,0,1,.61.79,1.393,1.393,0,0,1,.03.5,1.263,1.263,0,0,1-.17.47,1.212,1.212,0,0,1-.33.38,1.322,1.322,0,0,1-.45.21l-7.11,1.93c-1.18.33-2.38.64-3.56.92Z" transform="translate(-835 -459.219)" fill="#fff"/>
    <path id="Path_36" data-name="Path 36" d="M1386.22,1089.28h-.31c-1.52-.36-3.03-.77-4.54-1.18l-6.65-1.82a1.261,1.261,0,0,1-.45-.22,1.526,1.526,0,0,1-.34-.38,1.4,1.4,0,0,1-.15-.49,1.206,1.206,0,0,1,.05-.5,1.246,1.246,0,0,1,.59-.77,1.268,1.268,0,0,1,.97-.13l6.64,1.85c1.49.41,3.01.79,4.49,1.15a1.333,1.333,0,0,1,.8.57,1.25,1.25,0,0,1-.31,1.66A1.336,1.336,0,0,1,1386.22,1089.28Z" transform="translate(-835 -459.219)" fill="#fff"/>
    <path id="Path_37" data-name="Path 37" d="M1469.19,1035.03h-94.64a1.28,1.28,0,0,1-1.29-1.28,1.326,1.326,0,0,1,.39-.9,1.3,1.3,0,0,1,.9-.38h94.64a1.28,1.28,0,1,1,0,2.56Z" transform="translate(-835 -459.219)" fill="#fff"/>
    <path id="Path_38" data-name="Path 38" d="M1455.16,1030.8h-66.07a1.326,1.326,0,0,1-.9-.39,1.249,1.249,0,0,1-.38-.89V1019a1.264,1.264,0,0,1,1.28-1.28h66.07a1.28,1.28,0,0,1,1.29,1.28v10.52a1.272,1.272,0,0,1-.38.9A1.3,1.3,0,0,1,1455.16,1030.8Zm-64.79-2.57h63.51v-7.95h-63.51Z" transform="translate(-835 -459.219)" fill="#fff"/>
    <path id="Path_39" data-name="Path 39" d="M1448,1016.79a1.263,1.263,0,0,1-.9-.37,1.3,1.3,0,0,1-.38-.91v-1.46a3.21,3.21,0,0,0-3.18-3.18h-42.89a3.21,3.21,0,0,0-3.18,3.18v1.46a1.28,1.28,0,1,1-2.56,0v-1.46a5.76,5.76,0,0,1,.44-2.2,5.569,5.569,0,0,1,1.24-1.86,5.77,5.77,0,0,1,4.06-1.69h42.89a5.759,5.759,0,0,1,2.2.44,5.822,5.822,0,0,1,3.11,3.11,5.758,5.758,0,0,1,.44,2.2v1.46a1.28,1.28,0,0,1-1.29,1.28Z" transform="translate(-835 -459.219)" fill="#fff"/>
    <path id="Path_40" data-name="Path 40" d="M1365.34,1065.81a5.49,5.49,0,0,1-2.04-.4,5.385,5.385,0,0,1-1.72-1.16,5.3,5.3,0,0,1-1.15-1.72,5.213,5.213,0,0,1-.4-2.03v-13.54a5.31,5.31,0,1,1,10.62,0v13.54a5.222,5.222,0,0,1-.41,2.03,5.146,5.146,0,0,1-1.15,1.72,5.277,5.277,0,0,1-1.72,1.16A5.478,5.478,0,0,1,1365.34,1065.81Zm0-21.6a2.766,2.766,0,0,0-2.75,2.75v13.54a2.751,2.751,0,0,0,4.69,1.94,2.747,2.747,0,0,0,.8-1.94v-13.54a2.773,2.773,0,0,0-.8-1.94,2.8,2.8,0,0,0-.89-.6A2.733,2.733,0,0,0,1365.34,1044.21Z" transform="translate(-835 -459.219)" fill="#fff"/>
    <path id="Path_41" data-name="Path 41" d="M1365.34,1044.21a1.264,1.264,0,0,1-1.28-1.28v-1.36a5.652,5.652,0,0,1,.42-2.19,5.686,5.686,0,0,1,5.3-3.55h4.77a1.2,1.2,0,0,1,.9.37,1.19,1.19,0,0,1,.28.42,1.161,1.161,0,0,1,.1.49,1.307,1.307,0,0,1-.38.91,1.308,1.308,0,0,1-.9.37h-4.77a3.233,3.233,0,0,0-2.24.94,3.188,3.188,0,0,0-.92,2.24v1.36a1.286,1.286,0,0,1-.37.91A1.3,1.3,0,0,1,1365.34,1044.21Z" transform="translate(-835 -459.219)" fill="#fff"/>
    <path id="Path_42" data-name="Path 42" d="M1478.66,1065.81a5.309,5.309,0,0,1-5.31-5.31v-13.54a5.31,5.31,0,1,1,10.62,0v13.54a5.326,5.326,0,0,1-5.31,5.31Zm0-21.6a2.7,2.7,0,0,0-1.05.21,2.809,2.809,0,0,0-1.49,1.49,2.7,2.7,0,0,0-.21,1.05v13.54a2.751,2.751,0,0,0,4.69,1.94,2.747,2.747,0,0,0,.8-1.94v-13.54a2.749,2.749,0,0,0-2.74-2.75Z" transform="translate(-835 -459.219)" fill="#fff"/>
    <path id="Path_43" data-name="Path 43" d="M1478.66,1044.21a1.264,1.264,0,0,1-1.28-1.28v-1.36a3.21,3.21,0,0,0-3.19-3.18h-4.77a1.263,1.263,0,0,1-.9-.37,1.28,1.28,0,0,1,0-1.82,1.263,1.263,0,0,1,.9-.37h4.77a5.736,5.736,0,0,1,5.75,5.74v1.36a1.28,1.28,0,0,1-1.28,1.28Z" transform="translate(-835 -459.219)" fill="#fff"/>
    <path id="Path_44" data-name="Path 44" d="M1468.91,1116.13h-25.49a1.269,1.269,0,0,1-.91-.37,1.3,1.3,0,0,1-.38-.91,1.326,1.326,0,0,1,.39-.9,1.3,1.3,0,0,1,.9-.38h25.49a1.316,1.316,0,0,1,.9.38,1.272,1.272,0,0,1,.38.9,1.264,1.264,0,0,1-1.28,1.28Z" transform="translate(-835 -459.219)" fill="#fff"/>
    <path id="Path_45" data-name="Path 45" d="M1400.19,1116.13h-25.64a1.28,1.28,0,0,1-1.29-1.28,1.326,1.326,0,0,1,.39-.9,1.3,1.3,0,0,1,.9-.38h25.64a1.28,1.28,0,1,1,0,2.56Z" transform="translate(-835 -459.219)" fill="#fff"/>
    <path id="Path_46" data-name="Path 46" d="M1421.87,1119.96a1.28,1.28,0,0,1-1.28-1.28v-28.75a1.269,1.269,0,0,1,.37-.91,1.3,1.3,0,0,1,.91-.38,1.314,1.314,0,0,1,.91.38,1.269,1.269,0,0,1,.37.91v28.75a1.28,1.28,0,0,1-1.28,1.28Z" transform="translate(-835 -459.219)" fill="#fff"/>
    <path id="Path_47" data-name="Path 47" d="M1404.86,1119.96a1.28,1.28,0,0,1-1.28-1.28v-28.75a1.269,1.269,0,0,1,.37-.91,1.314,1.314,0,0,1,.91-.38,1.3,1.3,0,0,1,.91.38,1.269,1.269,0,0,1,.37.91v28.75a1.28,1.28,0,0,1-1.28,1.28Z" transform="translate(-835 -459.219)" fill="#fff"/>
    <path id="Path_48" data-name="Path 48" d="M1438.8,1119.96a1.254,1.254,0,0,1-.91-.38,1.272,1.272,0,0,1-.38-.9v-28.75a1.278,1.278,0,0,1,.38-.91,1.3,1.3,0,0,1,.91-.38,1.3,1.3,0,0,1,1.28,1.29v28.75a1.272,1.272,0,0,1-.38.9A1.232,1.232,0,0,1,1438.8,1119.96Z" transform="translate(-835 -459.219)" fill="#fff"/>
    <path id="Path_49" data-name="Path 49" d="M1452.34,1091.2h-60.46a3.485,3.485,0,0,1-2.44-1,3.525,3.525,0,0,1-1.02-2.43v-.59a3.53,3.53,0,0,1,1.02-2.44,3.485,3.485,0,0,1,2.44-1h60.46a3.448,3.448,0,0,1,3.44,3.44v.59a3.431,3.431,0,0,1-3.44,3.43Zm-60.46-4.9a.914.914,0,0,0-.62.26.846.846,0,0,0-.27.62v.59a.841.841,0,0,0,.27.61.871.871,0,0,0,.62.26h60.46a.917.917,0,0,0,.61-.26.89.89,0,0,0,.26-.61v-.59a.868.868,0,0,0-.25-.62.914.914,0,0,0-.62-.26Z" transform="translate(-835 -459.219)" fill="#fff"/>
    <path id="Path_50" data-name="Path 50" d="M1452.34,1125.34h-60.48a3.448,3.448,0,0,1-3.44-3.44v-.56a3.448,3.448,0,0,1,3.44-3.44h60.48a3.412,3.412,0,0,1,2.43,1.01,3.453,3.453,0,0,1,1.01,2.43v.56a3.453,3.453,0,0,1-1.01,2.43A3.412,3.412,0,0,1,1452.34,1125.34Zm-60.48-4.87a.888.888,0,0,0-.87.87v.56a.854.854,0,0,0,.87.87h60.48a.854.854,0,0,0,.87-.87v-.56a.888.888,0,0,0-.87-.87Z" transform="translate(-835 -459.219)" fill="#fff"/>
    <path id="Path_51" data-name="Path 51" d="M1386.21,1111.62a2.977,2.977,0,0,1-1.64-.49,2.891,2.891,0,0,1-1.1-1.32,2.952,2.952,0,0,1-.18-1.71,3.007,3.007,0,0,1,.81-1.52,2.938,2.938,0,0,1,3.23-.63,2.871,2.871,0,0,1,1.32,1.09,3.034,3.034,0,0,1,.49,1.65,2.936,2.936,0,0,1-2.93,2.93Zm0-3.31a.37.37,0,0,0-.25.12.319.319,0,0,0-.1.26.354.354,0,0,0,.1.26.4.4,0,0,0,.25.1.4.4,0,0,0,.26-.1.388.388,0,0,0,0-.52A.373.373,0,0,0,1386.21,1108.31Z" transform="translate(-835 -459.219)" fill="#fff"/>
    <path id="Path_52" data-name="Path 52" d="M1381.29,1107.08a2.951,2.951,0,0,1-2.92-3.51,3,3,0,0,1,.8-1.52,2.971,2.971,0,0,1,3.22-.65,2.973,2.973,0,0,1,1.82,2.73,2.936,2.936,0,0,1-2.92,2.95Zm0-3.31a.377.377,0,0,0-.36.36.341.341,0,0,0,.11.25.339.339,0,0,0,.5,0,.341.341,0,0,0,.11-.25.377.377,0,0,0-.36-.36Z" transform="translate(-835 -459.219)" fill="#fff"/>
    <path id="Path_53" data-name="Path 53" d="M1381.29,1100.31a2.927,2.927,0,0,1-2.7-1.8,2.922,2.922,0,0,1,.63-3.19,2.933,2.933,0,0,1,4.5.44,2.953,2.953,0,0,1,.5,1.63,2.936,2.936,0,0,1-2.93,2.92Zm0-3.28a.361.361,0,0,0-.2.06.345.345,0,0,0-.13.16.382.382,0,0,0-.02.21.375.375,0,0,0,.28.28.38.38,0,0,0,.21-.02.4.4,0,0,0,.16-.13.36.36,0,0,0,.06-.2.343.343,0,0,0-.36-.36Z" transform="translate(-835 -459.219)" fill="#fff"/>
    <path id="Path_54" data-name="Path 54" d="M1457.37,1111.62a2.957,2.957,0,0,1-2.08-5.05,3,3,0,0,1,1.52-.8,2.952,2.952,0,0,1,1.71.18,2.982,2.982,0,0,1,1.8,2.74,2.926,2.926,0,0,1-.23,1.13,2.9,2.9,0,0,1-.64.95,3.029,3.029,0,0,1-.95.63A2.952,2.952,0,0,1,1457.37,1111.62Zm0-3.31a.373.373,0,0,0-.26.12.36.36,0,0,0,.26.62.336.336,0,0,0,.17.01.4.4,0,0,0,.16-.08.276.276,0,0,0,.11-.13.382.382,0,0,0,0-.34.36.36,0,0,0-.11-.14.389.389,0,0,0-.16-.07A.334.334,0,0,0,1457.37,1108.31Z" transform="translate(-835 -459.219)" fill="#fff"/>
    <path id="Path_55" data-name="Path 55" d="M1462.29,1107.08a2.945,2.945,0,0,1-2.72-1.82,3.024,3.024,0,0,1-.17-1.71,2.982,2.982,0,0,1,.81-1.51,2.981,2.981,0,0,1,3.21-.64,3.08,3.08,0,0,1,1.33,1.09,2.978,2.978,0,0,1-.37,3.73A2.95,2.95,0,0,1,1462.29,1107.08Zm0-3.31a.358.358,0,0,0-.25.11.325.325,0,0,0-.11.25.363.363,0,0,0,.11.26.351.351,0,0,0,.25.12.411.411,0,0,0,.28-.11.386.386,0,0,0,.11-.27.421.421,0,0,0-.12-.26A.427.427,0,0,0,1462.29,1103.77Z" transform="translate(-835 -459.219)" fill="#fff"/>
    <path id="Path_56" data-name="Path 56" d="M1462.29,1100.31a2.921,2.921,0,0,1-1.62-.5,3.044,3.044,0,0,1-1.06-1.32,2.961,2.961,0,0,1-.16-1.69,3,3,0,0,1,.81-1.49,2.881,2.881,0,0,1,1.5-.79,2.931,2.931,0,0,1,1.68.17,2.875,2.875,0,0,1,1.31,1.08,2.911,2.911,0,0,1,.49,1.62,3.06,3.06,0,0,1-.22,1.12,2.967,2.967,0,0,1-1.6,1.59A3.1,3.1,0,0,1,1462.29,1100.31Zm0-3.28a.373.373,0,0,0-.25.1.363.363,0,0,0-.11.26.358.358,0,0,0,.11.25.341.341,0,0,0,.25.11.364.364,0,0,0,.26-.11.4.4,0,0,0,.1-.25.343.343,0,0,0-.36-.36Z" transform="translate(-835 -459.219)" fill="#fff"/>
    <path id="Path_57" data-name="Path 57" d="M1387.03,1139.14h-4.95a5.671,5.671,0,0,1-2.19-.44,5.592,5.592,0,0,1-1.86-1.25,5.717,5.717,0,0,1-1.24-1.86,5.9,5.9,0,0,1-.43-2.2v-5.61a1.3,1.3,0,0,1,1.29-1.29,1.346,1.346,0,0,1,.9.39,1.362,1.362,0,0,1,.38.9v5.61a3.171,3.171,0,0,0,.92,2.24,3.125,3.125,0,0,0,2.23.94h4.95a3.175,3.175,0,0,0,3.18-3.18v-5.61a1.273,1.273,0,0,1,2.19-.9,1.316,1.316,0,0,1,.38.9v5.61a5.736,5.736,0,0,1-5.75,5.75Z" transform="translate(-835 -459.219)" fill="#fff"/>
    <path id="Path_58" data-name="Path 58" d="M1461.03,1139.14h-4.95a5.671,5.671,0,0,1-2.19-.44,5.592,5.592,0,0,1-1.86-1.25,5.7,5.7,0,0,1-1.67-4.06v-5.61a1.3,1.3,0,0,1,.38-.91,1.272,1.272,0,0,1,.9-.38,1.307,1.307,0,0,1,.9.39,1.326,1.326,0,0,1,.39.9v5.61a3.171,3.171,0,0,0,.92,2.24,3.125,3.125,0,0,0,2.23.94h4.95a3.175,3.175,0,0,0,3.16-3.18v-5.61a1.272,1.272,0,0,1,.38-.9,1.326,1.326,0,0,1,.9-.39,1.28,1.28,0,0,1,1.28,1.29v5.61a5.751,5.751,0,0,1-1.66,4.06,5.8,5.8,0,0,1-1.86,1.25A5.72,5.72,0,0,1,1461.03,1139.14Z" transform="translate(-835 -459.219)" fill="#fff"/>
    <path id="Path_59" data-name="Path 59" d="M1424.95,1075.33a1.316,1.316,0,0,1-.55-.14,1.3,1.3,0,0,1-.43-.35l-25.52-31.09a1.264,1.264,0,0,1-.27-.94,1.325,1.325,0,0,1,.45-.88,1.3,1.3,0,0,1,.93-.28,1.289,1.289,0,0,1,.86.46l25.53,31.12a1.274,1.274,0,0,1-.18,1.79A1.249,1.249,0,0,1,1424.95,1075.33Z" transform="translate(-835 -459.219)" fill="#fff"/>
    <path id="Path_60" data-name="Path 60" d="M1413.07,1069.76a1.292,1.292,0,0,1-1-.48l-14.96-18.24a1.3,1.3,0,0,1-.19-.9,1.248,1.248,0,0,1,.45-.8,1.283,1.283,0,0,1,.88-.29,1.344,1.344,0,0,1,.84.37l14.95,18.24a1.262,1.262,0,0,1,.24.44,1.206,1.206,0,0,1,.05.5,1.113,1.113,0,0,1-.14.47,1.37,1.37,0,0,1-.33.39A1.213,1.213,0,0,1,1413.07,1069.76Z" transform="translate(-835 -459.219)" fill="#fff"/>
    <path id="Path_61" data-name="Path 61" d="M1448.01,1070.97a1.341,1.341,0,0,1-.56-.12,1.486,1.486,0,0,1-.45-.34l-17.87-21.78a1.221,1.221,0,0,1-.24-.45,1.2,1.2,0,0,1-.05-.5,1.319,1.319,0,0,1,.47-.87,1.259,1.259,0,0,1,.44-.24,1.22,1.22,0,0,1,.5-.05,1.4,1.4,0,0,1,.49.15,1.336,1.336,0,0,1,.39.32l17.85,21.8a1.261,1.261,0,0,1,.24.44,1.2,1.2,0,0,1,.05.5,1.3,1.3,0,0,1-.15.47,1.337,1.337,0,0,1-.32.39A1.145,1.145,0,0,1,1448.01,1070.97Z" transform="translate(-835 -459.219)" fill="#fff"/>
    <path id="Path_62" data-name="Path 62" d="M1437.72,1075.33a1.261,1.261,0,0,1-1-.49l-25.52-31.08a1.316,1.316,0,0,1-.29-.95,1.286,1.286,0,0,1,.47-.88,1.27,1.27,0,0,1,.94-.28,1.294,1.294,0,0,1,.88.46l25.49,31.12a1.223,1.223,0,0,1,.29.93,1.039,1.039,0,0,1-.15.48,1.37,1.37,0,0,1-1.11.69Z" transform="translate(-835 -459.219)" fill="#fff"/>
  </g>
</svg>
