<svg xmlns="http://www.w3.org/2000/svg" width="214" height="214.001" viewBox="0 0 214 214.001">
  <g id="Group_1" data-name="Group 1" transform="translate(-833 -507.5)">
    <path id="Path_1" data-name="Path 1" d="M1668,1073.72a107,107,0,1,1,107,107A107,107,0,0,1,1668,1073.72Z" transform="translate(-835 -459.219)" fill="#f2f2f2"/>
    <path id="Path_2" data-name="Path 2" d="M1668,1073.72a107,107,0,1,1,107,107A107,107,0,0,1,1668,1073.72Z" transform="translate(-835 -459.219)" fill="#fff"/>
    <path id="Path_3" data-name="Path 3" d="M1790.78,1112.83a1.286,1.286,0,0,1-.91-.37,1.313,1.313,0,0,1-.38-.91v-87.77a5.245,5.245,0,0,0-5.28-5.26h-48.12a5.258,5.258,0,0,0-5.26,5.26v87.77a1.272,1.272,0,0,1-.38.9,1.315,1.315,0,0,1-.9.38,1.286,1.286,0,0,1-.91-.37,1.3,1.3,0,0,1-.37-.91v-87.77a7.853,7.853,0,0,1,7.82-7.83h48.12a7.853,7.853,0,0,1,7.85,7.83v87.77a1.313,1.313,0,0,1-.38.91A1.263,1.263,0,0,1,1790.78,1112.83Z" transform="translate(-835 -459.219)" fill="#002a4e"/>
    <path id="Path_4" data-name="Path 4" d="M1779.72,1056.78h-39.11a1.28,1.28,0,0,1-1.29-1.28v-26.26a1.3,1.3,0,0,1,1.29-1.29h39.11a1.28,1.28,0,0,1,1.28,1.29v26.26a1.264,1.264,0,0,1-1.28,1.28Zm-37.83-2.56h36.55v-23.7h-36.55Z" transform="translate(-835 -459.219)" fill="#002a4e"/>
    <path id="Path_5" data-name="Path 5" d="M1800.91,1131.48h-81.49a1.28,1.28,0,0,1-1.28-1.28v-4.59a8.971,8.971,0,0,1,2.61-6.32,9.033,9.033,0,0,1,2.9-1.93,8.869,8.869,0,0,1,3.41-.68h66.18a8.905,8.905,0,0,1,6.33,2.61,8.879,8.879,0,0,1,2.62,6.32v4.59a1.272,1.272,0,0,1-.38.9A1.232,1.232,0,0,1,1800.91,1131.48Zm-80.21-2.56h78.92v-3.31a6.367,6.367,0,0,0-6.38-6.36h-66.18a6.351,6.351,0,0,0-6.36,6.36Z" transform="translate(-835 -459.219)" fill="#002a4e"/>
    <path id="Path_6" data-name="Path 6" d="M1822.43,1062.22a9.423,9.423,0,0,1-9.44-9.41v-6.18a1.3,1.3,0,0,1,1.28-1.28h16.31a1.28,1.28,0,0,1,1.29,1.28v6.18a9.44,9.44,0,0,1-9.44,9.41Zm-6.88-14.31v4.9a6.875,6.875,0,1,0,13.75,0v-4.9Z" transform="translate(-835 -459.219)" fill="#002a4e"/>
    <path id="Path_7" data-name="Path 7" d="M1817.25,1046.84a1.333,1.333,0,0,1-1.29-1.31v-4.36a1.3,1.3,0,0,1,1.29-1.29h1.72a1.346,1.346,0,0,1,.9.39,1.362,1.362,0,0,1,.38.9v4.38a1.3,1.3,0,0,1-.38.91,1.272,1.272,0,0,1-.9.38,1.316,1.316,0,0,1-.85-.34A1.287,1.287,0,0,1,1817.25,1046.84Z" transform="translate(-835 -459.219)" fill="#002a4e"/>
    <path id="Path_8" data-name="Path 8" d="M1827.58,1046.84a1.2,1.2,0,0,1-.84-.34,1.3,1.3,0,0,1-2.16-.97v-4.36a1.3,1.3,0,0,1,.38-.91,1.272,1.272,0,0,1,.9-.38h1.72a1.334,1.334,0,0,1,1.29,1.29v4.38a1.3,1.3,0,0,1-1.29,1.29Z" transform="translate(-835 -459.219)" fill="#002a4e"/>
    <path id="Path_9" data-name="Path 9" d="M1808.35,1096.8a15.5,15.5,0,0,1-12.88-6.59,1.3,1.3,0,0,1-.18-.96,1.261,1.261,0,0,1,.54-.81,1.335,1.335,0,0,1,.97-.19,1.356,1.356,0,0,1,.83.55c2.95,4.49,9.08,6.51,14.56,4.87,2.7-.79,8.96-3.79,8.96-13.95v-17.57a1.28,1.28,0,1,1,2.56,0v17.57c0,8.26-4.03,14.39-10.77,16.41A15.551,15.551,0,0,1,1808.35,1096.8Z" transform="translate(-835 -459.219)" fill="#002a4e"/>
    <path id="Path_10" data-name="Path 10" d="M1768.1,1086.39h-15.88a1.342,1.342,0,0,1-.65-.17,1.192,1.192,0,0,1-.47-.5,1.178,1.178,0,0,1-.16-.66,1.219,1.219,0,0,1,.21-.64l9.72-14.98a1.314,1.314,0,0,1,.81-.55,1.3,1.3,0,0,1,.96.19,1.17,1.17,0,0,1,.36.34,1.365,1.365,0,0,1,.21.46,1.4,1.4,0,0,1,0,.5,1.138,1.138,0,0,1-.19.47l-8.44,12.98h13.52a1.264,1.264,0,0,1,1.28,1.28,1.3,1.3,0,0,1-.37.91A1.286,1.286,0,0,1,1768.1,1086.39Z" transform="translate(-835 -459.219)" fill="#002a4e"/>
    <path id="Path_11" data-name="Path 11" d="M1758.35,1101.34a1.316,1.316,0,0,1-.69-.2,1.294,1.294,0,0,1-.54-.82,1.27,1.27,0,0,1,.18-.95l9.72-14.96a1.37,1.37,0,0,1,.81-.56,1.251,1.251,0,0,1,.96.18,1.2,1.2,0,0,1,.37.34,1.117,1.117,0,0,1,.2.46,1.206,1.206,0,0,1,.01.5,1.3,1.3,0,0,1-.19.47l-9.75,14.98a1.328,1.328,0,0,1-1.08.56Z" transform="translate(-835 -459.219)" fill="#002a4e"/>
    <path id="Path_12" data-name="Path 12" d="M1764.71,1050.09a1.213,1.213,0,0,1-.49-.09,1.285,1.285,0,0,1-.4-.29,1.179,1.179,0,0,1-.29-.41,1.161,1.161,0,0,1-.1-.49,1.194,1.194,0,0,1,.1-.49,1.279,1.279,0,0,1,.29-.41l8.44-8.46a1.278,1.278,0,0,1,.91-.38,1.313,1.313,0,0,1,.91.38,1.3,1.3,0,0,1,0,1.82l-8.47,8.44a1.218,1.218,0,0,1-.41.29A1.154,1.154,0,0,1,1764.71,1050.09Z" transform="translate(-835 -459.219)" fill="#002a4e"/>
    <path id="Path_13" data-name="Path 13" d="M1771.54,1051.7a1.236,1.236,0,0,1-.7-.22,1.257,1.257,0,0,1-.54-1.3,1.349,1.349,0,0,1,.34-.66l3.23-3.23a1.456,1.456,0,0,1,.41-.29,1.381,1.381,0,0,1,.49-.1,1.339,1.339,0,0,1,.49.1,1.456,1.456,0,0,1,.41.29,1.287,1.287,0,0,1,0,1.82l-3.21,3.21A1.3,1.3,0,0,1,1771.54,1051.7Z" transform="translate(-835 -459.219)" fill="#002a4e"/>
    <path id="Path_14" data-name="Path 14" d="M1668,1073.72a107,107,0,1,1,107,107A107,107,0,0,1,1668,1073.72Z" transform="translate(-835 -459.219)" fill="#012a4e"/>
    <path id="Path_16" data-name="Path 16" d="M1790.78,1112.83a1.286,1.286,0,0,1-.91-.37,1.313,1.313,0,0,1-.38-.91v-87.77a5.245,5.245,0,0,0-5.28-5.26h-48.12a5.258,5.258,0,0,0-5.26,5.26v87.77a1.272,1.272,0,0,1-.38.9,1.315,1.315,0,0,1-.9.38,1.286,1.286,0,0,1-.91-.37,1.3,1.3,0,0,1-.37-.91v-87.77a7.853,7.853,0,0,1,7.82-7.83h48.12a7.853,7.853,0,0,1,7.85,7.83v87.77a1.313,1.313,0,0,1-.38.91A1.263,1.263,0,0,1,1790.78,1112.83Z" transform="translate(-835 -459.219)" fill="#fff"/>
    <path id="Path_17" data-name="Path 17" d="M1779.72,1056.78h-39.11a1.28,1.28,0,0,1-1.29-1.28v-26.26a1.3,1.3,0,0,1,1.29-1.29h39.11a1.28,1.28,0,0,1,1.28,1.29v26.26a1.264,1.264,0,0,1-1.28,1.28Zm-37.83-2.56h36.55v-23.7h-36.55Z" transform="translate(-835 -459.219)" fill="#fff"/>
    <path id="Path_18" data-name="Path 18" d="M1800.91,1131.48h-81.49a1.28,1.28,0,0,1-1.28-1.28v-4.59a8.971,8.971,0,0,1,2.61-6.32,9.033,9.033,0,0,1,2.9-1.93,8.869,8.869,0,0,1,3.41-.68h66.18a8.905,8.905,0,0,1,6.33,2.61,8.879,8.879,0,0,1,2.62,6.32v4.59a1.272,1.272,0,0,1-.38.9A1.232,1.232,0,0,1,1800.91,1131.48Zm-80.21-2.56h78.92v-3.31a6.367,6.367,0,0,0-6.38-6.36h-66.18a6.351,6.351,0,0,0-6.36,6.36Z" transform="translate(-835 -459.219)" fill="#fff"/>
    <path id="Path_19" data-name="Path 19" d="M1822.43,1062.22a9.423,9.423,0,0,1-9.44-9.41v-6.18a1.3,1.3,0,0,1,1.28-1.28h16.31a1.28,1.28,0,0,1,1.29,1.28v6.18a9.44,9.44,0,0,1-9.44,9.41Zm-6.88-14.31v4.9a6.875,6.875,0,1,0,13.75,0v-4.9Z" transform="translate(-835 -459.219)" fill="#fff"/>
    <path id="Path_20" data-name="Path 20" d="M1817.25,1046.84a1.333,1.333,0,0,1-1.29-1.31v-4.36a1.3,1.3,0,0,1,1.29-1.29h1.72a1.346,1.346,0,0,1,.9.39,1.362,1.362,0,0,1,.38.9v4.38a1.3,1.3,0,0,1-.38.91,1.272,1.272,0,0,1-.9.38,1.316,1.316,0,0,1-.85-.34A1.287,1.287,0,0,1,1817.25,1046.84Z" transform="translate(-835 -459.219)" fill="#fff"/>
    <path id="Path_21" data-name="Path 21" d="M1827.58,1046.84a1.2,1.2,0,0,1-.84-.34,1.3,1.3,0,0,1-2.16-.97v-4.36a1.3,1.3,0,0,1,.38-.91,1.272,1.272,0,0,1,.9-.38h1.72a1.334,1.334,0,0,1,1.29,1.29v4.38a1.3,1.3,0,0,1-1.29,1.29Z" transform="translate(-835 -459.219)" fill="#fff"/>
    <path id="Path_22" data-name="Path 22" d="M1808.35,1096.8a15.5,15.5,0,0,1-12.88-6.59,1.3,1.3,0,0,1-.18-.96,1.261,1.261,0,0,1,.54-.81,1.335,1.335,0,0,1,.97-.19,1.356,1.356,0,0,1,.83.55c2.95,4.49,9.08,6.51,14.56,4.87,2.7-.79,8.96-3.79,8.96-13.95v-17.57a1.28,1.28,0,1,1,2.56,0v17.57c0,8.26-4.03,14.39-10.77,16.41A15.551,15.551,0,0,1,1808.35,1096.8Z" transform="translate(-835 -459.219)" fill="#fff"/>
    <path id="Path_23" data-name="Path 23" d="M1768.1,1086.39h-15.88a1.342,1.342,0,0,1-.65-.17,1.192,1.192,0,0,1-.47-.5,1.178,1.178,0,0,1-.16-.66,1.219,1.219,0,0,1,.21-.64l9.72-14.98a1.314,1.314,0,0,1,.81-.55,1.3,1.3,0,0,1,.96.19,1.17,1.17,0,0,1,.36.34,1.365,1.365,0,0,1,.21.46,1.4,1.4,0,0,1,0,.5,1.138,1.138,0,0,1-.19.47l-8.44,12.98h13.52a1.264,1.264,0,0,1,1.28,1.28,1.3,1.3,0,0,1-.37.91A1.286,1.286,0,0,1,1768.1,1086.39Z" transform="translate(-835 -459.219)" fill="#fff"/>
    <path id="Path_24" data-name="Path 24" d="M1758.35,1101.34a1.316,1.316,0,0,1-.69-.2,1.294,1.294,0,0,1-.54-.82,1.27,1.27,0,0,1,.18-.95l9.72-14.96a1.37,1.37,0,0,1,.81-.56,1.251,1.251,0,0,1,.96.18,1.2,1.2,0,0,1,.37.34,1.117,1.117,0,0,1,.2.46,1.206,1.206,0,0,1,.01.5,1.3,1.3,0,0,1-.19.47l-9.75,14.98a1.328,1.328,0,0,1-1.08.56Z" transform="translate(-835 -459.219)" fill="#fff"/>
    <path id="Path_25" data-name="Path 25" d="M1764.71,1050.09a1.213,1.213,0,0,1-.49-.09,1.285,1.285,0,0,1-.4-.29,1.179,1.179,0,0,1-.29-.41,1.161,1.161,0,0,1-.1-.49,1.194,1.194,0,0,1,.1-.49,1.279,1.279,0,0,1,.29-.41l8.44-8.46a1.278,1.278,0,0,1,.91-.38,1.313,1.313,0,0,1,.91.38,1.3,1.3,0,0,1,0,1.82l-8.47,8.44a1.218,1.218,0,0,1-.41.29A1.154,1.154,0,0,1,1764.71,1050.09Z" transform="translate(-835 -459.219)" fill="#fff"/>
    <path id="Path_26" data-name="Path 26" d="M1771.54,1051.7a1.236,1.236,0,0,1-.7-.22,1.257,1.257,0,0,1-.54-1.3,1.349,1.349,0,0,1,.34-.66l3.23-3.23a1.456,1.456,0,0,1,.41-.29,1.381,1.381,0,0,1,.49-.1,1.339,1.339,0,0,1,.49.1,1.456,1.456,0,0,1,.41.29,1.287,1.287,0,0,1,0,1.82l-3.21,3.21A1.3,1.3,0,0,1,1771.54,1051.7Z" transform="translate(-835 -459.219)" fill="#fff"/>
  </g>
</svg>
