<svg xmlns="http://www.w3.org/2000/svg" width="286.78" height="295.45" viewBox="0 0 286.78 295.45">
  <g id="Group_1" data-name="Group 1" transform="translate(-910.973 -1029.661)">
    <path id="Path_1" data-name="Path 1" d="M1295.36,1646.38c-67.67-49.13-140.34-118.18-140.34-188.35,0-47.03,34.24-85.15,76.47-85.15,26.72,0,50.24,15.26,63.92,38.38,13.67-23.12,37.19-38.38,63.91-38.38,42.24,0,76.48,38.12,76.48,85.15,0,70.17-72.67,139.22-140.35,188.35v.07c-.01-.01-.03-.02-.04-.03a.138.138,0,0,0-.04.03A.243.243,0,0,1,1295.36,1646.38Z" transform="translate(-238.047 -343.219)" fill="#c7e3fd" fill-rule="evenodd"/>
    <path id="Path_2" data-name="Path 2" d="M1149.02,1442.32a6,6,0,0,1,6-6h52.45l46.91,85.78,22.23-68h51.77a6,6,0,0,1,0,12h-43.06l-28.15,86.1-56.81-103.88h-45.34A6,6,0,0,1,1149.02,1442.32Z" transform="translate(-238.047 -343.219)" fill="#fff" fill-rule="evenodd"/>
    <path id="Path_3" data-name="Path 3" d="M1359.87,1459.88a21.265,21.265,0,1,1-21.27-21.27A21.273,21.273,0,0,1,1359.87,1459.88Z" transform="translate(-238.047 -343.219)" fill="#fff"/>
    <path id="Path_4" data-name="Path 4" d="M1157.7,1442.32a2.006,2.006,0,0,1,2-2h45.4l50.21,91.81,24.21-74.03h48.86a2,2,0,0,1,0,4h-45.96l-26.18,80.07-53.51-97.85H1159.7A2.006,2.006,0,0,1,1157.7,1442.32Z" transform="translate(-238.047 -343.219)" fill="#008fb4" fill-rule="evenodd"/>
    <path id="Path_5" data-name="Path 5" d="M1348.56,1459.88a9.955,9.955,0,1,1-9.96-9.95A9.952,9.952,0,0,1,1348.56,1459.88Z" transform="translate(-238.047 -343.219)" fill="#008fb4"/>
    <path id="Path_7" data-name="Path 7" d="M1378,1587.46a6.663,6.663,0,0,1,10.17,8.6c-10.28,12.78-38.11,46.67-44.28,46.74-7.61.07-12.79-4.45-10.71-6.3C1334.85,1635.01,1366.1,1600.58,1378,1587.46Z" transform="translate(-238.047 -343.219)" fill="#fff"/>
    <path id="Path_8" data-name="Path 8" d="M1302.77,1659.71c-65.34,1.32-71.67-11.08-143.1,5.86,3.54-11.18,11.91-36.67,17.09-49.16,19.03-51.11,59.74-43.87,92.09-35.19s47.33,7.58,54.51,5.77,15.19,2.98,3.23,13.98-42.15,7.15-58.7,4.76-19.31,16.5,1.15,20.8c56.13,13.93,63.1,10.76,80.76,6.53s27.67-17.54,37.12-27.15,20.62.6,12.14,9.23l-17.17,17.46C1357.98,1656.91,1338.16,1659.02,1302.77,1659.71Z" transform="translate(-238.047 -343.219)" fill="#fff"/>
    <path id="Path_8_-_Outline" data-name="Path 8 - Outline" d="M1158.184,1666.95l.533-1.682c3.685-11.639,12-36.9,17.113-49.224a83.014,83.014,0,0,1,10.688-20.358,53.857,53.857,0,0,1,13.362-12.934,49.9,49.9,0,0,1,15.249-6.757,65.373,65.373,0,0,1,16.309-1.937,107.059,107.059,0,0,1,19.173,1.905c6.877,1.249,13.5,2.949,18.5,4.291,17.3,4.641,31.558,6.994,42.37,6.994a48.348,48.348,0,0,0,11.636-1.228,13.119,13.119,0,0,1,3.2-.4,9.766,9.766,0,0,1,4.25.89,5.457,5.457,0,0,1,2.8,2.889c.877,2.249.53,6.21-6.1,12.31-3.016,2.769-7.341,4.813-12.854,6.073a75.877,75.877,0,0,1-16.629,1.594c-10.274,0-20.949-1.341-30.037-2.654a18.591,18.591,0,0,0-2.645-.2,11.014,11.014,0,0,0-6.833,2.033,6.8,6.8,0,0,0-2.653,4.675,8.841,8.841,0,0,0,2.773,6.971c2.423,2.517,6.177,4.367,10.857,5.351l.035.008c14.986,3.719,26.84,6.309,36.241,7.916a127.88,127.88,0,0,0,21.376,2.189c7.989,0,13.317-1.3,20.061-2.945q1.264-.308,2.608-.632c14.679-3.514,24-13.465,32.229-22.244,1.522-1.624,2.959-3.158,4.411-4.635a15.051,15.051,0,0,1,4.4-3.182,10.416,10.416,0,0,1,4.361-1,8.474,8.474,0,0,1,4.6,1.313,7.582,7.582,0,0,1,2.919,3.451,7.764,7.764,0,0,1,.342,4.881,11.248,11.248,0,0,1-3.056,5.168l-17.17,17.46c-11.63,11.825-22.636,18.817-35.685,22.67a104.184,104.184,0,0,1-20.125,3.626c-7.645.716-16.055.958-24,1.113-3.313.067-6.619.1-9.826.1-17.568,0-30.635-1-42.163-1.887-9.533-.731-17.765-1.363-26.945-1.363a199.378,199.378,0,0,0-26.874,1.858,377.433,377.433,0,0,0-37.079,7.124Zm73.253-90.892a63.375,63.375,0,0,0-15.808,1.873,47.906,47.906,0,0,0-14.64,6.485,51.868,51.868,0,0,0-12.863,12.458,81.041,81.041,0,0,0-10.429,19.884l-.013.034c-4.851,11.7-12.629,35.181-16.526,47.4,13.5-3.159,25.149-5.371,35.559-6.756a201.34,201.34,0,0,1,27.138-1.875c9.257,0,17.923.665,27.1,1.369,11.493.881,24.52,1.881,42.01,1.881,3.193,0,6.486-.034,9.786-.1,7.911-.154,16.277-.395,23.857-1.1a102.265,102.265,0,0,0,19.745-3.552c12.706-3.752,23.446-10.585,34.825-22.155l17.17-17.46a9.292,9.292,0,0,0,2.54-4.241,5.779,5.779,0,0,0-.243-3.633,5.592,5.592,0,0,0-2.156-2.542,6.481,6.481,0,0,0-3.515-1,8.432,8.432,0,0,0-3.526.816,13.065,13.065,0,0,0-3.814,2.767c-1.435,1.459-2.865,2.985-4.378,4.6a119.234,119.234,0,0,1-13.975,13.347,50.125,50.125,0,0,1-19.247,9.474c-.891.213-1.76.425-2.6.63-6.6,1.611-12.306,3-20.535,3a129.762,129.762,0,0,1-21.713-2.218c-9.446-1.616-21.342-4.214-36.368-7.942-5.066-1.067-9.169-3.113-11.868-5.917a10.8,10.8,0,0,1-3.321-8.565,8.777,8.777,0,0,1,3.415-6.047,12.975,12.975,0,0,1,8.06-2.454,20.608,20.608,0,0,1,2.931.218c9.018,1.3,19.6,2.634,29.752,2.633a73.908,73.908,0,0,0,16.183-1.544c5.17-1.182,9.19-3.065,11.946-5.6a22.193,22.193,0,0,0,5.114-6.3,4.831,4.831,0,0,0,.479-3.81c-.6-1.545-2.591-2.505-5.188-2.505a11.121,11.121,0,0,0-2.714.343,50.307,50.307,0,0,1-12.125,1.289c-10.987,0-25.417-2.376-42.888-7.063-4.964-1.332-11.534-3.019-18.338-4.254A105.1,105.1,0,0,0,1231.437,1576.058Z" transform="translate(-238.047 -343.219)" fill="#c7e3fd"/>
    <path id="Path_9" data-name="Path 9" d="M1386.54,1587.42a12.36,12.36,0,0,0-5.16.79c-1.88.64-4.05,2.24-6.72,4.91-2.64,2.65-5.57,6.16-9.02,10.4-.81.99-1.64,2.02-2.5,3.09-6.08,7.52-13.55,16.76-23.13,26.69,2.18-.45,4.37-.98,6.73-1.56.84-.2,1.71-.41,2.6-.63a46.4,46.4,0,0,0,17.12-8.18,2.014,2.014,0,0,1,.11-1.36,34.5,34.5,0,0,1,2.6-4.19c1.25-1.81,2.86-4.03,4.66-6.43,3.6-4.79,8.01-10.36,11.89-14.9a14.736,14.736,0,0,0,3.14-5.22,2.773,2.773,0,0,0-.13-2.42A2.883,2.883,0,0,0,1386.54,1587.42Zm-9.7,26.18c.07-.08.13-.16.19-.24,3.56-4.75,7.91-10.25,11.73-14.71a18.483,18.483,0,0,0,3.95-6.74,6.683,6.683,0,0,0-.71-5.8,6.809,6.809,0,0,0-5.02-2.67,16.3,16.3,0,0,0-6.9.98c-2.62.9-5.17,2.86-7.78,5.41a15.251,15.251,0,0,0,.98-2.5,7.563,7.563,0,0,0,.06-4.39,6.376,6.376,0,0,0-2.07-2.93,6.629,6.629,0,0,0-4.14-1.32,15.4,15.4,0,0,0-5.07.87,25.209,25.209,0,0,0-11.05,7.85c-1.25,1.51-2.84,3.48-4.72,5.8-7.71,9.54-20.26,25.08-34.46,39.53a1.846,1.846,0,0,0-.43.65c-9.9-1.41-23.1-4.14-41.88-8.8l-.03-.01h-.04c-9.74-2.05-13.01-7.3-12.86-10.87a5.8,5.8,0,0,1,2.73-4.67c1.76-1.17,4.52-1.87,8.29-1.33,8.28,1.2,20.09,2.78,31.37,2.66a74.13,74.13,0,0,0,16.19-1.74c4.95-1.2,9.44-3.13,12.77-6.19,3.1-2.85,5.08-5.44,6.05-7.78a7.077,7.077,0,0,0-.12-6.51,7.423,7.423,0,0,0-4.84-3.23,13.266,13.266,0,0,0-6.16.13c-6.71,1.69-21.29,2.87-53.5-5.76-16.16-4.34-34.85-8.46-51.97-4.85-17.35,3.65-32.77,15.14-42.5,41.24-5.22,12.6-13.6,38.12-17.14,49.28l-1.06,3.37,3.43-.82c35.57-8.43,54.82-9.54,73.29-8.73,5.62.25,11.21.67,17.19,1.13a491.073,491.073,0,0,0,52.2,1.8m13.37-27.71c13.75-14.16,25.86-29.16,33.28-38.35,1.85-2.29,3.41-4.21,4.63-5.68a21.19,21.19,0,0,1,9.25-6.62,11.182,11.182,0,0,1,3.71-.66,2.929,2.929,0,0,1,1.67.39,2.365,2.365,0,0,1,.81,1.09,3.548,3.548,0,0,1-.1,2.07c-.63,2.22-2.72,5.8-7.79,11.54a2,2,0,0,0,.89,3.23c-.81,1-1.65,2.03-2.51,3.09a370.691,370.691,0,0,1-24.66,28.25,2,2,0,0,0-.53,1.83,64.988,64.988,0,0,1-10.91.43C1321.6,1634.52,1319.04,1634.32,1316.18,1634Zm60.66-20.4c1.42-1.45,2.79-2.92,4.15-4.36,1.51-1.62,3.01-3.21,4.51-4.73,5.28-5.38,11.61-5.6,15.5-2.36a8.494,8.494,0,0,1,3.07,6.56,11.294,11.294,0,0,1-3.58,7.84L1383.32,1634c-12.15,12.36-23.37,19.17-36.12,22.93-12.66,3.74-26.72,4.43-44.39,4.78m95.63-56.49c-1.94-1.61-5.92-2.15-10.09,2.09-1.39,1.41-2.81,2.93-4.28,4.5-8.27,8.85-18.2,19.45-33.8,23.19-.88.21-1.75.43-2.59.63-7.54,1.84-13.76,3.36-23.91,2.97-11.18-.42-27.12-3.16-55.18-10.12-10.69-2.26-16.26-8.59-16-14.94a9.808,9.808,0,0,1,4.52-7.84c2.76-1.83,6.56-2.6,11.07-1.95,8.27,1.2,19.82,2.73,30.76,2.62a69.882,69.882,0,0,0,15.29-1.63c4.59-1.11,8.36-2.81,11.01-5.25,2.88-2.65,4.39-4.78,5.06-6.37.64-1.55.43-2.43.14-2.92a3.527,3.527,0,0,0-2.32-1.39,9.3,9.3,0,0,0-4.27.12c-7.65,1.93-23,2.94-55.51-5.78-16.19-4.34-34.04-8.18-50.12-4.8-15.85,3.34-30.28,13.76-39.58,38.76l-.01.03-.02.04c-4.68,11.28-12.01,33.32-15.96,45.64,33.7-7.77,52.66-8.84,70.94-8.04,5.81.26,11.5.69,17.55,1.16a486.389,486.389,0,0,0,51.59,1.77h0c17.71-.35,31.26-1.05,43.34-4.62,11.99-3.54,22.64-9.94,34.4-21.9l17.16-17.45a7.3,7.3,0,0,0,2.44-5.03A4.508,4.508,0,0,0,1398.44,1605.22ZM1266,1589.64a2.005,2.005,0,0,1-2.47,1.38c-4.14-1.17-8.42-2.3-12.75-3.25a2,2,0,1,1,.85-3.91c4.44.97,8.81,2.13,12.99,3.31A2,2,0,0,1,1266,1589.64Zm-21.93-5.19a2,2,0,0,1-2.25,1.71c-9.87-1.36-19.56-1.14-28.21,2.35-8.58,3.47-16.34,10.26-22.23,22.46a2,2,0,1,1-3.6-1.74c6.27-12.99,14.72-20.54,24.33-24.43,9.55-3.86,20.03-4.01,30.25-2.6A2,2,0,0,1,1244.07,1584.45Z" transform="translate(-238.047 -343.219)" fill="#c7e3fd" fill-rule="evenodd"/>
  </g>
</svg>
