<svg xmlns="http://www.w3.org/2000/svg" width="278.707" height="325.002" viewBox="0 0 278.707 325.002">
  <g id="Group_1" data-name="Group 1" transform="translate(-910.508 -475.609)">
    <path id="Path_1" data-name="Path 1" d="M1353.09,882.038c1.12,4.867-1.57,9.811-6.02,11.043s-8.97-1.715-10.1-6.582,1.57-9.81,6.02-11.042S1351.96,877.171,1353.09,882.038Z" transform="translate(-238.047 -343.219)" fill="#c7e3fd"/>
    <path id="Path_2" data-name="Path 2" d="M1361.89,907.728a6.119,6.119,0,0,1-4.01,7.362,5.52,5.52,0,0,1-6.73-4.387,6.119,6.119,0,0,1,4.01-7.362A5.521,5.521,0,0,1,1361.89,907.728Z" transform="translate(-238.047 -343.219)" fill="#c7e3fd"/>
    <path id="Path_3" data-name="Path 3" d="M1281.93,880.163c14.76,7.932,13.28,22.6,4.43,22.6-25.09,0-32.47-30.668,0-51.651a37.133,37.133,0,0,1,6.83-3.64c8.05-3.621,16.78-7.542,16.78-28.641-2.95,16.141-16.23,20.983-28.04,20.983s-36.89,8.07-48.7,33.9c-10.26,22.457-7.14,51.017,12.29,82.494-.75,1.182-1.41,2.209-1.96,3.051-7.38,11.3-16.23,12.913-19.18,12.913-14.76,0-19.18-17.755-14.76-29.053-41.63,37.413-34.64,70.969-41.63,77.449s-12.5-15.48-8.39-25.8c-13.46,33.789-14.2,70.919-4.49,93.619s32.65,55.45,98.93,55.45h42.08c131.14,0,147.22-132.08,83.53-214.186,2.57,16.845-4.41,15.593-9.43,13.467C1353.84,929.644,1337.41,902.76,1281.93,880.163Z" transform="translate(-238.047 -343.219)" fill="#c7e3fd"/>
    <path id="Path_4" data-name="Path 4" d="M1279.83,1027.13c0,23.03-14.58,41.7-32.56,41.7s-32.56-18.67-32.56-41.7,14.57-83.091,32.56-83.091S1279.83,1004.09,1279.83,1027.13Z" transform="translate(-238.047 -343.219)" fill="#fff"/>
    <path id="Path_5" data-name="Path 5" d="M1226.14,977.57c-5.84,17.759-9.43,38.31-9.43,49.56,0,22.41,14.11,39.7,30.56,39.7s30.56-17.29,30.56-39.7c0-8.1-1.87-21.08-5.12-34.407a2,2,0,1,1,3.88-.95c3.3,13.487,5.24,26.807,5.24,35.357,0,23.64-15.04,43.7-34.56,43.7s-34.56-20.06-34.56-43.7c0-11.8,3.7-32.785,9.63-50.811,2.97-9.019,6.55-17.43,10.58-23.627a31.657,31.657,0,0,1,6.54-7.592,12.572,12.572,0,0,1,7.81-3.061c5.09,0,9.51,3.8,13.17,8.926,3.74,5.229,7.1,12.387,9.98,20.256a2,2,0,1,1-3.75,1.375c-2.83-7.718-6.04-14.495-9.48-19.3-3.52-4.914-6.89-7.253-9.92-7.253a8.628,8.628,0,0,0-5.32,2.19,27.991,27.991,0,0,0-5.68,6.644C1232.51,960.655,1229.07,968.7,1226.14,977.57Z" transform="translate(-238.047 -343.219)" fill="#008fb4" fill-rule="evenodd"/>
    <path id="Path_6" data-name="Path 6" d="M1247.27,1066.83a2,2,0,0,1,2,2v24.82a2,2,0,0,1-4,0v-24.82A1.993,1.993,0,0,1,1247.27,1066.83Z" transform="translate(-238.047 -343.219)" fill="#008fb4" fill-rule="evenodd"/>
    <path id="Path_7" data-name="Path 7" d="M1232.87,1068.9a23.56,23.56,0,0,1-47.12,0c0-13.01,10.55-54.76,23.56-54.76S1232.87,1055.89,1232.87,1068.9Z" transform="translate(-238.047 -343.219)" fill="#fff"/>
    <path id="Path_8" data-name="Path 8" d="M1194.54,1037.31c-4.23,11.94-6.79,25.39-6.79,31.59a21.56,21.56,0,0,0,43.12,0c0-6.2-2.57-19.65-6.79-31.59a69.045,69.045,0,0,0-7.25-15.31c-2.77-4.05-5.35-5.86-7.52-5.86s-4.75,1.81-7.52,5.86A68.164,68.164,0,0,0,1194.54,1037.31Zm3.95-17.57c2.86-4.19,6.49-7.6,10.82-7.6s7.95,3.41,10.82,7.6a72.49,72.49,0,0,1,7.72,16.23c4.31,12.18,7.02,26.11,7.02,32.93a25.56,25.56,0,0,1-51.12,0c0-6.82,2.71-20.75,7.01-32.93A72.5,72.5,0,0,1,1198.49,1019.74Z" transform="translate(-238.047 -343.219)" fill="#234075" fill-rule="evenodd"/>
    <path id="Path_9" data-name="Path 9" d="M1209.31,1091.09a2.006,2.006,0,0,1,2,2v19.74a2,2,0,0,1-4,0v-19.74A2,2,0,0,1,1209.31,1091.09Z" transform="translate(-238.047 -343.219)" fill="#234075" fill-rule="evenodd"/>
    <path id="Path_10" data-name="Path 10" d="M1408.32,1016.05l-26.25-45.456-26.24,45.456h11.87l-22.34,38.7h13.99l-20.47,35.45h86.39l-20.47-35.45h13.99l-22.35-38.7Z" transform="translate(-238.047 -343.219)" fill="#fff" fill-rule="evenodd"/>
    <path id="Path_11" data-name="Path 11" d="M1382.07,968.594a2.009,2.009,0,0,1,1.74,1l26.24,45.456a2,2,0,0,1-1.73,3h-8.41l20.61,35.7a2,2,0,0,1-1.73,3h-10.53L1427,1089.2a2.036,2.036,0,0,1,0,2,2,2,0,0,1-1.73,1h-86.39a2,2,0,0,1-1.73-3l18.74-32.45h-10.53a2,2,0,0,1-1.73-3l20.61-35.7h-8.41a2,2,0,0,1-1.73-3l26.24-45.456A2.005,2.005,0,0,1,1382.07,968.594Zm-22.78,45.456h8.41a2,2,0,0,1,1.73,3l-20.61,35.7h10.53a2,2,0,0,1,1.73,3l-18.73,32.45h79.45l-18.74-32.45a2.036,2.036,0,0,1,0-2,2.007,2.007,0,0,1,1.74-1h10.52l-20.61-35.7a2.036,2.036,0,0,1,0-2,2,2,0,0,1,1.73-1h8.41l-22.78-39.456Z" transform="translate(-238.047 -343.219)" fill="#008fb4" fill-rule="evenodd"/>
    <path id="Path_12" data-name="Path 12" d="M1359.67,1052.82a2.009,2.009,0,0,1,.73,2.74l-18.85,32.65H1421l-18.85-32.65a2,2,0,1,1,3.47-2l20.58,35.65a2,2,0,0,1-1.73,3h-86.38a2.007,2.007,0,0,1-1.74-1,2.036,2.036,0,0,1,0-2l20.59-35.65A2,2,0,0,1,1359.67,1052.82Z" transform="translate(-238.047 -343.219)" fill="#008fb4" fill-rule="evenodd"/>
    <path id="Path_13" data-name="Path 13" d="M1367.87,1014.38a2,2,0,0,1,.74,2.73l-20.58,35.64h19.69a2,2,0,0,1,0,4h-23.16a2,2,0,0,1-1.73-3l22.31-38.64A2,2,0,0,1,1367.87,1014.38Zm27.02.35a2.006,2.006,0,0,1,2.73.73l22.11,38.29a2.036,2.036,0,0,1,0,2,2.007,2.007,0,0,1-1.74,1h-25.13a2,2,0,0,1,0-4h21.67l-20.38-35.29A2,2,0,0,1,1394.89,1014.73Z" transform="translate(-238.047 -343.219)" fill="#008fb4" fill-rule="evenodd"/>
    <path id="Path_14" data-name="Path 14" d="M1381.28,968.594a2.005,2.005,0,0,1,1.73,1l26.24,45.456a2,2,0,0,1-1.73,3h-16.68a2,2,0,0,1,0-4h13.22l-22.78-39.456-22.78,39.456h10.7a2,2,0,0,1,0,4h-14.16a2.007,2.007,0,0,1-1.74-1,2.036,2.036,0,0,1,0-2l26.25-45.456A1.981,1.981,0,0,1,1381.28,968.594Z" transform="translate(-238.047 -343.219)" fill="#008fb4" fill-rule="evenodd"/>
    <path id="Path_15" data-name="Path 15" d="M1376.52,1088.62a2,2,0,0,1,2,2v19.28a2,2,0,0,1-4,0v-19.28A1.993,1.993,0,0,1,1376.52,1088.62Z" transform="translate(-238.047 -343.219)" fill="#008fb4" fill-rule="evenodd"/>
    <path id="Path_16" data-name="Path 16" d="M1382.07,1088.62a1.993,1.993,0,0,1,2,2v19.28a2,2,0,0,1-4,0v-19.28A2,2,0,0,1,1382.07,1088.62Z" transform="translate(-238.047 -343.219)" fill="#008fb4" fill-rule="evenodd"/>
    <path id="Path_17" data-name="Path 17" d="M1367.52,968.345l-38.38-66.486-38.39,66.486h17.37l-32.69,56.6h20.47l-29.94,51.86h126.35l-29.94-51.86h20.47l-32.68-56.6Z" transform="translate(-238.047 -343.219)" fill="#fff" fill-rule="evenodd"/>
    <path id="Path_18" data-name="Path 18" d="M1295.9,1022.93a2,2,0,0,1,.74,2.73l-28.38,49.15h119.42l-28.37-49.15a2,2,0,1,1,3.46-2l31.84,55.15H1261.33l31.84-55.15A2.006,2.006,0,0,1,1295.9,1022.93Z" transform="translate(-238.047 -343.219)" fill="#234075" fill-rule="evenodd"/>
    <path id="Path_19" data-name="Path 19" d="M1307.9,966.7a1.99,1.99,0,0,1,.73,2.732l-30.9,53.52h30.41a2,2,0,1,1,0,4H1270.8l34.37-59.52A2,2,0,0,1,1307.9,966.7Zm40.44.517a2,2,0,0,1,2.73.732l34.07,59h-40.23a2,2,0,1,1,0-4h33.3l-30.6-53A2,2,0,0,1,1348.34,967.215Z" transform="translate(-238.047 -343.219)" fill="#234075" fill-rule="evenodd"/>
    <path id="Path_20" data-name="Path 20" d="M1327.97,897.859l41.85,72.486h-27.86a2,2,0,0,1,0-4h20.93l-34.92-60.486-34.92,60.486h24.51a2,2,0,0,1,0,4h-31.44Z" transform="translate(-238.047 -343.219)" fill="#234075" fill-rule="evenodd"/>
    <path id="Path_21" data-name="Path 21" d="M1321,1075.41a2,2,0,0,1,2,2v32.49a2,2,0,0,1-4,0v-32.49A2.006,2.006,0,0,1,1321,1075.41Z" transform="translate(-238.047 -343.219)" fill="#234075" fill-rule="evenodd"/>
    <path id="Path_22" data-name="Path 22" d="M1329.13,1075.41a2,2,0,0,1,2,2v32.49a2,2,0,0,1-4,0v-32.49A2.006,2.006,0,0,1,1329.13,1075.41Z" transform="translate(-238.047 -343.219)" fill="#234075" fill-rule="evenodd"/>
    <path id="Path_23" data-name="Path 23" d="M1266.18,857.457a2,2,0,0,1-.8,2.713c-.22.12-.44.241-.65.363a2,2,0,0,1-1.97-3.486c.24-.131.47-.26.71-.388A2,2,0,0,1,1266.18,857.457Zm-6,3.474a2,2,0,0,1-.45,2.794,42.384,42.384,0,0,0-6.56,5.874,2,2,0,0,1-2.97-2.675,46.052,46.052,0,0,1,7.18-6.434A2.007,2.007,0,0,1,1260.18,860.931Zm-14.36,15.8a2,2,0,0,1,1.01,2.64q-.3.666-.57,1.349a2,2,0,1,1-3.71-1.482q.3-.753.63-1.491A2,2,0,0,1,1245.82,876.727Zm-2.8,7.173a2,2,0,0,1,1.48,2.41,48.241,48.241,0,0,0-1.23,8.778,2,2,0,1,1-3.99-.2,52.205,52.205,0,0,1,1.33-9.5A2,2,0,0,1,1243.02,883.9Zm-1.46,21.4a2.01,2.01,0,0,1,2.25,1.725c.03.25.06.5.1.751.04.289.08.575.13.857a2,2,0,1,1-3.93.706c-.06-.333-.12-.67-.16-1.01-.04-.264-.08-.526-.11-.788A2,2,0,0,1,1241.56,905.3Zm2.02,8.942a2,2,0,0,1,2.71.8,29.1,29.1,0,0,0,6.71,7.984,2,2,0,1,1-2.61,3.027,32.877,32.877,0,0,1-7.61-9.1A2,2,0,0,1,1243.58,914.239ZM1262.26,932a2,2,0,0,1,2.75-.659l1.14.7.45.274a2,2,0,0,1-2.09,3.412c-.15-.09-.29-.179-.44-.269-.38-.235-.77-.471-1.15-.707A1.991,1.991,0,0,1,1262.26,932Zm7.95,4.9a2,2,0,0,1,2.77-.557,53.145,53.145,0,0,1,9.06,7.294,2,2,0,0,1-2.89,2.764,49.148,49.148,0,0,0-8.38-6.728A2,2,0,0,1,1270.21,936.9Zm16.54,19.317a2.009,2.009,0,0,1,2.18,1.808c.03.34.05.683.07,1.031a2,2,0,0,1-4,.2q-.015-.437-.06-.86A2,2,0,0,1,1286.75,956.214Z" transform="translate(-238.047 -343.219)" fill="#008fb4" fill-rule="evenodd"/>
    <path id="Path_24" data-name="Path 24" d="M1287.79,910.329a2,2,0,0,1,2.05-1.953,29.3,29.3,0,0,1,10.01,2.176,2,2,0,0,1-1.49,3.712,25.369,25.369,0,0,0-8.62-1.89A2,2,0,0,1,1287.79,910.329Zm-2.57.2a2,2,0,0,1-.26,2.817,1.006,1.006,0,0,0-.17.179q-.06.094-.12.2a2,2,0,1,1-3.53-1.873,4.066,4.066,0,0,1,.36-.6,5.15,5.15,0,0,1,.9-.986A2,2,0,0,1,1285.22,910.525Zm23.02,7.525a1.992,1.992,0,0,1,2.82.091c.2.208.39.42.58.636a2,2,0,1,1-3,2.648c-.16-.186-.33-.368-.5-.548A2,2,0,0,1,1308.24,918.05Zm-25.45.241a1.99,1.99,0,0,1,2.82.054,3.952,3.952,0,0,0,3.47,1.142,1.528,1.528,0,0,0,2.85-.94c.12-.061.25-.126.37-.194a2,2,0,1,1,1.94,3.5q-.24.133-.48.255a2.609,2.609,0,0,0-4.23,1.357,7.937,7.937,0,0,1-6.8-2.343A2,2,0,0,1,1282.79,918.291Z" transform="translate(-238.047 -343.219)" fill="#008fb4" fill-rule="evenodd"/>
    <path id="Path_25" data-name="Path 25" d="M1193.33,975.095a2,2,0,0,1,1.1,2.607c-.11.268-.22.551-.34.849a2,2,0,1,1-3.72-1.474c.12-.31.24-.605.35-.886A2.006,2.006,0,0,1,1193.33,975.095Zm-5.38,15.038a2.008,2.008,0,0,1,1.37,2.476c-1.02,3.537-1.95,7.238-2.61,10.771a2,2,0,0,1-3.93-.73c.69-3.7,1.65-7.528,2.69-11.151A2.005,2.005,0,0,1,1187.95,990.133Zm-4.05,18.337a1.994,1.994,0,0,1,1.88,2.11c-.01.3-.03.6-.04.89a2,2,0,1,1-3.99-.13c.01-.32.02-.65.04-.98A2,2,0,0,1,1183.9,1008.47Z" transform="translate(-238.047 -343.219)" fill="#008fb4" fill-rule="evenodd"/>
    <path id="Path_26" data-name="Path 26" d="M1383.09,943.945a2,2,0,0,1,2.75.656c.22.349.44.711.67,1.085a2,2,0,1,1-3.41,2.088q-.345-.555-.66-1.077A2,2,0,0,1,1383.09,943.945Zm5.9,9.823a2,2,0,0,1,2.72.778,146.06,146.06,0,0,1,6.84,13.9,2,2,0,0,1-3.69,1.553,141.04,141.04,0,0,0-6.65-13.508A2,2,0,0,1,1388.99,953.768Zm13.08,32.984a2,2,0,0,1,2.23,1.734q.09.658.15,1.316a2,2,0,1,1-3.98.4c-.04-.4-.09-.808-.14-1.213A2,2,0,0,1,1402.07,986.752Z" transform="translate(-238.047 -343.219)" fill="#008fb4" fill-rule="evenodd"/>
  </g>
</svg>
