<svg xmlns="http://www.w3.org/2000/svg" width="325.106" height="284.731" viewBox="0 0 325.106 284.731">
  <g id="Group_2" data-name="Group 2" transform="translate(-583.742 -547.75)">
    <g id="Group_1" data-name="Group 1" transform="translate(-682 57)">
      <path id="Path_1" data-name="Path 1" d="M1655.95,839.969a12,12,0,0,1,20.78,0L1827.27,1100.7a12,12,0,0,1-10.39,18H1515.81a12.005,12.005,0,0,1-10.4-18Z" transform="translate(-238.047 -343.219)" fill="#c7e3fd"/>
      <path id="Path_2" data-name="Path 2" d="M1794.53,1075.91l11.07,19.16a7,7,0,0,1-6.06,10.5H1526.62a7,7,0,0,1-6.07-10.5l54.68-93.6,7.92-1.908,14.29,13.638v17.5l5.84,3.89v11.04l26.77-14.93,30.85,12.99s1.62,5.84,10.71,8.76,12.34-2.92,12.34-2.92l8.3,2.92,2.92,9.09,23.05-3.89,4.88,3.89a4.83,4.83,0,0,0,1.6,6.82c4.23,2.84,11.38-6.82,11.38-6.82l6.17,2.6v4.22h3.57l2.93-6.82,25.97,5.2,1.95,8.77,5.52,1.62,3.57-3.9Z" transform="translate(-238.047 -343.219)" fill="#fff"/>
      <path id="Path_3" data-name="Path 3" d="M1583.74,997.367l15.7,14.983v17.28l5.84,3.9v8.7l24.65-13.75,32.64,13.74.25.91v.01h0a.636.636,0,0,1,.04.1,4.234,4.234,0,0,0,.23.52,9.481,9.481,0,0,0,1.29,1.93,16.528,16.528,0,0,0,7.85,4.86c4.06,1.31,6.56.6,7.99-.2a6.3,6.3,0,0,0,1.59-1.28,2.657,2.657,0,0,0,.34-.43.773.773,0,0,0,.07-.09h0v-.01l.81-1.45,10.82,3.81,2.7,8.39,22.23-3.76,6.99,5.59-.99,1.51h0a.6.6,0,0,0-.04.06c-.03.07-.09.17-.15.31a3.86,3.86,0,0,0-.28,1.08,2.3,2.3,0,0,0,.19,1.2,3.432,3.432,0,0,0,1.32,1.43c.3.2.77.31,1.7-.07a11.783,11.783,0,0,0,3.13-2.11,29.176,29.176,0,0,0,2.73-2.82c.35-.4.63-.75.82-.99.1-.12.17-.21.22-.28l.02-.03c.01-.01.02-.03.03-.04l.01-.01h0l.94-1.26,8.84,3.72v3.55h.25l3.04-7.1,28.85,5.77,1.97,8.89,3.19.93,3.58-3.9,10.74,3.27,11.45,19.85a9,9,0,0,1-7.79,13.5H1526.62a9,9,0,0,1-7.8-13.5l.01-.01,55.1-94.335Zm152.96,66.613a4.111,4.111,0,0,1-.28.33,33.354,33.354,0,0,1-3.11,3.21,15.428,15.428,0,0,1-4.3,2.83,5.666,5.666,0,0,1-5.42-.32,7.514,7.514,0,0,1-2.74-3.1,6.3,6.3,0,0,1-.52-3.22,7.269,7.269,0,0,1,.32-1.56l-2.97-2.38-23.88,4.04-3.15-9.8-6-2.11a10.5,10.5,0,0,1-2.47,1.94c-2.47,1.38-6.14,2.14-11.17.52a20.545,20.545,0,0,1-9.69-6.09,13.605,13.605,0,0,1-1.81-2.73c-.06-.12-.11-.23-.16-.33l-29.17-12.29-28.9,16.12v-13.37l-5.84-3.9v-17.71l-12.88-12.29-6.03,1.45-54.24,92.86h0a5,5,0,0,0,4.33,7.5h272.92a5,5,0,0,0,4.33-7.5l-10.67-18.48-6.81-2.08-3.56,3.88-7.85-2.3-1.92-8.65-23.11-4.62-2.8,6.54h-6.89v-4.9Z" transform="translate(-238.047 -343.219)" fill="#234075" fill-rule="evenodd"/>
      <path id="Path_4" data-name="Path 4" d="M1750.52,1048.56l-4.22,4.22,10.87,3.9h10.56l-1.95-8.12Z" transform="translate(-238.047 -343.219)" fill="#fff"/>
      <path id="Path_5" data-name="Path 5" d="M1630.38,1016.74l2.6,6.49,12.33,4.55,2.93-11.04-6.17-3.9h-7.15Z" transform="translate(-238.047 -343.219)" fill="#fff"/>
      <path id="Path_6" data-name="Path 6" d="M1599.21,992.713l8.11,9.087,9.75-6.164-12.34-7.144Z" transform="translate(-238.047 -343.219)" fill="#fff"/>
      <path id="Path_7" data-name="Path 7" d="M1604.57,986.094l16.35,9.466-13.96,8.84-10.68-11.963Zm.31,4.8-2.74,2.1,5.55,6.217,5.52-3.5Zm29.3,19.956h8.47l7.89,4.99-3.86,14.58-15.23-5.61-3.46-8.65Zm1.48,4-2.89,2.48,1.73,4.34,9.44,3.48,1.99-7.5-4.44-2.8Zm114.03,31.71h17.66l2.91,12.12h-13.44l-14.17-5.08Zm1.65,4-1.4,1.41,7.58,2.71h7.67l-.99-4.12Z" transform="translate(-238.047 -343.219)" fill="#234075" fill-rule="evenodd"/>
      <path id="Path_8" data-name="Path 8" d="M1764.96,915.444a36.517,36.517,0,0,1-.49,5.956,24.691,24.691,0,0,1-5.52,48.756H1648.86v-.008q-.33.008-.66.008a24.687,24.687,0,1,1,12.92-45.725,18.307,18.307,0,0,1-.25-2.982,18.018,18.018,0,0,1,32.36-10.9,36.032,36.032,0,0,1,71.73,4.9Z" transform="translate(-238.047 -343.219)" fill="#fff"/>
      <path id="Path_9" data-name="Path 9" d="M1759.91,924.462l.61-3.718a32.035,32.035,0,1,0-63.33-9.66l-1.3,9.562-5.84-7.677a14.019,14.019,0,0,0-25.18,8.48,14.761,14.761,0,0,0,.19,2.325l1.45,8.672-7.49-4.609a20.688,20.688,0,1,0-10.82,38.319c.18,0,.37,0,.56-.007l4.1-.109v.116h106.09a20.69,20.69,0,0,0,4.63-40.856Zm-112.38,45.686a24.693,24.693,0,1,1,13.59-45.717,18.307,18.307,0,0,1-.25-2.982c0-.567.03-1.128.08-1.681a18.02,18.02,0,0,1,32.28-9.223,37.272,37.272,0,0,1,1.01-4.874,36.036,36.036,0,0,1,70.72,9.773,36.517,36.517,0,0,1-.49,5.956,24.691,24.691,0,0,1-5.52,48.756H1648.86v-.008q-.33.008-.66.008C1647.97,970.156,1647.75,970.153,1647.53,970.148Z" transform="translate(-238.047 -343.219)" fill="#008fb4" fill-rule="evenodd"/>
      <path id="Path_10" data-name="Path 10" d="M1677.96,957.85a2,2,0,0,1,1.45,2.428l-1.52,6.018a2,2,0,0,1-3.88-.978l1.52-6.017A2,2,0,0,1,1677.96,957.85Zm-4.55,18.052a2,2,0,0,1,1.45,2.428l-3.03,12.035a2,2,0,0,1-3.88-.977l3.03-12.035A2,2,0,0,1,1673.41,975.9Zm-6.06,24.07a2,2,0,0,1,1.45,2.428l-3.04,12.03a1.995,1.995,0,1,1-3.87-.97l3.03-12.04A2,2,0,0,1,1667.35,999.972Zm-13.29,17.478a2,2,0,0,1,2.55,1.21l1.14,3.16a2,2,0,0,1-1.21,2.56,1.981,1.981,0,0,1-2.55-1.2l-1.14-3.17A2.009,2.009,0,0,1,1654.06,1017.45Zm7.22,6.59a2,2,0,0,1,1.45,2.43l-3.12,12.38-3.35-9.34a1.992,1.992,0,0,1,2.25-2.64l.34-1.38A2,2,0,0,1,1661.28,1024.04Z" transform="translate(-238.047 -343.219)" fill="#008fb4" fill-rule="evenodd"/>
      <path id="Path_11" data-name="Path 11" d="M1742.42,957.849a1.993,1.993,0,0,1,1.46,2.424l-1.37,5.507a2,2,0,1,1-3.88-.966l1.37-5.508A2,2,0,0,1,1742.42,957.849Zm-4.11,16.522a2.008,2.008,0,0,1,1.46,2.424l-2.75,11.015a2,2,0,0,1-3.88-.967l2.75-11.014A1.994,1.994,0,0,1,1738.31,974.371Zm-5.49,22.03a2,2,0,0,1,1.46,2.424l-2.74,11.015a2,2,0,1,1-3.88-.97l2.74-11.012A2,2,0,0,1,1732.82,996.4Zm-5.48,22.029a1.993,1.993,0,0,1,1.45,2.42l-2.74,11.02a2,2,0,1,1-3.88-.97l2.74-11.01A2,2,0,0,1,1727.34,1018.43Zm-12.57,14.93a2,2,0,0,1,2.56,1.21l1.14,3.17a2,2,0,0,1-3.77,1.35l-1.13-3.17A2,2,0,0,1,1714.77,1033.36Zm7.08,7.1a2.007,2.007,0,0,1,1.46,2.42l-2.97,11.91-3.36-9.37a1.991,1.991,0,0,1,1.2-2.56,2.038,2.038,0,0,1,1.03-.09l.22-.85A1.994,1.994,0,0,1,1721.85,1040.46Z" transform="translate(-238.047 -343.219)" fill="#008fb4" fill-rule="evenodd"/>
      <path id="Path_12" data-name="Path 12" d="M1708.33,936.8a1.993,1.993,0,0,1,1.44,2.433l-1.65,6.478a2,2,0,0,1-3.88-.99l1.66-6.478A2,2,0,0,1,1708.33,936.8Zm-4.96,19.435a2,2,0,0,1,1.44,2.433l-3.31,12.956a2,2,0,0,1-3.88-.99l3.31-12.956A2.007,2.007,0,0,1,1703.37,956.232Zm-6.62,25.913a2,2,0,0,1,1.44,2.433l-3.31,12.956a2,2,0,0,1-3.88-.99l3.31-12.956A2.011,2.011,0,0,1,1696.75,982.145Zm-6.62,25.915a2,2,0,0,1,1.44,2.43l-3.31,12.96a2,2,0,0,1-3.88-.99l3.31-12.96A2,2,0,0,1,1690.13,1008.06Zm-15.64,22.6a2,2,0,0,1,2.74.72l1.46,2.5a2,2,0,0,1-3.45,2.02l-1.47-2.5A2.017,2.017,0,0,1,1674.49,1030.66Zm9.02,3.31a2,2,0,0,1,1.44,2.43l-2.86,11.2-3.92-6.7a2,2,0,0,1,2.25-2.94l.65-2.55A2.012,2.012,0,0,1,1683.51,1033.97Z" transform="translate(-238.047 -343.219)" fill="#008fb4" fill-rule="evenodd"/>
      <path id="Path_13" data-name="Path 13" d="M1662,942.615a2,2,0,0,1,1.38,2.47l-1.33,4.683a2,2,0,1,1-3.84-1.091l1.32-4.683A2,2,0,0,1,1662,942.615Zm99.01,7.786a1.993,1.993,0,0,1,1.41,2.45l-1.24,4.642a2,2,0,0,1-3.87-1.037l1.25-4.642A2,2,0,0,1,1761.01,950.4Zm-102.99,6.262a2,2,0,0,1,1.38,2.47l-2.66,9.365a2,2,0,1,1-3.84-1.091l2.65-9.365A2,2,0,0,1,1658.02,956.663Zm99.25,7.664a1.992,1.992,0,0,1,1.41,2.45l-2.49,9.284a2,2,0,1,1-3.86-1.037l2.49-9.284A2,2,0,0,1,1757.27,964.327Zm-104.56,11.066a2,2,0,0,1,1.38,2.47l-1.33,4.683a2,2,0,0,1-3.85-1.091l1.33-4.683A2,2,0,0,1,1652.71,975.393Zm99.57,7.5a2.006,2.006,0,0,1,1.42,2.45l-1.25,4.642a2,2,0,1,1-3.86-1.037l1.24-4.642A2,2,0,0,1,1752.28,982.9Z" transform="translate(-238.047 -343.219)" fill="#008fb4" fill-rule="evenodd"/>
      <path id="Path_14" data-name="Path 14" d="M1707.83,993.229l8.03-23.073h14.71l-10.65,16.385h7.31l-15.39,20.059,4.02-13.371Z" transform="translate(-238.047 -343.219)" fill="#018fb4"/>
    </g>
  </g>
</svg>
