<svg xmlns="http://www.w3.org/2000/svg" width="214" height="214" viewBox="0 0 214 214">
  <g id="Group_1" data-name="Group 1" transform="translate(-694.5 -461.511)">
    <path id="Path_1" data-name="Path 1" d="M1478.5,1483.73a107,107,0,1,1,107,107A107.006,107.006,0,0,1,1478.5,1483.73Z" transform="translate(-784 -915.219)" fill="#f2f2f2"/>
    <path id="Path_2" data-name="Path 2" d="M1478.5,1483.73a107,107,0,1,1,107,107A107.006,107.006,0,0,1,1478.5,1483.73Z" transform="translate(-784 -915.219)" fill="#fff"/>
    <path id="Path_3" data-name="Path 3" d="M1639.85,1538.31h-23.14a7.005,7.005,0,0,1-3.14-.71,7.093,7.093,0,0,1-2.5-2.02,6.983,6.983,0,0,1-1.35-2.92,7.1,7.1,0,0,1,.08-3.21,7.18,7.18,0,0,1,1.5-2.85,7.064,7.064,0,0,1,2.6-1.89,7.065,7.065,0,0,1,6.25.36,9.654,9.654,0,0,1,3.48-3.64,9.638,9.638,0,0,1,13.32,3.39,7.125,7.125,0,0,1,3.05-.62,7.214,7.214,0,0,1,3.02.76,7.076,7.076,0,0,1,3.71,4.81,7.056,7.056,0,0,1-3.85,7.84A6.905,6.905,0,0,1,1639.85,1538.31Zm-23.14-11.57a4.5,4.5,0,0,0-4.17,4.5,4.5,4.5,0,0,0,4.17,4.5h23.14a4.52,4.52,0,0,0,3.69-1.85,4.563,4.563,0,0,0,.81-1.97,4.444,4.444,0,0,0-.18-2.11,4.492,4.492,0,0,0-7.01-2.17,1.477,1.477,0,0,1-.53.23,1.341,1.341,0,0,1-1.09-.3,1.294,1.294,0,0,1-.33-.47,7.084,7.084,0,0,0-13.32.36,1.345,1.345,0,0,1-.34.53,1.259,1.259,0,0,1-.57.3,1.223,1.223,0,0,1-.63-.01,1.243,1.243,0,0,1-.56-.31A4.417,4.417,0,0,0,1616.71,1526.74Z" transform="translate(-784 -915.219)" fill="#002a4e"/>
    <path id="Path_4" data-name="Path 4" d="M1532.48,1537.64a1.28,1.28,0,0,1-1.28-1.29v-10.54a1.263,1.263,0,0,1,.37-.9,1.28,1.28,0,0,1,1.82,0,1.263,1.263,0,0,1,.37.9v10.54a1.2,1.2,0,0,1-.37.91,1.307,1.307,0,0,1-.91.38Z" transform="translate(-784 -915.219)" fill="#002a4e"/>
    <path id="Path_5" data-name="Path 5" d="M1532.48,1527.09a8.587,8.587,0,0,1-8.57-8.56,67.124,67.124,0,0,1,2.18-12.9c2.47-9.44,4.83-10.52,6.39-10.52,3.26,0,5.21,6,6.39,10.52a66.328,66.328,0,0,1,2.18,12.9,8.587,8.587,0,0,1-8.57,8.56Zm0-29.42c-.02,0-1.74.36-3.92,8.6a65.468,65.468,0,0,0-2.08,12.26,5.784,5.784,0,0,0,.46,2.29,6,6,0,0,0,3.24,3.25,5.979,5.979,0,0,0,4.6,0,5.807,5.807,0,0,0,1.94-1.3,6.141,6.141,0,0,0,1.31-1.95,5.956,5.956,0,0,0,.45-2.29,66.076,66.076,0,0,0-2.07-12.26C1534.25,1498.03,1532.51,1497.67,1532.48,1497.67Z" transform="translate(-784 -915.219)" fill="#002a4e"/>
    <path id="Path_6" data-name="Path 6" d="M1526.37,1490.65a1.3,1.3,0,0,1-.89-.39,1.326,1.326,0,0,1-.39-.9v-38.09a1.316,1.316,0,0,1,1.28-1.28h22.58a1.3,1.3,0,0,1,1.28,1.28,1.3,1.3,0,0,1-.38.91,1.272,1.272,0,0,1-.9.38h-21.29v36.8a1.3,1.3,0,0,1-1.29,1.29Z" transform="translate(-784 -915.219)" fill="#002a4e"/>
    <path id="Path_7" data-name="Path 7" d="M1633.87,1514.4a1.272,1.272,0,0,1-.9-.38,1.3,1.3,0,0,1-.38-.91v-60.55h-20.72a1.3,1.3,0,0,1-1.29-1.29,1.272,1.272,0,0,1,.38-.9,1.3,1.3,0,0,1,.91-.38h22a1.362,1.362,0,0,1,.9.38,1.346,1.346,0,0,1,.39.9v61.84a1.3,1.3,0,0,1-1.29,1.29Z" transform="translate(-784 -915.219)" fill="#002a4e"/>
    <path id="Path_8" data-name="Path 8" d="M1546.51,1539.92a1.264,1.264,0,0,1-1.28-1.28v-4.98a1.263,1.263,0,0,1,.37-.9,1.3,1.3,0,0,1,.91-.38h57.04V1430.42h-45.91v96.22a1.263,1.263,0,0,1-.37.9,1.28,1.28,0,0,1-1.82,0,1.263,1.263,0,0,1-.37-.9v-97.5a1.28,1.28,0,0,1,1.28-1.28h48.48a1.232,1.232,0,0,1,.9.38,1.272,1.272,0,0,1,.38.9v104.52a1.3,1.3,0,0,1-.38.91,1.272,1.272,0,0,1-.9.38h-57.05v3.69a1.264,1.264,0,0,1-1.28,1.28Z" transform="translate(-784 -915.219)" fill="#002a4e"/>
    <path id="Path_9" data-name="Path 9" d="M1596.86,1508.47h-33.75a1.316,1.316,0,0,1-.9-.38,1.28,1.28,0,0,1,.9-2.19h33.75a1.28,1.28,0,0,1,1.28,1.29,1.263,1.263,0,0,1-.37.9A1.3,1.3,0,0,1,1596.86,1508.47Z" transform="translate(-784 -915.219)" fill="#002a4e"/>
    <path id="Path_10" data-name="Path 10" d="M1570.67,1527.1a1.3,1.3,0,0,1-1.28-1.28v-17.01a1.3,1.3,0,0,1,.38-.91,1.263,1.263,0,0,1,.9-.37,1.28,1.28,0,0,1,1.29,1.28v17.01a1.272,1.272,0,0,1-.38.9A1.3,1.3,0,0,1,1570.67,1527.1Z" transform="translate(-784 -915.219)" fill="#002a4e"/>
    <path id="Path_11" data-name="Path 11" d="M1589.86,1527.1a1.3,1.3,0,0,1-.91-.38,1.263,1.263,0,0,1-.37-.9v-17.01a1.264,1.264,0,0,1,1.28-1.28,1.28,1.28,0,0,1,1.28,1.28v17.01a1.232,1.232,0,0,1-.38.9A1.272,1.272,0,0,1,1589.86,1527.1Z" transform="translate(-784 -915.219)" fill="#002a4e"/>
    <path id="Path_12" data-name="Path 12" d="M1580.32,1520.1a1.594,1.594,0,0,1-.87-.27,1.528,1.528,0,0,1-.58-.7,1.634,1.634,0,0,1-.09-.9,1.5,1.5,0,0,1,.43-.8,1.563,1.563,0,0,1,1.71-.34,1.5,1.5,0,0,1,.7.57,1.59,1.59,0,0,1-.19,1.98A1.61,1.61,0,0,1,1580.32,1520.1Zm0-2.57a1.033,1.033,0,0,0-.71.29,1.007,1.007,0,0,0-.29.71.99.99,0,0,0,1,1,1.007,1.007,0,0,0,.71-.29,1.033,1.033,0,0,0,.29-.71.99.99,0,0,0-1-1Z" transform="translate(-784 -915.219)" fill="#002a4e"/>
    <path id="Path_13" data-name="Path 13" d="M1572.62,1444.2h-3.43a1.334,1.334,0,0,1-1.29-1.29v-5.41a1.272,1.272,0,0,1,.38-.9,1.254,1.254,0,0,1,.91-.38h3.43a1.255,1.255,0,0,1,.91.38,1.272,1.272,0,0,1,.38.9v5.41a1.3,1.3,0,0,1-1.29,1.29Zm-2.15-2.57h.87v-2.85h-.87Z" transform="translate(-784 -915.219)" fill="#002a4e"/>
    <path id="Path_14" data-name="Path 14" d="M1591.37,1444.2h-3.43a1.3,1.3,0,0,1-1.29-1.29v-5.41a1.272,1.272,0,0,1,.38-.9,1.254,1.254,0,0,1,.91-.38h3.43a1.28,1.28,0,0,1,1.28,1.28v5.41a1.273,1.273,0,0,1-.38.9A1.326,1.326,0,0,1,1591.37,1444.2Zm-2.15-2.57h.87v-2.85h-.87Z" transform="translate(-784 -915.219)" fill="#002a4e"/>
    <path id="Path_15" data-name="Path 15" d="M1572.62,1462.26h-3.43a1.3,1.3,0,0,1-.91-.38,1.272,1.272,0,0,1-.38-.9v-5.42a1.346,1.346,0,0,1,.39-.9,1.315,1.315,0,0,1,.9-.38h3.43a1.3,1.3,0,0,1,.91.38,1.272,1.272,0,0,1,.38.9v5.42a1.272,1.272,0,0,1-.38.9A1.3,1.3,0,0,1,1572.62,1462.26Zm-2.15-2.57h.87v-2.84h-.87Z" transform="translate(-784 -915.219)" fill="#002a4e"/>
    <path id="Path_16" data-name="Path 16" d="M1591.37,1462.26h-3.43a1.3,1.3,0,0,1-.91-.38,1.272,1.272,0,0,1-.38-.9v-5.42a1.272,1.272,0,0,1,.38-.9,1.3,1.3,0,0,1,.91-.38h3.43a1.316,1.316,0,0,1,.9.38,1.29,1.29,0,0,1,.38.9v5.42a1.263,1.263,0,0,1-.37.9A1.3,1.3,0,0,1,1591.37,1462.26Zm-2.15-2.57h.87v-2.84h-.87Z" transform="translate(-784 -915.219)" fill="#002a4e"/>
    <path id="Path_17" data-name="Path 17" d="M1572.62,1480.34h-3.43a1.286,1.286,0,0,1-.91-.37,1.313,1.313,0,0,1-.38-.91v-5.41a1.334,1.334,0,0,1,1.29-1.29h3.43a1.3,1.3,0,0,1,1.29,1.29v5.41a1.313,1.313,0,0,1-.38.91A1.286,1.286,0,0,1,1572.62,1480.34Zm-2.15-2.56h.87v-2.85h-.87Z" transform="translate(-784 -915.219)" fill="#002a4e"/>
    <path id="Path_18" data-name="Path 18" d="M1591.37,1480.34h-3.43a1.286,1.286,0,0,1-.91-.37,1.313,1.313,0,0,1-.38-.91v-5.41a1.3,1.3,0,0,1,1.29-1.29h3.43a1.326,1.326,0,0,1,.9.39,1.272,1.272,0,0,1,.38.9v5.41a1.3,1.3,0,0,1-.37.91A1.286,1.286,0,0,1,1591.37,1480.34Zm-2.15-2.56h.87v-2.85h-.87Z" transform="translate(-784 -915.219)" fill="#002a4e"/>
    <path id="Path_19" data-name="Path 19" d="M1572.62,1498.42h-3.43a1.272,1.272,0,0,1-.9-.38,1.326,1.326,0,0,1-.39-.9v-5.41a1.28,1.28,0,0,1,1.29-1.28h3.43a1.28,1.28,0,0,1,1.29,1.28v5.41a1.28,1.28,0,0,1-1.29,1.28Zm-2.15-2.56h.87v-2.85h-.87Z" transform="translate(-784 -915.219)" fill="#002a4e"/>
    <path id="Path_20" data-name="Path 20" d="M1541.48,1464.67h-3.43a1.28,1.28,0,0,1-1.28-1.29V1458a1.264,1.264,0,0,1,1.28-1.28h3.43a1.28,1.28,0,0,1,1.29,1.28v5.38a1.3,1.3,0,0,1-1.29,1.29Zm-2.15-2.57h.87v-2.82h-.87Z" transform="translate(-784 -915.219)" fill="#002a4e"/>
    <path id="Path_21" data-name="Path 21" d="M1541.48,1480.34h-3.43a1.286,1.286,0,0,1-.91-.37,1.3,1.3,0,0,1-.37-.91v-5.41a1.28,1.28,0,0,1,1.28-1.29h3.43a1.307,1.307,0,0,1,.9.39,1.326,1.326,0,0,1,.39.9v5.41a1.313,1.313,0,0,1-.38.91A1.286,1.286,0,0,1,1541.48,1480.34Zm-2.15-2.56h.87v-2.85h-.87Z" transform="translate(-784 -915.219)" fill="#002a4e"/>
    <path id="Path_22" data-name="Path 22" d="M1541.48,1496.01h-3.43a1.28,1.28,0,0,1-1.28-1.28v-5.41a1.28,1.28,0,0,1,1.28-1.29h3.43a1.3,1.3,0,0,1,1.29,1.29v5.41a1.326,1.326,0,0,1-.39.9A1.3,1.3,0,0,1,1541.48,1496.01Zm-2.15-2.56h.87v-2.85h-.87Z" transform="translate(-784 -915.219)" fill="#002a4e"/>
    <path id="Path_23" data-name="Path 23" d="M1591.37,1498.42h-3.43a1.28,1.28,0,0,1-1.29-1.28v-5.41a1.28,1.28,0,0,1,1.29-1.28h3.43a1.264,1.264,0,0,1,1.28,1.28v5.41a1.3,1.3,0,0,1-1.28,1.28Zm-2.15-2.56h.87v-2.85h-.87Z" transform="translate(-784 -915.219)" fill="#002a4e"/>
    <path id="Path_24" data-name="Path 24" d="M1622.94,1464.67h-3.43a1.3,1.3,0,0,1-1.29-1.29V1458a1.28,1.28,0,0,1,1.29-1.28h3.43a1.28,1.28,0,0,1,1.29,1.28v5.38a1.3,1.3,0,0,1-1.29,1.29Zm-2.15-2.57h.87v-2.82h-.87Z" transform="translate(-784 -915.219)" fill="#002a4e"/>
    <path id="Path_25" data-name="Path 25" d="M1622.94,1481.13h-3.43a1.28,1.28,0,0,1-1.29-1.28v-5.39a1.272,1.272,0,0,1,.38-.9,1.3,1.3,0,0,1,.91-.38h3.43a1.3,1.3,0,0,1,.91.38,1.272,1.272,0,0,1,.38.9v5.39a1.28,1.28,0,0,1-1.29,1.28Zm-2.15-2.56h.87v-2.82h-.87Z" transform="translate(-784 -915.219)" fill="#002a4e"/>
    <path id="Path_26" data-name="Path 26" d="M1622.94,1497.6h-3.43a1.255,1.255,0,0,1-.91-.38,1.272,1.272,0,0,1-.38-.9v-5.39a1.313,1.313,0,0,1,.38-.91,1.286,1.286,0,0,1,.91-.37h3.43a1.286,1.286,0,0,1,.91.37,1.313,1.313,0,0,1,.38.91v5.39a1.272,1.272,0,0,1-.38.9A1.254,1.254,0,0,1,1622.94,1497.6Zm-2.15-2.56h.87v-2.83h-.87Z" transform="translate(-784 -915.219)" fill="#002a4e"/>
    <path id="Path_27" data-name="Path 27" d="M1622.94,1514.07h-3.43a1.28,1.28,0,0,1-1.29-1.28v-5.41a1.334,1.334,0,0,1,1.29-1.29h3.43a1.3,1.3,0,0,1,1.29,1.29v5.41a1.28,1.28,0,0,1-1.29,1.28Zm-2.15-2.56h.87v-2.85h-.87Z" transform="translate(-784 -915.219)" fill="#002a4e"/>
    <path id="Path_28" data-name="Path 28" d="M1478.5,1483.73a107,107,0,1,1,107,107A107.006,107.006,0,0,1,1478.5,1483.73Z" transform="translate(-784 -915.219)" fill="#012a4e"/>
    <path id="Path_30" data-name="Path 30" d="M1639.85,1538.31h-23.14a7.005,7.005,0,0,1-3.14-.71,7.093,7.093,0,0,1-2.5-2.02,6.983,6.983,0,0,1-1.35-2.92,7.1,7.1,0,0,1,.08-3.21,7.18,7.18,0,0,1,1.5-2.85,7.064,7.064,0,0,1,2.6-1.89,7.065,7.065,0,0,1,6.25.36,9.654,9.654,0,0,1,3.48-3.64,9.638,9.638,0,0,1,13.32,3.39,7.125,7.125,0,0,1,3.05-.62,7.214,7.214,0,0,1,3.02.76,7.076,7.076,0,0,1,3.71,4.81,7.056,7.056,0,0,1-3.85,7.84A6.905,6.905,0,0,1,1639.85,1538.31Zm-23.14-11.57a4.5,4.5,0,0,0-4.17,4.5,4.5,4.5,0,0,0,4.17,4.5h23.14a4.52,4.52,0,0,0,3.69-1.85,4.563,4.563,0,0,0,.81-1.97,4.444,4.444,0,0,0-.18-2.11,4.492,4.492,0,0,0-7.01-2.17,1.477,1.477,0,0,1-.53.23,1.341,1.341,0,0,1-1.09-.3,1.294,1.294,0,0,1-.33-.47,7.084,7.084,0,0,0-13.32.36,1.345,1.345,0,0,1-.34.53,1.259,1.259,0,0,1-.57.3,1.223,1.223,0,0,1-.63-.01,1.243,1.243,0,0,1-.56-.31A4.417,4.417,0,0,0,1616.71,1526.74Z" transform="translate(-784 -915.219)" fill="#fff"/>
    <path id="Path_31" data-name="Path 31" d="M1532.48,1537.64a1.28,1.28,0,0,1-1.28-1.29v-10.54a1.263,1.263,0,0,1,.37-.9,1.28,1.28,0,0,1,1.82,0,1.263,1.263,0,0,1,.37.9v10.54a1.2,1.2,0,0,1-.37.91,1.307,1.307,0,0,1-.91.38Z" transform="translate(-784 -915.219)" fill="#fff"/>
    <path id="Path_32" data-name="Path 32" d="M1532.48,1527.09a8.587,8.587,0,0,1-8.57-8.56,67.124,67.124,0,0,1,2.18-12.9c2.47-9.44,4.83-10.52,6.39-10.52,3.26,0,5.21,6,6.39,10.52a66.328,66.328,0,0,1,2.18,12.9,8.587,8.587,0,0,1-8.57,8.56Zm0-29.42c-.02,0-1.74.36-3.92,8.6a65.468,65.468,0,0,0-2.08,12.26,5.784,5.784,0,0,0,.46,2.29,6,6,0,0,0,3.24,3.25,5.979,5.979,0,0,0,4.6,0,5.807,5.807,0,0,0,1.94-1.3,6.141,6.141,0,0,0,1.31-1.95,5.956,5.956,0,0,0,.45-2.29,66.076,66.076,0,0,0-2.07-12.26C1534.25,1498.03,1532.51,1497.67,1532.48,1497.67Z" transform="translate(-784 -915.219)" fill="#fff"/>
    <path id="Path_33" data-name="Path 33" d="M1526.37,1490.65a1.3,1.3,0,0,1-.89-.39,1.326,1.326,0,0,1-.39-.9v-38.09a1.316,1.316,0,0,1,1.28-1.28h22.58a1.3,1.3,0,0,1,1.28,1.28,1.3,1.3,0,0,1-.38.91,1.272,1.272,0,0,1-.9.38h-21.29v36.8a1.3,1.3,0,0,1-1.29,1.29Z" transform="translate(-784 -915.219)" fill="#fff"/>
    <path id="Path_34" data-name="Path 34" d="M1633.87,1514.4a1.272,1.272,0,0,1-.9-.38,1.3,1.3,0,0,1-.38-.91v-60.55h-20.72a1.3,1.3,0,0,1-1.29-1.29,1.272,1.272,0,0,1,.38-.9,1.3,1.3,0,0,1,.91-.38h22a1.362,1.362,0,0,1,.9.38,1.346,1.346,0,0,1,.39.9v61.84a1.3,1.3,0,0,1-1.29,1.29Z" transform="translate(-784 -915.219)" fill="#fff"/>
    <path id="Path_35" data-name="Path 35" d="M1546.51,1539.92a1.264,1.264,0,0,1-1.28-1.28v-4.98a1.263,1.263,0,0,1,.37-.9,1.3,1.3,0,0,1,.91-.38h57.04V1430.42h-45.91v96.22a1.263,1.263,0,0,1-.37.9,1.28,1.28,0,0,1-1.82,0,1.263,1.263,0,0,1-.37-.9v-97.5a1.28,1.28,0,0,1,1.28-1.28h48.48a1.232,1.232,0,0,1,.9.38,1.272,1.272,0,0,1,.38.9v104.52a1.3,1.3,0,0,1-.38.91,1.272,1.272,0,0,1-.9.38h-57.05v3.69a1.264,1.264,0,0,1-1.28,1.28Z" transform="translate(-784 -915.219)" fill="#fff"/>
    <path id="Path_36" data-name="Path 36" d="M1596.86,1508.47h-33.75a1.316,1.316,0,0,1-.9-.38,1.28,1.28,0,0,1,.9-2.19h33.75a1.28,1.28,0,0,1,1.28,1.29,1.263,1.263,0,0,1-.37.9A1.3,1.3,0,0,1,1596.86,1508.47Z" transform="translate(-784 -915.219)" fill="#fff"/>
    <path id="Path_37" data-name="Path 37" d="M1570.67,1527.1a1.3,1.3,0,0,1-1.28-1.28v-17.01a1.3,1.3,0,0,1,.38-.91,1.263,1.263,0,0,1,.9-.37,1.28,1.28,0,0,1,1.29,1.28v17.01a1.272,1.272,0,0,1-.38.9A1.3,1.3,0,0,1,1570.67,1527.1Z" transform="translate(-784 -915.219)" fill="#fff"/>
    <path id="Path_38" data-name="Path 38" d="M1589.86,1527.1a1.3,1.3,0,0,1-.91-.38,1.263,1.263,0,0,1-.37-.9v-17.01a1.264,1.264,0,0,1,1.28-1.28,1.28,1.28,0,0,1,1.28,1.28v17.01a1.232,1.232,0,0,1-.38.9A1.272,1.272,0,0,1,1589.86,1527.1Z" transform="translate(-784 -915.219)" fill="#fff"/>
    <path id="Path_39" data-name="Path 39" d="M1580.32,1520.1a1.594,1.594,0,0,1-.87-.27,1.528,1.528,0,0,1-.58-.7,1.634,1.634,0,0,1-.09-.9,1.5,1.5,0,0,1,.43-.8,1.563,1.563,0,0,1,1.71-.34,1.5,1.5,0,0,1,.7.57,1.59,1.59,0,0,1-.19,1.98A1.61,1.61,0,0,1,1580.32,1520.1Zm0-2.57a1.033,1.033,0,0,0-.71.29,1.007,1.007,0,0,0-.29.71.99.99,0,0,0,1,1,1.007,1.007,0,0,0,.71-.29,1.033,1.033,0,0,0,.29-.71.99.99,0,0,0-1-1Z" transform="translate(-784 -915.219)" fill="#fff"/>
    <path id="Path_40" data-name="Path 40" d="M1572.62,1444.2h-3.43a1.334,1.334,0,0,1-1.29-1.29v-5.41a1.272,1.272,0,0,1,.38-.9,1.254,1.254,0,0,1,.91-.38h3.43a1.255,1.255,0,0,1,.91.38,1.272,1.272,0,0,1,.38.9v5.41a1.3,1.3,0,0,1-1.29,1.29Zm-2.15-2.57h.87v-2.85h-.87Z" transform="translate(-784 -915.219)" fill="#fff"/>
    <path id="Path_41" data-name="Path 41" d="M1591.37,1444.2h-3.43a1.3,1.3,0,0,1-1.29-1.29v-5.41a1.272,1.272,0,0,1,.38-.9,1.254,1.254,0,0,1,.91-.38h3.43a1.28,1.28,0,0,1,1.28,1.28v5.41a1.273,1.273,0,0,1-.38.9A1.326,1.326,0,0,1,1591.37,1444.2Zm-2.15-2.57h.87v-2.85h-.87Z" transform="translate(-784 -915.219)" fill="#fff"/>
    <path id="Path_42" data-name="Path 42" d="M1572.62,1462.26h-3.43a1.3,1.3,0,0,1-.91-.38,1.272,1.272,0,0,1-.38-.9v-5.42a1.346,1.346,0,0,1,.39-.9,1.315,1.315,0,0,1,.9-.38h3.43a1.3,1.3,0,0,1,.91.38,1.272,1.272,0,0,1,.38.9v5.42a1.272,1.272,0,0,1-.38.9A1.3,1.3,0,0,1,1572.62,1462.26Zm-2.15-2.57h.87v-2.84h-.87Z" transform="translate(-784 -915.219)" fill="#fff"/>
    <path id="Path_43" data-name="Path 43" d="M1591.37,1462.26h-3.43a1.3,1.3,0,0,1-.91-.38,1.272,1.272,0,0,1-.38-.9v-5.42a1.272,1.272,0,0,1,.38-.9,1.3,1.3,0,0,1,.91-.38h3.43a1.316,1.316,0,0,1,.9.38,1.29,1.29,0,0,1,.38.9v5.42a1.263,1.263,0,0,1-.37.9A1.3,1.3,0,0,1,1591.37,1462.26Zm-2.15-2.57h.87v-2.84h-.87Z" transform="translate(-784 -915.219)" fill="#fff"/>
    <path id="Path_44" data-name="Path 44" d="M1572.62,1480.34h-3.43a1.286,1.286,0,0,1-.91-.37,1.313,1.313,0,0,1-.38-.91v-5.41a1.334,1.334,0,0,1,1.29-1.29h3.43a1.3,1.3,0,0,1,1.29,1.29v5.41a1.313,1.313,0,0,1-.38.91A1.286,1.286,0,0,1,1572.62,1480.34Zm-2.15-2.56h.87v-2.85h-.87Z" transform="translate(-784 -915.219)" fill="#fff"/>
    <path id="Path_45" data-name="Path 45" d="M1591.37,1480.34h-3.43a1.286,1.286,0,0,1-.91-.37,1.313,1.313,0,0,1-.38-.91v-5.41a1.3,1.3,0,0,1,1.29-1.29h3.43a1.326,1.326,0,0,1,.9.39,1.272,1.272,0,0,1,.38.9v5.41a1.3,1.3,0,0,1-.37.91A1.286,1.286,0,0,1,1591.37,1480.34Zm-2.15-2.56h.87v-2.85h-.87Z" transform="translate(-784 -915.219)" fill="#fff"/>
    <path id="Path_46" data-name="Path 46" d="M1572.62,1498.42h-3.43a1.272,1.272,0,0,1-.9-.38,1.326,1.326,0,0,1-.39-.9v-5.41a1.28,1.28,0,0,1,1.29-1.28h3.43a1.28,1.28,0,0,1,1.29,1.28v5.41a1.28,1.28,0,0,1-1.29,1.28Zm-2.15-2.56h.87v-2.85h-.87Z" transform="translate(-784 -915.219)" fill="#fff"/>
    <path id="Path_47" data-name="Path 47" d="M1541.48,1464.67h-3.43a1.28,1.28,0,0,1-1.28-1.29V1458a1.264,1.264,0,0,1,1.28-1.28h3.43a1.28,1.28,0,0,1,1.29,1.28v5.38a1.3,1.3,0,0,1-1.29,1.29Zm-2.15-2.57h.87v-2.82h-.87Z" transform="translate(-784 -915.219)" fill="#fff"/>
    <path id="Path_48" data-name="Path 48" d="M1541.48,1480.34h-3.43a1.286,1.286,0,0,1-.91-.37,1.3,1.3,0,0,1-.37-.91v-5.41a1.28,1.28,0,0,1,1.28-1.29h3.43a1.307,1.307,0,0,1,.9.39,1.326,1.326,0,0,1,.39.9v5.41a1.313,1.313,0,0,1-.38.91A1.286,1.286,0,0,1,1541.48,1480.34Zm-2.15-2.56h.87v-2.85h-.87Z" transform="translate(-784 -915.219)" fill="#fff"/>
    <path id="Path_49" data-name="Path 49" d="M1541.48,1496.01h-3.43a1.28,1.28,0,0,1-1.28-1.28v-5.41a1.28,1.28,0,0,1,1.28-1.29h3.43a1.3,1.3,0,0,1,1.29,1.29v5.41a1.326,1.326,0,0,1-.39.9A1.3,1.3,0,0,1,1541.48,1496.01Zm-2.15-2.56h.87v-2.85h-.87Z" transform="translate(-784 -915.219)" fill="#fff"/>
    <path id="Path_50" data-name="Path 50" d="M1591.37,1498.42h-3.43a1.28,1.28,0,0,1-1.29-1.28v-5.41a1.28,1.28,0,0,1,1.29-1.28h3.43a1.264,1.264,0,0,1,1.28,1.28v5.41a1.3,1.3,0,0,1-1.28,1.28Zm-2.15-2.56h.87v-2.85h-.87Z" transform="translate(-784 -915.219)" fill="#fff"/>
    <path id="Path_51" data-name="Path 51" d="M1622.94,1464.67h-3.43a1.3,1.3,0,0,1-1.29-1.29V1458a1.28,1.28,0,0,1,1.29-1.28h3.43a1.28,1.28,0,0,1,1.29,1.28v5.38a1.3,1.3,0,0,1-1.29,1.29Zm-2.15-2.57h.87v-2.82h-.87Z" transform="translate(-784 -915.219)" fill="#fff"/>
    <path id="Path_52" data-name="Path 52" d="M1622.94,1481.13h-3.43a1.28,1.28,0,0,1-1.29-1.28v-5.39a1.272,1.272,0,0,1,.38-.9,1.3,1.3,0,0,1,.91-.38h3.43a1.3,1.3,0,0,1,.91.38,1.272,1.272,0,0,1,.38.9v5.39a1.28,1.28,0,0,1-1.29,1.28Zm-2.15-2.56h.87v-2.82h-.87Z" transform="translate(-784 -915.219)" fill="#fff"/>
    <path id="Path_53" data-name="Path 53" d="M1622.94,1497.6h-3.43a1.255,1.255,0,0,1-.91-.38,1.272,1.272,0,0,1-.38-.9v-5.39a1.313,1.313,0,0,1,.38-.91,1.286,1.286,0,0,1,.91-.37h3.43a1.286,1.286,0,0,1,.91.37,1.313,1.313,0,0,1,.38.91v5.39a1.272,1.272,0,0,1-.38.9A1.254,1.254,0,0,1,1622.94,1497.6Zm-2.15-2.56h.87v-2.83h-.87Z" transform="translate(-784 -915.219)" fill="#fff"/>
    <path id="Path_54" data-name="Path 54" d="M1622.94,1514.07h-3.43a1.28,1.28,0,0,1-1.29-1.28v-5.41a1.334,1.334,0,0,1,1.29-1.29h3.43a1.3,1.3,0,0,1,1.29,1.29v5.41a1.28,1.28,0,0,1-1.29,1.28Zm-2.15-2.56h.87v-2.85h-.87Z" transform="translate(-784 -915.219)" fill="#fff"/>
  </g>
</svg>
