<svg id="Group_1" data-name="Group 1" xmlns="http://www.w3.org/2000/svg" width="214" height="214" viewBox="0 0 214 214">
  <path id="Path_128" data-name="Path 128" d="M1315,679.719a107,107,0,1,1,107,107A107,107,0,0,1,1315,679.719Z" transform="translate(-1315 -572.719)" fill="#f2f2f2"/>
  <path id="Path_129" data-name="Path 129" d="M1315,679.719a107,107,0,1,1,107,107A107,107,0,0,1,1315,679.719Z" transform="translate(-1315 -572.719)" fill="#fff"/>
  <path id="Path_130" data-name="Path 130" d="M1461.35,650.574a9.376,9.376,0,0,1-6.41-2.514l-4.51-4.206a1.22,1.22,0,0,1-.3-.41,1.375,1.375,0,0,1-.11-.49,1.205,1.205,0,0,1,.09-.5,1.354,1.354,0,0,1,.26-.425l11.11-11.927a1.291,1.291,0,0,1,.87-.411,1.241,1.241,0,0,1,.93.359l4.51,4.181a9.44,9.44,0,0,1-6.44,16.339Zm-4.67-4.386a6.881,6.881,0,0,0,9.37-10.08l-3.57-3.309-9.36,10.054Z" transform="translate(-1315 -572.719)" fill="#002a4e"/>
  <path id="Path_131" data-name="Path 131" d="M1452.53,641.28a1.237,1.237,0,0,1-.87-.359l-3.21-3a1.256,1.256,0,0,1-.32-1.374,1.2,1.2,0,0,1,.27-.419l1.18-1.257a1.208,1.208,0,0,1,.4-.3,1.229,1.229,0,0,1,.5-.106,1.269,1.269,0,0,1,.92.333l3.18,3a1.211,1.211,0,0,1,.36.628,1.271,1.271,0,0,1-1.13,1.578,1.249,1.249,0,0,1-.36.872,1.2,1.2,0,0,1-.42.3,1.268,1.268,0,0,1-.5.1Z" transform="translate(-1315 -572.719)" fill="#002a4e"/>
  <path id="Path_132" data-name="Path 132" d="M1458.4,634.974a1.259,1.259,0,0,1-.87-.359l-3.21-3a1.3,1.3,0,0,1-.29-.4,1.335,1.335,0,0,1-.11-.484,1.361,1.361,0,0,1,.09-.49,1.321,1.321,0,0,1,.26-.418l1.18-1.257a1.205,1.205,0,0,1,.9-.411,1.185,1.185,0,0,1,.49.07,1.2,1.2,0,0,1,.41.264l3.21,3a1.366,1.366,0,0,1,.36.627,1.276,1.276,0,0,1-.04.724,1.3,1.3,0,0,1-.42.589,1.279,1.279,0,0,1-.67.266,1.343,1.343,0,0,1-.36.872,1.364,1.364,0,0,1-.93.407Z" transform="translate(-1315 -572.719)" fill="#002a4e"/>
  <path id="Path_133" data-name="Path 133" d="M1483.56,681.248a1.276,1.276,0,0,1-.97-2.1c5.72-6.849,2.28-14.364-2.39-18.724l-12.85-11.953a1.315,1.315,0,0,1-.29-.4,1.053,1.053,0,0,1-.12-.489,1.4,1.4,0,0,1,.07-.5,1.25,1.25,0,0,1,.27-.429,1.293,1.293,0,0,1,.89-.408,1.331,1.331,0,0,1,.93.331l12.85,11.978c3.79,3.54,5.92,7.618,6.15,11.85a14.823,14.823,0,0,1-3.54,10.388,1.269,1.269,0,0,1-.44.342A1.375,1.375,0,0,1,1483.56,681.248Z" transform="translate(-1315 -572.719)" fill="#002a4e"/>
  <path id="Path_134" data-name="Path 134" d="M1444.78,695.738h-29.03a5.617,5.617,0,0,1-2.42-.534,5.731,5.731,0,0,1-1.97-1.518l-6.15-7.335a5.515,5.515,0,0,1-1.29-3.514V661.419a1.289,1.289,0,0,1,1.29-1.282,1.267,1.267,0,0,1,.9.375,1.29,1.29,0,0,1,.38.907v21.418a2.978,2.978,0,0,0,.69,1.872l6.13,7.336a3.2,3.2,0,0,0,2.44,1.128h29.03a1.283,1.283,0,1,1,0,2.565Z" transform="translate(-1315 -572.719)" fill="#002a4e"/>
  <path id="Path_135" data-name="Path 135" d="M1439.14,712.1h-28.47a10.122,10.122,0,0,1-9.69-7.131l-4.98-16.03a10.971,10.971,0,0,1-.51-3.412v-17.39a1.28,1.28,0,1,1,2.56,0v17.39a9.281,9.281,0,0,0,.39,2.668l5,16.005a7.529,7.529,0,0,0,7.23,5.335h28.47a2.541,2.541,0,0,0,1.11-.245,2.5,2.5,0,0,0,.89-.7l10.62-12.85h-6.97a1.282,1.282,0,1,1,0-2.565h7.72a2.16,2.16,0,0,1,1.19.34,2.192,2.192,0,0,1,.81.942,2.232,2.232,0,0,1,.2,1.221,2.191,2.191,0,0,1-.49,1.139l-11.1,13.415a5.161,5.161,0,0,1-3.98,1.872Z" transform="translate(-1315 -572.719)" fill="#002a4e"/>
  <path id="Path_136" data-name="Path 136" d="M1398.49,669.418H1387.3a1.268,1.268,0,0,1-.9-.375,1.29,1.29,0,0,1-.38-.907V654.7a1.289,1.289,0,0,1,.38-.907,1.264,1.264,0,0,1,.9-.376h11.19a8,8,0,0,1,8,8,1.289,1.289,0,0,1-.38.907,1.267,1.267,0,0,1-.9.375,1.3,1.3,0,0,1-.9-.383,1.271,1.271,0,0,1-.38-.9,5.451,5.451,0,0,0-5.44-5.438h-9.9v10.875h9.9a1.282,1.282,0,0,1,0,2.565Z" transform="translate(-1315 -572.719)" fill="#002a4e"/>
  <path id="Path_137" data-name="Path 137" d="M1398.49,669.422a1.31,1.31,0,0,1-.9-.383,1.326,1.326,0,0,1-.39-.9,1.291,1.291,0,0,1,1.29-1.282,5.434,5.434,0,0,0,5.43-5.438,1.289,1.289,0,0,1,1.29-1.282,1.267,1.267,0,0,1,.9.375,1.29,1.29,0,0,1,.38.907,8,8,0,0,1-8,8Z" transform="translate(-1315 -572.719)" fill="#002a4e"/>
  <path id="Path_138" data-name="Path 138" d="M1374.07,731.285h-.74a24.006,24.006,0,1,1,1.46-47.99,23.76,23.76,0,0,1,5.38.8,1.318,1.318,0,0,1,.46.217,1.43,1.43,0,0,1,.33.374,1.331,1.331,0,0,1,.17.473,1.407,1.407,0,0,1-.03.5,1.354,1.354,0,0,1-.62.764,1.326,1.326,0,0,1-.97.134,21.432,21.432,0,1,0-6.11,42.142h.67a21.441,21.441,0,0,0,13-38.449,1.425,1.425,0,0,1-.33-.377,1.163,1.163,0,0,1-.16-.476,1.075,1.075,0,0,1,.03-.5,1.276,1.276,0,0,1,.22-.452,1.219,1.219,0,0,1,.38-.333,1.26,1.26,0,0,1,.47-.163,1.331,1.331,0,0,1,.51.031,1.365,1.365,0,0,1,.45.221,24.011,24.011,0,0,1-14.57,43.066Z" transform="translate(-1315 -572.719)" fill="#002a4e"/>
  <path id="Path_139" data-name="Path 139" d="M1374.04,713a5.712,5.712,0,1,1,4.05-1.676,5.712,5.712,0,0,1-4.05,1.676Zm0-8.849a3.149,3.149,0,0,0-1.75.533,3.1,3.1,0,0,0-1.16,1.42,3.175,3.175,0,0,0-.18,1.827,3.229,3.229,0,0,0,.87,1.614,3.157,3.157,0,0,0,4.86-.505,3.229,3.229,0,0,0,.52-1.76,3.115,3.115,0,0,0-.24-1.2,3.056,3.056,0,0,0-.69-1.018,3.106,3.106,0,0,0-2.23-.907Z" transform="translate(-1315 -572.719)" fill="#002a4e"/>
  <path id="Path_140" data-name="Path 140" d="M1463.69,731.29a24.026,24.026,0,0,1-22.73-16.262,1.307,1.307,0,0,1,.07-.971,1.286,1.286,0,0,1,.73-.645,1.308,1.308,0,0,1,1.64.795,21.416,21.416,0,0,0,41.6-4.9,1.352,1.352,0,0,1,.15-.481,1.3,1.3,0,0,1,.32-.388,1.265,1.265,0,0,1,.44-.236,1.311,1.311,0,0,1,.5-.049,1.229,1.229,0,0,1,.48.147,1.2,1.2,0,0,1,.39.319,1.27,1.27,0,0,1,.24.444,1.412,1.412,0,0,1,.05.5,24.035,24.035,0,0,1-23.88,21.725Z" transform="translate(-1315 -572.719)" fill="#002a4e"/>
  <path id="Path_141" data-name="Path 141" d="M1374.04,724.337a17.057,17.057,0,0,1,0-34.088,18.69,18.69,0,0,1,3.18.282,1.289,1.289,0,0,1,.82.547,1.273,1.273,0,0,1,.02,1.435,1.233,1.233,0,0,1-.35.361,1.287,1.287,0,0,1-.47.2,1.326,1.326,0,0,1-.51,0,13.184,13.184,0,0,0-2.69-.257,14.438,14.438,0,1,0,9.31,3.386,1.328,1.328,0,0,1-.46-.869,1.286,1.286,0,0,1,.3-.939,1.265,1.265,0,0,1,.86-.458,1.288,1.288,0,0,1,.94.291,17.056,17.056,0,0,1-10.95,30.113Z" transform="translate(-1315 -572.719)" fill="#002a4e"/>
  <path id="Path_142" data-name="Path 142" d="M1463.69,724.335a16.987,16.987,0,0,1-16.96-15.313,1.274,1.274,0,0,1,.28-.937,1.255,1.255,0,0,1,.85-.473,1.3,1.3,0,0,1,.94.291,1.324,1.324,0,0,1,.47.863,14.465,14.465,0,0,0,28.88-1.488,1.289,1.289,0,0,1,1.29-1.282,1.267,1.267,0,0,1,.9.375,1.29,1.29,0,0,1,.38.907A17.063,17.063,0,0,1,1463.69,724.335Z" transform="translate(-1315 -572.719)" fill="#002a4e"/>
  <path id="Path_143" data-name="Path 143" d="M1463.69,713a5.72,5.72,0,1,1,5.59-4.618,5.754,5.754,0,0,1-5.59,4.618Zm0-8.849a3.155,3.155,0,1,0,2.61,4.891,3.235,3.235,0,0,0,.52-1.762,3.166,3.166,0,0,0-3.13-3.129Z" transform="translate(-1315 -572.719)" fill="#002a4e"/>
  <path id="Path_144" data-name="Path 144" d="M1376.22,703.89a1.385,1.385,0,0,1-.56-.128,1.29,1.29,0,0,1-.4-.3,1.232,1.232,0,0,1-.25-.434,1.2,1.2,0,0,1-.07-.5,1.358,1.358,0,0,1,.13-.484l14.67-30.19a1.284,1.284,0,0,1,.73-.64,1.269,1.269,0,0,1,.96.05,1.176,1.176,0,0,1,.41.3,1.415,1.415,0,0,1,.26.435,1.4,1.4,0,0,1,.06.5,1.189,1.189,0,0,1-.14.485l-14.64,30.189a1.285,1.285,0,0,1-.48.525,1.266,1.266,0,0,1-.68.192Z" transform="translate(-1315 -572.719)" fill="#002a4e"/>
  <path id="Path_145" data-name="Path 145" d="M1401.39,652.11a1.092,1.092,0,0,1-.57-.128,1.28,1.28,0,0,1-.4-.3,1.23,1.23,0,0,1-.25-.433,1.4,1.4,0,0,1-.07-.5,1.36,1.36,0,0,1,.13-.485l.75-1.539a4.294,4.294,0,0,1,1.6-1.774,4.355,4.355,0,0,1,2.29-.663h16.04a1.287,1.287,0,0,1,.89.383,1.327,1.327,0,0,1,.39.9,1.291,1.291,0,0,1-.38.907,1.268,1.268,0,0,1-.9.375h-16.04a1.776,1.776,0,0,0-.93.276,1.839,1.839,0,0,0-.66.725l-.74,1.539a1.329,1.329,0,0,1-.47.524A1.3,1.3,0,0,1,1401.39,652.11Z" transform="translate(-1315 -572.719)" fill="#002a4e"/>
  <path id="Path_146" data-name="Path 146" d="M1434.09,691.142a1.272,1.272,0,0,1-1.28-1.282,6.886,6.886,0,0,0-2.06-5.361c-2.77-2.488-7.49-2-7.54-2a1.3,1.3,0,0,1-.53-.05,1.371,1.371,0,0,1-.47-.258,1.3,1.3,0,0,1-.3-.433,1.312,1.312,0,0,1-.11-.516v-8.824a1.286,1.286,0,0,1,.38-.906,1.264,1.264,0,0,1,.9-.376h28.19a1.306,1.306,0,0,1,.9.383,1.326,1.326,0,0,1,.39.9,1.291,1.291,0,0,1-1.29,1.283h-26.9v6.207c1.95,0,5.51.385,8.08,2.668a9.276,9.276,0,0,1,2.92,7.284,1.194,1.194,0,0,1-.1.491,1.347,1.347,0,0,1-.27.416,1.387,1.387,0,0,1-.42.278,1.3,1.3,0,0,1-.49.1Z" transform="translate(-1315 -572.719)" fill="#002a4e"/>
  <path id="Path_147" data-name="Path 147" d="M1453.66,673.705h-29.58a6.327,6.327,0,0,1-6.33-6.309v-.949a6.326,6.326,0,0,1,6.33-6.31h29.58a6.318,6.318,0,0,1,5.83,3.9,6.444,6.444,0,0,1,.48,2.415v.949a6.442,6.442,0,0,1-.48,2.414,6.32,6.32,0,0,1-5.83,3.9Zm-29.58-11a3.753,3.753,0,0,0-3.77,3.745v.949a3.752,3.752,0,0,0,1.11,2.657,3.806,3.806,0,0,0,1.22.81,3.765,3.765,0,0,0,1.44.277h29.58a3.732,3.732,0,0,0,3.74-3.744v-.949a3.733,3.733,0,0,0-3.74-3.745Z" transform="translate(-1315 -572.719)" fill="#002a4e"/>
  <path id="Path_148" data-name="Path 148" d="M1454.51,692.6a1.289,1.289,0,0,1-1.29-1.282v-18.9a1.271,1.271,0,0,1,2.18-.9,1.326,1.326,0,0,1,.39.9v18.9a1.29,1.29,0,0,1-.38.907,1.268,1.268,0,0,1-.9.375Z" transform="translate(-1315 -572.719)" fill="#002a4e"/>
  <path id="Path_149" data-name="Path 149" d="M1490.39,705.791a3.773,3.773,0,0,1-1.18-.205,116.9,116.9,0,0,0-12.57-3.565c-10.16-2.437-18.18-4.36-23.24-16.8a1.38,1.38,0,0,1-.09-.493,1.19,1.19,0,0,1,.11-.49,1.177,1.177,0,0,1,.28-.412,1.243,1.243,0,0,1,.42-.273,1.294,1.294,0,0,1,.49-.091,1.323,1.323,0,0,1,.91.389,1.365,1.365,0,0,1,.27.421c4.54,11.208,11.26,12.824,21.47,15.261a115.589,115.589,0,0,1,12.82,3.642.92.92,0,0,0,.38.053.866.866,0,0,0,.36-.1.552.552,0,0,0,.31-.462c.9-5-.69-10.85-4.2-15.672s-10.01-10.49-22.42-12.183a27.273,27.273,0,0,0-3.59-.231h-6.31a1.283,1.283,0,1,1,0-2.565h6.31a27.959,27.959,0,0,1,3.92.257c10.42,1.41,18.98,6.1,24.16,13.209,3.93,5.386,5.67,11.978,4.67,17.621a3.186,3.186,0,0,1-.53,1.289,3.347,3.347,0,0,1-2.75,1.4Z" transform="translate(-1315 -572.719)" fill="#002a4e"/>
  <path id="Path_150" data-name="Path 150" d="M1315,679.719a107,107,0,1,1,107,107A107,107,0,0,1,1315,679.719Z" transform="translate(-1315 -572.719)" fill="#012a4e"/>
  <path id="Path_152" data-name="Path 152" d="M1461.35,650.574a9.376,9.376,0,0,1-6.41-2.514l-4.51-4.206a1.22,1.22,0,0,1-.3-.41,1.375,1.375,0,0,1-.11-.49,1.205,1.205,0,0,1,.09-.5,1.354,1.354,0,0,1,.26-.425l11.11-11.927a1.291,1.291,0,0,1,.87-.411,1.241,1.241,0,0,1,.93.359l4.51,4.181a9.44,9.44,0,0,1-6.44,16.339Zm-4.67-4.386a6.881,6.881,0,0,0,9.37-10.08l-3.57-3.309-9.36,10.054Z" transform="translate(-1315 -572.719)" fill="#fff"/>
  <path id="Path_153" data-name="Path 153" d="M1452.53,641.28a1.237,1.237,0,0,1-.87-.359l-3.21-3a1.256,1.256,0,0,1-.32-1.374,1.2,1.2,0,0,1,.27-.419l1.18-1.257a1.208,1.208,0,0,1,.4-.3,1.229,1.229,0,0,1,.5-.106,1.269,1.269,0,0,1,.92.333l3.18,3a1.211,1.211,0,0,1,.36.628,1.271,1.271,0,0,1-1.13,1.578,1.249,1.249,0,0,1-.36.872,1.2,1.2,0,0,1-.42.3,1.268,1.268,0,0,1-.5.1Z" transform="translate(-1315 -572.719)" fill="#fff"/>
  <path id="Path_154" data-name="Path 154" d="M1458.4,634.974a1.259,1.259,0,0,1-.87-.359l-3.21-3a1.3,1.3,0,0,1-.29-.4,1.335,1.335,0,0,1-.11-.484,1.361,1.361,0,0,1,.09-.49,1.321,1.321,0,0,1,.26-.418l1.18-1.257a1.205,1.205,0,0,1,.9-.411,1.185,1.185,0,0,1,.49.07,1.2,1.2,0,0,1,.41.264l3.21,3a1.366,1.366,0,0,1,.36.627,1.276,1.276,0,0,1-.04.724,1.3,1.3,0,0,1-.42.589,1.279,1.279,0,0,1-.67.266,1.343,1.343,0,0,1-.36.872,1.364,1.364,0,0,1-.93.407Z" transform="translate(-1315 -572.719)" fill="#fff"/>
  <path id="Path_155" data-name="Path 155" d="M1483.56,681.248a1.276,1.276,0,0,1-.97-2.1c5.72-6.849,2.28-14.364-2.39-18.724l-12.85-11.953a1.315,1.315,0,0,1-.29-.4,1.053,1.053,0,0,1-.12-.489,1.4,1.4,0,0,1,.07-.5,1.25,1.25,0,0,1,.27-.429,1.293,1.293,0,0,1,.89-.408,1.331,1.331,0,0,1,.93.331l12.85,11.978c3.79,3.54,5.92,7.618,6.15,11.85a14.823,14.823,0,0,1-3.54,10.388,1.269,1.269,0,0,1-.44.342A1.375,1.375,0,0,1,1483.56,681.248Z" transform="translate(-1315 -572.719)" fill="#fff"/>
  <path id="Path_156" data-name="Path 156" d="M1444.78,695.738h-29.03a5.617,5.617,0,0,1-2.42-.534,5.731,5.731,0,0,1-1.97-1.518l-6.15-7.335a5.515,5.515,0,0,1-1.29-3.514V661.419a1.289,1.289,0,0,1,1.29-1.282,1.267,1.267,0,0,1,.9.375,1.29,1.29,0,0,1,.38.907v21.418a2.978,2.978,0,0,0,.69,1.872l6.13,7.336a3.2,3.2,0,0,0,2.44,1.128h29.03a1.283,1.283,0,1,1,0,2.565Z" transform="translate(-1315 -572.719)" fill="#fff"/>
  <path id="Path_157" data-name="Path 157" d="M1439.14,712.1h-28.47a10.122,10.122,0,0,1-9.69-7.131l-4.98-16.03a10.971,10.971,0,0,1-.51-3.412v-17.39a1.28,1.28,0,1,1,2.56,0v17.39a9.281,9.281,0,0,0,.39,2.668l5,16.005a7.529,7.529,0,0,0,7.23,5.335h28.47a2.541,2.541,0,0,0,1.11-.245,2.5,2.5,0,0,0,.89-.7l10.62-12.85h-6.97a1.282,1.282,0,1,1,0-2.565h7.72a2.16,2.16,0,0,1,1.19.34,2.192,2.192,0,0,1,.81.942,2.232,2.232,0,0,1,.2,1.221,2.191,2.191,0,0,1-.49,1.139l-11.1,13.415a5.161,5.161,0,0,1-3.98,1.872Z" transform="translate(-1315 -572.719)" fill="#fff"/>
  <path id="Path_158" data-name="Path 158" d="M1398.49,669.418H1387.3a1.268,1.268,0,0,1-.9-.375,1.29,1.29,0,0,1-.38-.907V654.7a1.289,1.289,0,0,1,.38-.907,1.264,1.264,0,0,1,.9-.376h11.19a8,8,0,0,1,8,8,1.289,1.289,0,0,1-.38.907,1.267,1.267,0,0,1-.9.375,1.3,1.3,0,0,1-.9-.383,1.271,1.271,0,0,1-.38-.9,5.451,5.451,0,0,0-5.44-5.438h-9.9v10.875h9.9a1.282,1.282,0,0,1,0,2.565Z" transform="translate(-1315 -572.719)" fill="#fff"/>
  <path id="Path_159" data-name="Path 159" d="M1398.49,669.422a1.31,1.31,0,0,1-.9-.383,1.326,1.326,0,0,1-.39-.9,1.291,1.291,0,0,1,1.29-1.282,5.434,5.434,0,0,0,5.43-5.438,1.289,1.289,0,0,1,1.29-1.282,1.267,1.267,0,0,1,.9.375,1.29,1.29,0,0,1,.38.907,8,8,0,0,1-8,8Z" transform="translate(-1315 -572.719)" fill="#fff"/>
  <path id="Path_160" data-name="Path 160" d="M1374.07,731.285h-.74a24.006,24.006,0,1,1,1.46-47.99,23.76,23.76,0,0,1,5.38.8,1.318,1.318,0,0,1,.46.217,1.43,1.43,0,0,1,.33.374,1.331,1.331,0,0,1,.17.473,1.407,1.407,0,0,1-.03.5,1.354,1.354,0,0,1-.62.764,1.326,1.326,0,0,1-.97.134,21.432,21.432,0,1,0-6.11,42.142h.67a21.441,21.441,0,0,0,13-38.449,1.425,1.425,0,0,1-.33-.377,1.163,1.163,0,0,1-.16-.476,1.075,1.075,0,0,1,.03-.5,1.276,1.276,0,0,1,.22-.452,1.219,1.219,0,0,1,.38-.333,1.26,1.26,0,0,1,.47-.163,1.331,1.331,0,0,1,.51.031,1.365,1.365,0,0,1,.45.221,24.011,24.011,0,0,1-14.57,43.066Z" transform="translate(-1315 -572.719)" fill="#fff"/>
  <path id="Path_161" data-name="Path 161" d="M1374.04,713a5.712,5.712,0,1,1,4.05-1.676,5.712,5.712,0,0,1-4.05,1.676Zm0-8.849a3.149,3.149,0,0,0-1.75.533,3.1,3.1,0,0,0-1.16,1.42,3.175,3.175,0,0,0-.18,1.827,3.229,3.229,0,0,0,.87,1.614,3.157,3.157,0,0,0,4.86-.505,3.229,3.229,0,0,0,.52-1.76,3.115,3.115,0,0,0-.24-1.2,3.056,3.056,0,0,0-.69-1.018,3.106,3.106,0,0,0-2.23-.907Z" transform="translate(-1315 -572.719)" fill="#fff"/>
  <path id="Path_162" data-name="Path 162" d="M1463.69,731.29a24.026,24.026,0,0,1-22.73-16.262,1.307,1.307,0,0,1,.07-.971,1.286,1.286,0,0,1,.73-.645,1.308,1.308,0,0,1,1.64.795,21.416,21.416,0,0,0,41.6-4.9,1.352,1.352,0,0,1,.15-.481,1.3,1.3,0,0,1,.32-.388,1.265,1.265,0,0,1,.44-.236,1.311,1.311,0,0,1,.5-.049,1.229,1.229,0,0,1,.48.147,1.2,1.2,0,0,1,.39.319,1.27,1.27,0,0,1,.24.444,1.412,1.412,0,0,1,.05.5,24.035,24.035,0,0,1-23.88,21.725Z" transform="translate(-1315 -572.719)" fill="#fff"/>
  <path id="Path_163" data-name="Path 163" d="M1374.04,724.337a17.057,17.057,0,0,1,0-34.088,18.69,18.69,0,0,1,3.18.282,1.289,1.289,0,0,1,.82.547,1.273,1.273,0,0,1,.02,1.435,1.233,1.233,0,0,1-.35.361,1.287,1.287,0,0,1-.47.2,1.326,1.326,0,0,1-.51,0,13.184,13.184,0,0,0-2.69-.257,14.438,14.438,0,1,0,9.31,3.386,1.328,1.328,0,0,1-.46-.869,1.286,1.286,0,0,1,.3-.939,1.265,1.265,0,0,1,.86-.458,1.288,1.288,0,0,1,.94.291,17.056,17.056,0,0,1-10.95,30.113Z" transform="translate(-1315 -572.719)" fill="#fff"/>
  <path id="Path_164" data-name="Path 164" d="M1463.69,724.335a16.987,16.987,0,0,1-16.96-15.313,1.274,1.274,0,0,1,.28-.937,1.255,1.255,0,0,1,.85-.473,1.3,1.3,0,0,1,.94.291,1.324,1.324,0,0,1,.47.863,14.465,14.465,0,0,0,28.88-1.488,1.289,1.289,0,0,1,1.29-1.282,1.267,1.267,0,0,1,.9.375,1.29,1.29,0,0,1,.38.907A17.063,17.063,0,0,1,1463.69,724.335Z" transform="translate(-1315 -572.719)" fill="#fff"/>
  <path id="Path_165" data-name="Path 165" d="M1463.69,713a5.72,5.72,0,1,1,5.59-4.618,5.754,5.754,0,0,1-5.59,4.618Zm0-8.849a3.155,3.155,0,1,0,2.61,4.891,3.235,3.235,0,0,0,.52-1.762,3.166,3.166,0,0,0-3.13-3.129Z" transform="translate(-1315 -572.719)" fill="#fff"/>
  <path id="Path_166" data-name="Path 166" d="M1376.22,703.89a1.385,1.385,0,0,1-.56-.128,1.29,1.29,0,0,1-.4-.3,1.232,1.232,0,0,1-.25-.434,1.2,1.2,0,0,1-.07-.5,1.358,1.358,0,0,1,.13-.484l14.67-30.19a1.284,1.284,0,0,1,.73-.64,1.269,1.269,0,0,1,.96.05,1.176,1.176,0,0,1,.41.3,1.415,1.415,0,0,1,.26.435,1.4,1.4,0,0,1,.06.5,1.189,1.189,0,0,1-.14.485l-14.64,30.189a1.285,1.285,0,0,1-.48.525,1.266,1.266,0,0,1-.68.192Z" transform="translate(-1315 -572.719)" fill="#fff"/>
  <path id="Path_167" data-name="Path 167" d="M1401.39,652.11a1.092,1.092,0,0,1-.57-.128,1.28,1.28,0,0,1-.4-.3,1.23,1.23,0,0,1-.25-.433,1.4,1.4,0,0,1-.07-.5,1.36,1.36,0,0,1,.13-.485l.75-1.539a4.294,4.294,0,0,1,1.6-1.774,4.355,4.355,0,0,1,2.29-.663h16.04a1.287,1.287,0,0,1,.89.383,1.327,1.327,0,0,1,.39.9,1.291,1.291,0,0,1-.38.907,1.268,1.268,0,0,1-.9.375h-16.04a1.776,1.776,0,0,0-.93.276,1.839,1.839,0,0,0-.66.725l-.74,1.539a1.329,1.329,0,0,1-.47.524A1.3,1.3,0,0,1,1401.39,652.11Z" transform="translate(-1315 -572.719)" fill="#fff"/>
  <path id="Path_168" data-name="Path 168" d="M1434.09,691.142a1.272,1.272,0,0,1-1.28-1.282,6.886,6.886,0,0,0-2.06-5.361c-2.77-2.488-7.49-2-7.54-2a1.3,1.3,0,0,1-.53-.05,1.371,1.371,0,0,1-.47-.258,1.3,1.3,0,0,1-.3-.433,1.312,1.312,0,0,1-.11-.516v-8.824a1.286,1.286,0,0,1,.38-.906,1.264,1.264,0,0,1,.9-.376h28.19a1.306,1.306,0,0,1,.9.383,1.326,1.326,0,0,1,.39.9,1.291,1.291,0,0,1-1.29,1.283h-26.9v6.207c1.95,0,5.51.385,8.08,2.668a9.276,9.276,0,0,1,2.92,7.284,1.194,1.194,0,0,1-.1.491,1.347,1.347,0,0,1-.27.416,1.387,1.387,0,0,1-.42.278,1.3,1.3,0,0,1-.49.1Z" transform="translate(-1315 -572.719)" fill="#fff"/>
  <path id="Path_169" data-name="Path 169" d="M1453.66,673.705h-29.58a6.327,6.327,0,0,1-6.33-6.309v-.949a6.326,6.326,0,0,1,6.33-6.31h29.58a6.318,6.318,0,0,1,5.83,3.9,6.444,6.444,0,0,1,.48,2.415v.949a6.442,6.442,0,0,1-.48,2.414,6.32,6.32,0,0,1-5.83,3.9Zm-29.58-11a3.753,3.753,0,0,0-3.77,3.745v.949a3.752,3.752,0,0,0,1.11,2.657,3.806,3.806,0,0,0,1.22.81,3.765,3.765,0,0,0,1.44.277h29.58a3.732,3.732,0,0,0,3.74-3.744v-.949a3.733,3.733,0,0,0-3.74-3.745Z" transform="translate(-1315 -572.719)" fill="#fff"/>
  <path id="Path_170" data-name="Path 170" d="M1454.51,692.6a1.289,1.289,0,0,1-1.29-1.282v-18.9a1.271,1.271,0,0,1,2.18-.9,1.326,1.326,0,0,1,.39.9v18.9a1.29,1.29,0,0,1-.38.907,1.268,1.268,0,0,1-.9.375Z" transform="translate(-1315 -572.719)" fill="#fff"/>
  <path id="Path_171" data-name="Path 171" d="M1490.39,705.791a3.773,3.773,0,0,1-1.18-.205,116.9,116.9,0,0,0-12.57-3.565c-10.16-2.437-18.18-4.36-23.24-16.8a1.38,1.38,0,0,1-.09-.493,1.19,1.19,0,0,1,.11-.49,1.177,1.177,0,0,1,.28-.412,1.243,1.243,0,0,1,.42-.273,1.294,1.294,0,0,1,.49-.091,1.323,1.323,0,0,1,.91.389,1.365,1.365,0,0,1,.27.421c4.54,11.208,11.26,12.824,21.47,15.261a115.589,115.589,0,0,1,12.82,3.642.92.92,0,0,0,.38.053.866.866,0,0,0,.36-.1.552.552,0,0,0,.31-.462c.9-5-.69-10.85-4.2-15.672s-10.01-10.49-22.42-12.183a27.273,27.273,0,0,0-3.59-.231h-6.31a1.283,1.283,0,1,1,0-2.565h6.31a27.959,27.959,0,0,1,3.92.257c10.42,1.41,18.98,6.1,24.16,13.209,3.93,5.386,5.67,11.978,4.67,17.621a3.186,3.186,0,0,1-.53,1.289,3.347,3.347,0,0,1-2.75,1.4Z" transform="translate(-1315 -572.719)" fill="#fff"/>
</svg>
