<svg xmlns="http://www.w3.org/2000/svg" width="392.443" height="342.48" viewBox="0 0 392.443 342.48">
  <g id="Group_2" data-name="Group 2" transform="translate(-494.018 -1027.304)">
    <path id="Path_1" data-name="Path 1" d="M796.631,1614.23a97.954,97.954,0,0,1,.794-12.47,89,89,0,0,1,18.5-161.32,50.729,50.729,0,0,1,81.554-25.63,80.915,80.915,0,0,1,135.774,42.09,111.162,111.162,0,0,1,40.89,128.47,39.213,39.213,0,1,1-49.52,58.94,110.247,110.247,0,0,1-44.537,14.07,97.041,97.041,0,0,1-183.452-44.15Zm-64.566-16.68a16.974,16.974,0,1,1,16.974,16.97A16.974,16.974,0,0,1,732.065,1597.55Zm308.605-175.32a8.675,8.675,0,1,0,8.67,8.67A8.674,8.674,0,0,0,1040.67,1422.23Z" transform="translate(-238.047 -343.219)" fill="#c7e3fd" fill-rule="evenodd"/>
    <g id="Group_1" data-name="Group 1" transform="translate(-238.047 -343.219)">
      <path id="Path_33" data-name="Path 33" d="M787.421,1431.16a2,2,0,0,1,2.826-.11c.928.85,1.853,1.72,2.776,2.59a2,2,0,0,1-2.745,2.91c-.911-.86-1.825-1.71-2.741-2.56A2.005,2.005,0,0,1,787.421,1431.16Zm23.9,24.23a2,2,0,0,1,2.821.19c4.962,5.7,9.748,11.65,14.294,17.83a2,2,0,1,1-3.222,2.37c-4.478-6.09-9.2-11.95-14.089-17.57A2,2,0,0,1,811.322,1455.39Zm23.018,29.98a2,2,0,0,1,2.766.59q2.07,3.2,4.045,6.47a2,2,0,0,1-3.424,2.07q-1.941-3.225-3.979-6.37A2,2,0,0,1,834.34,1485.37Zm18.164,33.14a2,2,0,0,1,2.627,1.04,198.5,198.5,0,0,1,7.824,21.54,2,2,0,1,1-3.833,1.14,194.283,194.283,0,0,0-7.667-21.1A1.993,1.993,0,0,1,852.5,1518.51Zm11.851,35.86a2,2,0,0,1,2.369,1.55c.524,2.48,1,4.99,1.417,7.51a2,2,0,0,1-3.945.66q-.617-3.7-1.386-7.35A2,2,0,0,1,864.355,1554.37Zm4.207,37.52a2,2,0,0,1,1.984,2.02,178.428,178.428,0,0,1-1.669,22.86,2,2,0,1,1-3.963-.55,174.27,174.27,0,0,0,1.632-22.35A2,2,0,0,1,868.562,1591.89Zm-3.919,37.57a2,2,0,0,1,1.518,2.38q-.82,3.69-1.8,7.41a2,2,0,0,1-3.867-1.02q.963-3.645,1.766-7.25A2,2,0,0,1,864.643,1629.46Zm-11.306,36a2,2,0,0,1,1.054,2.63q-4.35,10.17-9.99,20.57a2,2,0,0,1-3.513-1.91q5.565-10.23,9.825-20.24A2.006,2.006,0,0,1,853.337,1665.46Zm-21.421,40.26a2.008,2.008,0,0,1-.609-2.77c.686-1.07,1.362-2.14,2.026-3.22a2,2,0,0,1,3.4,2.11q-1.011,1.635-2.055,3.27A2,2,0,0,1,831.916,1705.72Z" fill="#008fb4" fill-rule="evenodd"/>
      <path id="Path_34" data-name="Path 34" d="M805.522,1413.6a2,2,0,0,1,2.677-.91c1.2.59,2.416,1.2,3.64,1.82a2,2,0,0,1-1.808,3.57q-1.813-.93-3.6-1.8A2,2,0,0,1,805.522,1413.6Zm18.063,9.44a2,2,0,0,1,2.728-.74q3.513,1.995,7.084,4.17a2,2,0,0,1-2.074,3.42q-3.522-2.145-6.994-4.12A2,2,0,0,1,823.585,1423.04Zm14.019,8.38a2,2,0,0,1,2.764-.6q6.752,4.35,13.573,9.28a2,2,0,1,1-2.351,3.24c-4.471-3.25-8.946-6.3-13.387-9.16A1.993,1.993,0,0,1,837.6,1431.42Zm20.116,13.97a2.008,2.008,0,0,1,2.805-.36c2.151,1.67,4.3,3.37,6.436,5.13a2,2,0,1,1-2.54,3.09q-3.159-2.595-6.341-5.05A2,2,0,0,1,857.72,1445.39Zm18.8,15.72a2,2,0,0,1,2.827-.09q2.983,2.79,5.916,5.71a2,2,0,1,1-2.826,2.83q-2.884-2.88-5.822-5.62A2,2,0,0,1,876.521,1461.11Zm11.636,11.44a2.01,2.01,0,0,1,2.827.09q5.548,5.94,10.82,12.42a2,2,0,0,1-3.107,2.52q-5.168-6.375-10.634-12.2A2,2,0,0,1,888.157,1472.55Zm15.923,18.61a2,2,0,0,1,2.8.39q2.463,3.27,4.838,6.68a2,2,0,1,1-3.282,2.29q-2.331-3.345-4.752-6.56A2,2,0,0,1,904.08,1491.16Zm13.792,20.21a2,2,0,0,1,2.739.71q2.079,3.525,4.055,7.18a2,2,0,1,1-3.52,1.9q-1.937-3.585-3.98-7.05A2,2,0,0,1,917.872,1511.37Zm7.9,14.32a2,2,0,0,1,2.677.91q3.571,7.26,6.693,15.02a2,2,0,1,1-3.713,1.49q-3.055-7.62-6.569-14.75A1.99,1.99,0,0,1,925.775,1525.69Zm9.738,22.44a2,2,0,0,1,2.557,1.21c.918,2.57,1.8,5.17,2.633,7.82a2,2,0,1,1-3.813,1.2q-1.233-3.885-2.587-7.67A2,2,0,0,1,935.513,1548.13Zm7.17,23.4a2.008,2.008,0,0,1,2.41,1.48q.948,3.975,1.773,8.07a2,2,0,0,1-3.921.79q-.81-4.02-1.743-7.93A2,2,0,0,1,942.683,1571.53Zm3.365,15.96a2,2,0,0,1,2.3,1.65q1.326,7.965,2.166,16.33a2,2,0,0,1-3.98.4q-.822-8.25-2.131-16.07A2.012,2.012,0,0,1,946.048,1587.49Zm3.022,24.3a1.991,1.991,0,0,1,2.131,1.86q.281,4.08.439,8.27a2,2,0,0,1-4,.15q-.156-4.125-.432-8.15A2,2,0,0,1,949.07,1611.79Zm.756,24.5a2,2,0,0,1,1.962,2.03q-.078,4.065-.269,8.2a2,2,0,0,1-3.995-.19c.125-2.72.213-5.42.264-8.08A1.99,1.99,0,0,1,949.826,1636.29Zm-.643,16.29a2,2,0,0,1,1.851,2.14q-.579,8.01-1.586,16.34a2,2,0,0,1-3.971-.48q1-8.235,1.567-16.15A2,2,0,0,1,949.183,1652.58Zm-2.515,24.38a2,2,0,0,1,1.692,2.26c-.386,2.67-.807,5.37-1.262,8.08a2,2,0,1,1-3.945-.66q.675-4.035,1.249-7.99A2,2,0,0,1,946.668,1676.96Zm-4.163,24.1a2,2,0,0,1,1.546,2.37c-.558,2.65-1.147,5.33-1.769,8.02a2,2,0,1,1-3.9-.9q.924-4.005,1.752-7.94A2,2,0,0,1,942.505,1701.06Z" fill="#008fb4" fill-rule="evenodd"/>
      <path id="Path_35" data-name="Path 35" d="M836.019,1405.3a2,2,0,0,1,2.745-.68q1.709,1.035,3.474,2.01a2,2,0,0,1-1.943,3.5c-1.216-.68-2.415-1.37-3.595-2.08A2,2,0,0,1,836.019,1405.3Zm10.738,5.97a2,2,0,0,1,2.665-.94q3.613,1.71,7.407,3.26a2,2,0,1,1-1.509,3.7c-2.594-1.06-5.134-2.17-7.615-3.35A2,2,0,0,1,846.757,1411.27Zm15.107,6.41a1.989,1.989,0,0,1,2.547-1.23q3.795,1.32,7.721,2.5a2,2,0,1,1-1.147,3.83q-4.006-1.2-7.893-2.56A1.99,1.99,0,0,1,861.864,1417.68Zm15.665,4.88a2.006,2.006,0,0,1,2.432-1.45q3.91,1.005,7.914,1.86a2,2,0,1,1-.842,3.91q-4.071-.87-8.06-1.89A2,2,0,0,1,877.529,1422.56Zm16.006,3.6a2.005,2.005,0,0,1,2.322-1.62q3.987.72,8.034,1.31a2,2,0,0,1-.582,3.96q-4.1-.6-8.16-1.33A1.993,1.993,0,0,1,893.535,1426.16Zm166.925-21.19a2,2,0,0,1-.09,2.83,34.321,34.321,0,0,1-3.36,2.74,2,2,0,1,1-2.33-3.25,30.752,30.752,0,0,0,2.96-2.41A1.984,1.984,0,0,1,1060.46,1404.97Zm-150.712,23.7a2,2,0,0,1,2.218-1.75q4.039.465,8.106.83a2,2,0,1,1-.352,3.98q-4.12-.36-8.218-.84A2,2,0,0,1,909.748,1428.67Zm16.334,1.56a2,2,0,0,1,2.119-1.87q4.073.255,8.145.4a2,2,0,1,1-.144,3.99q-4.121-.15-8.247-.4A2,2,0,0,1,926.082,1430.23Zm124.5-18a1.993,1.993,0,0,1-.87,2.68c-2.33,1.19-4.88,2.33-7.62,3.42a2,2,0,1,1-1.48-3.72c2.64-1.05,5.08-2.14,7.28-3.26A2,2,0,0,1,1050.58,1412.23Zm-108.1,18.7a2,2,0,0,1,2.023-1.98q4.092.045,8.157,0a2,2,0,1,1,.05,4q-4.11.045-8.254,0A2,2,0,0,1,942.478,1430.93Zm93.032-12.29a2,2,0,0,1-1.28,2.52q-3.8,1.23-7.94,2.37a2,2,0,0,1-1.05-3.86c2.7-.74,5.29-1.51,7.75-2.32A2,2,0,0,1,1035.51,1418.64Zm-76.622,12.18a2,2,0,0,1,1.926-2.07q4.1-.15,8.149-.4a2,2,0,0,1,.241,4q-4.09.24-8.244.39A2,2,0,0,1,958.888,1430.82Zm60.862-7.67a2,2,0,0,1-1.5,2.4c-2.63.6-5.34,1.18-8.11,1.72a2,2,0,1,1-.77-3.92c2.73-.54,5.4-1.1,7.98-1.7A2,2,0,0,1,1019.75,1423.15Zm-44.475,6.78a2,2,0,0,1,1.824-2.16c2.738-.23,5.446-.5,8.117-.79a2,2,0,0,1,.435,3.98c-2.7.29-5.445.56-8.215.79A2,2,0,0,1,975.275,1429.93Zm16.318-1.69a2,2,0,0,1,1.712-2.25q4.1-.555,8.055-1.21a2,2,0,0,1,.64,3.95q-4,.66-8.156,1.22A2,2,0,0,1,991.593,1428.24Z" fill="#008fb4" fill-rule="evenodd"/>
      <path id="Path_36" data-name="Path 36" d="M774.333,1442.85a2,2,0,0,1,2.808-.34c.924.73,1.833,1.45,2.729,2.17a2,2,0,1,1-2.511,3.12c-.882-.71-1.777-1.43-2.687-2.14A2,2,0,0,1,774.333,1442.85Zm13.206,10.94a2.009,2.009,0,0,1,2.825-.13,190.027,190.027,0,0,1,14.576,14.73,2,2,0,1,1-3,2.65,185.717,185.717,0,0,0-14.268-14.42A2.006,2.006,0,0,1,787.539,1453.79Zm31.035,36.3a2,2,0,0,1,2.737.71c1.2,2.05,2.309,4.09,3.337,6.1a2,2,0,0,1-3.562,1.82c-.993-1.95-2.067-3.91-3.228-5.9A1.994,1.994,0,0,1,818.574,1490.09Zm9.091,18.39a2,2,0,0,1,2.565,1.19,112.551,112.551,0,0,1,5.309,20.19,2,2,0,1,1-3.945.66,108.847,108.847,0,0,0-5.12-19.48A1.993,1.993,0,0,1,827.665,1508.48Zm7.809,47.01a2,2,0,0,1,2.007,1.99q0,1.755,0,3.42v.01c0,.99-.01,2.01-.032,3.05a2,2,0,1,1-4-.08q.033-1.515.031-2.97c0-1.12,0-2.26,0-3.41A2,2,0,0,1,835.474,1555.49Zm-.595,18.48a1.992,1.992,0,0,1,1.761,2.21,115.282,115.282,0,0,1-3.505,18.08,2,2,0,0,1-3.851-1.08,111.532,111.532,0,0,0,3.382-17.45A1.994,1.994,0,0,1,834.879,1573.97Zm-11.905,40.25a2,2,0,0,1,.75,2.73c-1,1.75-2.07,3.51-3.213,5.25a2,2,0,0,1-3.345-2.2q1.644-2.505,3.081-5.03A2,2,0,0,1,822.974,1614.22ZM812.9,1629.23a2,2,0,0,1,.223,2.82,104.8,104.8,0,0,1-13.169,12.89,2,2,0,1,1-2.541-3.09,100.78,100.78,0,0,0,12.667-12.4A2,2,0,0,1,812.9,1629.23Zm-32.532,26.54a2,2,0,0,1-.821,2.71c-.9.48-1.809.95-2.733,1.42a2,2,0,1,1-1.81-3.56c.9-.46,1.785-.92,2.657-1.39A2,2,0,0,1,780.366,1655.77Z" fill="#008fb4" fill-rule="evenodd"/>
      <path id="Path_37" data-name="Path 37" d="M761.484,1457.58a2,2,0,0,1,2.821-.21q1.292,1.11,2.516,2.25a2,2,0,0,1-2.723,2.93c-.779-.73-1.58-1.44-2.4-2.15A2,2,0,0,1,761.484,1457.58Zm11.608,11.59a2.009,2.009,0,0,1,2.806.36,73.56,73.56,0,0,1,10.061,17.48,2,2,0,1,1-3.709,1.5,69.44,69.44,0,0,0-9.518-16.53A2.006,2.006,0,0,1,773.092,1469.17Zm16.112,42.2a2,2,0,0,1,2.035,1.96c.04,2.25-.019,4.5-.17,6.73a2,2,0,0,1-3.991-.27q.216-3.18.162-6.39A2,2,0,0,1,789.2,1511.37Zm-1.629,19.58a2,2,0,0,1,1.493,2.4,87.938,87.938,0,0,1-6.8,18.93,2,2,0,0,1-3.586-1.78,83.86,83.86,0,0,0,6.494-18.06A2,2,0,0,1,787.575,1530.95Zm-20.8,40.36a2,2,0,0,1,.011,2.83q-1.192,1.2-2.428,2.34a2,2,0,0,1-2.708-2.94q1.167-1.08,2.3-2.22A2,2,0,0,1,766.771,1571.31Z" fill="#008fb4" fill-rule="evenodd"/>
      <path id="Path_38" data-name="Path 38" d="M814.557,1406.75a2.005,2.005,0,0,1,2.689-.88c1.2.61,2.415,1.24,3.647,1.87a2,2,0,0,1-1.837,3.56q-1.835-.96-3.621-1.86A2,2,0,0,1,814.557,1406.75Zm18.264,9.62a2.005,2.005,0,0,1,2.719-.79c6.9,3.82,14.12,8.01,21.54,12.54a2,2,0,0,1-2.087,3.42c-7.368-4.51-14.541-8.66-21.391-12.46A1.991,1.991,0,0,1,832.821,1416.37Zm49.285,30.42a2.007,2.007,0,0,1,2.785-.49c2.255,1.58,4.513,3.18,6.771,4.82a2,2,0,0,1-2.346,3.24q-3.36-2.445-6.717-4.78A2,2,0,0,1,882.106,1446.79Zm20.055,14.66a2,2,0,0,1,2.806-.35c6.487,5.05,12.923,10.34,19.231,15.87a2,2,0,0,1-2.636,3.01c-6.245-5.48-12.621-10.72-19.052-15.72A2,2,0,0,1,902.161,1461.45Zm43.245,38.46a2,2,0,0,1,2.827.07q2.868,3.015,5.659,6.11a2,2,0,1,1-2.97,2.68c-1.836-2.03-3.7-4.05-5.588-6.03A2,2,0,0,1,945.406,1499.91Zm16.49,18.55a2,2,0,0,1,2.812.3c5.243,6.52,10.185,13.25,14.752,20.2a2,2,0,1,1-3.343,2.19c-4.49-6.83-9.356-13.46-14.524-19.88A2,2,0,0,1,961.9,1518.46Zm31.109,48.69a2,2,0,0,1,2.648.99q1.73,3.81,3.293,7.69a2,2,0,1,1-3.711,1.49q-1.528-3.795-3.224-7.52A2,2,0,0,1,993.005,1567.15Zm8.985,23.12a2,2,0,0,1,2.49,1.35,168.094,168.094,0,0,1,5.37,24.51,2,2,0,1,1-3.96.56,162.087,162.087,0,0,0-5.25-23.93A2.009,2.009,0,0,1,1001.99,1590.27Zm7.22,57.15a2,2,0,0,1,1.86,2.13c-.09,1.39-.2,2.8-.33,4.2a2,2,0,1,1-3.99-.37c.13-1.37.24-2.74.33-4.1A2,2,0,0,1,1009.21,1647.42Z" fill="#008fb4" fill-rule="evenodd"/>
    </g>
    <path id="Path_2" data-name="Path 2" d="M795.779,1565.09a6,6,0,0,1,10.392,0l49.287,85.36a6,6,0,0,1-5.2,9H751.689a6,6,0,0,1-5.2-9Z" transform="translate(-238.047 -343.219)" fill="#fff"/>
    <path id="Path_3" data-name="Path 3" d="M851.994,1652.45l-49.287-85.36a2,2,0,0,0-3.464,0l-49.286,85.36a2,2,0,0,0,1.732,3h98.573A2,2,0,0,0,851.994,1652.45Zm-45.823-87.36a6,6,0,0,0-10.392,0l-49.287,85.36a6,6,0,0,0,5.2,9h98.573a6,6,0,0,0,5.2-9Z" transform="translate(-238.047 -343.219)" fill="#008fb4" fill-rule="evenodd"/>
    <path id="Path_4" data-name="Path 4" d="M802.425,1597.85a2.985,2.985,0,0,0-2.632,3.25c0,1.31.5,8.24,1.341,14.89.378,3,.816,5.88,1.291,8.12.46-2.17.885-4.94,1.256-7.85a2,2,0,1,1,3.968.51c-.42,3.29-.925,6.55-1.5,9a18.994,18.994,0,0,1-.976,3.18,5.159,5.159,0,0,1-.762,1.27,2.509,2.509,0,0,1-3.994-.02,5.334,5.334,0,0,1-.763-1.29,19.882,19.882,0,0,1-.984-3.24c-.577-2.51-1.086-5.83-1.508-9.18-.84-6.68-1.372-13.81-1.372-15.39,0-3.76,2.742-7.25,6.632-7.25s6.632,3.49,6.632,7.25c0,1.12-.262,4.92-.7,9.31a2,2,0,0,1-3.981-.4c.436-4.41.676-8.02.676-8.91A2.985,2.985,0,0,0,802.425,1597.85Z" transform="translate(-238.047 -343.219)" fill="#008fb4" fill-rule="evenodd"/>
    <path id="Path_5" data-name="Path 5" d="M807.057,1642.17a4.632,4.632,0,1,1-4.632-4.63A4.629,4.629,0,0,1,807.057,1642.17Z" transform="translate(-238.047 -343.219)" fill="#fff"/>
    <path id="Path_6" data-name="Path 6" d="M802.425,1642.8a.63.63,0,1,0-.632-.63A.63.63,0,0,0,802.425,1642.8Zm0,4a4.63,4.63,0,1,0-4.632-4.63A4.629,4.629,0,0,0,802.425,1646.8Z" transform="translate(-238.047 -343.219)" fill="#008fb4" fill-rule="evenodd"/>
    <path id="Path_7" data-name="Path 7" d="M1007.07,1444.5a12.988,12.988,0,0,1,18.38,0l25.09,25.08a13.019,13.019,0,0,1,0,18.39l-50.26,50.26a13,13,0,0,1-18.388,0L956.8,1513.14a13,13,0,0,1,0-18.38Z" transform="translate(-238.047 -343.219)" fill="#fff"/>
    <path id="Path_8" data-name="Path 8" d="M1047.71,1472.41l-25.09-25.08a8.993,8.993,0,0,0-12.73,0l-50.256,50.26a8.99,8.99,0,0,0,0,12.72l25.087,25.09a8.99,8.99,0,0,0,12.728,0l50.261-50.26A9.011,9.011,0,0,0,1047.71,1472.41Zm-22.26-27.91a12.988,12.988,0,0,0-18.38,0L956.8,1494.76a13,13,0,0,0,0,18.38l25.087,25.09a13,13,0,0,0,18.388,0l50.26-50.26a13.019,13.019,0,0,0,0-18.39Z" transform="translate(-238.047 -343.219)" fill="#002a4e" fill-rule="evenodd"/>
    <path id="Path_9" data-name="Path 9" d="M1019.07,1452.82a4,4,0,0,0-5.65,0l-30.246,30.25a2,2,0,0,1-2.829-2.83l30.245-30.25a8,8,0,0,1,11.31,0l8.72,8.72a2,2,0,0,1-2.83,2.83Zm-16.26,70.47a2,2,0,0,1,0,2.83l-6.325,6.32a8.008,8.008,0,0,1-11.314,0l-3.147-3.15a2,2,0,0,1,2.828-2.83l3.148,3.15a4,4,0,0,0,5.656,0l6.321-6.32A2.007,2.007,0,0,1,1002.81,1523.29Z" transform="translate(-238.047 -343.219)" fill="#002a4e" fill-rule="evenodd"/>
    <path id="Path_10" data-name="Path 10" d="M985.5,1575.22c-.685,4.41-5.992,5.71-9.143,2.56l-59.1-59.1c-3.152-3.16-1.85-8.46,2.555-9.15a57.51,57.51,0,0,1,65.689,65.69Z" transform="translate(-238.047 -343.219)" fill="#fff"/>
    <path id="Path_11" data-name="Path 11" d="M966.521,1528.51a53.439,53.439,0,0,0-46.094-15.03,1.1,1.1,0,0,0-.592.26.964.964,0,0,0-.268.47,1.712,1.712,0,0,0,.519,1.64l59.1,59.1a1.712,1.712,0,0,0,1.637.52.958.958,0,0,0,.473-.27,1.04,1.04,0,0,0,.253-.59A53.431,53.431,0,0,0,966.521,1528.51Zm9.838,49.27c3.151,3.15,8.458,1.85,9.143-2.56a57.51,57.51,0,0,0-65.689-65.69c-4.4.69-5.707,5.99-2.555,9.15Z" transform="translate(-238.047 -343.219)" fill="#002a4e" fill-rule="evenodd"/>
    <path id="Path_12" data-name="Path 12" d="M944.809,1560.3a7.118,7.118,0,1,1,0-10.07A7.114,7.114,0,0,1,944.809,1560.3Z" transform="translate(-238.047 -343.219)" fill="#fff"/>
    <path id="Path_13" data-name="Path 13" d="M937.574,1557.47a3.117,3.117,0,1,0,0-4.41A3.11,3.11,0,0,0,937.574,1557.47Zm-2.828,2.83a7.118,7.118,0,1,0,0-10.07A7.114,7.114,0,0,0,934.746,1560.3Z" transform="translate(-238.047 -343.219)" fill="#002a4e" fill-rule="evenodd"/>
    <path id="Path_14" data-name="Path 14" d="M949.219,1545.82a1,1,0,0,1,0,1.41l-4.076,4.08a1,1,0,0,1-1.414-1.42l4.076-4.07A1,1,0,0,1,949.219,1545.82Z" transform="translate(-238.047 -343.219)" fill="#002a4e" fill-rule="evenodd"/>
    <path id="Path_15" data-name="Path 15" d="M1033.24,1443.69a3.688,3.688,0,0,1,5.23,0l12.88,12.88a3.7,3.7,0,0,1-5.23,5.23l-12.88-12.88A3.688,3.688,0,0,1,1033.24,1443.69Z" transform="translate(-238.047 -343.219)" fill="#002a4e"/>
    <path id="Path_16" data-name="Path 16" d="M987.968,1460.37a2.277,2.277,0,0,1,0,3.22l-14.893,14.9a2.277,2.277,0,0,1-3.22-3.22l14.893-14.9A2.294,2.294,0,0,1,987.968,1460.37Z" transform="translate(-238.047 -343.219)" fill="#002a4e"/>
    <path id="Path_17" data-name="Path 17" d="M1016.55,1525.18a2.275,2.275,0,0,1,0-3.22l14.89-14.89a2.277,2.277,0,0,1,3.22,3.22l-14.89,14.89A2.276,2.276,0,0,1,1016.55,1525.18Z" transform="translate(-238.047 -343.219)" fill="#002a4e"/>
    <path id="Path_18" data-name="Path 18" d="M920.742,1371.4a3,3,0,0,1,4.243,0l72.246,72.25a3,3,0,0,1,0,4.24l-39.86,39.86a3,3,0,0,1-4.242,0l-72.247-72.25a3,3,0,0,1,0-4.24Z" transform="translate(-238.047 -343.219)" fill="#fff"/>
    <path id="Path_19" data-name="Path 19" d="M922.863,1374.94l-38.445,38.44,70.832,70.84,38.446-38.45Zm2.122-3.54a3,3,0,0,0-4.243,0l-39.86,39.86a3,3,0,0,0,0,4.24l72.247,72.25a3,3,0,0,0,4.242,0l39.86-39.86a3,3,0,0,0,0-4.24Z" transform="translate(-238.047 -343.219)" fill="#002a4e" fill-rule="evenodd"/>
    <path id="Path_20" data-name="Path 20" d="M1083.77,1614.15a3,3,0,0,1-4.24,0l-72.25-72.24a3.012,3.012,0,0,1,0-4.25l39.86-39.86a3.012,3.012,0,0,1,4.25,0l72.24,72.25a3,3,0,0,1,0,4.24Z" transform="translate(-238.047 -343.219)" fill="#fff"/>
    <path id="Path_21" data-name="Path 21" d="M1081.65,1610.62l38.45-38.45-70.83-70.83-38.45,38.44Zm-2.12,3.53a3,3,0,0,0,4.24,0l39.86-39.86a3,3,0,0,0,0-4.24l-72.24-72.25a3.012,3.012,0,0,0-4.25,0l-39.86,39.86a3.012,3.012,0,0,0,0,4.25Z" transform="translate(-238.047 -343.219)" fill="#002a4e" fill-rule="evenodd"/>
    <path id="Path_22" data-name="Path 22" d="M979.078,1429.72a1.006,1.006,0,0,1,0,1.42l-38.641,38.64a1,1,0,0,1-1.414-1.42l38.641-38.64A1,1,0,0,1,979.078,1429.72Z" transform="translate(-238.047 -343.219)" fill="#002a4e" fill-rule="evenodd"/>
    <path id="Path_23" data-name="Path 23" d="M1025.44,1555.84a1,1,0,0,1,0-1.41l38.64-38.65a1,1,0,0,1,1.41,0,1.008,1.008,0,0,1,0,1.42l-38.64,38.64A1,1,0,0,1,1025.44,1555.84Z" transform="translate(-238.047 -343.219)" fill="#002a4e" fill-rule="evenodd"/>
    <path id="Path_24" data-name="Path 24" d="M959.281,1409.93a.994.994,0,0,1,0,1.41l-38.641,38.64a1,1,0,0,1-1.414-1.41l38.641-38.64A1,1,0,0,1,959.281,1409.93Z" transform="translate(-238.047 -343.219)" fill="#002a4e" fill-rule="evenodd"/>
    <path id="Path_25" data-name="Path 25" d="M1045.23,1575.64a1.008,1.008,0,0,1,0-1.42l38.65-38.64a1,1,0,0,1,1.41,0,1.008,1.008,0,0,1,0,1.42l-38.64,38.64A1.008,1.008,0,0,1,1045.23,1575.64Z" transform="translate(-238.047 -343.219)" fill="#002a4e" fill-rule="evenodd"/>
    <path id="Path_26" data-name="Path 26" d="M939.481,1390.12a1.008,1.008,0,0,1,0,1.42l-38.642,38.64a1,1,0,0,1-1.414-1.42l38.641-38.64A1,1,0,0,1,939.481,1390.12Z" transform="translate(-238.047 -343.219)" fill="#002a4e" fill-rule="evenodd"/>
    <path id="Path_27" data-name="Path 27" d="M1065.04,1595.44a.978.978,0,0,1,0-1.41l38.64-38.64a1,1,0,1,1,1.41,1.41l-38.64,38.64A1,1,0,0,1,1065.04,1595.44Z" transform="translate(-238.047 -343.219)" fill="#002a4e" fill-rule="evenodd"/>
  </g>
</svg>
