<svg xmlns="http://www.w3.org/2000/svg" width="317.48" height="331.511" viewBox="0 0 317.48 331.511">
  <g id="Group_2" data-name="Group 2" transform="translate(-529.681 -483.453)">
    <path id="Path_1" data-name="Path 1" d="M1030.14,1025.84c0,66.95-54.438,121.23-121.6,121.23s-121.6-54.28-121.6-121.23c0-55.44,83.376-160.237,112.05-194.638a12.33,12.33,0,0,1,19.1,0C946.768,865.6,1030.14,970.4,1030.14,1025.84Z" transform="translate(-238.047 -343.219)" fill="#c7e3fd"/>
    <path id="Path_2" data-name="Path 2" d="M822.036,908.886a21.917,21.917,0,0,1-43.833,0c0-8.784,11.614-27.882,17.933-37.623a4.714,4.714,0,0,1,7.967,0C810.423,881,822.036,900.1,822.036,908.886Z" transform="translate(-238.047 -343.219)" fill="#c7e3fd"/>
    <path id="Path_3" data-name="Path 3" d="M934.407,859.984l39.339,32.525V866.726H995.4V910.41l38.7,32a5,5,0,0,1-3.19,8.847h-14.95v83.687c0,.52.14,1.97.14,1.97a1.658,1.658,0,0,1-.61,2.27,82.232,82.232,0,0,0-12.53,8.94c-11.327,9.78-25.628,17.17-44.216,18.17-17.85.96-31.779-6.83-44.9-14.69-11.941-7.22-30.259-7.73-46.737-6.85a74.754,74.754,0,0,0-11.643,1.51,3.014,3.014,0,0,1-2.243-2.55V951.253H837.9a5,5,0,0,1-3.184-8.847Z" transform="translate(-238.047 -343.219)" fill="#fff" fill-rule="evenodd"/>
    <g id="Group_1" data-name="Group 1" transform="translate(-238.047 -343.219)">
      <path id="Path_15" data-name="Path 15" d="M1078.32,1063.75c-13.9-8.44-32.69-12.97-50.64-11.44a66.328,66.328,0,0,0-36.2,14.47c-9.8,7.85-22.056,13.62-37.707,13.88-14.991.25-28.957-3.88-39.736-10.9h-.006c-9.6-6.3-22.192-10.07-35.808-9.85-11.976.2-21.274,3.43-31.459,8.8-10.762,5.67-18.549,6.23-27.108,6.37a66.853,66.853,0,0,1-28.21-5.61,2,2,0,1,1,1.63-3.65,62.825,62.825,0,0,0,26.514,5.26c8.266-.14,15.337-.66,25.31-5.91,10.55-5.56,20.47-9.05,33.258-9.26,14.372-.24,27.759,3.74,38.064,10.5,10.076,6.56,23.25,10.48,37.485,10.25,14.609-.24,26.027-5.6,35.272-13a70.353,70.353,0,0,1,38.362-15.33c18.77-1.6,38.41,3.11,53.06,12a2,2,0,0,1-2.08,3.42Z" fill="#008fb4" fill-rule="evenodd"/>
      <path id="Path_16" data-name="Path 16" d="M846.39,1023.2a2,2,0,0,1-.31,2.81c-9.806,7.86-22.056,13.63-37.707,13.88-14.991.25-28.957-3.87-39.736-10.89a2,2,0,0,1,2.182-3.36c10.076,6.57,23.251,10.49,37.488,10.25,14.609-.24,26.026-5.59,35.272-13A2,2,0,0,1,846.39,1023.2Z" fill="#008fb4" fill-rule="evenodd"/>
      <path id="Path_17" data-name="Path 17" d="M1050.64,1065.37a53.476,53.476,0,0,0-24.6-1.45,70.708,70.708,0,0,0-15.3,4.67,2,2,0,1,1-1.62-3.66,75,75,0,0,1,16.2-4.95,57.589,57.589,0,0,1,26.46,1.55,2,2,0,1,1-1.14,3.84Z" fill="#008fb4" fill-rule="evenodd"/>
      <path id="Path_18" data-name="Path 18" d="M919.963,1058.9c-10.317-7.08-23.847-11.3-38.479-11.02a1.99,1.99,0,0,1-2.038-1.96,2.01,2.01,0,0,1,1.961-2.04c15.43-.29,29.785,4.15,40.817,11.72a66.355,66.355,0,0,0,23.8,9.94,2,2,0,0,1-.817,3.92,70.48,70.48,0,0,1-25.236-10.55Z" fill="#008fb4" fill-rule="evenodd"/>
      <path id="Path_19" data-name="Path 19" d="M1082.2,1051.72c-14.25-8.38-33.42-12.87-51.74-11.36a2,2,0,0,1-.33-3.99c19.11-1.57,39.11,3.09,54.09,11.9a2,2,0,0,1-2.02,3.45Z" fill="#008fb4" fill-rule="evenodd"/>
      <path id="Path_20" data-name="Path 20" d="M1061.89,1103.64c-12.53-7.18-30.63-11.28-47.84-10.22a65.247,65.247,0,0,0-31.859,10.16,59.957,59.957,0,0,1-33.214,9.76c-13.207.07-25.557-3-35.139-8.15h-.006c-8.513-4.61-19.679-7.43-31.737-7.37-10.6.06-18.8,2.33-27.747,6.12-9.472,4.02-16.336,4.36-23.877,4.4a70.979,70.979,0,0,1-24.914-4.24,2,2,0,0,1,1.392-3.75,66.822,66.822,0,0,0,23.5,3.99c7.318-.03,13.571-.36,22.336-4.08,9.292-3.94,18.02-6.38,29.287-6.44,12.66-.06,24.5,2.89,33.66,7.85,8.937,4.8,20.617,7.74,33.223,7.67a56.022,56.022,0,0,0,31.054-9.11,69.205,69.205,0,0,1,33.79-10.8c17.91-1.1,36.8,3.12,50.08,10.74a2,2,0,1,1-1.99,3.47Z" fill="#008fb4" fill-rule="evenodd"/>
      <path id="Path_21" data-name="Path 21" d="M1019.47,1105.38a2,2,0,0,1-1.89,2.11,77.555,77.555,0,0,0-16.1,2.56,67.239,67.239,0,0,0-17.615,7.54,65.351,65.351,0,0,1-34.971,9.65c-13.919.04-26.942-3.05-37.051-8.21h-.006c-9.035-4.65-20.875-7.5-33.651-7.47a2,2,0,0,1-.01-4c13.341-.04,25.822,2.94,35.487,7.91,9.483,4.84,21.867,7.81,35.22,7.77a61.418,61.418,0,0,0,32.888-9.06,71.289,71.289,0,0,1,18.659-7.99,82.212,82.212,0,0,1,16.93-2.7A2.009,2.009,0,0,1,1019.47,1105.38Z" fill="#008fb4" fill-rule="evenodd"/>
      <path id="Path_22" data-name="Path 22" d="M918.68,1152.39c-10.061-4.13-22.99-6.19-36.7-5.18a2,2,0,0,1-.293-3.99c14.251-1.05,27.808,1.08,38.507,5.47a81.121,81.121,0,0,0,25.89,5.5,2,2,0,1,1-.22,3.99,84.973,84.973,0,0,1-27.18-5.79Z" fill="#008fb4" fill-rule="evenodd"/>
      <path id="Path_23" data-name="Path 23" d="M914.066,1094.3c-8.514-4.61-19.679-7.43-31.738-7.37-10.6.06-18.8,2.33-27.746,6.12a51.4,51.4,0,0,1-15.44,4.04,2,2,0,1,1-.4-3.98,47.242,47.242,0,0,0,14.276-3.74c9.292-3.94,18.02-6.38,29.287-6.44,12.662-.07,24.5,2.89,33.663,7.85a2,2,0,0,1-1.9,3.52Z" fill="#008fb4" fill-rule="evenodd"/>
      <path id="Path_24" data-name="Path 24" d="M1051.65,1141.02c-11.32-5.05-27.64-8.04-43.12-7.47a70.567,70.567,0,0,0-28.539,6.67c-7.72,3.79-17.328,6.45-29.627,6.38-11.8-.08-22.868-2.29-31.493-5.9l0-.01c-7.7-3.24-17.776-5.29-28.637-5.36a76.066,76.066,0,0,0-24.906,3.94c-8.434,2.66-14.556,2.83-21.3,2.79a82.047,82.047,0,0,1-22.3-3.14,2,2,0,1,1,1.125-3.83,78.106,78.106,0,0,0,21.2,2.97c6.585.04,12.222-.13,20.071-2.6a80,80,0,0,1,26.133-4.13c11.31.07,21.918,2.2,30.165,5.68,8.079,3.38,18.62,5.51,29.971,5.59,11.67.07,20.668-2.45,27.84-5.97a74.667,74.667,0,0,1,30.15-7.08c16-.59,32.94,2.48,44.9,7.82a2,2,0,0,1-1.63,3.65Z" fill="#008fb4" fill-rule="evenodd"/>
    </g>
    <path id="Path_4" data-name="Path 4" d="M913.6,969.281a2,2,0,0,1,2-2h39.211a2,2,0,0,1,2,2v85.269a2,2,0,0,1-4,0V971.281H917.6v64.8a2,2,0,0,1-4,0Z" transform="translate(-238.047 -343.219)" fill="#234075" fill-rule="evenodd"/>
    <path id="Path_5" data-name="Path 5" d="M971.281,972.492a5,5,0,0,1,5-5h14.2a5,5,0,0,1,5,5v31.868a5,5,0,0,1-5,5h-14.2a5,5,0,0,1-5-5Zm5-1a1,1,0,0,0-1,1v31.868a1,1,0,0,0,1,1h14.2a1,1,0,0,0,1-1V972.492a1,1,0,0,0-1-1Z" transform="translate(-238.047 -343.219)" fill="#234075" fill-rule="evenodd"/>
    <path id="Path_6" data-name="Path 6" d="M874.3,972.492a5,5,0,0,1,5-5h14.2a5,5,0,0,1,5,5v31.868a5,5,0,0,1-5,5H879.3a5,5,0,0,1-5-5Zm5-1a1,1,0,0,0-1,1v31.868a1,1,0,0,0,1,1h14.2a1,1,0,0,0,1-1V972.492a1,1,0,0,0-1-1Z" transform="translate(-238.047 -343.219)" fill="#234075" fill-rule="evenodd"/>
    <path id="Path_7" data-name="Path 7" d="M934.166,859.383l51.66,42.711a2,2,0,1,1-2.549,3.083l-49.111-40.6-98.4,81.353a1.366,1.366,0,0,0,.871,2.419H855.8v91.115a2,2,0,0,1-4,0V952.345H836.639a5.366,5.366,0,0,1-3.42-9.5ZM973.6,866.29h22.515V910.6l38.991,32.239a5.366,5.366,0,0,1-3.42,9.5H1016.9v81.385a2,2,0,0,1-4,0V948.345h18.79a1.365,1.365,0,0,0,.87-2.419l-40.441-33.439v-42.2H977.6v14.831a2,2,0,0,1-4,0Z" transform="translate(-238.047 -343.219)" fill="#234075" fill-rule="evenodd"/>
    <path id="Path_8" data-name="Path 8" d="M934.165,877.617l61.044,50.469a2,2,0,1,1-2.549,3.083l-58.495-48.362L863.907,940.9a2,2,0,0,1-2.549-3.083Zm63.953,55.47a2,2,0,0,1,2.812-.267l9.96,8.234a2,2,0,1,1-2.55,3.083l-9.955-8.234A2,2,0,0,1,998.118,933.087Z" transform="translate(-238.047 -343.219)" fill="#234075" fill-rule="evenodd"/>
    <path id="Path_9" data-name="Path 9" d="M934.167,934.591a11.546,11.546,0,1,0-11.546-11.545A11.545,11.545,0,0,0,934.167,934.591Zm0,4a15.546,15.546,0,1,0-15.546-15.545A15.545,15.545,0,0,0,934.167,938.591Z" transform="translate(-238.047 -343.219)" fill="#234075" fill-rule="evenodd"/>
  </g>
</svg>
