<svg xmlns="http://www.w3.org/2000/svg" width="214" height="214.001" viewBox="0 0 214 214.001">
  <g id="Group_1" data-name="Group 1" transform="translate(-853 -480.5)">
    <path id="Path_1" data-name="Path 1" d="M2021,1073.72a107,107,0,1,1,107,107A107,107,0,0,1,2021,1073.72Z" transform="translate(-1168 -486.219)" fill="#f2f2f2"/>
    <path id="Path_2" data-name="Path 2" d="M2021,1073.72a107,107,0,1,1,107,107A107,107,0,0,1,2021,1073.72Z" transform="translate(-1168 -486.219)" fill="#fff"/>
    <path id="Path_3" data-name="Path 3" d="M2196.82,1081.34h-40.71a3.564,3.564,0,0,1-2.51-1.02l-40.94-36.45-.05-.08a1.039,1.039,0,0,0-1.44,0l-37.93,36.55a3.559,3.559,0,0,1-2.49,1h-11.57a3.584,3.584,0,0,1-3.59-3.59v-.18a3.8,3.8,0,0,1,.31-1.44,3.722,3.722,0,0,1,.84-1.2l52.64-50.66h.02a3.578,3.578,0,0,1,2.51-.95,3.631,3.631,0,0,1,2.47,1.05l25.83,23.65h.05a.977.977,0,0,0,.34.23.922.922,0,0,0,.4.08h31.45a3.6,3.6,0,0,1,2.59,1.13l24.37,25.52a3.646,3.646,0,0,1,.75,1.18,3.458,3.458,0,0,1,.25,1.39v.28a3.585,3.585,0,0,1-3.59,3.51Zm-82.42-39.37,40.94,36.45.05.05a1.091,1.091,0,0,0,.33.23,1.045,1.045,0,0,0,.39.08h40.71a1.134,1.134,0,0,0,.71-.3,1.049,1.049,0,0,0,.31-.7v-.29a1.136,1.136,0,0,0-.28-.74l-24.39-25.52a1,1,0,0,0-.33-.24.892.892,0,0,0-.39-.09H2141a3.645,3.645,0,0,1-2.54-1.03l-25.85-23.65v-.05a1.081,1.081,0,0,0-1.44-.05l-52.66,50.68h-.02a1.032,1.032,0,0,0-.25.34,1.161,1.161,0,0,0-.09.41v.18a.992.992,0,0,0,.31.72,1.022,1.022,0,0,0,.72.3h11.57a1.073,1.073,0,0,0,.39-.07,1.151,1.151,0,0,0,.33-.21l37.93-36.53a3.653,3.653,0,0,1,2.51-1A3.614,3.614,0,0,1,2114.4,1041.97Z" transform="translate(-1168 -486.219)" fill="#002a4e"/>
    <path id="Path_4" data-name="Path 4" d="M2118.64,1118.17a1.28,1.28,0,0,1-1.29-1.28v-20.36c0-.44-.23-.67-.3-.67h-9.57a.739.739,0,0,0-.28.67v20.36a1.28,1.28,0,0,1-1.29,1.28,1.263,1.263,0,0,1-.9-.37,1.3,1.3,0,0,1-.38-.91v-20.36a3.06,3.06,0,0,1,2.85-3.24h9.57a3.062,3.062,0,0,1,2.87,3.24v20.36a1.3,1.3,0,0,1-.38.91A1.263,1.263,0,0,1,2118.64,1118.17Z" transform="translate(-1168 -486.219)" fill="#002a4e"/>
    <path id="Path_5" data-name="Path 5" d="M2193.15,1124.12a1.316,1.316,0,0,1-.9-.38,1.272,1.272,0,0,1-.38-.9v-34.99a1.272,1.272,0,0,1,.38-.9,1.316,1.316,0,0,1,.9-.38,1.3,1.3,0,0,1,1.28,1.28v34.99a1.3,1.3,0,0,1-.38.91A1.263,1.263,0,0,1,2193.15,1124.12Z" transform="translate(-1168 -486.219)" fill="#002a4e"/>
    <path id="Path_6" data-name="Path 6" d="M2193.15,1124.12H2063.11a1.28,1.28,0,1,1,0-2.56h130.04a1.28,1.28,0,0,1,0,2.56Z" transform="translate(-1168 -486.219)" fill="#002a4e"/>
    <path id="Path_7" data-name="Path 7" d="M2063.11,1124.13a1.3,1.3,0,0,1-1.29-1.29v-34.52a1.28,1.28,0,0,1,1.29-1.28,1.263,1.263,0,0,1,.9.37,1.3,1.3,0,0,1,.38.91v34.52a1.362,1.362,0,0,1-.38.9A1.346,1.346,0,0,1,2063.11,1124.13Z" transform="translate(-1168 -486.219)" fill="#002a4e"/>
    <path id="Path_8" data-name="Path 8" d="M2161.32,1046.69a1.3,1.3,0,0,1-.91-.38,1.263,1.263,0,0,1-.37-.9v-6.34a2.561,2.561,0,0,1,2.56-2.56h.1v-5.59h-13.85v5.59h.13a2.6,2.6,0,0,1,1.82.75,2.558,2.558,0,0,1,.75,1.81v6.34a1.273,1.273,0,0,1-.38.9,1.3,1.3,0,0,1-.91.38,1.3,1.3,0,0,1-1.28-1.28v-6.34h-.1a2.6,2.6,0,0,1-2.59-2.56v-5.59a2.595,2.595,0,0,1,2.59-2.57h13.85a2.561,2.561,0,0,1,2.56,2.57v5.59a2.561,2.561,0,0,1-2.56,2.56h-.1v6.34a1.338,1.338,0,0,1-.1.49,1.37,1.37,0,0,1-.29.42,1.19,1.19,0,0,1-.42.28A1.425,1.425,0,0,1,2161.32,1046.69Z" transform="translate(-1168 -486.219)" fill="#002a4e"/>
    <path id="Path_9" data-name="Path 9" d="M2170.47,1106.84h-8.82a2.069,2.069,0,0,1-1.45-.6,2.044,2.044,0,0,1-.6-1.45v-13.78a2.043,2.043,0,0,1,.6-1.45,2.069,2.069,0,0,1,1.45-.6h8.82a2.066,2.066,0,0,1,2.06,2.05v13.78a2.066,2.066,0,0,1-2.06,2.05Zm-8.31-2.57h7.8v-12.74h-7.8Z" transform="translate(-1168 -486.219)" fill="#002a4e"/>
    <path id="Path_10" data-name="Path 10" d="M2140.8,1106.84h-8.83a2.049,2.049,0,0,1-2.05-2.05v-13.78a2.049,2.049,0,0,1,2.05-2.05h8.83a2.049,2.049,0,0,1,2.05,2.05v13.78a2.049,2.049,0,0,1-2.05,2.05Zm-8.31-2.57h7.79v-12.74h-7.79Z" transform="translate(-1168 -486.219)" fill="#002a4e"/>
    <path id="Path_11" data-name="Path 11" d="M2092.57,1106.84h-8.85a2.049,2.049,0,0,1-2.05-2.05v-13.78a2.049,2.049,0,0,1,2.05-2.05h8.85a2.066,2.066,0,0,1,2.06,2.05v13.78a2.065,2.065,0,0,1-2.06,2.05Zm-8.33-2.57h7.82v-12.74h-7.82Z" transform="translate(-1168 -486.219)" fill="#002a4e"/>
    <path id="Path_12" data-name="Path 12" d="M2186.97,1106.84h-8.13a1.3,1.3,0,0,1-.91-.38,1.272,1.272,0,0,1-.38-.9v-15.32a1.3,1.3,0,0,1,.39-.89,1.326,1.326,0,0,1,.9-.39h8.13a1.3,1.3,0,0,1,1.28,1.28v15.32a1.3,1.3,0,0,1-1.28,1.28Zm-6.85-2.57h5.56v-12.74h-5.56Z" transform="translate(-1168 -486.219)" fill="#002a4e"/>
    <path id="Path_13" data-name="Path 13" d="M2111.89,1079.65a8.587,8.587,0,1,1,6.08-2.52A8.606,8.606,0,0,1,2111.89,1079.65Zm0-14.62a6.046,6.046,0,0,0-3.35,1.01,6.121,6.121,0,0,0-2.22,2.71,6.04,6.04,0,0,0,1.31,6.57,6,6,0,0,0,6.57,1.3,5.914,5.914,0,0,0,2.7-2.22,6.021,6.021,0,0,0-5.01-9.37Z" transform="translate(-1168 -486.219)" fill="#002a4e"/>
    <path id="Path_14" data-name="Path 14" d="M2021,1073.72a107,107,0,1,1,107,107A107,107,0,0,1,2021,1073.72Z" transform="translate(-1168 -486.219)" fill="#012a4e"/>
    <path id="Path_16" data-name="Path 16" d="M2196.82,1081.34h-40.71a3.564,3.564,0,0,1-2.51-1.02l-40.94-36.45-.05-.08a1.039,1.039,0,0,0-1.44,0l-37.93,36.55a3.559,3.559,0,0,1-2.49,1h-11.57a3.584,3.584,0,0,1-3.59-3.59v-.18a3.8,3.8,0,0,1,.31-1.44,3.722,3.722,0,0,1,.84-1.2l52.64-50.66h.02a3.578,3.578,0,0,1,2.51-.95,3.631,3.631,0,0,1,2.47,1.05l25.83,23.65h.05a.977.977,0,0,0,.34.23.922.922,0,0,0,.4.08h31.45a3.6,3.6,0,0,1,2.59,1.13l24.37,25.52a3.646,3.646,0,0,1,.75,1.18,3.458,3.458,0,0,1,.25,1.39v.28a3.585,3.585,0,0,1-3.59,3.51Zm-82.42-39.37,40.94,36.45.05.05a1.091,1.091,0,0,0,.33.23,1.045,1.045,0,0,0,.39.08h40.71a1.134,1.134,0,0,0,.71-.3,1.049,1.049,0,0,0,.31-.7v-.29a1.136,1.136,0,0,0-.28-.74l-24.39-25.52a1,1,0,0,0-.33-.24.892.892,0,0,0-.39-.09H2141a3.645,3.645,0,0,1-2.54-1.03l-25.85-23.65v-.05a1.081,1.081,0,0,0-1.44-.05l-52.66,50.68h-.02a1.032,1.032,0,0,0-.25.34,1.161,1.161,0,0,0-.09.41v.18a.992.992,0,0,0,.31.72,1.022,1.022,0,0,0,.72.3h11.57a1.073,1.073,0,0,0,.39-.07,1.151,1.151,0,0,0,.33-.21l37.93-36.53a3.653,3.653,0,0,1,2.51-1A3.614,3.614,0,0,1,2114.4,1041.97Z" transform="translate(-1168 -486.219)" fill="#fff"/>
    <path id="Path_17" data-name="Path 17" d="M2118.64,1118.17a1.28,1.28,0,0,1-1.29-1.28v-20.36c0-.44-.23-.67-.3-.67h-9.57a.739.739,0,0,0-.28.67v20.36a1.28,1.28,0,0,1-1.29,1.28,1.263,1.263,0,0,1-.9-.37,1.3,1.3,0,0,1-.38-.91v-20.36a3.06,3.06,0,0,1,2.85-3.24h9.57a3.062,3.062,0,0,1,2.87,3.24v20.36a1.3,1.3,0,0,1-.38.91A1.263,1.263,0,0,1,2118.64,1118.17Z" transform="translate(-1168 -486.219)" fill="#fff"/>
    <path id="Path_18" data-name="Path 18" d="M2193.15,1124.12a1.316,1.316,0,0,1-.9-.38,1.272,1.272,0,0,1-.38-.9v-34.99a1.272,1.272,0,0,1,.38-.9,1.316,1.316,0,0,1,.9-.38,1.3,1.3,0,0,1,1.28,1.28v34.99a1.3,1.3,0,0,1-.38.91A1.263,1.263,0,0,1,2193.15,1124.12Z" transform="translate(-1168 -486.219)" fill="#fff"/>
    <path id="Path_19" data-name="Path 19" d="M2193.15,1124.12H2063.11a1.28,1.28,0,1,1,0-2.56h130.04a1.28,1.28,0,0,1,0,2.56Z" transform="translate(-1168 -486.219)" fill="#fff"/>
    <path id="Path_20" data-name="Path 20" d="M2063.11,1124.13a1.3,1.3,0,0,1-1.29-1.29v-34.52a1.28,1.28,0,0,1,1.29-1.28,1.263,1.263,0,0,1,.9.37,1.3,1.3,0,0,1,.38.91v34.52a1.362,1.362,0,0,1-.38.9A1.346,1.346,0,0,1,2063.11,1124.13Z" transform="translate(-1168 -486.219)" fill="#fff"/>
    <path id="Path_21" data-name="Path 21" d="M2161.32,1046.69a1.3,1.3,0,0,1-.91-.38,1.263,1.263,0,0,1-.37-.9v-6.34a2.561,2.561,0,0,1,2.56-2.56h.1v-5.59h-13.85v5.59h.13a2.6,2.6,0,0,1,1.82.75,2.558,2.558,0,0,1,.75,1.81v6.34a1.273,1.273,0,0,1-.38.9,1.3,1.3,0,0,1-.91.38,1.3,1.3,0,0,1-1.28-1.28v-6.34h-.1a2.6,2.6,0,0,1-2.59-2.56v-5.59a2.595,2.595,0,0,1,2.59-2.57h13.85a2.561,2.561,0,0,1,2.56,2.57v5.59a2.561,2.561,0,0,1-2.56,2.56h-.1v6.34a1.338,1.338,0,0,1-.1.49,1.37,1.37,0,0,1-.29.42,1.19,1.19,0,0,1-.42.28A1.425,1.425,0,0,1,2161.32,1046.69Z" transform="translate(-1168 -486.219)" fill="#fff"/>
    <path id="Path_22" data-name="Path 22" d="M2170.47,1106.84h-8.82a2.069,2.069,0,0,1-1.45-.6,2.044,2.044,0,0,1-.6-1.45v-13.78a2.043,2.043,0,0,1,.6-1.45,2.069,2.069,0,0,1,1.45-.6h8.82a2.066,2.066,0,0,1,2.06,2.05v13.78a2.066,2.066,0,0,1-2.06,2.05Zm-8.31-2.57h7.8v-12.74h-7.8Z" transform="translate(-1168 -486.219)" fill="#fff"/>
    <path id="Path_23" data-name="Path 23" d="M2140.8,1106.84h-8.83a2.049,2.049,0,0,1-2.05-2.05v-13.78a2.049,2.049,0,0,1,2.05-2.05h8.83a2.049,2.049,0,0,1,2.05,2.05v13.78a2.049,2.049,0,0,1-2.05,2.05Zm-8.31-2.57h7.79v-12.74h-7.79Z" transform="translate(-1168 -486.219)" fill="#fff"/>
    <path id="Path_24" data-name="Path 24" d="M2092.57,1106.84h-8.85a2.049,2.049,0,0,1-2.05-2.05v-13.78a2.049,2.049,0,0,1,2.05-2.05h8.85a2.066,2.066,0,0,1,2.06,2.05v13.78a2.065,2.065,0,0,1-2.06,2.05Zm-8.33-2.57h7.82v-12.74h-7.82Z" transform="translate(-1168 -486.219)" fill="#fff"/>
    <path id="Path_25" data-name="Path 25" d="M2186.97,1106.84h-8.13a1.3,1.3,0,0,1-.91-.38,1.272,1.272,0,0,1-.38-.9v-15.32a1.3,1.3,0,0,1,.39-.89,1.326,1.326,0,0,1,.9-.39h8.13a1.3,1.3,0,0,1,1.28,1.28v15.32a1.3,1.3,0,0,1-1.28,1.28Zm-6.85-2.57h5.56v-12.74h-5.56Z" transform="translate(-1168 -486.219)" fill="#fff"/>
    <path id="Path_26" data-name="Path 26" d="M2111.89,1079.65a8.587,8.587,0,1,1,6.08-2.52A8.606,8.606,0,0,1,2111.89,1079.65Zm0-14.62a6.046,6.046,0,0,0-3.35,1.01,6.121,6.121,0,0,0-2.22,2.71,6.04,6.04,0,0,0,1.31,6.57,6,6,0,0,0,6.57,1.3,5.914,5.914,0,0,0,2.7-2.22,6.021,6.021,0,0,0-5.01-9.37Z" transform="translate(-1168 -486.219)" fill="#fff"/>
  </g>
</svg>
