<svg xmlns="http://www.w3.org/2000/svg" width="332.89" height="332.89" viewBox="0 0 332.89 332.89">
  <g id="Group_2" data-name="Group 2" transform="translate(-1029.943 -1037.021)">
    <g id="Group_1" data-name="Group 1" transform="translate(-232 23)">
      <path id="Path_1" data-name="Path 1" d="M1793.95,1543.36l38.93-22.48-38.63-22.3A126.643,126.643,0,0,1,1793.95,1543.36Zm-20.48-95.33,11.48-42.86-42.86,11.48a127.11,127.11,0,0,1,31.38,31.38Zm-219.95-42.86h0l43.93,11.77a126.819,126.819,0,0,0-16.66,14.02c-.25.25-.49.5-.73.74Zm199,199L1585.95,1437.6h0a117.783,117.783,0,1,1,166.57,166.57Zm32.43,32.43-26.53-26.54c.24-.24.49-.49.74-.73a126.81,126.81,0,0,0,14.02-16.66l11.77,43.93Zm-93.41-240.73-22.3-38.63-22.48,38.92A126.881,126.881,0,0,1,1691.54,1395.87Z" transform="translate(-238.047 -343.219)" fill="#c7e3fd" fill-rule="evenodd"/>
      <path id="Path_2" data-name="Path 2" d="M1752.82,1615.66l26.54,26.54-43.93-11.77a126.811,126.811,0,0,0,16.65-14.03C1752.33,1616.15,1752.58,1615.91,1752.82,1615.66Z" transform="translate(-238.047 -343.219)" fill="#c7e3fd"/>
      <path id="Path_3" data-name="Path 3" d="M1574.46,1437.3c-.25.24-.49.49-.74.74a126.821,126.821,0,0,0-14.03,16.65l-11.77-43.93Z" transform="translate(-238.047 -343.219)" fill="#c7e3fd"/>
      <path id="Path_4" data-name="Path 4" d="M1547.92,1642.2l11.49-42.86a127.484,127.484,0,0,0,31.37,31.37Z" transform="translate(-238.047 -343.219)" fill="#c7e3fd"/>
      <path id="Path_5" data-name="Path 5" d="M1663.64,1690.13l22.48-38.93a126.933,126.933,0,0,1-44.79.29Z" transform="translate(-238.047 -343.219)" fill="#c7e3fd"/>
      <path id="Path_6" data-name="Path 6" d="M1538.63,1548.79l-38.64-22.31,38.93-22.48A126.933,126.933,0,0,0,1538.63,1548.79Z" transform="translate(-238.047 -343.219)" fill="#c7e3fd"/>
      <path id="Path_7" data-name="Path 7" d="M1687.8,1550.9a3,3,0,0,1-.41,4.22,35.685,35.685,0,0,1-49.8-50.74,3,3,0,0,1,4.56,3.9,29.683,29.683,0,0,0,41.42,42.21A3.011,3.011,0,0,1,1687.8,1550.9Z" transform="translate(-238.047 -343.219)" fill="#008fb4" fill-rule="evenodd"/>
      <path id="Path_8" data-name="Path 8" d="M1643.62,1549.09a3,3,0,0,1,0,4.24l-59.26,59.26a3,3,0,0,1-4.24-4.24l59.26-59.26A3,3,0,0,1,1643.62,1549.09Z" transform="translate(-238.047 -343.219)" fill="#008fb4" fill-rule="evenodd"/>
      <path id="Path_9" data-name="Path 9" d="M1625.27,1567.44a2.961,2.961,0,0,1,.88,2.25l-2.87,65.78a3,3,0,1,1-6-.26l2.73-62.51-62.51,2.73a3,3,0,0,1-.26-6l65.78-2.87A2.96,2.96,0,0,1,1625.27,1567.44Z" transform="translate(-238.047 -343.219)" fill="#008fb4" fill-rule="evenodd"/>
      <path id="Path_10" data-name="Path 10" d="M1600.59,1592.12a3.033,3.033,0,0,1,.87,2.27l-1.32,27.52a3,3,0,1,1-5.99-.29l1.16-24.22-24.23,1.16a3,3,0,1,1-.28-5.99l27.52-1.32A2.973,2.973,0,0,1,1600.59,1592.12Z" transform="translate(-238.047 -343.219)" fill="#008fb4" fill-rule="evenodd"/>
      <path id="Path_11" data-name="Path 11" d="M1641.14,1508.41a3.012,3.012,0,0,1-4.25,0l-59.26-59.26a3,3,0,0,1,4.25-4.24l59.26,59.26A3,3,0,0,1,1641.14,1508.41Z" transform="translate(-238.047 -343.219)" fill="#008fb4" fill-rule="evenodd"/>
      <path id="Path_12" data-name="Path 12" d="M1621.04,1485.37a3.01,3.01,0,0,1-3.13,2.86l-60.67-2.65a3,3,0,1,1,.26-5.99l60.67,2.65A3.006,3.006,0,0,1,1621.04,1485.37Z" transform="translate(-238.047 -343.219)" fill="#008fb4" fill-rule="evenodd"/>
      <path id="Path_13" data-name="Path 13" d="M1596.02,1460.66a3,3,0,0,1-3.14,2.85l-22.08-1.06a3,3,0,1,1,.28-5.99l22.09,1.06A3,3,0,0,1,1596.02,1460.66Z" transform="translate(-238.047 -343.219)" fill="#008fb4" fill-rule="evenodd"/>
      <path id="Path_14" data-name="Path 14" d="M1665.21,1558.03a3,3,0,0,1,3,3v83.81a3,3,0,0,1-6,0v-83.81A3,3,0,0,1,1665.21,1558.03Z" transform="translate(-238.047 -343.219)" fill="#008fb4" fill-rule="evenodd"/>
      <path id="Path_15" data-name="Path 15" d="M1665.2,1583.98a3.013,3.013,0,0,1,2.22.98l44.48,48.54a3,3,0,0,1-4.42,4.06l-42.28-46.14-42.27,46.14a3,3,0,0,1-4.42-4.06l44.48-48.54A3.008,3.008,0,0,1,1665.2,1583.98Z" transform="translate(-238.047 -343.219)" fill="#008fb4" fill-rule="evenodd"/>
      <path id="Path_16" data-name="Path 16" d="M1665.21,1618.89a3.03,3.03,0,0,1,2.22.98l18.53,20.4a3,3,0,1,1-4.45,4.03l-16.3-17.95-16.31,17.95a3,3,0,1,1-4.44-4.03l18.53-20.4A3.013,3.013,0,0,1,1665.21,1618.89Z" transform="translate(-238.047 -343.219)" fill="#008fb4" fill-rule="evenodd"/>
      <path id="Path_17" data-name="Path 17" d="M1634.68,1527.52a3,3,0,0,1-3,3h-83.81a3,3,0,0,1,0-6h83.81A3,3,0,0,1,1634.68,1527.52Z" transform="translate(-238.047 -343.219)" fill="#008fb4" fill-rule="evenodd"/>
      <path id="Path_18" data-name="Path 18" d="M1608.73,1527.52a3,3,0,0,1-.97,2.21l-48.55,44.49a3,3,0,1,1-4.05-4.43l46.13-42.27-46.13-42.28a3,3,0,1,1,4.05-4.42l48.55,44.49A2.982,2.982,0,0,1,1608.73,1527.52Z" transform="translate(-238.047 -343.219)" fill="#008fb4" fill-rule="evenodd"/>
      <path id="Path_19" data-name="Path 19" d="M1573.82,1527.51a3.013,3.013,0,0,1-.98,2.22l-20.4,18.53a3,3,0,1,1-4.03-4.44l17.95-16.31-17.95-16.3a3,3,0,1,1,4.03-4.45l20.4,18.53A3.029,3.029,0,0,1,1573.82,1527.51Z" transform="translate(-238.047 -343.219)" fill="#008fb4" fill-rule="evenodd"/>
      <path id="Path_20" data-name="Path 20" d="M1684.3,1551.57a3,3,0,0,1,4.24,0l59.26,59.27a3,3,0,0,1-4.24,4.24l-59.26-59.26A3.012,3.012,0,0,1,1684.3,1551.57Z" transform="translate(-238.047 -343.219)" fill="#008fb4" fill-rule="evenodd"/>
      <path id="Path_21" data-name="Path 21" d="M1707.35,1571.89a3,3,0,0,1,3.13,2.86l2.64,60.47a3,3,0,0,1-6,.26l-2.63-60.46A2.991,2.991,0,0,1,1707.35,1571.89Z" transform="translate(-238.047 -343.219)" fill="#008fb4" fill-rule="evenodd"/>
      <path id="Path_22" data-name="Path 22" d="M1732.08,1597.13a3,3,0,0,1,3.14,2.85l1.04,21.65a3,3,0,1,1-6,.28l-1.04-21.64A3.005,3.005,0,0,1,1732.08,1597.13Z" transform="translate(-238.047 -343.219)" fill="#008fb4" fill-rule="evenodd"/>
      <path id="Path_23" data-name="Path 23" d="M1721.92,1427.6a18.75,18.75,0,0,0-18.75,18.75v158.02a33.114,33.114,0,1,0,43.97,5.86,33.1,33.1,0,0,0-6.48-5.86V1446.35A18.748,18.748,0,0,0,1721.92,1427.6Z" transform="translate(-238.047 -343.219)" fill="#fff" fill-rule="evenodd"/>
      <path id="Path_24" data-name="Path 24" d="M1699.17,1446.35a22.745,22.745,0,1,1,45.49,0v156a36.393,36.393,0,0,1,2.97,2.56c.9.87,1.75,1.78,2.56,2.73a37.087,37.087,0,1,1-51.02-5.29Zm4,158.02V1446.35a18.745,18.745,0,1,1,37.49,0v158.02a33.085,33.085,0,1,1-37.49,0Z" transform="translate(-238.047 -343.219)" fill="#fff" fill-rule="evenodd"/>
      <path id="Path_25" data-name="Path 25" d="M1722.13,1427.6a18.75,18.75,0,0,0-18.75,18.75v158.02a33.141,33.141,0,1,0,43.97,5.86,33.36,33.36,0,0,0-6.47-5.86V1446.35A18.757,18.757,0,0,0,1722.13,1427.6Z" transform="translate(-238.047 -343.219)" fill="#fff" fill-rule="evenodd"/>
      <path id="Path_26" data-name="Path 26" d="M1707.38,1606.47l-1.73,1.2a29.169,29.169,0,1,0,36.64,3.01,28.738,28.738,0,0,0-3.68-3.01l-1.73-1.2V1446.35a14.75,14.75,0,0,0-29.5,0Zm-4-160.12a18.75,18.75,0,0,1,37.5,0v158.02a33.407,33.407,0,0,1,12.03,15.1,33.094,33.094,0,1,1-49.53-15.1Z" transform="translate(-238.047 -343.219)" fill="#002a4e" fill-rule="evenodd"/>
      <path id="Path_27" data-name="Path 27" d="M1722.13,1444.35a2.006,2.006,0,0,1,2,2v180.88a2,2,0,0,1-4,0V1446.35A2,2,0,0,1,1722.13,1444.35Z" transform="translate(-238.047 -343.219)" fill="#002a4e" fill-rule="evenodd"/>
      <path id="Path_28" data-name="Path 28" d="M1722.13,1633.35a1.72,1.72,0,1,0-1.72-1.72A1.72,1.72,0,0,0,1722.13,1633.35Zm0,6a7.72,7.72,0,1,0-7.72-7.72A7.718,7.718,0,0,0,1722.13,1639.35Z" transform="translate(-238.047 -343.219)" fill="#002a4e" fill-rule="evenodd"/>
      <path id="Path_29" data-name="Path 29" d="M1730.05,1589.73a2,2,0,0,1,2-2h4.41a2,2,0,0,1,0,4h-4.41A2.006,2.006,0,0,1,1730.05,1589.73Z" transform="translate(-238.047 -343.219)" fill="#002a4e" fill-rule="evenodd"/>
      <path id="Path_30" data-name="Path 30" d="M1730.05,1510.32a2.006,2.006,0,0,1,2-2h4.41a2,2,0,0,1,0,4h-4.41A2.006,2.006,0,0,1,1730.05,1510.32Z" transform="translate(-238.047 -343.219)" fill="#002a4e" fill-rule="evenodd"/>
      <path id="Path_31" data-name="Path 31" d="M1730.05,1550.02a2.006,2.006,0,0,1,2-2h4.41a2,2,0,0,1,0,4h-4.41A2,2,0,0,1,1730.05,1550.02Z" transform="translate(-238.047 -343.219)" fill="#002a4e" fill-rule="evenodd"/>
      <path id="Path_32" data-name="Path 32" d="M1730.05,1470.62a2,2,0,0,1,2-2h4.41a2,2,0,0,1,0,4h-4.41A2.006,2.006,0,0,1,1730.05,1470.62Z" transform="translate(-238.047 -343.219)" fill="#002a4e" fill-rule="evenodd"/>
      <path id="Path_33" data-name="Path 33" d="M1756.8,1448.39c7.01,1.31,19.24,1.82,20.82,1.82a3.865,3.865,0,1,0,0-7.72c-1.58,0-13.81.52-20.82,1.82-.49.09-.95.19-1.37.29-2.14.48-3.52,1.06-3.52,1.75s1.38,1.27,3.52,1.76C1755.85,1448.21,1756.31,1448.3,1756.8,1448.39Z" transform="translate(-238.047 -343.219)" fill="#002a4e" fill-rule="evenodd"/>
      <path id="Path_34" data-name="Path 34" d="M1748.09,1423.28c5.87-4.04,14.89-12.32,16.01-13.44a3.866,3.866,0,1,0-5.46-5.46c-1.12,1.12-9.41,10.13-13.44,16.01-.28.41-.53.8-.77,1.17-1.16,1.85-1.73,3.25-1.25,3.73s1.88-.08,3.74-1.24C1747.29,1423.81,1747.68,1423.55,1748.09,1423.28Z" transform="translate(-238.047 -343.219)" fill="#002a4e" fill-rule="evenodd"/>
      <path id="Path_35" data-name="Path 35" d="M1724.16,1411.68c1.31-7,1.83-19.23,1.83-20.82a3.865,3.865,0,1,0-7.72,0c0,1.59.51,13.82,1.82,20.82.09.49.18.95.28,1.38.49,2.13,1.07,3.52,1.76,3.52s1.27-1.39,1.75-3.52C1723.98,1412.63,1724.07,1412.17,1724.16,1411.68Z" transform="translate(-238.047 -343.219)" fill="#002a4e" fill-rule="evenodd"/>
      <path id="Path_36" data-name="Path 36" d="M1699.05,1420.39c-4.03-5.87-12.31-14.89-13.43-16.01a3.866,3.866,0,1,0-5.46,5.46c1.12,1.12,10.13,9.41,16.01,13.44.41.28.8.53,1.17.77,1.85,1.16,3.24,1.73,3.73,1.25s-.08-1.88-1.25-3.74C1699.59,1421.19,1699.33,1420.8,1699.05,1420.39Z" transform="translate(-238.047 -343.219)" fill="#002a4e" fill-rule="evenodd"/>
      <path id="Path_37" data-name="Path 37" d="M1687.46,1444.31c-7.01-1.3-19.24-1.82-20.83-1.82a3.865,3.865,0,1,0,0,7.72c1.59,0,13.82-.52,20.83-1.82.48-.09.94-.19,1.37-.28,2.13-.49,3.52-1.07,3.52-1.76s-1.39-1.27-3.52-1.76C1688.4,1444.5,1687.94,1444.4,1687.46,1444.31Z" transform="translate(-238.047 -343.219)" fill="#002a4e" fill-rule="evenodd"/>
    </g>
  </g>
</svg>
