<svg xmlns="http://www.w3.org/2000/svg" width="214" height="214" viewBox="0 0 214 214">
  <g id="Group_1" data-name="Group 1" transform="translate(-1186 -113.5)">
    <path id="Path_1" data-name="Path 1" d="M2021,679.719a107,107,0,1,1,107,107A107,107,0,0,1,2021,679.719Z" transform="translate(-835 -459.219)" fill="#f2f2f2"/>
    <path id="Path_2" data-name="Path 2" d="M2021,679.719a107,107,0,1,1,107,107A107,107,0,0,1,2021,679.719Z" transform="translate(-835 -459.219)" fill="#fff"/>
    <path id="Path_3" data-name="Path 3" d="M2158.78,724.735h-86.8a13.4,13.4,0,0,1-13.41-13.389V691.494a13.43,13.43,0,0,1,13.41-13.415h86.8a13.416,13.416,0,0,1,13.41,13.415v19.852a13.4,13.4,0,0,1-13.41,13.389Zm-86.8-44.091a10.883,10.883,0,0,0-10.85,10.85v19.852a10.856,10.856,0,0,0,10.85,10.825h86.8a10.824,10.824,0,0,0,7.67-3.162,10.857,10.857,0,0,0,3.18-7.663V691.494a10.854,10.854,0,0,0-10.85-10.85Z" transform="translate(-835 -459.219)" fill="#002a4e"/>
    <path id="Path_4" data-name="Path 4" d="M2144.47,715.6h-6.57a1.3,1.3,0,0,1-1.28-1.283,1.272,1.272,0,0,1,1.28-1.282h6.11l6.69-5.541a1.316,1.316,0,0,1,.82-.282h18.52a1.283,1.283,0,1,1,0,2.565h-18.06l-6.69,5.515A1.217,1.217,0,0,1,2144.47,715.6Z" transform="translate(-835 -459.219)" fill="#002a4e"/>
    <path id="Path_5" data-name="Path 5" d="M2132.08,715.6h-45.79a1.263,1.263,0,0,1-.82-.308l-6.67-5.515h-18.08a1.283,1.283,0,1,1,0-2.565h18.55a1.325,1.325,0,0,1,.79.282l6.69,5.541h45.33a1.268,1.268,0,0,1,.9.375,1.291,1.291,0,0,1,.38.907,1.3,1.3,0,0,1-1.28,1.283Z" transform="translate(-835 -459.219)" fill="#002a4e"/>
    <path id="Path_6" data-name="Path 6" d="M2160.78,699.907h-12.54a5.142,5.142,0,0,1-5.11-5.13v-3.9a5.142,5.142,0,0,1,5.11-5.13h12.54a5.156,5.156,0,0,1,5.13,5.13v3.9a5.156,5.156,0,0,1-5.13,5.13Zm-12.54-11.594a2.54,2.54,0,0,0-.98.2,2.58,2.58,0,0,0-.83.557,2.511,2.511,0,0,0-.54.832,2.54,2.54,0,0,0-.19.98v3.9a2.61,2.61,0,0,0,.73,1.812,2.594,2.594,0,0,0,.83.557,2.539,2.539,0,0,0,.98.2h12.54a2.579,2.579,0,0,0,2.57-2.565v-3.9a2.58,2.58,0,0,0-2.57-2.565Z" transform="translate(-835 -459.219)" fill="#002a4e"/>
    <path id="Path_7" data-name="Path 7" d="M2082.52,699.907h-12.54a5.125,5.125,0,0,1-5.1-5.13v-3.9a5.125,5.125,0,0,1,5.1-5.13h12.54a5.156,5.156,0,0,1,5.13,5.13v3.9a5.156,5.156,0,0,1-5.13,5.13Zm-12.54-11.594a2.578,2.578,0,0,0-.98.2,2.436,2.436,0,0,0-.82.557,2.391,2.391,0,0,0-.55.832,2.54,2.54,0,0,0-.19.98v3.9a2.535,2.535,0,0,0,.19.979,2.4,2.4,0,0,0,.55.833,2.448,2.448,0,0,0,.82.557,2.577,2.577,0,0,0,.98.2h12.54a2.562,2.562,0,0,0,2.57-2.565v-3.9a2.562,2.562,0,0,0-2.57-2.565Z" transform="translate(-835 -459.219)" fill="#002a4e"/>
    <path id="Path_8" data-name="Path 8" d="M2134.08,708.831h-37.4a3.776,3.776,0,0,1-3.61-2.463l-2.18-6.258a3.346,3.346,0,0,1,.46-3.155,3.82,3.82,0,0,1,1.38-1.179,3.859,3.859,0,0,1,1.77-.411h41.76a3.884,3.884,0,0,1,1.78.411,3.969,3.969,0,0,1,1.4,1.179,3.389,3.389,0,0,1,.6,1.524,3.472,3.472,0,0,1-.16,1.631l-2.18,6.258a3.876,3.876,0,0,1-1.42,1.8A3.818,3.818,0,0,1,2134.08,708.831Zm-39.58-10.9a1.27,1.27,0,0,0-.6.123,1.327,1.327,0,0,0-.48.39.921.921,0,0,0-.16.394.774.774,0,0,0,.04.426l2.2,6.233a1.269,1.269,0,0,0,.47.57,1.226,1.226,0,0,0,.71.2h37.4a1.247,1.247,0,0,0,.72-.2,1.172,1.172,0,0,0,.48-.573l2.18-6.233a.774.774,0,0,0,.04-.426.921.921,0,0,0-.16-.394,1.327,1.327,0,0,0-.48-.39,1.27,1.27,0,0,0-.6-.123Z" transform="translate(-835 -459.219)" fill="#002a4e"/>
    <path id="Path_9" data-name="Path 9" d="M2159.88,679.792a1.272,1.272,0,0,1-.83-.29,1.238,1.238,0,0,1-.45-.761c-.03-.257-4.13-23.7-18.93-23.7h-48.58c-14.83,0-18.88,23.443-18.93,23.7a1.313,1.313,0,0,1-.18.469,1.306,1.306,0,0,1-.81.569,1.252,1.252,0,0,1-.5.013,1.293,1.293,0,0,1-.47-.18,1.329,1.329,0,0,1-.36-.346,1.3,1.3,0,0,1-.21-.459,1.416,1.416,0,0,1-.01-.5,51.843,51.843,0,0,1,4.18-12.722c4.21-8.593,10.18-13.107,17.29-13.107h48.58c7.1,0,13.08,4.514,17.29,13.107a52.269,52.269,0,0,1,4.18,12.722,1.305,1.305,0,0,1-.23.957,1.287,1.287,0,0,1-.82.53Z" transform="translate(-835 -459.219)" fill="#002a4e"/>
    <path id="Path_10" data-name="Path 10" d="M2171.81,682.358a1.318,1.318,0,0,1-.9-.359,1.363,1.363,0,0,1-.29-.413,1.379,1.379,0,0,1-.1-.492,1.393,1.393,0,0,1,.09-.495,1.366,1.366,0,0,1,.27-.421,4.3,4.3,0,0,0,1.26-3.078,4.408,4.408,0,0,0-4.38-4.386h-5.21a1.283,1.283,0,1,1,0-2.565h5.21a6.977,6.977,0,0,1,4.97,11.824A1.3,1.3,0,0,1,2171.81,682.358Z" transform="translate(-835 -459.219)" fill="#002a4e"/>
    <path id="Path_11" data-name="Path 11" d="M2058.95,682.358a1.283,1.283,0,0,1-.49-.1,1.343,1.343,0,0,1-.41-.284,6.954,6.954,0,0,1,4.95-11.824h5.21a1.283,1.283,0,1,1,0,2.565H2063a4.408,4.408,0,0,0-4.38,4.386,4.134,4.134,0,0,0,.32,1.664,4.248,4.248,0,0,0,.93,1.414,1.293,1.293,0,0,1,.35.659,1.278,1.278,0,0,1-.56,1.31A1.275,1.275,0,0,1,2058.95,682.358Z" transform="translate(-835 -459.219)" fill="#002a4e"/>
    <path id="Path_12" data-name="Path 12" d="M2166.88,731.787h-10.8a5.3,5.3,0,0,1-3.75-1.555,5.4,5.4,0,0,1-1.15-1.723,5.242,5.242,0,0,1-.4-2.031v-2.642a1.273,1.273,0,0,1,1.28-1.283,1.264,1.264,0,0,1,.9.376,1.289,1.289,0,0,1,.38.907v2.642a2.7,2.7,0,0,0,.21,1.05,2.716,2.716,0,0,0,1.48,1.485,2.77,2.77,0,0,0,1.05.209h10.8a2.731,2.731,0,0,0,1.05-.209,2.622,2.622,0,0,0,.89-.595,2.727,2.727,0,0,0,.81-1.94V712.063a1.274,1.274,0,0,1,.38-.9,1.309,1.309,0,0,1,.9-.383,1.273,1.273,0,0,1,1.28,1.283v14.415a5.3,5.3,0,0,1-5.31,5.309Z" transform="translate(-835 -459.219)" fill="#002a4e"/>
    <path id="Path_13" data-name="Path 13" d="M2074.67,731.787h-10.79a5.305,5.305,0,0,1-4.91-3.278,5.242,5.242,0,0,1-.4-2.031V712.063a1.28,1.28,0,1,1,2.56,0v14.415a2.755,2.755,0,0,0,2.75,2.744h10.79a2.732,2.732,0,0,0,1.05-.209,2.765,2.765,0,0,0,.9-.595,2.843,2.843,0,0,0,.59-.89,2.7,2.7,0,0,0,.21-1.05v-2.642a1.3,1.3,0,0,1,1.28-1.283,1.273,1.273,0,0,1,1.28,1.283v2.642a5.242,5.242,0,0,1-.4,2.031,5.4,5.4,0,0,1-1.15,1.723,5.3,5.3,0,0,1-3.76,1.555Z" transform="translate(-835 -459.219)" fill="#002a4e"/>
    <path id="Path_14" data-name="Path 14" d="M2128.62,644.167h-5.29a1.265,1.265,0,0,1-.9-.376,1.248,1.248,0,0,1-.38-.907V628.931a1.249,1.249,0,0,1,.38-.907,1.269,1.269,0,0,1,.9-.376h5.29a8.259,8.259,0,0,1,0,16.519Zm-4.01-2.565h4.01a5.694,5.694,0,0,0,0-11.389h-4.01Z" transform="translate(-835 -459.219)" fill="#002a4e"/>
    <path id="Path_15" data-name="Path 15" d="M2122.41,641.623h-3.75a1.309,1.309,0,0,1-.91-.375,1.281,1.281,0,0,1-.37-.907v-1.462a1.239,1.239,0,0,1,.1-.5,1.207,1.207,0,0,1,.28-.422,1.3,1.3,0,0,1,.9-.359h3.75a1.279,1.279,0,0,1,.9.392,1.315,1.315,0,0,1,.38.916,1.415,1.415,0,0,1-.23.719,1.256,1.256,0,0,1-.16,1.634A1.274,1.274,0,0,1,2122.41,641.623Z" transform="translate(-835 -459.219)" fill="#002a4e"/>
    <path id="Path_16" data-name="Path 16" d="M2122.41,634.236h-3.75a1.309,1.309,0,0,1-.91-.375,1.281,1.281,0,0,1-.37-.907v-1.462a1.3,1.3,0,0,1,1.28-1.283h3.75a1.258,1.258,0,0,1,.9.376,1.215,1.215,0,0,1,.28.416,1.2,1.2,0,0,1,.1.491,1.4,1.4,0,0,1-.23.718,1.319,1.319,0,0,1,.23.744,1.2,1.2,0,0,1-.1.491,1.216,1.216,0,0,1-.28.416,1.252,1.252,0,0,1-.9.375Z" transform="translate(-835 -459.219)" fill="#002a4e"/>
    <path id="Path_17" data-name="Path 17" d="M2176.22,692.055a1.283,1.283,0,1,1,0-2.565c6.72,0,12.23-2.411,15.98-6.951,3.33-4.078,5.18-9.772,5.18-16.031a32.488,32.488,0,0,0-6.8-20.006,24.211,24.211,0,0,0-19.49-9.311h-34.45a1.3,1.3,0,0,1-.91-.376,1.3,1.3,0,0,1,0-1.813,1.305,1.305,0,0,1,.91-.376h34.45a26.783,26.783,0,0,1,21.49,10.26,35.163,35.163,0,0,1,7.36,21.622c0,6.849-2.05,13.133-5.77,17.673C2189.92,689.336,2183.71,692.055,2176.22,692.055Z" transform="translate(-835 -459.219)" fill="#002a4e"/>
    <path id="Path_18" data-name="Path 18" d="M2021,679.719a107,107,0,1,1,107,107A107,107,0,0,1,2021,679.719Z" transform="translate(-835 -459.219)" fill="#012a4e"/>
    <path id="Path_20" data-name="Path 20" d="M2158.78,724.735h-86.8a13.4,13.4,0,0,1-13.41-13.389V691.494a13.43,13.43,0,0,1,13.41-13.415h86.8a13.416,13.416,0,0,1,13.41,13.415v19.852a13.4,13.4,0,0,1-13.41,13.389Zm-86.8-44.091a10.883,10.883,0,0,0-10.85,10.85v19.852a10.856,10.856,0,0,0,10.85,10.825h86.8a10.824,10.824,0,0,0,7.67-3.162,10.857,10.857,0,0,0,3.18-7.663V691.494a10.854,10.854,0,0,0-10.85-10.85Z" transform="translate(-835 -459.219)" fill="#fff"/>
    <path id="Path_21" data-name="Path 21" d="M2144.47,715.6h-6.57a1.3,1.3,0,0,1-1.28-1.283,1.272,1.272,0,0,1,1.28-1.282h6.11l6.69-5.541a1.316,1.316,0,0,1,.82-.282h18.52a1.283,1.283,0,1,1,0,2.565h-18.06l-6.69,5.515A1.217,1.217,0,0,1,2144.47,715.6Z" transform="translate(-835 -459.219)" fill="#fff"/>
    <path id="Path_22" data-name="Path 22" d="M2132.08,715.6h-45.79a1.263,1.263,0,0,1-.82-.308l-6.67-5.515h-18.08a1.283,1.283,0,1,1,0-2.565h18.55a1.325,1.325,0,0,1,.79.282l6.69,5.541h45.33a1.268,1.268,0,0,1,.9.375,1.291,1.291,0,0,1,.38.907,1.3,1.3,0,0,1-1.28,1.283Z" transform="translate(-835 -459.219)" fill="#fff"/>
    <path id="Path_23" data-name="Path 23" d="M2160.78,699.907h-12.54a5.142,5.142,0,0,1-5.11-5.13v-3.9a5.142,5.142,0,0,1,5.11-5.13h12.54a5.156,5.156,0,0,1,5.13,5.13v3.9a5.156,5.156,0,0,1-5.13,5.13Zm-12.54-11.594a2.54,2.54,0,0,0-.98.2,2.58,2.58,0,0,0-.83.557,2.511,2.511,0,0,0-.54.832,2.54,2.54,0,0,0-.19.98v3.9a2.61,2.61,0,0,0,.73,1.812,2.594,2.594,0,0,0,.83.557,2.539,2.539,0,0,0,.98.2h12.54a2.579,2.579,0,0,0,2.57-2.565v-3.9a2.58,2.58,0,0,0-2.57-2.565Z" transform="translate(-835 -459.219)" fill="#fff"/>
    <path id="Path_24" data-name="Path 24" d="M2082.52,699.907h-12.54a5.125,5.125,0,0,1-5.1-5.13v-3.9a5.125,5.125,0,0,1,5.1-5.13h12.54a5.156,5.156,0,0,1,5.13,5.13v3.9a5.156,5.156,0,0,1-5.13,5.13Zm-12.54-11.594a2.578,2.578,0,0,0-.98.2,2.436,2.436,0,0,0-.82.557,2.391,2.391,0,0,0-.55.832,2.54,2.54,0,0,0-.19.98v3.9a2.535,2.535,0,0,0,.19.979,2.4,2.4,0,0,0,.55.833,2.448,2.448,0,0,0,.82.557,2.577,2.577,0,0,0,.98.2h12.54a2.562,2.562,0,0,0,2.57-2.565v-3.9a2.562,2.562,0,0,0-2.57-2.565Z" transform="translate(-835 -459.219)" fill="#fff"/>
    <path id="Path_25" data-name="Path 25" d="M2134.08,708.831h-37.4a3.776,3.776,0,0,1-3.61-2.463l-2.18-6.258a3.346,3.346,0,0,1,.46-3.155,3.82,3.82,0,0,1,1.38-1.179,3.859,3.859,0,0,1,1.77-.411h41.76a3.884,3.884,0,0,1,1.78.411,3.969,3.969,0,0,1,1.4,1.179,3.389,3.389,0,0,1,.6,1.524,3.472,3.472,0,0,1-.16,1.631l-2.18,6.258a3.876,3.876,0,0,1-1.42,1.8A3.818,3.818,0,0,1,2134.08,708.831Zm-39.58-10.9a1.27,1.27,0,0,0-.6.123,1.327,1.327,0,0,0-.48.39.921.921,0,0,0-.16.394.774.774,0,0,0,.04.426l2.2,6.233a1.269,1.269,0,0,0,.47.57,1.226,1.226,0,0,0,.71.2h37.4a1.247,1.247,0,0,0,.72-.2,1.172,1.172,0,0,0,.48-.573l2.18-6.233a.774.774,0,0,0,.04-.426.921.921,0,0,0-.16-.394,1.327,1.327,0,0,0-.48-.39,1.27,1.27,0,0,0-.6-.123Z" transform="translate(-835 -459.219)" fill="#fff"/>
    <path id="Path_26" data-name="Path 26" d="M2159.88,679.792a1.272,1.272,0,0,1-.83-.29,1.238,1.238,0,0,1-.45-.761c-.03-.257-4.13-23.7-18.93-23.7h-48.58c-14.83,0-18.88,23.443-18.93,23.7a1.313,1.313,0,0,1-.18.469,1.306,1.306,0,0,1-.81.569,1.252,1.252,0,0,1-.5.013,1.293,1.293,0,0,1-.47-.18,1.329,1.329,0,0,1-.36-.346,1.3,1.3,0,0,1-.21-.459,1.416,1.416,0,0,1-.01-.5,51.843,51.843,0,0,1,4.18-12.722c4.21-8.593,10.18-13.107,17.29-13.107h48.58c7.1,0,13.08,4.514,17.29,13.107a52.269,52.269,0,0,1,4.18,12.722,1.305,1.305,0,0,1-.23.957,1.287,1.287,0,0,1-.82.53Z" transform="translate(-835 -459.219)" fill="#fff"/>
    <path id="Path_27" data-name="Path 27" d="M2171.81,682.358a1.318,1.318,0,0,1-.9-.359,1.363,1.363,0,0,1-.29-.413,1.379,1.379,0,0,1-.1-.492,1.393,1.393,0,0,1,.09-.495,1.366,1.366,0,0,1,.27-.421,4.3,4.3,0,0,0,1.26-3.078,4.408,4.408,0,0,0-4.38-4.386h-5.21a1.283,1.283,0,1,1,0-2.565h5.21a6.977,6.977,0,0,1,4.97,11.824A1.3,1.3,0,0,1,2171.81,682.358Z" transform="translate(-835 -459.219)" fill="#fff"/>
    <path id="Path_28" data-name="Path 28" d="M2058.95,682.358a1.283,1.283,0,0,1-.49-.1,1.343,1.343,0,0,1-.41-.284,6.954,6.954,0,0,1,4.95-11.824h5.21a1.283,1.283,0,1,1,0,2.565H2063a4.408,4.408,0,0,0-4.38,4.386,4.134,4.134,0,0,0,.32,1.664,4.248,4.248,0,0,0,.93,1.414,1.293,1.293,0,0,1,.35.659,1.278,1.278,0,0,1-.56,1.31A1.275,1.275,0,0,1,2058.95,682.358Z" transform="translate(-835 -459.219)" fill="#fff"/>
    <path id="Path_29" data-name="Path 29" d="M2166.88,731.787h-10.8a5.3,5.3,0,0,1-3.75-1.555,5.4,5.4,0,0,1-1.15-1.723,5.242,5.242,0,0,1-.4-2.031v-2.642a1.273,1.273,0,0,1,1.28-1.283,1.264,1.264,0,0,1,.9.376,1.289,1.289,0,0,1,.38.907v2.642a2.7,2.7,0,0,0,.21,1.05,2.716,2.716,0,0,0,1.48,1.485,2.77,2.77,0,0,0,1.05.209h10.8a2.731,2.731,0,0,0,1.05-.209,2.622,2.622,0,0,0,.89-.595,2.727,2.727,0,0,0,.81-1.94V712.063a1.274,1.274,0,0,1,.38-.9,1.309,1.309,0,0,1,.9-.383,1.273,1.273,0,0,1,1.28,1.283v14.415a5.3,5.3,0,0,1-5.31,5.309Z" transform="translate(-835 -459.219)" fill="#fff"/>
    <path id="Path_30" data-name="Path 30" d="M2074.67,731.787h-10.79a5.305,5.305,0,0,1-4.91-3.278,5.242,5.242,0,0,1-.4-2.031V712.063a1.28,1.28,0,1,1,2.56,0v14.415a2.755,2.755,0,0,0,2.75,2.744h10.79a2.732,2.732,0,0,0,1.05-.209,2.765,2.765,0,0,0,.9-.595,2.843,2.843,0,0,0,.59-.89,2.7,2.7,0,0,0,.21-1.05v-2.642a1.3,1.3,0,0,1,1.28-1.283,1.273,1.273,0,0,1,1.28,1.283v2.642a5.242,5.242,0,0,1-.4,2.031,5.4,5.4,0,0,1-1.15,1.723,5.3,5.3,0,0,1-3.76,1.555Z" transform="translate(-835 -459.219)" fill="#fff"/>
    <path id="Path_31" data-name="Path 31" d="M2128.62,644.167h-5.29a1.265,1.265,0,0,1-.9-.376,1.248,1.248,0,0,1-.38-.907V628.931a1.249,1.249,0,0,1,.38-.907,1.269,1.269,0,0,1,.9-.376h5.29a8.259,8.259,0,0,1,0,16.519Zm-4.01-2.565h4.01a5.694,5.694,0,0,0,0-11.389h-4.01Z" transform="translate(-835 -459.219)" fill="#fff"/>
    <path id="Path_32" data-name="Path 32" d="M2122.41,641.623h-3.75a1.309,1.309,0,0,1-.91-.375,1.281,1.281,0,0,1-.37-.907v-1.462a1.239,1.239,0,0,1,.1-.5,1.207,1.207,0,0,1,.28-.422,1.3,1.3,0,0,1,.9-.359h3.75a1.279,1.279,0,0,1,.9.392,1.315,1.315,0,0,1,.38.916,1.415,1.415,0,0,1-.23.719,1.256,1.256,0,0,1-.16,1.634A1.274,1.274,0,0,1,2122.41,641.623Z" transform="translate(-835 -459.219)" fill="#fff"/>
    <path id="Path_33" data-name="Path 33" d="M2122.41,634.236h-3.75a1.309,1.309,0,0,1-.91-.375,1.281,1.281,0,0,1-.37-.907v-1.462a1.3,1.3,0,0,1,1.28-1.283h3.75a1.258,1.258,0,0,1,.9.376,1.215,1.215,0,0,1,.28.416,1.2,1.2,0,0,1,.1.491,1.4,1.4,0,0,1-.23.718,1.319,1.319,0,0,1,.23.744,1.2,1.2,0,0,1-.1.491,1.216,1.216,0,0,1-.28.416,1.252,1.252,0,0,1-.9.375Z" transform="translate(-835 -459.219)" fill="#fff"/>
    <path id="Path_34" data-name="Path 34" d="M2176.22,692.055a1.283,1.283,0,1,1,0-2.565c6.72,0,12.23-2.411,15.98-6.951,3.33-4.078,5.18-9.772,5.18-16.031a32.488,32.488,0,0,0-6.8-20.006,24.211,24.211,0,0,0-19.49-9.311h-34.45a1.3,1.3,0,0,1-.91-.376,1.3,1.3,0,0,1,0-1.813,1.305,1.305,0,0,1,.91-.376h34.45a26.783,26.783,0,0,1,21.49,10.26,35.163,35.163,0,0,1,7.36,21.622c0,6.849-2.05,13.133-5.77,17.673C2189.92,689.336,2183.71,692.055,2176.22,692.055Z" transform="translate(-835 -459.219)" fill="#fff"/>
  </g>
</svg>
