<svg version="1.1" id="Layer_1"
	xmlns="http://www.w3.org/2000/svg"
	xmlns:xlink="http://www.w3.org/1999/xlink" x="0px" y="0px" viewBox="0 0 26 26" style="enable-background:new 0 0 26 26;" xml:space="preserve">
	<path class="st0" d="M23.1,2.3c-2.4,0.4-4.5,0-6.6-0.3C13.3,1.5,9.9,0.9,5.9,3.5c-4.9,3.2-4.3,9.6-2.3,13.1c-1.5,3-2.3,6.1-2.5,8.4
	l2.5,0.2c0.4-4.8,3.6-14,12.4-14.9l-0.2-2.5c-4.9,0.5-8.2,3-10.5,6.2c-0.9-2.6-1.1-6.4,2.1-8.5c3.2-2.1,5.7-1.7,9-1.1
	c1.7,0.3,3.6,0.6,5.7,0.5C21,9.1,19.1,16.2,15,18.4c-1.8,0.9-3.9,0.8-6.4-0.4l-1.1,2.2c1.8,0.9,3.4,1.3,5,1.3c1.3,0,2.5-0.3,3.7-0.9
	c5.5-2.8,7.6-11.8,8.4-16.9L24.8,2L23.1,2.3z"/>
</svg>
