<svg version="1.1" id="Layer_1"
	xmlns="http://www.w3.org/2000/svg"
	xmlns:xlink="http://www.w3.org/1999/xlink" x="0px" y="0px" viewBox="0 0 26 26" style="enable-background:new 0 0 26 26;" xml:space="preserve">
	<g>
		<path class="st0" d="M5.1,15.6c0.3,0.9,0,1.4-0.1,1.6c-0.1,0.2-0.3,0.3-0.5,0.4c-0.1,0-0.3,0-0.9-0.8C3.4,16.6,3,16,3,15.5
		c-0.1-0.5-0.6-1.6-0.8-1.9c-0.1-0.1-0.1-0.2,0-0.3l0.7-0.9c0.1-0.1,0.3-0.1,0.4,0l0,0c0.2,0.2,0.9,0.4,1.3,0.4
		c0.1,0,0.2,0.1,0.2,0.1c0,0.1,0,0.2,0,0.3C4,14.5,5,15.5,5,15.5L5.1,15.6z"/>
		<path class="st0" d="M12.2,23.5c0.2,0.2,0.9,1,0.8,1.5c0,0.2-0.2,0.4-0.3,0.5c-0.1,0.1-0.2,0.1-0.4,0.1c-0.3,0-0.5-0.1-0.8-0.2
		c-0.2-0.1-0.4-0.2-0.6-0.3l-0.1,0l-0.6-0.6H9.9c-0.1,0-0.1,0-0.2-0.1L6.6,22c-0.1-0.1-0.1-0.2-0.1-0.3L7,20.5
		c0.1-0.1,0.2-0.2,0.3-0.1l1,0.3l1,0.2c0.1,0,0.1,0.1,0.2,0.1l1.4,1.9l0.9,0.1c0.1,0,0.1,0.1,0.2,0.1L12.2,23.5z"/>
		<path class="st0" d="M25.9,22.8c0,0.1-0.1,0.1-0.2,0.2c-2.5,0.5-5,0.7-7.6,0.8l-0.6,0c-0.7,0-1.4,0-2.2-0.1c-0.1,0-0.2-0.1-0.2-0.2
		l-0.5-1l-0.3,0.3c-0.1,0.1-0.2,0.1-0.3,0l-1.3-0.9c-0.1-0.1-0.2-0.2-0.1-0.3l0.2-0.6l-0.5-0.4L11,20.6c-0.1,0-0.2-0.1-0.3-0.2
		c-0.4-0.7-1.3-0.9-1.4-0.9c-0.1,0-0.2-0.1-0.2-0.3v-0.7l-0.3-0.3c-0.1-0.1-0.1-0.1-0.1-0.2L9,16.9c-0.4-0.2-0.9-0.3-1.3-0.3
		c-0.1,0-0.2,0-0.2-0.1c-0.1-0.1-0.1-0.1-0.1-0.2l0.1-1c-0.3,0-0.7-0.1-0.9-0.4c-0.2-0.2-0.3-0.5-0.3-0.8l-0.2-0.2
		C6,13.9,6,13.8,6,13.7c0-0.1,0-0.1,0-0.2L6.4,13l-0.2-0.2c-0.1-0.1-0.1-0.3,0-0.4c0,0,0,0,0,0l0.8-0.7L7.3,10C7,9.6,6,9.2,5.4,9.1
		C5.3,9,5.3,9,5.2,8.9L4.7,8.1C4.6,8,4.6,7.8,4.7,7.7l0.5-0.6C5.1,6.6,4.9,6.1,4.8,5.5c-0.3-0.9-0.7-2-1.7-2.2
		C2.5,3.3,1.9,3.5,1.6,4C1.5,4.1,1.4,4.1,1.3,4.1C1.2,4.1,1.1,4,1.1,3.9L0.1,0.8c0-0.1,0-0.2,0.1-0.3c0.1-0.1,0.2-0.1,0.3-0.1
		c6,1.9,17,2.1,17.1,2.1c0.1,0,0.3,0.1,0.3,0.3c0,0,0.1,2.8,0.2,5.5c0.1,2.8,0.2,5.6,0.2,5.8c0,0.5,0.3,0.6,0.6,0.9l0.2,0.2l0.1,0
		l0.2-0.1c0,0,0.1-0.1,0.1-0.1c0.2,0,0.3,0,0.5,0.1c0.4,0.3,0.7,1.2,0.7,1.6l1.7,0.9c0,0,0.1,0.1,0.1,0.1l0.9,1.5
		c0.3,0,0.8,0,1.4,0.4c0.3,0.2,0.4,0.7,0.5,1.1c0,0.1,0,0.2,0.1,0.4c0.1,0.4,0.3,0.8,0.6,1.2C25.9,22.6,25.9,22.7,25.9,22.8z"/>
	</g>
</svg>
