<svg version="1.1" id="Layer_1"
	xmlns="http://www.w3.org/2000/svg"
	xmlns:xlink="http://www.w3.org/1999/xlink" x="0px" y="0px" viewBox="0 0 26 26" style="enable-background:new 0 0 26 26;" xml:space="preserve">
	<g>
		<path d="M21.8,3h-1.2V1.8c0-0.7-0.6-1.2-1.2-1.2c-0.7,0-1.2,0.6-1.2,1.2V3H8V1.8c0-0.7-0.6-1.2-1.2-1.2c-0.6,0-1.3,0.5-1.3,1.2V3
		H4.2c-2,0-3.7,1.7-3.7,3.8v15c0,2.1,1.7,3.8,3.8,3.8h17.5c2.1,0,3.8-1.7,3.8-3.8v-15C25.5,4.7,23.8,3,21.8,3z M8,23H4.2
		C3.6,23,3,22.4,3,21.8v-2.5h5V23z M8,16.8H3V13h5V16.8z M15.5,23h-5v-3.8h5V23z M15.5,16.8h-5V13h5V16.8z M23,21.8
		c0,0.7-0.6,1.2-1.2,1.2H18v-3.8h5V21.8z M23,16.8h-5V13h5V16.8z M22.8,10.5H3V6.8c0-0.7,0.6-1.2,1.2-1.2h1.2v1.2
		C5.5,7.4,6.1,8,6.8,8S8,7.4,8,6.8V5.5h10v1.2C18,7.4,18.6,8,19.2,8c0.7,0,1.2-0.6,1.2-1.2V5.5h1.2c0.7,0,1.2,0.6,1.2,1.2V10.5H23
		H22.8z"/>
	</g>
</svg>
