<svg version="1.1" id="Layer_1"
	xmlns="http://www.w3.org/2000/svg"
	xmlns:xlink="http://www.w3.org/1999/xlink" x="0px" y="0px" viewBox="0 0 26 26" style="enable-background:new 0 0 26 26;" xml:space="preserve">
	<g>
		<path class="st0" d="M24.6,4.6l-2.3-1c-2-0.8-4.2-0.8-6.2,0L13,4.9L9.9,3.6c-2-0.8-4.3-0.8-6.2,0l-2.3,1C0.9,4.8,0.6,5.3,0.6,5.8
		v15.3c0,0.2,0,0.3,0.1,0.5c0.2,0.6,1,1,1.6,0.7l1.4-0.6c2-0.8,4.2-0.8,6.2,0L13,23l3.1-1.3c2-0.8,4.2-0.8,6.2,0l1.4,0.6
		c0.2,0.1,0.3,0.1,0.5,0.1c0.6,0,1.2-0.6,1.2-1.3V5.8C25.4,5.3,25.1,4.8,24.6,4.6z M11.7,19.8l-0.9-0.4c-2.5-1-5.3-1.1-7.8-0.1V6.6
		l1.6-0.7c1.4-0.5,2.9-0.5,4.3,0l2.8,1.2V19.8z M23,19.3c-2.5-1-5.3-0.9-7.8,0.1l-0.9,0.4V7.1l2.8-1.2c1.4-0.5,2.9-0.5,4.3,0L23,6.6
		V19.3z"/>
	</g>
</svg>
