<svg version="1.1" id="Layer_1"
	xmlns="http://www.w3.org/2000/svg"
	xmlns:xlink="http://www.w3.org/1999/xlink" x="0px" y="0px" viewBox="0 0 26 26" style="enable-background:new 0 0 26 26;" xml:space="preserve">
	<g>
		<path d="M23.3,13.1l2.6-3.7l-4.5-0.3l-0.7-2.8l-2.8,2.3L19.2,3l-3.4,1.5l-2.2-3.9h-1.2l-2.2,3.9L6.8,3l1.3,5.6L5.3,6.3L4.6,9.1
		L0.1,9.4l2.6,3.7l-2.1,2.2l5.3,2.3l-1.1,2l7.3,1.7v4h2v-4l7.3-1.7l-1.1-2l5.3-2.3L23.3,13.1z M21.9,14.6l-4.7,2l0.9,1.6l-4.2,1
		v-1.9l4.6-3.9L14,15l-1-6.5L12,15l-4-1.1l4,3.4v1.9l-4.2-1l0.9-1.6l-4.7-2l1.2-1.3l-1.5-2.2L6.1,11l0.3-1.1l4.2,3.2l-1-6.6L11,7.1
		l2-3.4l2,3.4l1.3-0.6l-1.5,6.8l4.7-3.4l0.3,1.1l2.4,0.2l-1.5,2.2L21.9,14.6z"/>
	</g>
</svg>
