<svg version="1.1" id="Layer_1"
	xmlns="http://www.w3.org/2000/svg"
	xmlns:xlink="http://www.w3.org/1999/xlink" x="0px" y="0px" viewBox="0 0 26 26" style="enable-background:new 0 0 26 26;" xml:space="preserve">
	<g>
		<path class="st0" d="M12.8,4.3c3.9,0,7.2,2.9,7.8,6.7l-2.2-1.6L17.2,11l4.2,3l0.4,0.2l0.8-0.2l3.3-4.5l-1.6-1.2l-1.6,2.2
		c-0.7-4.7-4.8-8.4-9.8-8.4c-4.3,0-8.1,2.7-9.4,6.8l1.9,0.6C6.4,6.5,9.4,4.3,12.8,4.3z"/>
		<path class="st0" d="M13.2,21.7c-3.9,0-7.2-2.9-7.8-6.7l2.2,1.6L8.8,15l-4.2-3l-0.4-0.2l-0.8,0.2l-3.3,4.5l1.6,1.2l1.6-2.2
		c0.7,4.7,4.8,8.4,9.8,8.4c4.3,0,8.1-2.7,9.4-6.8l-1.9-0.6C19.6,19.5,16.6,21.7,13.2,21.7z"/>
	</g>
</svg>
