<svg version="1.1" id="Layer_1"
	xmlns="http://www.w3.org/2000/svg"
	xmlns:xlink="http://www.w3.org/1999/xlink" x="0px" y="0px" viewBox="0 0 36 26" style="enable-background:new 0 0 36 26;" xml:space="preserve">
	<g>
		<path class="st0" d="M34.9,12L34.9,12c-0.8-0.7-2-1.1-3.1-1.1c-1,0-2,0.3-3,0.6c-1.1-0.8-2.3-1.5-3.6-1.8c-1.3-0.3-2.7-0.5-4-0.5
		c-1.1,0-2.1,0.2-3.1,0.4c-1-0.3-2.1-0.4-3.1-0.4c-1.4,0-2.7,0.1-4.1,0.5c-1.3,0.4-2.5,0.9-3.6,1.8c-1-0.4-2-0.6-3-0.6
		c-1.2-0.1-2.3,0.3-3.1,1.1c-0.5,0.4-1.5,1.6-0.8,2.7c0.5,0.9,1.6,1.1,2.1,1.1c0.9,0,1.8-0.4,3-1.1c0.4-0.3,0.9-0.7,1.5-1.2
		c0.2-0.2,0.4-0.4,0.6-0.5c1,0.5,1.8,1.2,2.4,2l0.1,0.1h0c0.5,0.7,0.9,1.4,1.1,2.2c0.2,0.6,0.3,1.3,0.3,2c0,0.3,0,0.7-0.1,1
		c0,0.1-0.1,0.1-0.2,0.1c-0.3-0.2-0.7-0.7-1-1.1l-0.1-0.1c-0.1-0.1-0.1-0.2-0.3-0.4c-0.1-0.2-0.3-0.5-0.5-0.7l-0.1-0.1
		c-0.5-0.8-0.8-1.3-1.3-1.1c-0.3,0.1-0.5,0.4-0.4,0.8c0,0.1,0,0.3,0.1,0.6c0.1,0.6,0.3,1.8,0.1,2.2c0,0.1-0.1,0.1-0.1,0.1
		c0,0-0.2,0-0.4-0.2c-1-0.8-1.3-3.4-1.4-4.2c0-0.1,0-0.2-0.1-0.2c0-0.1-0.1-0.1-0.1-0.2c-0.1-0.1-0.1-0.1-0.2-0.1
		c-0.1,0-0.2,0-0.2,0c-0.1,0-0.2,0-0.2,0.1c-0.1,0-0.1,0.1-0.2,0.2c0,0.1-0.1,0.1-0.1,0.2c0,0.1,0,0.2,0,0.2c0.2,1.8,0.6,4,1.8,5
		C7,21.8,7.5,22,8,21.8c0.3-0.1,0.5-0.4,0.7-0.6l0-0.1c0.2-0.4,0.2-0.9,0.2-1.5c0,0,0,0,0,0.1l0.3,0.4c0.4,0.5,0.8,1.1,1.3,1.4
		l0.1,0h0c0.3,0.2,0.8,0.1,1.1,0c0.3-0.2,0.5-0.4,0.7-0.8l0-0.1c0.1-0.5,0.2-0.9,0.2-1.4c0-0.8-0.1-1.5-0.3-2.3l-0.1-0.2h0
		c-0.3-0.9-0.8-1.7-1.3-2.5c-0.6-0.9-1.4-1.6-2.4-2.1c0.8-0.6,1.7-1,2.7-1.3c1.2-0.3,2.5-0.5,3.7-0.4c0.6,0,1.1,0.1,1.7,0.1
		c-1,0.6-2,1.4-2.7,2.9c-0.1,0.2-0.2,0.5-0.3,0.7c-0.4,1.5-0.6,3-0.4,4.5c0.1,0.8,0.3,1.4,0.5,2c0.3,0.7,0.6,1.1,1.1,1.3l0.1,0.1
		c0.6,0.2,1.3-0.1,1.6-0.4c0.3-0.3,0.5-0.7,0.7-1.3l0.1-0.2c0.3-1,0.5-1.9,0.7-2.9c0-0.1,0-0.2,0-0.2c0,0.1,0,0.1,0,0.2
		c0.2,1,0.4,2,0.7,2.9c0.2,0.6,0.5,1.2,0.8,1.5c0.3,0.3,0.7,0.5,1.1,0.5c0.2,0,0.3,0,0.5-0.1l0.1-0.1c1.1-0.5,1.5-2.5,1.6-3.3
		c0.2-1.5,0.1-3.1-0.4-4.6c-0.1-0.2-0.2-0.5-0.3-0.7c-0.7-1.5-1.7-2.3-2.7-2.9c0.6-0.1,1.1-0.1,1.7-0.1c1.3,0,2.5,0.1,3.7,0.4
		c1,0.3,1.9,0.7,2.7,1.3c-0.9,0.5-1.7,1.3-2.4,2.1c-0.6,0.8-1.1,1.7-1.4,2.7c-0.2,0.7-0.3,1.5-0.3,2.3c0,0.5,0,0.9,0.2,1.4l0,0.1
		c0.1,0.3,0.4,0.6,0.7,0.7c0.3,0.2,0.8,0.2,1.1,0l0.1,0c0.5-0.3,0.9-0.9,1.3-1.4l0.3-0.4c0,0,0,0,0-0.1c0,0.6,0,1.1,0.2,1.5l0,0.1
		c0.2,0.3,0.4,0.5,0.7,0.6c0.3,0.1,0.8,0.2,1.5-0.4c1.2-1,1.6-3.2,1.8-5c0-0.1,0-0.2,0-0.2c0-0.1-0.1-0.1-0.1-0.2
		c0-0.1-0.1-0.1-0.2-0.1c-0.1,0-0.1-0.1-0.2-0.1c-0.1,0-0.2,0-0.2,0c-0.1,0-0.1,0.1-0.2,0.1c-0.1,0-0.1,0.1-0.2,0.2
		c0,0.1-0.1,0.1-0.1,0.2c-0.1,0.8-0.4,3.4-1.4,4.2c-0.2,0.2-0.3,0.2-0.3,0.2c-0.1,0-0.1-0.1-0.1-0.1c-0.2-0.5,0-1.6,0.1-2.3
		c0-0.2,0.1-0.4,0.1-0.5l-0.3,0l0.3-0.1c0.1-0.5-0.2-0.7-0.4-0.8c-0.5-0.1-0.8,0.3-1.4,1.2c-0.2,0.3-0.4,0.6-0.6,0.8
		c-0.1,0.1-0.2,0.3-0.3,0.5c-0.3,0.4-0.6,0.9-1,1c0,0-0.1-0.1-0.1-0.1c-0.1-0.3-0.1-0.7-0.1-1.1c0-0.7,0.1-1.3,0.3-2
		c0.2-0.8,0.6-1.5,1.1-2.2l0.1-0.1c0.6-0.9,1.5-1.6,2.4-2c0.2,0.2,0.4,0.3,0.6,0.5l0.1,0.1c0.5,0.4,1,0.9,1.4,1.1
		c1.2,0.7,2.1,1.1,3,1.1c0.5,0,1.6-0.2,2.1-1.1C36.3,13.6,35.3,12.5,34.9,12z M6.1,12.6c-0.5,0.4-1,0.8-1.3,1.1
		c-1,0.6-1.7,0.9-2.4,0.9c-0.2,0-0.8-0.1-1-0.5c-0.1-0.2,0.1-0.7,0.6-1.2c0.5-0.5,1.3-0.8,2.1-0.8l0.2,0c0.7,0,1.4,0.1,2,0.3
		L6.1,12.6z M21.2,14L21.2,14c0.1,0.2,0.2,0.4,0.2,0.5c0.4,1.3,0.5,2.7,0.3,4.1c-0.2,1.6-0.7,2.3-0.9,2.4l0,0
		c-0.4,0.1-0.7-0.6-0.9-1.2c-0.3-0.9-0.5-1.8-0.6-2.8c-0.2-1-0.4-1.7-1.2-1.7c-0.8,0-1,0.8-1.2,1.7c-0.1,0.9-0.4,1.9-0.6,2.8
		c-0.2,0.6-0.5,1.3-0.9,1.2l-0.1,0c-0.2-0.1-0.7-0.8-0.9-2.4c-0.2-1.4-0.1-2.7,0.3-4c0.1-0.2,0.1-0.4,0.2-0.5
		c0.8-1.5,1.9-2.2,2.9-2.8l0.3-0.2l0.3,0.2C19.3,11.8,20.4,12.5,21.2,14z M34.7,14.1c-0.2,0.4-0.8,0.5-1,0.5c-0.7,0-1.4-0.3-2.4-0.9
		c-0.3-0.2-0.8-0.6-1.3-1.1l-0.2-0.1c0.7-0.2,1.3-0.3,2-0.3c0.9-0.1,1.7,0.2,2.3,0.8C34.6,13.4,34.8,13.8,34.7,14.1z"/>
		<path class="st0" d="M29,10.1c0.4,0.3,0.9,0.4,1.4,0.4c0,0,0,0,0,0c0.4,0,0.8-0.1,1.2-0.3c0.4-0.2,0.7-0.5,0.9-0.8
		c0.2-0.3,0.4-0.7,0.4-1.1c0-0.4,0-0.8-0.2-1.2c-0.2-0.4-0.4-0.7-0.7-1c-0.3-0.3-0.7-0.4-1.1-0.5c-0.4-0.1-0.8-0.1-1.2,0.1
		c-0.4,0.1-0.8,0.3-1.1,0.6l-0.2,0.2v0c-0.3,0.3-0.5,0.8-0.5,1.2c-0.1,0.5,0,1,0.2,1.4C28.3,9.4,28.6,9.8,29,10.1z M29.1,7.5
		c0.1-0.2,0.2-0.3,0.3-0.4l0.1-0.1c0.2-0.2,0.5-0.3,0.8-0.3c0.4,0,0.7,0.1,1,0.4c0.3,0.3,0.4,0.6,0.4,1c0,0.2,0,0.3-0.1,0.5
		c-0.1,0.2-0.2,0.3-0.3,0.4c-0.1,0.1-0.3,0.2-0.4,0.3c-0.2,0.1-0.3,0.1-0.5,0.1c-0.2,0-0.4,0-0.5-0.1c-0.2-0.1-0.3-0.2-0.5-0.3
		c-0.1-0.1-0.2-0.3-0.3-0.5C29,8.3,28.9,8.2,29,8C29,7.8,29,7.6,29.1,7.5z"/>
		<path class="st0" d="M16.6,8.4C17,8.6,17.5,8.8,18,8.8c0.3,0,0.7-0.1,1-0.2c0.3-0.1,0.6-0.3,0.8-0.5c0.2-0.2,0.4-0.5,0.5-0.8
		c0.1-0.3,0.2-0.6,0.2-1c0-0.7-0.3-1.3-0.7-1.8C19.3,4,18.6,3.8,18,3.8c-0.6,0-1.3,0.3-1.8,0.7c-0.4,0.4-0.6,0.8-0.7,1.3
		c-0.1,0.5,0,1,0.1,1.4C15.8,7.7,16.1,8.1,16.6,8.4z M16.6,6c0.1-0.3,0.2-0.5,0.4-0.7c0.3-0.2,0.6-0.4,0.9-0.4c0.2,0,0.4,0,0.5,0.1
		c0.2,0.1,0.3,0.2,0.4,0.3c0.1,0.1,0.2,0.3,0.3,0.4c0.1,0.2,0.1,0.3,0.1,0.5c0,0.2,0,0.4-0.1,0.5C19.1,7,19,7.1,18.9,7.2
		c-0.3,0.3-0.6,0.4-1,0.4c-0.3,0-0.5-0.1-0.7-0.2C17,7.2,16.8,7,16.7,6.8C16.6,6.5,16.6,6.3,16.6,6z"/>
		<path class="st0" d="M5.5,10.5L5.5,10.5C5.6,10.5,5.6,10.5,5.5,10.5c0.5,0,1-0.1,1.4-0.4c0.4-0.3,0.7-0.7,0.9-1.1
		C8.1,8.5,8.1,8,8,7.5C7.9,7,7.7,6.5,7.3,6.2C6.8,5.7,6.2,5.4,5.5,5.4c0,0,0,0,0,0c-0.6,0-1.2,0.3-1.7,0.8C3.4,6.7,3.2,7.3,3.2,8
		s0.2,1.3,0.7,1.7C4.3,10.1,4.9,10.4,5.5,10.5z M4.2,7.7C4.3,7.4,4.4,7.2,4.6,7C4.7,6.9,4.9,6.8,5,6.7c0.2-0.1,0.3-0.1,0.5-0.1
		c0,0,0,0,0,0c0.3,0,0.7,0.1,0.9,0.4c0.2,0.2,0.3,0.4,0.4,0.7c0.1,0.3,0,0.5-0.1,0.8C6.7,8.7,6.5,8.9,6.3,9.1
		c-0.4,0.3-1.1,0.3-1.5,0C4.6,8.9,4.4,8.7,4.3,8.5C4.2,8.2,4.2,7.9,4.2,7.7z"/>
	</g>
</svg>
