<svg version="1.1" id="BC_ID"
	xmlns="http://www.w3.org/2000/svg"
	xmlns:xlink="http://www.w3.org/1999/xlink" x="0px" y="0px" viewBox="0 0 707.2 186.6" style="enable-background:new 0 0 707.2 186.6;" xml:space="preserve">
	<style type="text/css">
	.st0{fill:transparent;}
	.st1{fill:#E3A82B;}
	.st2{fill:#65799E;}
	.st3{fill:#111111;}
	</style>
	<g>
		<path class="st0" d="M39.4,156.1c44.7,0,106.5,25.2,151.4,25.2c32,0,63.3-8.5,81-21.1c1.2-7.4,1.9-15,1.9-22.7
		c0-75.1-60.9-136-136-136c-75.1,0-136,60.9-136,136c0,7.7,0.6,15.2,1.9,22.5C8.4,159,25.1,156.1,39.4,156.1z"/>
		<g>
			<g>
				<rect x="345.2" y="182.8" class="st1" width="314.7" height="3.8"/>
				<path class="st3" d="M353.2,46.5c0-6.4-0.5-8.1-4.8-8.4l-3-0.2c-0.5-0.4-0.4-2.1,0.1-2.2c5.2-0.5,11.7-0.7,20.6-0.7
				c6,0,11.8,0.4,16.1,2.4c4.1,1.8,7.3,5.3,7.3,10.8c0,6.2-4,9.4-9.8,11.8c0,0.9,0.8,1.1,1.8,1.3c5.2,0.9,12.8,5.2,12.8,14.4
				c0,10-8.2,16.7-25.5,16.7c-2.8,0-7.5-0.3-11.5-0.3c-4.2,0-7.5,0.2-11,0.3c-0.6-0.3-0.8-1.6-0.2-2.2l1.7-0.3
				c5.1-0.8,5.3-1.7,5.3-10.8V46.5z M361.1,57.9c0,2.4,0.1,2.6,5,2.4c9.8-0.3,15-2.9,15-11c0-8.5-7-11.7-14.3-11.7
				c-2.1,0-3.5,0.2-4.4,0.5c-1,0.3-1.3,0.7-1.3,2.2V57.9z M361.1,78c0,3.1,0.2,7.5,2,9.4c1.8,2,4.7,2.4,7.6,2.4
				c8.5,0,15-3.5,15-12.1c0-6.8-3.8-14.8-19.1-14.8c-5.2,0-5.6,0.5-5.6,2.2V78z"/>
				<path class="st3" d="M461,55c0-7.8-0.2-9.1-5-9.4l-2-0.1c-0.5-0.3-0.3-1.6,0.2-1.8c4.1,0.1,6.9,0.2,10.3,0.2
				c3.3,0,6.1-0.1,10.1-0.2c0.5,0.2,0.7,1.5,0.2,1.8l-2,0.1c-4.8,0.4-5,1.6-5,9.4v26.2c0,7.8,0.2,8.8,5,9.4l2,0.2
				c0.5,0.3,0.3,1.6-0.2,1.8c-4.1-0.1-6.9-0.2-10.1-0.2c-3.4,0-6.2,0.1-10.3,0.2c-0.5-0.2-0.7-1.4-0.2-1.8l2-0.2
				c4.8-0.5,5-1.5,5-9.4V55z"/>
				<path class="st3" d="M506.4,81.4c0,7.7,0.2,8.8,4.6,9.2l2.5,0.2c0.5,0.3,0.3,1.6-0.2,1.8c-4.4-0.1-7-0.2-10-0.2
				c-3.1,0-5.8,0.1-10.7,0.2c-0.5-0.2-0.6-1.5,0-1.8l2.8-0.2c4.4-0.4,4.8-1.5,4.8-9.2v-33c0-2.3,0-2.4-2.3-2.4h-4.2
				c-3.3,0-7.5,0.1-9.4,1.8c-1.8,1.6-2.6,3.2-3.4,5.1c-0.6,0.4-1.7,0.1-2-0.5c1.2-3.3,2.4-8,2.9-11c0.2-0.1,1.2-0.2,1.5,0
				c0.5,2.4,3,2.3,6.5,2.3h31.1c4.1,0,4.8-0.1,6-2.1c0.4-0.1,1.2-0.1,1.4,0.2c-0.8,3-1.4,9-1.2,11.2c-0.3,0.6-1.6,0.6-2,0.1
				c-0.2-1.8-0.8-4.6-1.9-5.4c-1.8-1.3-4.7-1.8-8.9-1.8h-5.4c-2.3,0-2.2,0.1-2.2,2.5V81.4z"/>
				<path class="st3" d="M539.3,55c0-7.8-0.2-9.1-5-9.4l-2-0.1c-0.5-0.3-0.3-1.6,0.2-1.8c4.1,0.1,6.9,0.2,10.3,0.2
				c3.3,0,6.1-0.1,10.1-0.2c0.5,0.2,0.7,1.5,0.2,1.8l-2,0.1c-4.8,0.4-5,1.6-5,9.4v26.2c0,7.8,0.2,8.8,5,9.4l2,0.2
				c0.5,0.3,0.3,1.6-0.2,1.8c-4.1-0.1-6.9-0.2-10.1-0.2c-3.4,0-6.2,0.1-10.3,0.2c-0.5-0.2-0.7-1.4-0.2-1.8l2-0.2
				c4.8-0.5,5-1.5,5-9.4V55z"/>
				<path class="st3" d="M576,93.4c-7.3,0-11.9-1.9-13.6-2.7c-1-1.6-2.2-6.9-2.3-10.3c0.4-0.5,1.7-0.7,2.1-0.2c1.3,3.8,4.9,11,15,11
				c7.3,0,10.9-4.1,10.9-8.5c0-3.2-0.8-6.9-7.1-10.3l-8.3-4.6c-4.3-2.4-9.4-6.6-9.4-12.7c0-7,6.4-12.7,17.7-12.7
				c2.7,0,5.8,0.4,8.1,1c1.1,0.3,2.3,0.4,3,0.4c0.8,1.8,1.6,5.9,1.6,9c-0.3,0.4-1.7,0.7-2.2,0.2c-1.1-3.5-3.5-8.3-11.8-8.3
				c-8.5,0-10.4,4.8-10.4,8.2c0,4.3,4.2,7.4,7.4,9.1l7,3.7c5.5,2.9,10.9,7.2,10.9,14.2C594.5,87.9,587.3,93.4,576,93.4z"/>
				<path class="st3" d="M619.8,68.6c-3.8,0-4,0.1-4,2.4v10.4c0,7.7,0.4,8.8,4.8,9.2l2.3,0.2c0.5,0.3,0.3,1.6-0.2,1.8
				c-4.3-0.1-7-0.2-10.1-0.2c-3.4,0-6.1,0.1-9.2,0.2c-0.5-0.2-0.6-1.4-0.2-1.8l1.3-0.2c4.4-0.7,4.6-1.5,4.6-9.2V54.8
				c0-7.7-0.6-9-4.7-9.3l-2.1-0.1c-0.5-0.3-0.3-1.6,0.2-1.8c3.9,0.1,6.6,0.2,10,0.2c3.1,0,5.8-0.1,9.2-0.2c0.5,0.2,0.6,1.5,0.2,1.8
				l-1.5,0.1c-4.6,0.4-4.8,1.5-4.8,9.3v8.5c0,2.3,0.2,2.4,4,2.4h22.7c3.8,0,4-0.1,4-2.4v-8.5c0-7.7-0.2-8.8-4.8-9.3l-1.5-0.1
				c-0.5-0.3-0.3-1.6,0.2-1.8c3.7,0.1,6.3,0.2,9.6,0.2c3.1,0,5.8-0.1,9.4-0.2c0.5,0.2,0.6,1.5,0.2,1.8l-1.7,0.1
				c-4.6,0.4-4.8,1.5-4.8,9.3v26.5c0,7.7,0.2,8.7,4.8,9.2l1.9,0.2c0.5,0.3,0.3,1.6-0.2,1.8c-3.8-0.1-6.5-0.2-9.6-0.2
				c-3.3,0-6.1,0.1-9.6,0.2c-0.5-0.2-0.6-1.4-0.2-1.8l1.5-0.2c4.8-0.7,4.8-1.5,4.8-9.2V71c0-2.2-0.2-2.4-4-2.4H619.8z"/>
				<path class="st3" d="M307.8,108.8c6.5-5.1,14.8-7.6,24.1-7.6c4.8,0,11.6,1,15.8,2.1c1.1,0.3,1.7,0.4,2.5,0.4
				c0.1,2,0.5,7.7,1.2,13.1c-0.4,0.6-1.8,0.7-2.4,0.2c-1.3-6.1-5.4-13-18.3-13c-13.7,0-25.3,8.6-25.3,27.1c0,18.7,11.9,29,26.5,29
				c11.5,0,16.6-7.5,18.7-12.7c0.6-0.4,2-0.3,2.3,0.4c-0.6,4.6-2.9,10.5-4.3,12.2c-1.1,0.2-2.1,0.5-3.1,0.9c-2,0.7-8.4,2-14.1,2
				c-8,0-15.7-1.6-22.2-6c-7.1-4.9-12.7-13-12.7-24.5C296.6,122.5,301.1,114.1,307.8,108.8z"/>
				<path class="st3" d="M356.7,137.6c0-14.7,11.6-26,27.6-26c17.9,0,26.9,12.3,26.9,25.3c0,14.9-11.9,25.7-26.9,25.7
				C367.1,162.6,356.7,150.9,356.7,137.6z M403.4,139.2c0-12.2-5.7-25.3-20.4-25.3c-8.1,0-18.5,5.2-18.5,21.4
				c0,10.9,5.6,25.1,20.8,25.1C394.6,160.3,403.4,153.7,403.4,139.2z"/>
				<path class="st3" d="M498.5,131.3c0-4.6-0.2-13.1-1.5-15.3c-0.5-0.9-2-1.4-3.9-1.5l-2-0.1c-0.5-0.5-0.3-1.5,0.2-1.8
				c3,0.1,5.9,0.2,8.9,0.2c3.3,0,5.4-0.1,8.2-0.2c0.6,0.4,0.5,1.3,0.2,1.8l-1.9,0.1c-2,0.1-3.4,0.8-3.9,1.8
				c-1.1,2.4-1.1,10.9-1.1,15v8.3c0,6.4-1.1,13.2-5.5,17.6c-3.4,3.5-9.1,5.4-14.9,5.4c-5.4,0-10.8-1-14.6-4.1
				c-4.1-3.2-6.1-8.6-6.1-17.4v-17.4c0-7.7-0.2-8.9-4.7-9.3l-2-0.1c-0.5-0.3-0.3-1.5,0.2-1.8c3.9,0.1,6.6,0.2,9.7,0.2
				c3.2,0,5.8-0.1,9.6-0.2c0.5,0.2,0.6,1.5,0.2,1.8l-1.9,0.1c-4.5,0.4-4.7,1.6-4.7,9.3v15.9c0,11.9,3.9,19.7,15.9,19.7
				c11.3,0,15.6-8.4,15.6-19.6V131.3z"/>
				<path class="st3" d="M589.3,122.1c0-5.5-0.3-6.9-4.2-7.2l-2.8-0.3c-0.3-0.3-0.5-1.8,0.1-1.8c4.7-0.3,10.5-0.6,18.6-0.6
				c5.4,0,10.6,0.4,14.5,2.1c3.7,1.6,6.6,4.5,6.6,9.3c0,5.4-3.6,8.1-8.8,10.2c0,0.7,0.7,1,1.6,1.1c4.7,0.7,11.6,4.5,11.6,12.4
				c0,8.6-7.4,14.4-23,14.4c-2.5,0-6.7-0.2-10.4-0.2c-3.8,0-6.7,0.1-9.9,0.2c-0.5-0.2-0.7-1.4-0.2-1.9l1.6-0.2
				c4.6-0.7,4.8-1.5,4.8-9.3V122.1z M596.4,132c0,2.1,0.1,2.2,4.5,2.1c8.8-0.3,13.6-2.5,13.6-9.5c0-7.3-6.3-10.1-12.9-10.1
				c-1.9,0-3.2,0.1-4,0.4c-0.9,0.2-1.2,0.6-1.2,1.9V132z M596.4,149.3c0,2.7,0.2,6.5,1.8,8.1c1.6,1.7,4.2,2.1,6.8,2.1
				c7.7,0,13.6-3,13.6-10.4c0-5.9-3.5-12.7-17.2-12.7c-4.7,0-5,0.4-5,1.9V149.3z"/>
				<g>
					<g>
						<path class="st3" d="M448.5,90.8l-2-0.2c-0.4,0-0.8-0.1-1.1-0.2c-3-0.5-4.2-3.2-5.6-5.7l-7.1-12.3c-1.2-2.1-2.5-4.8-5.3-5.2
						c7.3-0.9,13.8-5.1,13.8-12.2c0-8.3-8.2-12-16.5-12c-5,0-9.5,0.1-14.6,0.1c-2.8,0-6.1-0.1-8.9-0.1c-1.6,0-1.6,0.3-1.6,1.2
						c0,1.3,0.5,0.9,2.2,1c5.9,0.3,5.7,1.4,5.7,6.5V84c0,4.6,0.4,6-4.5,6.4c0,0-0.7,0.1-1.2,0.1l-2.1,0.2c-0.5,0.4-0.3,1.6,0.2,1.8
						c1.1,0,3-0.1,3-0.1c2.7-0.1,5.4-0.3,8.1-0.3c2.7,0,5.3,0.2,7.9,0.3v0c0.9,0,1.9,0.1,3,0.1c0.5-0.2,0.7-1.4,0.2-1.8l-2.1-0.2
						c-0.4,0-1.1-0.1-1.1-0.1c-4.9-0.3-4.6-1.7-4.6-6.5V71.8c0-0.7-0.1-2.6,0.4-3.2c0.4-0.5,1.2-0.4,1.9-0.4c6.6,0,6.6,0.6,9.7,6.2
						l8.6,15.4c0.7,1.2,1.2,2.7,3,2.7h7.4c0.9,0,1.9,0.1,3,0.1C448.9,92.4,449,91.2,448.5,90.8z M418.7,66.6c-1.5,0-4.5,0.6-4.5-1.4
						V51c0-5.5,0.2-6.3,6.8-6.3c7.8,0,12.6,3.9,12.6,11.2c0,3.2-1.1,6.1-4,8.1C426.3,66.2,422.7,66.6,418.7,66.6z"/>
					</g>
				</g>
				<g>
					<path class="st3" d="M420.3,124c0-7.7-0.2-8.9-5.3-9.3l-2-0.1c-0.5-0.3-0.3-1.6,0.2-1.8c4.5,0.1,7.3,0.2,10.5,0.2
					c3.2,0,5.9-0.1,10-0.2c0.5,0.2,0.6,1.5,0.2,1.8l-1.9,0.1c-4.8,0.4-4.9,1.5-4.9,9.3v25.7c0,4.6,0.2,6.6,1.7,8
					c0.9,0.8,2.4,1.7,8.8,1.7c6.9,0,8.6-0.3,9.9-1c1.6-0.9,3.7-3.5,5.4-7.3c0.5-0.4,2-0.1,2,0.4c0,0.8-2.3,8.3-3.4,10.3
					c-4.1-0.1-11.8-0.2-20.2-0.2h-7.5c-3.4,0-6,0.1-10.5,0.2c-0.5-0.2-0.6-1.4-0.2-1.8l2.4-0.2c4.7-0.4,4.9-1.5,4.9-9.2V124z"/>
					<path class="st3" d="M637.6,124.2c0-7.8-0.2-9.1-4.9-9.4l-2-0.1c-0.5-0.3-0.3-1.6,0.2-1.8c4,0.1,6.7,0.2,10,0.2
					c3.2,0,5.9-0.1,9.9-0.2c0.5,0.2,0.6,1.5,0.2,1.8l-2,0.1c-4.7,0.4-4.9,1.6-4.9,9.4v26.2c0,7.8,0.2,8.8,4.9,9.4l2,0.2
					c0.5,0.3,0.3,1.6-0.2,1.8c-4-0.1-6.7-0.2-9.9-0.2c-3.3,0-6.1,0.1-10,0.2c-0.5-0.2-0.6-1.4-0.2-1.8l2-0.2
					c4.7-0.5,4.9-1.5,4.9-9.4V124.2z"/>
					<path class="st3" d="M573.9,159.8c-0.4,0-1.2-0.1-1.2-0.1c-0.8-0.1-1.6-0.2-2.2-0.9c-1-1.1-0.9-4.2-0.9-5.5V121
					c0-1.4-0.3-4.5,0.7-5.6c0.5-0.6,1.6-0.7,2.5-0.7v0c0.6,0,0.6,0,1.1-0.1l2-0.1c0.5-0.3,0.3-1.6-0.2-1.8c-1.1,0-2.1,0-3,0.1v0
					h-8.7c-0.9,0-1.8,0-2.3,1l-17.7,36.9L528.4,115c-0.5-1.3-0.6-2.3-2.2-2.3h-9.1c-0.9,0-2,0-3.1-0.1c-0.5,0.2-0.7,1.5-0.2,1.8
					l2,0.1c0.4,0,1.2,0.1,1.2,0.1c3.4,0.2,3.6,1,3.3,4.6l-2.7,34.7c-0.2,3.5-0.4,5.3-4.1,5.7c0,0-0.8,0.1-1.2,0.1l-2,0.2
					c-0.5,0.4-0.3,1.6,0.2,1.8c1.1,0,3-0.1,3-0.1c1.8-0.1,3.7-0.3,5.6-0.3c2,0,4.1,0.2,6.1,0.3v0c0.9,0,1.9,0.1,3,0.1
					c0.5-0.2,0.7-1.4,0.2-1.8l-2-0.2c-0.5,0-1.1-0.1-1.1-0.1c-5.3-0.4-5.1-4.1-4.8-8.6l2.5-32.2h0.6l17,39.7
					c0.2,0.5,0.4,1.5,1.3,1.5c0.8,0,1-0.9,1.3-1.4l19.1-40.7h0.6v35.4c0,1.4,0.2,4.3-1.3,5.4c-0.8,0.6-3.2,0.9-3.2,0.9
					c-0.3,0.1-0.7,0.1-1.1,0.1l-2,0.2c-0.5,0.4-0.3,1.6,0.2,1.8c1.1,0,3-0.1,3-0.1c2.8-0.1,5.6-0.3,8.4-0.3c2,0,6,0.2,6,0.2
					c0.9,0,2,0.1,3.1,0.2c0.5-0.2,0.7-1.4,0.2-1.8L573.9,159.8z"/>
					<g>
						<g>
							<path class="st3" d="M706.9,160l-0.3-0.2c-0.4,0-0.8-0.1-1.1-0.1c-3.2-0.7-4.4-4.6-5.6-7.3l-16.4-38.8
							c-0.2-0.5-0.5-1.5-1.1-1.5c-0.9,0-1.1,1.1-1.4,1.7l-15.7,38.8c-0.6,1.5-2,5-3.1,6.1c-0.8,0.8-1.9,1-3,1.1c0,0-0.9,0.1-1.3,0.1
							L656,160c-0.5,0.4-0.3,1.6,0.2,1.8c1.1,0,3-0.1,3-0.1c2.1,0,4.3-0.3,6.4-0.3c1.8,0,3.6,0.2,5.4,0.3c0,0,1.9,0.1,3,0.1
							c0.5-0.2,0.7-1.4,0.2-1.8l-2-0.2c-0.4,0-1.1-0.1-1.1-0.1c-1.9-0.2-4.2-0.5-4.2-2.6c0-1.4,0.7-3,1.1-4.3l2.4-5.8
							c1.2-2.8,0.7-3.1,4-3.1h11c3.9,0,3.3,0,5,3.9l2.6,5.9c0.4,1,1.1,2.7,1.1,3.8c0,1.9-2.1,2.1-4.1,2.2c0,0-0.7,0.1-1.2,0.1
							l-2,0.1c-0.5,0.4-0.3,1.6,0.2,1.8c1.1,0,3-0.1,3-0.1c2.3-0.1,4.6-0.3,6.9-0.3c2.8,0,5.7,0.2,8.5,0.3v0c0.9,0,0.1,0.1,1.2,0.1
							C707.2,161.6,707.4,160.4,706.9,160z M685.4,141.7h-9.6c-0.3,0-3,0.3-3-0.5c0-0.2,0.2-0.7,0.2-0.9l5.7-14.2
							c0.2-0.4,0.7-2.3,1.4-2.3c0.5,0,1.2,2,1.3,2.3l5.7,13.3c0,0.2,0.6,1.4,0.6,1.7C687.8,141.9,685.9,141.7,685.4,141.7z"/>
						</g>
					</g>
				</g>
			</g>
			<g>
				<polygon class="st1" points="225.7,106 231,108.2 243,99.9 			"/>
				<path class="st1" d="M25.2,96.7l-14.1-5l0.7-1.7l15.9,5.3l0.1,0l2.1-1.2l0.8-0.5l-17.4-7.4l0.7-1.8L52.9,100l1.3-0.5L15.7,80.8
				l0.9-1.8l40.7,19l0.6-0.3L18.4,75.3l0.8-1.7l57,31c0.5-0.9,1.4-2.4,1.9-3.3C56.5,81,35.5,65.6,35.5,65.6s21.5,14.4,48.1,27.8
				c0.9-1.1,1.6-2,2.5-3L37.5,47.6l1.3-1.3l39.3,33.5L41.7,43.3l1.4-1.4l40.8,39.5l-38-42.2l1.5-1.3l35.1,37.6L50.4,35.1l1.4-1.3
				l41.1,50c1.1-0.9,1.9-1.6,3.1-2.5c-12.4-26.9-26-48.8-26-48.8s14.5,21.3,34,43.6c1.2-0.7,2.4-1.3,3.6-1.9l-0.2-0.1L78.5,16.6
				l1.7-0.8l23.9,45.7L84,14.2l1.8-0.8l23.1,51.9L89.4,11.9l1.8-0.7l18.5,48.1L95.2,9.8l1.8-0.6l19.2,61.4l0,0.2l0,0
				c1.3-0.4,2.6-0.8,3.9-1.2c-1.5-29.5-5.8-54.7-5.8-54.7s5.4,25,15.1,52.9c1.3-0.2,2.7-0.3,4.1-0.4l0-0.1h0.2l-0.1-0.1L128.2,3
				l1.9-0.1l5,51.4l-0.9-51.5l2-0.1l2,56.8l2-56.8l2,0.1l-0.9,51.5l5-51.4l1.9,0.1l-5.2,64.1l-0.1,0.1h0l0,0h0.1
				c1.3,0.1,2.7,0.2,4,0.4c9.7-27.8,15.1-52.8,15.1-52.8s-4.3,25.1-5.8,54.6c1.3,0.3,2.6,0.7,3.9,1.2l19.2-61.2l1.8,0.6l-14.6,49.5
				l18.5-48.1l1.8,0.7l-19.4,53.4l23.1-51.9l1.8,0.8L172,61.8l23.9-45.7l1.7,0.8l-28.7,57.3l0,0c1.2,0.6,2.3,1.2,3.5,1.8
				c19.4-22.2,33.8-43.4,33.8-43.4s-13.5,21.7-25.9,48.5c1.1,0.8,2.2,1.7,3.2,2.6l40.6-49.5l1.4,1.3l-32.1,40.4l35.1-37.6l1.5,1.3
				l-38,42.2l40.8-39.5l1.4,1.4l-36.4,36.4l39.3-33.5l1.3,1.3l-48.1,42.3l0,0c0.8,0.9,1.6,1.9,2.4,2.9
				c26.4-13.3,47.7-27.6,47.7-27.6s-20.7,15.2-42.3,35.4c0.6,1,1.5,2.7,2.1,3.7l56.2-30.6l0.8,1.7l-44.9,25.5l46.7-21.7l0.9,1.8
				l-43.5,21.2l0.8,0.3l44.2-17.9l0.7,1.8l-41.1,17.5l0.8,0.3l27.4-9.1l4.1-2.9l1.4,1l9-3l0.7,1.7l-7.8,2.7l11.3,8.6l3.6,2
				C257.3,45,202.8,0,137.8,0C71.6,0,16.4,46.6,3.1,108.8c0.2-0.1,0.3-0.2,0.5-0.2l1.7-0.7l1-0.5L25.2,96.7z"/>
			</g>
			<path class="st2" d="M2.3,162.8c0,0,20.3-4.1,37.3-4.1c44.7,0,106.5,25.2,151.4,25.2c32.9,0,65-9,82.5-22.2
			c1.4-7.8,2.1-15.8,2.1-24c0-11.1-1.3-21.8-3.8-32.2l-18.7-10.4l-21.9,15.4l-14.8-5.7c-5,2.5-35.8,23.1-35.8,23.1l-11.8-8.6
			l-12.7-2.5l-16.9-12.3l-19.4,13.3c0,0-21.7,12.6-22.4,12.6c-0.7,0-26.1-20.1-26.1-20.1L59.4,98c-2,1.3-10,4.9-10,4.9L49,103
			l-7.7-2.4l-9.4-5L3.6,108.6c-0.2,0.1-0.3,0.2-0.5,0.2c-2,9.3-3.1,19-3.1,29C0,146.3,0.8,154.7,2.3,162.8z"/>
		</g>
	</g>
</svg>
