<svg width="56" height="32" viewBox="0 0 56 32" fill="none"
	xmlns="http://www.w3.org/2000/svg">
	<path d="M9.325 7.2C10.275 8.2 10.75 9.375 10.75 10.725C10.75 12.075 10.25 13.25 9.25 14.25C8.3 15.2 7.025 15.675 5.425 15.675C3.825 15.675 2.55 14.975 1.6 13.575C0.65 12.175 0.175 10.575 0.175 8.775C0.175 6.925 0.875 5.125 2.275 3.375C3.675 1.625 5.3 0.749996 7.15 0.749996C8 0.749996 8.425 1.025 8.425 1.575C8.425 1.975 8.2 2.225 7.75 2.325C5.35 3.075 4.15 4.4 4.15 6.3C4.8 5.9 5.575 5.7 6.475 5.7C7.425 5.7 8.375 6.2 9.325 7.2ZM26.5 7.2C27.45 8.2 27.925 9.375 27.925 10.725C27.925 12.075 27.425 13.25 26.425 14.25C25.475 15.2 24.2 15.675 22.6 15.675C21 15.675 19.725 14.975 18.775 13.575C17.825 12.175 17.35 10.575 17.35 8.775C17.35 6.925 18.05 5.125 19.45 3.375C20.85 1.625 22.475 0.749996 24.325 0.749996C25.175 0.749996 25.6 1.025 25.6 1.575C25.6 1.975 25.375 2.225 24.925 2.325C22.525 3.075 21.325 4.4 21.325 6.3C21.975 5.9 22.75 5.7 23.65 5.7C24.6 5.7 25.55 6.2 26.5 7.2Z" fill="black"/>
</svg>
